<svg width="2504" height="1325" xmlns="http://www.w3.org/2000/svg" xmlns:xlink="http://www.w3.org/1999/xlink" xml:space="preserve" overflow="hidden"><defs><clipPath id="clip0"><rect x="555" y="121" width="2504" height="1325"/></clipPath></defs><g clip-path="url(#clip0)" transform="translate(-555 -121)"><path d="M555 165.521C555 140.933 574.933 121 599.521 121L3014.48 121C3039.07 121 3059 140.933 3059 165.521L3059 1401.48C3059 1426.07 3039.07 1446 3014.48 1446L599.521 1446C574.933 1446 555 1426.07 555 1401.48Z" fill="#E4E8EC" fill-rule="evenodd"/><rect x="1549" y="378" width="418" height="557" stroke="#61CBF4" stroke-width="13.75" stroke-linecap="round" stroke-linejoin="round" stroke-miterlimit="10" fill="#CAEEFB"/><path d="M1641.59 378 1874.79 378 1874.79 424.128 1920.9 424.128 1920.9 470.257 1967 470.257 1967 516.77 1967 519.076 1967 565.204 1872.49 565.204 1872.49 519.076 1826 519.076 1826 472.563 1690 472.563 1690 519.076 1643.9 519.076 1643.9 562.898 1736.1 562.898 1736.1 609.026 1828.31 609.026 1828.31 655.155 1920.9 655.155 1920.9 701.667 1967 701.667 1967 747.796 1967 750.102 1967 793.924 1967 796.231 1967 842.743 1920.9 842.743 1920.9 888.872 1874.79 888.872 1874.79 935 1641.59 935 1641.59 888.872 1595.49 888.872 1595.49 842.743 1549 842.743 1549 796.231 1549 793.924 1549 747.796 1643.9 747.796 1643.9 793.924 1690 793.924 1690 840.437 1826 840.437 1826 793.924 1872.49 793.924 1872.49 750.102 1779.9 750.102 1779.9 703.974 1687.69 703.974 1687.69 657.461 1595.49 657.461 1595.49 611.333 1549 611.333 1549 565.204 1549 562.898 1549 519.076 1549 516.77 1549 470.257 1595.49 470.257 1595.49 424.128 1641.59 424.128Z" fill="#163E64" fill-rule="evenodd"/><rect x="2460" y="563" width="419" height="557" stroke="#61CBF4" stroke-width="10.3125" stroke-linecap="round" stroke-linejoin="round" stroke-miterlimit="10" fill="#CAEEFB"/><path d="M2460 563 2554.74 563 2554.74 609.128 2554.74 611.435 2554.74 655.257 2601.34 655.257 2601.34 701.77 2601.34 704.076 2601.34 747.898 2647.55 747.898 2647.55 794.026 2647.55 796.333 2647.55 840.539 2691.45 840.539 2691.45 796.333 2691.45 794.026 2691.45 747.898 2737.66 747.898 2737.66 704.076 2737.66 701.77 2737.66 655.257 2783.88 655.257 2783.88 611.435 2783.88 609.128 2783.88 563 2879 563 2879 609.128 2879 611.435 2879 657.563 2832.4 657.563 2832.4 701.77 2832.4 704.076 2832.4 750.204 2786.19 750.204 2786.19 794.026 2786.19 796.333 2786.19 842.845 2739.97 842.845 2739.97 886.667 2739.97 888.974 2739.97 935.102 2693.76 935.102 2693.76 978.924 2693.76 981.23 2693.76 1027.74 2647.55 1027.74 2647.55 1073.87 2601.34 1073.87 2601.34 1120 2460 1120 2460 1073.87 2460 1071.57 2460 1025.44 2552.43 1025.44 2552.43 978.924 2599.02 978.924 2599.02 935.102 2599.02 932.796 2599.02 888.974 2599.02 886.667 2599.02 842.845 2552.43 842.845 2552.43 796.333 2552.43 794.026 2552.43 750.204 2506.21 750.204 2506.21 704.076 2506.21 701.77 2506.21 657.563 2460 657.563 2460 611.435 2460 609.128Z" fill="#163E64" fill-rule="evenodd"/><rect x="2029" y="562" width="375" height="373" stroke="#61CBF4" stroke-width="13.75" stroke-linecap="round" stroke-linejoin="round" stroke-miterlimit="10" fill="#CAEEFB"/><path d="M2171.2 658.757 2171.2 705.202 2124.76 705.202 2124.76 795.798 2171.2 795.798 2171.2 842.243 2261.8 842.243 2261.8 795.798 2308.24 795.798 2308.24 705.202 2261.8 705.202 2261.8 658.757ZM2121.89 563 2310.54 563 2310.54 609.445 2357.55 609.445 2357.55 656.463 2404 656.463 2404 702.908 2404 702.908 2404 798.092 2404 798.092 2404 845.11 2357.55 845.11 2357.55 891.555 2310.54 891.555 2310.54 938 2121.89 938 2121.89 891.555 2075.45 891.555 2075.45 845.11 2029 845.11 2029 798.092 2029 795.798 2029 705.202 2029 702.908 2029 656.463 2075.45 656.463 2075.45 609.445 2121.89 609.445Z" fill="#163E64" fill-rule="evenodd"/><path d="M2.29168 22.9168 2.29202 719.537C2.29202 720.802 1.266 721.828 0.000350867 721.828-1.2653 721.828-2.29132 720.802-2.29132 719.537L-2.29166 22.9168C-2.29166 21.6511-1.26564 20.6251 1.00255e-05 20.6251 1.26566 20.6251 2.29168 21.6511 2.29168 22.9168ZM-13.75 27.5 0 0 13.75 27.5ZM13.7503 714.952 0.000360892 742.452-13.7497 714.952Z" transform="matrix(1 0 0 -1 1034.5 1120.95)"/><text font-family="Arial,Arial_MSFontService,sans-serif" font-weight="400" font-size="55" transform="matrix(-1.83697e-16 -1 1 -1.83697e-16 1012.01 880)">fontHeight</text><text font-family="Arial,Arial_MSFontService,sans-serif" font-weight="400" font-size="55" transform="matrix(1 0 0 1 715 365)">Normal </text><text font-family="Arial,Arial_MSFontService,sans-serif" font-weight="400" font-size="55" transform="matrix(1 0 0 1 818.491 431)">Top</text><text font-family="Arial,Arial_MSFontService,sans-serif" font-weight="400" font-size="55" transform="matrix(1 0 0 1 730.468 1107)">Normal</text><text font-family="Arial,Arial_MSFontService,sans-serif" font-weight="400" font-size="55" transform="matrix(1 0 0 1 732.76 1173)">Bottom</text><text font-family="Arial,Arial_MSFontService,sans-serif" font-weight="400" font-size="55" transform="matrix(1 0 0 1 647.968 549)">Alternative</text><text font-family="Arial,Arial_MSFontService,sans-serif" font-weight="400" font-size="55" transform="matrix(1 0 0 1 818.491 615)">Top</text><text font-family="Arial,Arial_MSFontService,sans-serif" font-weight="400" font-size="55" transform="matrix(1 0 0 1 647.968 920)">Alternative</text><text font-family="Arial,Arial_MSFontService,sans-serif" font-weight="400" font-size="55" transform="matrix(1 0 0 1 732.76 986)">Bottom</text><text font-family="Arial,Arial_MSFontService,sans-serif" font-weight="400" font-size="55" transform="matrix(1 0 0 1 2399.88 249)">: Glyph Encoding Area</text><path d="M2.29168 22.9168 2.29201 531.095C2.29201 532.361 1.266 533.387 0.000347457 533.387-1.26531 533.387-2.29132 532.361-2.29132 531.095L-2.29165 22.9168C-2.29165 21.6511-1.26564 20.6251 1.34355e-05 20.6251 1.26567 20.6251 2.29168 21.6511 2.29168 22.9168ZM-13.75 27.5 0 0 13.75 27.5ZM13.7503 526.512 0.000360892 554.012-13.7497 526.512Z" transform="matrix(1 0 0 -1 1145.5 932.512)"/><path d="M2.29171 22.9167 2.29198 160.991C2.29199 162.257 1.26597 163.283 0.000320419 163.283-1.26533 163.283-2.29135 162.257-2.29135 160.991L-2.29162 22.9167C-2.29162 21.651-1.26561 20.625 4.04735e-05 20.625 1.26569 20.625 2.29171 21.651 2.29171 22.9167ZM-13.7499 27.5 0 0 13.7501 27.5ZM13.7503 156.408 0.000360892 183.908-13.7497 156.408Z" transform="matrix(1 0 0 -1 1252.5 562.408)"/><text font-family="Arial,Arial_MSFontService,sans-serif" font-weight="400" font-size="55" transform="matrix(-1.83697e-16 -1 1 -1.83697e-16 1220.2 542)">altTop</text><rect x="1317" y="378" width="185" height="741" stroke="#61CBF4" stroke-width="13.75" stroke-linecap="round" stroke-linejoin="round" stroke-miterlimit="10" fill="#CAEEFB"/><path d="M1455.35 380 1504 380 1504 425.776 1504 425.776 1504 474.223 1458.01 474.223 1458.01 563.868 1458.01 566.157 1458.01 611.934 1411.64 611.934 1411.64 885.066 1458.01 885.066 1458.01 931.224 1458.01 933.513 1458.01 977 1458.01 979.289 1458.01 1022.78 1504 1022.78 1504 1071.22 1504 1071.22 1504 1117 1455.35 1117 1455.35 1071.22 1409.36 1071.22 1409.36 1025.07 1363.37 1025.07 1363.37 979.289 1363.37 977 1363.37 933.513 1317 933.513 1317 887.355 1317 885.066 1317 611.934 1317 609.645 1317 563.868 1363.37 563.868 1363.37 471.934 1409.36 471.934 1409.36 425.776 1455.35 425.776Z" fill="#163E64" fill-rule="evenodd"/><path d="M946.5 935.5 2961.14 935.5" stroke="#000000" stroke-width="4.58333" stroke-linecap="round" stroke-linejoin="round" stroke-miterlimit="10" stroke-dasharray="13.75 18.3333" fill="none" fill-rule="evenodd"/><path d="M946.5 563.5 2961.14 563.5" stroke="#000000" stroke-width="4.58333" stroke-linecap="round" stroke-linejoin="round" stroke-miterlimit="10" stroke-dasharray="13.75 18.3333" fill="none" fill-rule="evenodd"/><path d="M946.5 1120.5 2961.14 1120.5" stroke="#000000" stroke-width="4.58333" stroke-linecap="round" stroke-linejoin="round" stroke-miterlimit="10" fill="none" fill-rule="evenodd"/><path d="M946.5 378.5 2961.14 378.5" stroke="#000000" stroke-width="4.58333" stroke-linecap="round" stroke-linejoin="round" stroke-miterlimit="10" fill="none" fill-rule="evenodd"/><rect x="1081" y="524" width="47.9998" height="259" fill="#E4E8EC"/><text font-family="Arial,Arial_MSFontService,sans-serif" font-weight="400" font-size="55" transform="matrix(-1.83697e-16 -1 1 -1.83697e-16 1124.7 769)">altBottom</text><path d="M2007 561C2007 550.507 2015.73 542 2026.5 542 2037.27 542 2046 550.507 2046 561 2046 571.493 2037.27 580 2026.5 580 2015.73 580 2007 571.493 2007 561Z" stroke="#FFFFFF" stroke-width="10.3125" stroke-linecap="round" stroke-linejoin="round" stroke-miterlimit="10" fill="#0070C0" fill-rule="evenodd"/><path d="M2439 561C2439 550.507 2447.73 542 2458.5 542 2469.27 542 2478 550.507 2478 561 2478 571.493 2469.27 580 2458.5 580 2447.73 580 2439 571.493 2439 561Z" stroke="#FFFFFF" stroke-width="10.3125" stroke-linecap="round" stroke-linejoin="round" stroke-miterlimit="10" fill="#0070C0" fill-rule="evenodd"/><text font-family="Arial,Arial_MSFontService,sans-serif" font-weight="400" font-size="55" transform="matrix(1 0 0 1 943.27 254)">Origin Point of Glyph</text><path d="M1528 376C1528 365.507 1536.73 357 1547.5 357 1558.27 357 1567 365.507 1567 376 1567 386.493 1558.27 395 1547.5 395 1536.73 395 1528 386.493 1528 376Z" stroke="#FFFFFF" stroke-width="10.3125" stroke-linecap="round" stroke-linejoin="round" stroke-miterlimit="10" fill="#0070C0" fill-rule="evenodd"/><path d="M1294 376C1294 365.507 1302.73 357 1313.5 357 1324.27 357 1333 365.507 1333 376 1333 386.493 1324.27 395 1313.5 395 1302.73 395 1294 386.493 1294 376Z" stroke="#FFFFFF" stroke-width="10.3125" stroke-linecap="round" stroke-linejoin="round" stroke-miterlimit="10" fill="#0070C0" fill-rule="evenodd"/><path d="M1231.5 274.5 1304.95 364.62" stroke="#000000" stroke-width="4.58333" stroke-linecap="round" stroke-linejoin="round" stroke-miterlimit="10" fill="none" fill-rule="evenodd"/><rect x="2244" y="195" width="127" height="70.0001" stroke="#61CBF4" stroke-width="10.3125" stroke-linecap="round" stroke-linejoin="round" stroke-miterlimit="10" fill="#CAEEFB"/><text font-family="Arial,Arial_MSFontService,sans-serif" font-weight="400" font-size="55" transform="matrix(1 0 0 1 1388.34 1264)">0</text><text font-family="Arial,Arial_MSFontService,sans-serif" font-weight="400" font-size="55" transform="matrix(1 0 0 1 1388.34 1351)">0</text><text font-family="Arial,Arial_MSFontService,sans-serif" font-weight="400" font-size="55" transform="matrix(1 0 0 1 1741.26 1264)">0</text><text font-family="Arial,Arial_MSFontService,sans-serif" font-weight="400" font-size="55" transform="matrix(1 0 0 1 1741.26 1351)">1</text><text font-family="Arial,Arial_MSFontService,sans-serif" font-weight="400" font-size="55" transform="matrix(1 0 0 1 2206.47 1264)">1</text><text font-family="Arial,Arial_MSFontService,sans-serif" font-weight="400" font-size="55" transform="matrix(1 0 0 1 2206.47 1351)">1</text><text font-family="Arial,Arial_MSFontService,sans-serif" font-weight="400" font-size="55" transform="matrix(1 0 0 1 2673.97 1264)">1</text><text font-family="Arial,Arial_MSFontService,sans-serif" font-weight="400" font-size="55" transform="matrix(1 0 0 1 2673.97 1351)">0</text><text font-family="Arial,Arial_MSFontService,sans-serif" font-weight="400" font-size="55" transform="matrix(1 0 0 1 1075.37 1264)">useAltTop</text><text font-family="Arial,Arial_MSFontService,sans-serif" font-weight="400" font-size="55" transform="matrix(1 0 0 1 1331.67 1264)">:</text><text font-family="Arial,Arial_MSFontService,sans-serif" font-weight="400" font-size="55" transform="matrix(1 0 0 1 989.64 1351)">useAltBottom</text><text font-family="Arial,Arial_MSFontService,sans-serif" font-weight="400" font-size="55" transform="matrix(1 0 0 1 1331.67 1351)">:</text></g></svg>