<svg width="3567" height="1799" xmlns="http://www.w3.org/2000/svg" xmlns:xlink="http://www.w3.org/1999/xlink" xml:space="preserve" overflow="hidden"><defs><clipPath id="clip0"><rect x="142" y="464" width="3567" height="1799"/></clipPath></defs><g clip-path="url(#clip0)" transform="translate(-142 -464)"><path d="M142 524.445C142 491.062 169.062 464 202.445 464L3648.56 464C3681.94 464 3709 491.062 3709 524.445L3709 2202.56C3709 2235.94 3681.94 2263 3648.56 2263L202.445 2263C169.062 2263 142 2235.94 142 2202.56Z" fill="#E4E8EC" fill-rule="evenodd"/><path d="M2684 766.113C2684 776.117 2762.13 784.226 2858.5 784.226 2954.87 784.226 3033 776.117 3033 766.113L3033 1532.89C3033 1542.89 2954.87 1551 2858.5 1551 2762.13 1551 2684 1542.89 2684 1532.89Z" fill="#B4E5A2" fill-rule="evenodd"/><path d="M2684 766.113C2684 756.11 2762.13 748 2858.5 748 2954.87 748 3033 756.11 3033 766.113 3033 776.117 2954.87 784.226 2858.5 784.226 2762.13 784.226 2684 776.117 2684 766.113Z" fill="#D2EFC7" fill-rule="evenodd"/><path d="M3033 766.113C3033 776.117 2954.87 784.226 2858.5 784.226 2762.13 784.226 2684 776.117 2684 766.113 2684 756.11 2762.13 748 2858.5 748 2954.87 748 3033 756.11 3033 766.113L3033 1532.89C3033 1542.89 2954.87 1551 2858.5 1551 2762.13 1551 2684 1542.89 2684 1532.89L2684 766.113" stroke="#000000" stroke-width="2.29167" stroke-linecap="round" stroke-linejoin="round" stroke-miterlimit="10" fill="none" fill-rule="evenodd"/><rect x="2250" y="751" width="391" height="775" stroke="#000000" stroke-width="2.29167" stroke-linecap="round" stroke-linejoin="round" stroke-miterlimit="10" fill="#96DCF8"/><rect x="2233" y="767" width="392" height="776" stroke="#000000" stroke-width="2.29167" stroke-linecap="round" stroke-linejoin="round" stroke-miterlimit="10" fill="#96DCF8"/><rect x="2217" y="784" width="391" height="775" stroke="#000000" stroke-width="2.29167" stroke-linecap="round" stroke-linejoin="round" stroke-miterlimit="10" fill="#96DCF8"/><rect x="2200" y="801" width="392" height="775" stroke="#000000" stroke-width="2.29167" stroke-linecap="round" stroke-linejoin="round" stroke-miterlimit="10" fill="#96DCF8"/><rect x="891" y="729" width="1140" height="1403" stroke="#000000" stroke-width="2.29167" stroke-linecap="round" stroke-linejoin="round" stroke-miterlimit="10" fill="#FFFFFF"/><rect x="875" y="745" width="1140" height="1403" stroke="#000000" stroke-width="2.29167" stroke-linecap="round" stroke-linejoin="round" stroke-miterlimit="10" fill="#FFFFFF"/><rect x="858" y="761" width="1141" height="1403" stroke="#000000" stroke-width="2.29167" stroke-linecap="round" stroke-linejoin="round" stroke-miterlimit="10" fill="#FFFFFF"/><rect x="842" y="777" width="1140" height="1403" stroke="#000000" stroke-width="2.29167" stroke-linecap="round" stroke-linejoin="round" stroke-miterlimit="10" fill="#FFFFFF"/><rect x="357" y="801" width="344" height="573" stroke="#000000" stroke-width="2.29167" stroke-linecap="round" stroke-linejoin="round" stroke-miterlimit="10" fill="#FFFFFF"/><rect x="340" y="818" width="344" height="573" stroke="#000000" stroke-width="2.29167" stroke-linecap="round" stroke-linejoin="round" stroke-miterlimit="10" fill="#FFFFFF"/><rect x="324" y="834" width="343" height="573" stroke="#000000" stroke-width="2.29167" stroke-linecap="round" stroke-linejoin="round" stroke-miterlimit="10" fill="#FFFFFF"/><rect x="307" y="851" width="344" height="573" stroke="#000000" stroke-width="2.29167" stroke-linecap="round" stroke-linejoin="round" stroke-miterlimit="10" fill="#FFFFFF"/><rect x="419.5" y="851.5" width="114" height="114" stroke="#000000" stroke-width="4.58333" stroke-linecap="round" stroke-linejoin="round" stroke-miterlimit="10"/><rect x="381.5" y="965.5" width="76" height="116" stroke="#000000" stroke-width="4.58333" stroke-linecap="round" stroke-linejoin="round" stroke-miterlimit="10"/><rect x="342.5" y="1083.5" width="76" height="114" stroke="#000000" stroke-width="4.58333" stroke-linecap="round" stroke-linejoin="round" stroke-miterlimit="10"/><rect x="307.5" y="1197.5" width="76" height="117" stroke="#000000" stroke-width="4.58333" stroke-linecap="round" stroke-linejoin="round" stroke-miterlimit="10"/><rect x="496.5" y="965.5" width="76" height="116" stroke="#000000" stroke-width="4.58333" stroke-linecap="round" stroke-linejoin="round" stroke-miterlimit="10"/><rect x="535.5" y="1083.5" width="74.9999" height="114" stroke="#000000" stroke-width="4.58333" stroke-linecap="round" stroke-linejoin="round" stroke-miterlimit="10"/><rect x="575.5" y="1197.5" width="74.9999" height="117" stroke="#000000" stroke-width="4.58333" stroke-linecap="round" stroke-linejoin="round" stroke-miterlimit="10"/><rect x="380.5" y="1168.5" width="194" height="63.0002" stroke="#000000" stroke-width="4.58333" stroke-linecap="round" stroke-linejoin="round" stroke-miterlimit="10"/><text font-family="Noto Sans JP,Noto Sans JP_MSFontService,sans-serif" font-weight="700" font-size="55" transform="matrix(1 0 0 1 297.226 656)">Original Glyphs</text><text font-family="Noto Sans JP,Noto Sans JP_MSFontService,sans-serif" font-weight="700" font-size="55" transform="matrix(1 0 0 1 713.737 656)"> </text><text font-family="Noto Sans JP,Noto Sans JP_MSFontService,sans-serif" font-weight="700" font-size="55" transform="matrix(1 0 0 1 1224.47 656)">Scan and Analysis</text><text font-family="Noto Sans JP,Noto Sans JP_MSFontService,sans-serif" font-weight="700" font-size="55" transform="matrix(1 0 0 1 1708.01 656)"> </text><rect x="1397" y="828" width="262" height="45.0001" stroke="#000000" stroke-width="2.29167" stroke-linecap="round" stroke-linejoin="round" stroke-miterlimit="10" fill="#FFFFFF"/><rect x="1397" y="892" width="262" height="45.0001" stroke="#000000" stroke-width="2.29167" stroke-linecap="round" stroke-linejoin="round" stroke-miterlimit="10" fill="#FFFFFF"/><rect x="1397" y="893" width="50.9999" height="44" stroke="#000000" stroke-width="2.29167" stroke-linecap="round" stroke-linejoin="round" stroke-miterlimit="10"/><rect x="1397" y="1020" width="262" height="45.0001" stroke="#000000" stroke-width="2.29167" stroke-linecap="round" stroke-linejoin="round" stroke-miterlimit="10" fill="#FFFFFF"/><rect x="1397" y="1021" width="159" height="44" stroke="#000000" stroke-width="2.29167" stroke-linecap="round" stroke-linejoin="round" stroke-miterlimit="10"/><rect x="1397" y="1083" width="262" height="44" stroke="#000000" stroke-width="2.29167" stroke-linecap="round" stroke-linejoin="round" stroke-miterlimit="10" fill="#FFFFFF"/><rect x="1448" y="1083" width="213" height="44" stroke="#000000" stroke-width="2.29167" stroke-linecap="round" stroke-linejoin="round" stroke-miterlimit="10"/><rect x="1397" y="1514" width="262" height="44" stroke="#000000" stroke-width="2.29167" stroke-linecap="round" stroke-linejoin="round" stroke-miterlimit="10" fill="#FFFFFF"/><rect x="1499" y="1514" width="107" height="44" stroke="#000000" stroke-width="2.29167" stroke-linecap="round" stroke-linejoin="round" stroke-miterlimit="10"/><rect x="1397" y="1577" width="262" height="44" stroke="#000000" stroke-width="2.29167" stroke-linecap="round" stroke-linejoin="round" stroke-miterlimit="10" fill="#FFFFFF"/><rect x="1499" y="1579" width="160" height="44" stroke="#000000" stroke-width="2.29167" stroke-linecap="round" stroke-linejoin="round" stroke-miterlimit="10"/><rect x="1397" y="1707" width="262" height="45" stroke="#000000" stroke-width="2.29167" stroke-linecap="round" stroke-linejoin="round" stroke-miterlimit="10" fill="#FFFFFF"/><rect x="1575" y="1709" width="83.9999" height="44" stroke="#000000" stroke-width="2.29167" stroke-linecap="round" stroke-linejoin="round" stroke-miterlimit="10"/><rect x="1397" y="1212" width="262" height="44" stroke="#000000" stroke-width="2.29167" stroke-linecap="round" stroke-linejoin="round" stroke-miterlimit="10" fill="#FFFFFF"/><rect x="1556" y="1213" width="105" height="43" stroke="#000000" stroke-width="2.29167" stroke-linecap="round" stroke-linejoin="round" stroke-miterlimit="10"/><rect x="1397" y="1273" width="262" height="45" stroke="#000000" stroke-width="2.29167" stroke-linecap="round" stroke-linejoin="round" stroke-miterlimit="10" fill="#FFFFFF"/><rect x="1448" y="1274" width="213" height="44" stroke="#000000" stroke-width="2.29167" stroke-linecap="round" stroke-linejoin="round" stroke-miterlimit="10"/><rect x="1397" y="1333" width="262" height="44" stroke="#000000" stroke-width="2.29167" stroke-linecap="round" stroke-linejoin="round" stroke-miterlimit="10" fill="#FFFFFF"/><rect x="1397" y="1334" width="159" height="43" stroke="#000000" stroke-width="2.29167" stroke-linecap="round" stroke-linejoin="round" stroke-miterlimit="10"/><rect x="1397" y="1393" width="262" height="44" stroke="#000000" stroke-width="2.29167" stroke-linecap="round" stroke-linejoin="round" stroke-miterlimit="10" fill="#FFFFFF"/><rect x="1397" y="1394" width="50.9999" height="43" stroke="#000000" stroke-width="2.29167" stroke-linecap="round" stroke-linejoin="round" stroke-miterlimit="10"/><rect x="1397" y="1454" width="262" height="45" stroke="#000000" stroke-width="2.29167" stroke-linecap="round" stroke-linejoin="round" stroke-miterlimit="10" fill="#FFFFFF"/><rect x="1397" y="1768" width="262" height="44" stroke="#000000" stroke-width="2.29167" stroke-linecap="round" stroke-linejoin="round" stroke-miterlimit="10" fill="#FFFFFF"/><rect x="1575" y="1770" width="57.0001" height="44" stroke="#000000" stroke-width="2.29167" stroke-linecap="round" stroke-linejoin="round" stroke-miterlimit="10"/><rect x="1397" y="1835" width="262" height="45" stroke="#000000" stroke-width="2.29167" stroke-linecap="round" stroke-linejoin="round" stroke-miterlimit="10" fill="#FFFFFF"/><rect x="1575" y="1837" width="57.0001" height="44" stroke="#000000" stroke-width="2.29167" stroke-linecap="round" stroke-linejoin="round" stroke-miterlimit="10"/><rect x="1397" y="1894" width="262" height="45" stroke="#000000" stroke-width="2.29167" stroke-linecap="round" stroke-linejoin="round" stroke-miterlimit="10" fill="#FFFFFF"/><rect x="1575" y="1896" width="57.0001" height="45" stroke="#000000" stroke-width="2.29167" stroke-linecap="round" stroke-linejoin="round" stroke-miterlimit="10"/><rect x="1397" y="1951" width="262" height="44" stroke="#000000" stroke-width="2.29167" stroke-linecap="round" stroke-linejoin="round" stroke-miterlimit="10" fill="#FFFFFF"/><rect x="1575" y="1953" width="83.9999" height="44" stroke="#000000" stroke-width="2.29167" stroke-linecap="round" stroke-linejoin="round" stroke-miterlimit="10"/><rect x="1397" y="2013" width="262" height="44" stroke="#000000" stroke-width="2.29167" stroke-linecap="round" stroke-linejoin="round" stroke-miterlimit="10" fill="#FFFFFF"/><rect x="1499" y="2014" width="160" height="45" stroke="#000000" stroke-width="2.29167" stroke-linecap="round" stroke-linejoin="round" stroke-miterlimit="10"/><rect x="1397" y="2075" width="262" height="45" stroke="#000000" stroke-width="2.29167" stroke-linecap="round" stroke-linejoin="round" stroke-miterlimit="10" fill="#FFFFFF"/><rect x="1499" y="2075" width="107" height="45" stroke="#000000" stroke-width="2.29167" stroke-linecap="round" stroke-linejoin="round" stroke-miterlimit="10"/><text font-family="Noto Sans JP,Noto Sans JP_MSFontService,sans-serif" font-weight="700" font-size="55" transform="matrix(1 0 0 1 2259.85 602)">Conversion to “Microcode”</text><text font-family="Noto Sans JP,Noto Sans JP_MSFontService,sans-serif" font-weight="700" font-size="55" transform="matrix(1 0 0 1 2988.6 602)"> </text><text font-family="Noto Sans JP,Noto Sans JP_MSFontService,sans-serif" font-weight="700" font-size="55" transform="matrix(1 0 0 1 2354.08 668)">and “Lookup Table”</text><text font-family="Noto Sans JP,Noto Sans JP_MSFontService,sans-serif" font-weight="700" font-size="55" transform="matrix(1 0 0 1 2894.34 668)"> </text><rect x="905" y="829" width="344" height="573" stroke="#000000" stroke-width="2.29167" stroke-linecap="round" stroke-linejoin="round" stroke-miterlimit="10" fill="#FFFFFF"/><path d="M941 829 941 1402.01" stroke="#000000" stroke-width="2.29167" stroke-linecap="round" stroke-linejoin="round" stroke-miterlimit="10" stroke-dasharray="6.875 9.16667" fill="none" fill-rule="evenodd"/><path d="M979 829 979 1402.01" stroke="#000000" stroke-width="2.29167" stroke-linecap="round" stroke-linejoin="round" stroke-miterlimit="10" stroke-dasharray="6.875 9.16667" fill="none" fill-rule="evenodd"/><path d="M1018 829 1018 1402.01" stroke="#000000" stroke-width="2.29167" stroke-linecap="round" stroke-linejoin="round" stroke-miterlimit="10" stroke-dasharray="6.875 9.16667" fill="none" fill-rule="evenodd"/><path d="M1056 829 1056 1402.01" stroke="#000000" stroke-width="2.29167" stroke-linecap="round" stroke-linejoin="round" stroke-miterlimit="10" stroke-dasharray="6.875 9.16667" fill="none" fill-rule="evenodd"/><path d="M1095 829 1095 1402.01" stroke="#000000" stroke-width="2.29167" stroke-linecap="round" stroke-linejoin="round" stroke-miterlimit="10" stroke-dasharray="6.875 9.16667" fill="none" fill-rule="evenodd"/><path d="M1133 829 1133 1402.01" stroke="#000000" stroke-width="2.29167" stroke-linecap="round" stroke-linejoin="round" stroke-miterlimit="10" stroke-dasharray="6.875 9.16667" fill="none" fill-rule="evenodd"/><path d="M1172 829 1172 1402.01" stroke="#000000" stroke-width="2.29167" stroke-linecap="round" stroke-linejoin="round" stroke-miterlimit="10" stroke-dasharray="6.875 9.16667" fill="none" fill-rule="evenodd"/><path d="M1210 829 1210 1402.01" stroke="#000000" stroke-width="2.29167" stroke-linecap="round" stroke-linejoin="round" stroke-miterlimit="10" stroke-dasharray="6.875 9.16667" fill="none" fill-rule="evenodd"/><path d="M907 1116 1246.66 1116" stroke="#000000" stroke-width="2.29167" stroke-linecap="round" stroke-linejoin="round" stroke-miterlimit="10" fill="none" fill-rule="evenodd"/><rect x="1018.5" y="827.5" width="114" height="115" stroke="#000000" stroke-width="4.58333" stroke-linecap="round" stroke-linejoin="round" stroke-miterlimit="10"/><rect x="980.5" y="942.5" width="76" height="116" stroke="#000000" stroke-width="4.58333" stroke-linecap="round" stroke-linejoin="round" stroke-miterlimit="10"/><rect x="942.5" y="1060.5" width="74.9999" height="114" stroke="#000000" stroke-width="4.58333" stroke-linecap="round" stroke-linejoin="round" stroke-miterlimit="10"/><rect x="906.5" y="1174.5" width="75.9999" height="116" stroke="#000000" stroke-width="4.58333" stroke-linecap="round" stroke-linejoin="round" stroke-miterlimit="10"/><rect x="1095.5" y="942.5" width="76" height="116" stroke="#000000" stroke-width="4.58333" stroke-linecap="round" stroke-linejoin="round" stroke-miterlimit="10"/><rect x="1134.5" y="1060.5" width="75.0002" height="114" stroke="#000000" stroke-width="4.58333" stroke-linecap="round" stroke-linejoin="round" stroke-miterlimit="10"/><rect x="1174.5" y="1174.5" width="74.9999" height="116" stroke="#000000" stroke-width="4.58333" stroke-linecap="round" stroke-linejoin="round" stroke-miterlimit="10"/><rect x="979.5" y="1145.5" width="194" height="63.0002" stroke="#000000" stroke-width="4.58333" stroke-linecap="round" stroke-linejoin="round" stroke-miterlimit="10"/><path d="M926.5 962.187 1227.47 962.187 1234.61 979.938 933.643 1268.94 926.5 1251.19 1177.94 1251.19 1177.94 1271.81 926.5 1271.81 919.357 1254.06 1220.32 965.062 1227.47 982.812 926.5 982.812ZM1167.63 1230.56 1229.5 1261.5 1167.63 1292.44Z" fill="#0F9ED5"/><path d="M1673 817C1682.67 817 1690.5 822.532 1690.5 829.357L1690.5 870.143C1690.5 876.968 1698.34 882.5 1708 882.5 1698.34 882.5 1690.5 888.032 1690.5 894.857L1690.5 935.643C1690.5 942.468 1682.67 948 1673 948" stroke="#000000" stroke-width="2.29167" stroke-linecap="round" stroke-linejoin="round" stroke-miterlimit="10" fill="none" fill-rule="evenodd"/><path d="M1707.14 881.863 2233.23 945.309C2233.86 945.385 2234.3 945.956 2234.23 946.584 2234.15 947.212 2233.58 947.66 2232.95 947.584L1706.86 884.138C1706.23 884.062 1705.79 883.491 1705.86 882.863 1705.94 882.235 1706.51 881.787 1707.14 881.863ZM2230.19 932.247 2255.84 949.191 2226.89 959.549Z"/><path d="M1830.11 971.86 2231.52 1010.22C2232.15 1010.28 2232.61 1010.84 2232.55 1011.47 2232.49 1012.1 2231.94 1012.57 2231.3 1012.51L1829.89 974.141C1829.26 974.081 1828.8 973.521 1828.86 972.891 1828.92 972.261 1829.48 971.799 1830.11 971.86ZM2228.16 997.241 2254.23 1013.55 2225.54 1024.62Z"/><path d="M0.0762673-1.14329 402.013 25.6693C402.645 25.7114 403.123 26.2575 403.08 26.8889 403.038 27.5203 402.492 27.998 401.861 27.9559L-0.0762673 1.14329C-0.70769 1.10117-1.18541 0.555156-1.14329-0.0762673-1.10117-0.70769-0.555156-1.18541 0.0762673-1.14329ZM398.28 12.7881 424.804 28.338 396.449 40.2271Z" transform="matrix(1 0 0 -1 1830 1167.34)"/><path d="M0.556051-1.00187 293.026 161.323C293.58 161.63 293.779 162.328 293.472 162.881 293.165 163.434 292.468 163.634 291.914 163.327L-0.556051 1.00187C-1.10937 0.694771-1.30897-0.00273339-1.00187-0.556051-0.694771-1.10937 0.00273339-1.30897 0.556051-1.00187ZM295.136 148.078 312.508 173.446 281.79 172.123Z" transform="matrix(1 0 0 -1 1942 1376.45)"/><path d="M0.565005-0.996847 530.324 299.267C530.875 299.579 531.068 300.278 530.756 300.828 530.444 301.379 529.745 301.572 529.194 301.26L-0.565005 0.996847C-1.11555 0.684803-1.30889-0.0144617-0.996847-0.565005-0.684803-1.11555 0.0144617-1.30889 0.565005-0.996847ZM532.551 286.041 549.695 311.563 518.991 309.965Z" transform="matrix(1 0 0 -1 1705 1569.56)"/><path d="M0.713689-0.896427 404.152 320.3C404.647 320.694 404.729 321.415 404.335 321.91 403.94 322.405 403.22 322.487 402.724 322.093L-0.713689 0.896427C-1.20877 0.502268-1.29059-0.218606-0.896427-0.713689-0.502268-1.20877 0.218606-1.29059 0.713689-0.896427ZM408.416 307.584 421.366 335.47 391.288 329.099Z" transform="matrix(1 0 0 -1 1834 1655.47)"/><path d="M0.730883-0.882465 383.823 316.405C384.31 316.809 384.378 317.531 383.974 318.019 383.571 318.506 382.848 318.574 382.361 318.17L-0.730883 0.882465C-1.21826 0.478809-1.28612-0.243511-0.882465-0.730883-0.478809-1.21826 0.243511-1.28612 0.730883-0.882465ZM388.333 303.775 400.741 331.906 370.792 324.954Z" transform="matrix(1 0 0 -1 1855 1715.91)"/><path d="M0.0482605-1.14482 568.098 22.8017C568.73 22.8283 569.221 23.3625 569.194 23.9947 569.168 24.627 568.633 25.118 568.001 25.0913L-0.0482605 1.14482C-0.680525 1.11816-1.17147 0.584004-1.14482-0.0482605-1.11816-0.680525-0.584004-1.17147 0.0482605-1.14482ZM564.049 10.0156 590.945 24.9117 562.891 37.4912Z" transform="matrix(1 0 0 -1 1664 1101.91)"/><path d="M0.845281-0.773585 353.459 384.521C353.886 384.988 353.854 385.712 353.388 386.14 352.921 386.567 352.196 386.535 351.769 386.068L-0.845281 0.773585C-1.27252 0.306749-1.24042-0.418042-0.773585-0.845281-0.306749-1.27252 0.418042-1.24042 0.845281-0.773585ZM359.663 372.63 368.085 402.2 339.376 391.196Z" transform="matrix(1 0 0 -1 1887 1847.2)"/><path d="M0.964503-0.618601 297.663 461.984C298.004 462.516 297.849 463.225 297.317 463.567 296.784 463.908 296.075 463.754 295.734 463.221L-0.964503 0.618601C-1.30615 0.0859206-1.15128-0.622859-0.618601-0.964503-0.0859206-1.30615 0.622859-1.15128 0.964503-0.618601ZM305.798 451.321 309.07 481.893 282.65 466.168Z" transform="matrix(1 0 0 -1 1946 1987.89)"/><text font-family="Noto Sans JP,Noto Sans JP_MSFontService,sans-serif" font-weight="400" font-size="41" transform="matrix(1 0 0 1 2764.93 857)">Common</text><text font-family="Noto Sans JP,Noto Sans JP_MSFontService,sans-serif" font-weight="400" font-size="41" transform="matrix(1 0 0 1 2943.68 857)"> </text><text font-family="Noto Sans JP,Noto Sans JP_MSFontService,sans-serif" font-weight="400" font-size="41" transform="matrix(1 0 0 1 2722.56 906)">Lookup Table</text><text font-family="Noto Sans JP,Noto Sans JP_MSFontService,sans-serif" font-weight="400" font-size="41" transform="matrix(1 0 0 1 2986.1 906)"> </text><text font-family="Noto Sans JP,Noto Sans JP_MSFontService,sans-serif" font-weight="400" font-size="41" transform="matrix(1 0 0 1 2716.53 956)">(Max 64 Bytes)</text><text font-family="Noto Sans JP,Noto Sans JP_MSFontService,sans-serif" font-weight="400" font-size="41" transform="matrix(1 0 0 1 2992.11 956)"> </text><rect x="2724" y="993" width="262" height="43.9999" stroke="#000000" stroke-width="2.29167" stroke-linecap="round" stroke-linejoin="round" stroke-miterlimit="10" fill="#FFFFFF"/><rect x="2724" y="1055" width="262" height="45" stroke="#000000" stroke-width="2.29167" stroke-linecap="round" stroke-linejoin="round" stroke-miterlimit="10" fill="#FFFFFF"/><rect x="2724" y="1056" width="51.0002" height="44" stroke="#000000" stroke-width="2.29167" stroke-linecap="round" stroke-linejoin="round" stroke-miterlimit="10"/><rect x="2724" y="1177" width="262" height="44" stroke="#000000" stroke-width="2.29167" stroke-linecap="round" stroke-linejoin="round" stroke-miterlimit="10" fill="#FFFFFF"/><rect x="2827" y="1177" width="106" height="44" stroke="#000000" stroke-width="2.29167" stroke-linecap="round" stroke-linejoin="round" stroke-miterlimit="10"/><rect x="2724" y="1238" width="262" height="44" stroke="#000000" stroke-width="2.29167" stroke-linecap="round" stroke-linejoin="round" stroke-miterlimit="10" fill="#FFFFFF"/><rect x="2827" y="1239" width="159" height="45" stroke="#000000" stroke-width="2.29167" stroke-linecap="round" stroke-linejoin="round" stroke-miterlimit="10"/><rect x="2723" y="1117" width="262" height="44" stroke="#000000" stroke-width="2.29167" stroke-linecap="round" stroke-linejoin="round" stroke-miterlimit="10" fill="#FFFFFF"/><rect x="2775" y="1118" width="212" height="43" stroke="#000000" stroke-width="2.29167" stroke-linecap="round" stroke-linejoin="round" stroke-miterlimit="10"/><rect x="2252" y="930" width="285" height="44" fill="#FFFFFF"/><text font-family="Noto Sans JP,Noto Sans JP_MSFontService,sans-serif" font-weight="700" font-size="28" transform="matrix(1 0 0 1 2284.33 962)">Double Lookup</text><text font-family="Noto Sans JP,Noto Sans JP_MSFontService,sans-serif" font-weight="700" font-size="28" transform="matrix(1 0 0 1 2490.01 962)"> </text><rect x="2252" y="993" width="285" height="43" fill="#FFFFFF"/><text font-family="Noto Sans JP,Noto Sans JP_MSFontService,sans-serif" font-weight="700" font-size="28" transform="matrix(1 0 0 1 2284.33 1024)">Shift Right</text><text font-family="Noto Sans JP,Noto Sans JP_MSFontService,sans-serif" font-weight="700" font-size="28" transform="matrix(1 0 0 1 2429.28 1024)"> </text><rect x="2252" y="1054" width="285" height="44" fill="#FFFFFF"/><text font-family="Noto Sans JP,Noto Sans JP_MSFontService,sans-serif" font-weight="700" font-size="28" transform="matrix(1 0 0 1 2284.33 1085)">Lookup</text><text font-family="Noto Sans JP,Noto Sans JP_MSFontService,sans-serif" font-weight="700" font-size="28" transform="matrix(1 0 0 1 2386.89 1085)"> </text><rect x="2252" y="1179" width="285" height="43" fill="#FFFFFF"/><text font-family="Noto Sans JP,Noto Sans JP_MSFontService,sans-serif" font-weight="700" font-size="28" transform="matrix(1 0 0 1 2284.33 1210)">Reverse Copy</text><text font-family="Noto Sans JP,Noto Sans JP_MSFontService,sans-serif" font-weight="700" font-size="28" transform="matrix(1 0 0 1 2468.24 1210)"> </text><rect x="2252" y="1241" width="285" height="44" fill="#FFFFFF"/><text font-family="Noto Sans JP,Noto Sans JP_MSFontService,sans-serif" font-weight="700" font-size="28" transform="matrix(1 0 0 1 2284.33 1273)">Double Lookup</text><text font-family="Noto Sans JP,Noto Sans JP_MSFontService,sans-serif" font-weight="700" font-size="28" transform="matrix(1 0 0 1 2490.01 1273)"> </text><rect x="2252" y="1301" width="285" height="43" fill="#FFFFFF"/><text font-family="Noto Sans JP,Noto Sans JP_MSFontService,sans-serif" font-weight="700" font-size="28" transform="matrix(1 0 0 1 2284.33 1332)">Shift Right</text><text font-family="Noto Sans JP,Noto Sans JP_MSFontService,sans-serif" font-weight="700" font-size="28" transform="matrix(1 0 0 1 2429.28 1332)"> </text><rect x="2252" y="1362" width="285" height="43" fill="#FFFFFF"/><text font-family="Noto Sans JP,Noto Sans JP_MSFontService,sans-serif" font-weight="700" font-size="28" transform="matrix(1 0 0 1 2284.33 1393)">XOR</text><text font-family="Noto Sans JP,Noto Sans JP_MSFontService,sans-serif" font-weight="700" font-size="28" transform="matrix(1 0 0 1 2341.62 1393)"> </text><rect x="2252" y="1423" width="285" height="44" fill="#FFFFFF"/><text font-family="Noto Sans JP,Noto Sans JP_MSFontService,sans-serif" font-weight="700" font-size="28" transform="matrix(1 0 0 1 2284.33 1455)">Repeat</text><text font-family="Noto Sans JP,Noto Sans JP_MSFontService,sans-serif" font-weight="700" font-size="28" transform="matrix(1 0 0 1 2380.58 1455)"> </text><rect x="2252" y="1485" width="285" height="43" fill="#FFFFFF"/><text font-family="Noto Sans JP,Noto Sans JP_MSFontService,sans-serif" font-weight="700" font-size="28" transform="matrix(1 0 0 1 2284.33 1516)">Reverse Copy</text><text font-family="Noto Sans JP,Noto Sans JP_MSFontService,sans-serif" font-weight="700" font-size="28" transform="matrix(1 0 0 1 2468.24 1516)"> </text><text font-family="Noto Sans JP,Noto Sans JP_MSFontService,sans-serif" font-weight="400" font-size="41" transform="matrix(1 0 0 1 2293.4 886)">Microcode</text><text font-family="Noto Sans JP,Noto Sans JP_MSFontService,sans-serif" font-weight="400" font-size="41" transform="matrix(1 0 0 1 2495.64 886)"> </text><rect x="2252" y="1116" width="285" height="43" fill="#FFFFFF"/><text font-family="Noto Sans JP,Noto Sans JP_MSFontService,sans-serif" font-weight="700" font-size="28" transform="matrix(1 0 0 1 2284.33 1147)">Shift Right</text><text font-family="Noto Sans JP,Noto Sans JP_MSFontService,sans-serif" font-weight="700" font-size="28" transform="matrix(1 0 0 1 2429.28 1147)"> </text><rect x="2724" y="1300" width="262" height="44" stroke="#000000" stroke-width="2.29167" stroke-linecap="round" stroke-linejoin="round" stroke-miterlimit="10" fill="#FFFFFF"/><rect x="2775" y="1300" width="106" height="44" stroke="#000000" stroke-width="2.29167" stroke-linecap="round" stroke-linejoin="round" stroke-miterlimit="10"/><rect x="2724" y="1361" width="262" height="44" stroke="#000000" stroke-width="2.29167" stroke-linecap="round" stroke-linejoin="round" stroke-miterlimit="10" fill="#FFFFFF"/><rect x="2933" y="1361" width="27.0002" height="44" stroke="#000000" stroke-width="2.29167" stroke-linecap="round" stroke-linejoin="round" stroke-miterlimit="10"/><rect x="2827" y="1361" width="59.0002" height="44" stroke="#000000" stroke-width="2.29167" stroke-linecap="round" stroke-linejoin="round" stroke-miterlimit="10"/><path d="M2861 1432 2861 1520.29" stroke="#000000" stroke-width="13.75" stroke-linecap="round" stroke-linejoin="round" stroke-miterlimit="10" stroke-dasharray="0 27.5" fill="none" fill-rule="evenodd"/><path d="M2540 951 2722.37 1076.66" stroke="#000000" stroke-width="2.29167" stroke-linecap="round" stroke-linejoin="round" stroke-miterlimit="10" stroke-dasharray="6.875 9.16667" fill="none" fill-rule="evenodd"/><path d="M2546 952 2724.91 1014.88" stroke="#000000" stroke-width="2.29167" stroke-linecap="round" stroke-linejoin="round" stroke-miterlimit="10" stroke-dasharray="6.875 9.16667" fill="none" fill-rule="evenodd"/><path d="M2540 1076 2721.52 1141.11" stroke="#000000" stroke-width="2.29167" stroke-linecap="round" stroke-linejoin="round" stroke-miterlimit="10" stroke-dasharray="6.875 9.16667" fill="none" fill-rule="evenodd"/><path d="M0 0 182.373 61.4986" stroke="#000000" stroke-width="2.29167" stroke-linecap="round" stroke-linejoin="round" stroke-miterlimit="10" stroke-dasharray="6.875 9.16667" fill="none" fill-rule="evenodd" transform="matrix(1 0 0 -1 2540 1259.5)"/><path d="M0 0 183.543 2.65472" stroke="#000000" stroke-width="2.29167" stroke-linecap="round" stroke-linejoin="round" stroke-miterlimit="10" stroke-dasharray="6.875 9.16667" fill="none" fill-rule="evenodd" transform="matrix(1 0 0 -1 2539 1263.65)"/><path d="M0 0 130.859 38.238" stroke="#000000" stroke-width="2.29167" stroke-linecap="round" stroke-linejoin="round" stroke-miterlimit="10" stroke-dasharray="6.875 9.16667" fill="none" fill-rule="evenodd" transform="matrix(1 0 0 -1 2592 1183.24)"/><path d="M2610 1301 2723.86 1323.09" stroke="#000000" stroke-width="2.29167" stroke-linecap="round" stroke-linejoin="round" stroke-miterlimit="10" stroke-dasharray="6.875 9.16667" fill="none" fill-rule="evenodd"/><path d="M0 0 98.5691 25.492" stroke="#000000" stroke-width="2.29167" stroke-linecap="round" stroke-linejoin="round" stroke-miterlimit="10" stroke-dasharray="6.875 9.16667" fill="none" fill-rule="evenodd" transform="matrix(1 0 0 -1 2626 1351.49)"/><path d="M0 0 134.258 37.3881" stroke="#000000" stroke-width="2.29167" stroke-linecap="round" stroke-linejoin="round" stroke-miterlimit="10" stroke-dasharray="6.875 9.16667" fill="none" fill-rule="evenodd" transform="matrix(1 0 0 -1 2590 1418.39)"/><path d="M0 0 97.7192 122.361" stroke="#000000" stroke-width="2.29167" stroke-linecap="round" stroke-linejoin="round" stroke-miterlimit="10" stroke-dasharray="6.875 9.16667" fill="none" fill-rule="evenodd" transform="matrix(1 0 0 -1 2626 1502.36)"/><text font-family="Noto Sans JP,Noto Sans JP_MSFontService,sans-serif" font-weight="700" font-size="55" transform="matrix(1 0 0 1 3162.21 656)">MameFont</text><text font-family="Noto Sans JP,Noto Sans JP_MSFontService,sans-serif" font-weight="700" font-size="55" transform="matrix(1 0 0 1 3450.96 656)"> </text><text font-family="Noto Sans JP,Noto Sans JP_MSFontService,sans-serif" font-weight="700" font-size="55" transform="matrix(1 0 0 1 3463.56 656)">Blob</text><text font-family="Noto Sans JP,Noto Sans JP_MSFontService,sans-serif" font-weight="700" font-size="55" transform="matrix(1 0 0 1 3587.89 656)"> </text><rect x="3229" y="774" width="299" height="58.9998" stroke="#000000" stroke-width="2.29167" stroke-linecap="round" stroke-linejoin="round" stroke-miterlimit="10" fill="#FFFFFF"/><text font-family="Noto Sans JP,Noto Sans JP_MSFontService,sans-serif" font-weight="400" font-size="41" transform="matrix(1 0 0 1 3307.97 819)">Header</text><text font-family="Noto Sans JP,Noto Sans JP_MSFontService,sans-serif" font-weight="400" font-size="41" transform="matrix(1 0 0 1 3448.91 819)"> </text><rect x="3229" y="833" width="299" height="137" stroke="#000000" stroke-width="2.29167" stroke-linecap="round" stroke-linejoin="round" stroke-miterlimit="10" fill="#FFFFFF"/><text font-family="Noto Sans JP,Noto Sans JP_MSFontService,sans-serif" font-weight="400" font-size="41" transform="matrix(1 0 0 1 3263.57 917)">Glyph Table</text><text font-family="Noto Sans JP,Noto Sans JP_MSFontService,sans-serif" font-weight="400" font-size="41" transform="matrix(1 0 0 1 3493.31 917)"> </text><rect x="3229" y="970" width="299" height="59.9998" stroke="#000000" stroke-width="2.29167" stroke-linecap="round" stroke-linejoin="round" stroke-miterlimit="10" fill="#B4E5A2"/><text font-family="Noto Sans JP,Noto Sans JP_MSFontService,sans-serif" font-weight="400" font-size="41" transform="matrix(1 0 0 1 3246.67 1015)">Lookup</text><text font-family="Noto Sans JP,Noto Sans JP_MSFontService,sans-serif" font-weight="400" font-size="41" transform="matrix(1 0 0 1 3393.34 1015)"> </text><text font-family="Noto Sans JP,Noto Sans JP_MSFontService,sans-serif" font-weight="400" font-size="41" transform="matrix(1 0 0 1 3402.5 1015)">Table</text><text font-family="Noto Sans JP,Noto Sans JP_MSFontService,sans-serif" font-weight="400" font-size="41" transform="matrix(1 0 0 1 3510.21 1015)"> </text><rect x="3229" y="1030" width="299" height="358" stroke="#000000" stroke-width="2.29167" stroke-linecap="round" stroke-linejoin="round" stroke-miterlimit="10" fill="#96DCF8"/><text font-family="Noto Sans JP,Noto Sans JP_MSFontService,sans-serif" font-weight="400" font-size="41" transform="matrix(1 0 0 1 3267.58 1224)">Microcodes</text><text font-family="Noto Sans JP,Noto Sans JP_MSFontService,sans-serif" font-weight="400" font-size="41" transform="matrix(1 0 0 1 3489.3 1224)"> </text><path d="M1397.5 932.5 1397.5 955 1507.5 1001.73 1507.5 1022.5" stroke="#0F9ED5" stroke-width="4.58333" stroke-linecap="square" stroke-linejoin="round" stroke-miterlimit="10" stroke-dasharray="13.75 4.58333" fill="none" fill-rule="evenodd"/><path d="M1548.5 932.5 1548.5 955 1659.5 1001.73 1659.5 1022.5" stroke="#0F9ED5" stroke-width="4.58333" stroke-linecap="square" stroke-linejoin="round" stroke-miterlimit="10" stroke-dasharray="13.75 4.58333" fill="none" fill-rule="evenodd"/><text fill="#0F9ED5" font-family="Noto Sans JP,Noto Sans JP_MSFontService,sans-serif" font-weight="700" font-size="28" transform="matrix(1 0 0 1 1674.5 984)">Right Shift</text><text fill="#0F9ED5" font-family="Noto Sans JP,Noto Sans JP_MSFontService,sans-serif" font-weight="700" font-size="28" transform="matrix(1 0 0 1 1819.45 984)"> </text><path d="M1397.5 1125.5 1397.5 1148 1507.5 1194.73 1507.5 1215.5" stroke="#0F9ED5" stroke-width="4.58333" stroke-linecap="square" stroke-linejoin="round" stroke-miterlimit="10" stroke-dasharray="13.75 4.58333" fill="none" fill-rule="evenodd"/><path d="M1548.5 1125.5 1548.5 1148 1659.5 1194.73 1659.5 1215.5" stroke="#0F9ED5" stroke-width="4.58333" stroke-linecap="square" stroke-linejoin="round" stroke-miterlimit="10" stroke-dasharray="13.75 4.58333" fill="none" fill-rule="evenodd"/><text fill="#0F9ED5" font-family="Noto Sans JP,Noto Sans JP_MSFontService,sans-serif" font-weight="700" font-size="28" transform="matrix(1 0 0 1 1674.5 1175)">Right Shift</text><text fill="#0F9ED5" font-family="Noto Sans JP,Noto Sans JP_MSFontService,sans-serif" font-weight="700" font-size="28" transform="matrix(1 0 0 1 1819.45 1175)"> </text><text fill="#0F9ED5" font-family="Noto Sans JP,Noto Sans JP_MSFontService,sans-serif" font-weight="400" font-size="41" transform="matrix(1 0 0 1 1353.8 866)">0</text><text fill="#0F9ED5" font-family="Noto Sans JP,Noto Sans JP_MSFontService,sans-serif" font-weight="400" font-size="41" transform="matrix(1 0 0 1 1376.72 866)"> </text><text fill="#0F9ED5" font-family="Noto Sans JP,Noto Sans JP_MSFontService,sans-serif" font-weight="400" font-size="41" transform="matrix(1 0 0 1 1353.8 931)">1</text><text fill="#0F9ED5" font-family="Noto Sans JP,Noto Sans JP_MSFontService,sans-serif" font-weight="400" font-size="41" transform="matrix(1 0 0 1 1376.72 931)"> </text><text fill="#0F9ED5" font-family="Noto Sans JP,Noto Sans JP_MSFontService,sans-serif" font-weight="400" font-size="41" transform="matrix(1 0 0 1 1353.8 1057)">2</text><text fill="#0F9ED5" font-family="Noto Sans JP,Noto Sans JP_MSFontService,sans-serif" font-weight="400" font-size="41" transform="matrix(1 0 0 1 1376.72 1057)"> </text><text fill="#0F9ED5" font-family="Noto Sans JP,Noto Sans JP_MSFontService,sans-serif" font-weight="400" font-size="41" transform="matrix(1 0 0 1 1353.8 1119)">3</text><text fill="#0F9ED5" font-family="Noto Sans JP,Noto Sans JP_MSFontService,sans-serif" font-weight="400" font-size="41" transform="matrix(1 0 0 1 1376.72 1119)"> </text><text fill="#0F9ED5" font-family="Noto Sans JP,Noto Sans JP_MSFontService,sans-serif" font-weight="400" font-size="41" transform="matrix(1 0 0 1 1353.8 1250)">4</text><text fill="#0F9ED5" font-family="Noto Sans JP,Noto Sans JP_MSFontService,sans-serif" font-weight="400" font-size="41" transform="matrix(1 0 0 1 1376.72 1250)"> </text><text fill="#0F9ED5" font-family="Noto Sans JP,Noto Sans JP_MSFontService,sans-serif" font-weight="400" font-size="41" transform="matrix(1 0 0 1 1353.8 1311)">5</text><text fill="#0F9ED5" font-family="Noto Sans JP,Noto Sans JP_MSFontService,sans-serif" font-weight="400" font-size="41" transform="matrix(1 0 0 1 1376.72 1311)"> </text><text fill="#0F9ED5" font-family="Noto Sans JP,Noto Sans JP_MSFontService,sans-serif" font-weight="400" font-size="41" transform="matrix(1 0 0 1 1353.8 1372)">6</text><text fill="#0F9ED5" font-family="Noto Sans JP,Noto Sans JP_MSFontService,sans-serif" font-weight="400" font-size="41" transform="matrix(1 0 0 1 1376.72 1372)"> </text><text fill="#0F9ED5" font-family="Noto Sans JP,Noto Sans JP_MSFontService,sans-serif" font-weight="400" font-size="41" transform="matrix(1 0 0 1 1353.8 1433)">7</text><text fill="#0F9ED5" font-family="Noto Sans JP,Noto Sans JP_MSFontService,sans-serif" font-weight="400" font-size="41" transform="matrix(1 0 0 1 1376.72 1433)"> </text><text fill="#0F9ED5" font-family="Noto Sans JP,Noto Sans JP_MSFontService,sans-serif" font-weight="400" font-size="41" transform="matrix(1 0 0 1 1353.8 1495)">8</text><text fill="#0F9ED5" font-family="Noto Sans JP,Noto Sans JP_MSFontService,sans-serif" font-weight="400" font-size="41" transform="matrix(1 0 0 1 1376.72 1495)"> </text><text fill="#0F9ED5" font-family="Noto Sans JP,Noto Sans JP_MSFontService,sans-serif" font-weight="400" font-size="41" transform="matrix(1 0 0 1 1353.8 1556)">9</text><text fill="#0F9ED5" font-family="Noto Sans JP,Noto Sans JP_MSFontService,sans-serif" font-weight="400" font-size="41" transform="matrix(1 0 0 1 1376.72 1556)"> </text><text fill="#0F9ED5" font-family="Noto Sans JP,Noto Sans JP_MSFontService,sans-serif" font-weight="400" font-size="41" transform="matrix(1 0 0 1 1330.89 1617)">10</text><text fill="#0F9ED5" font-family="Noto Sans JP,Noto Sans JP_MSFontService,sans-serif" font-weight="400" font-size="41" transform="matrix(1 0 0 1 1376.72 1617)"> </text><text fill="#0F9ED5" font-family="Noto Sans JP,Noto Sans JP_MSFontService,sans-serif" font-weight="400" font-size="41" transform="matrix(1 0 0 1 1330.89 1745)">11</text><text fill="#0F9ED5" font-family="Noto Sans JP,Noto Sans JP_MSFontService,sans-serif" font-weight="400" font-size="41" transform="matrix(1 0 0 1 1376.72 1745)"> </text><text fill="#0F9ED5" font-family="Noto Sans JP,Noto Sans JP_MSFontService,sans-serif" font-weight="400" font-size="41" transform="matrix(1 0 0 1 1330.89 1806)">12</text><text fill="#0F9ED5" font-family="Noto Sans JP,Noto Sans JP_MSFontService,sans-serif" font-weight="400" font-size="41" transform="matrix(1 0 0 1 1376.72 1806)"> </text><text fill="#0F9ED5" font-family="Noto Sans JP,Noto Sans JP_MSFontService,sans-serif" font-weight="400" font-size="41" transform="matrix(1 0 0 1 1330.89 1868)">13</text><text fill="#0F9ED5" font-family="Noto Sans JP,Noto Sans JP_MSFontService,sans-serif" font-weight="400" font-size="41" transform="matrix(1 0 0 1 1376.72 1868)"> </text><text fill="#0F9ED5" font-family="Noto Sans JP,Noto Sans JP_MSFontService,sans-serif" font-weight="400" font-size="41" transform="matrix(1 0 0 1 1330.89 1929)">14</text><text fill="#0F9ED5" font-family="Noto Sans JP,Noto Sans JP_MSFontService,sans-serif" font-weight="400" font-size="41" transform="matrix(1 0 0 1 1376.72 1929)"> </text><text fill="#0F9ED5" font-family="Noto Sans JP,Noto Sans JP_MSFontService,sans-serif" font-weight="400" font-size="41" transform="matrix(1 0 0 1 1330.89 1990)">15</text><text fill="#0F9ED5" font-family="Noto Sans JP,Noto Sans JP_MSFontService,sans-serif" font-weight="400" font-size="41" transform="matrix(1 0 0 1 1376.72 1990)"> </text><text fill="#0F9ED5" font-family="Noto Sans JP,Noto Sans JP_MSFontService,sans-serif" font-weight="400" font-size="41" transform="matrix(1 0 0 1 1330.89 2051)">16</text><text fill="#0F9ED5" font-family="Noto Sans JP,Noto Sans JP_MSFontService,sans-serif" font-weight="400" font-size="41" transform="matrix(1 0 0 1 1376.72 2051)"> </text><text fill="#0F9ED5" font-family="Noto Sans JP,Noto Sans JP_MSFontService,sans-serif" font-weight="400" font-size="41" transform="matrix(1 0 0 1 1330.89 2113)">17</text><text fill="#0F9ED5" font-family="Noto Sans JP,Noto Sans JP_MSFontService,sans-serif" font-weight="400" font-size="41" transform="matrix(1 0 0 1 1376.72 2113)"> </text><path d="M1397.5 1620.5 1397.5 1643 1507.5 1689.73 1507.5 1710.5" stroke="#0F9ED5" stroke-width="4.58333" stroke-linecap="square" stroke-linejoin="round" stroke-miterlimit="10" stroke-dasharray="13.75 4.58333" fill="none" fill-rule="evenodd"/><path d="M1548.5 1620.5 1548.5 1643 1659.5 1689.73 1659.5 1710.5" stroke="#0F9ED5" stroke-width="4.58333" stroke-linecap="square" stroke-linejoin="round" stroke-miterlimit="10" stroke-dasharray="13.75 4.58333" fill="none" fill-rule="evenodd"/><text fill="#0F9ED5" font-family="Noto Sans JP,Noto Sans JP_MSFontService,sans-serif" font-weight="700" font-size="28" transform="matrix(1 0 0 1 1674.5 1668)">Right Shift</text><text fill="#0F9ED5" font-family="Noto Sans JP,Noto Sans JP_MSFontService,sans-serif" font-weight="700" font-size="28" transform="matrix(1 0 0 1 1819.45 1668)"> </text><path d="M1673.5 1889.5C1688.41 1889.5 1700.5 1898.02 1700.5 1908.54L1700.5 1983.46C1700.5 1993.98 1712.59 2002.5 1727.5 2002.5 1712.59 2002.5 1700.5 2011.02 1700.5 2021.54L1700.5 2096.46C1700.5 2106.98 1688.41 2115.5 1673.5 2115.5" stroke="#0F9ED5" stroke-width="4.58333" stroke-linejoin="bevel" stroke-miterlimit="10" fill="none" fill-rule="evenodd"/><text fill="#0F9ED5" font-family="Noto Sans JP,Noto Sans JP_MSFontService,sans-serif" font-weight="700" font-size="28" transform="matrix(1 0 0 1 1738.23 2015)">Same as #12...9</text><text fill="#0F9ED5" font-family="Noto Sans JP,Noto Sans JP_MSFontService,sans-serif" font-weight="700" font-size="28" transform="matrix(1 0 0 1 1947.92 2015)"> </text><path d="M1673.5 1270.5C1688.41 1270.5 1700.5 1279.02 1700.5 1289.54L1700.5 1364.96C1700.5 1375.48 1712.59 1384 1727.5 1384 1712.59 1384 1700.5 1392.52 1700.5 1403.04L1700.5 1478.46C1700.5 1488.98 1688.41 1497.5 1673.5 1497.5" stroke="#0F9ED5" stroke-width="4.58333" stroke-linejoin="bevel" stroke-miterlimit="10" fill="none" fill-rule="evenodd"/><text fill="#0F9ED5" font-family="Noto Sans JP,Noto Sans JP_MSFontService,sans-serif" font-weight="700" font-size="28" transform="matrix(1 0 0 1 1738.23 1396)">Same as #3...0</text><text fill="#0F9ED5" font-family="Noto Sans JP,Noto Sans JP_MSFontService,sans-serif" font-weight="700" font-size="28" transform="matrix(1 0 0 1 1931.87 1396)"> </text><text fill="#0F9ED5" font-family="Noto Sans JP,Noto Sans JP_MSFontService,sans-serif" font-weight="700" font-size="28" transform="matrix(1 0 0 1 1746.65 1862)">Repeated</text><text fill="#0F9ED5" font-family="Noto Sans JP,Noto Sans JP_MSFontService,sans-serif" font-weight="700" font-size="28" transform="matrix(1 0 0 1 1876.7 1862)"> </text><text fill="#0F9ED5" font-family="Noto Sans JP,Noto Sans JP_MSFontService,sans-serif" font-weight="700" font-size="28" transform="matrix(1 0 0 1 1713.31 1745)">Single Pixel</text><text fill="#0F9ED5" font-family="Noto Sans JP,Noto Sans JP_MSFontService,sans-serif" font-weight="700" font-size="28" transform="matrix(1 0 0 1 1871.43 1745)"> </text><text fill="#0F9ED5" font-family="Noto Sans JP,Noto Sans JP_MSFontService,sans-serif" font-weight="700" font-size="28" transform="matrix(1 0 0 1 1713.31 1778)">Change</text><text fill="#0F9ED5" font-family="Noto Sans JP,Noto Sans JP_MSFontService,sans-serif" font-weight="700" font-size="28" transform="matrix(1 0 0 1 1815.29 1778)"> </text><path d="M1669.74 1796.45 1676.63 1797.29 1683.47 1798.74 1690.01 1800.76 1696.23 1803.3 1702.09 1806.34 1707.56 1809.84 1712.6 1813.78 1717.19 1818.11 1721.29 1822.82 1724.87 1827.86 1727.9 1833.21 1730.34 1838.83 1732.16 1844.68 1733.32 1850.74 1733.78 1856.96 1733.53 1863.31 1732.59 1869.39 1731 1875.26 1728.81 1880.88 1726.05 1886.22 1722.75 1891.27 1718.95 1895.99 1714.68 1900.36 1709.98 1904.35 1704.89 1907.94 1699.44 1911.11 1693.66 1913.82C1693.54 1913.88 1693.4 1913.93 1693.26 1913.97L1684.25 1916.29C1683.02 1916.61 1681.77 1915.87 1681.46 1914.64 1681.14 1913.42 1681.88 1912.17 1683.11 1911.85L1692.12 1909.53 1691.72 1909.67 1697.15 1907.14 1702.26 1904.2 1707.02 1900.86 1711.41 1897.15 1715.38 1893.11 1718.92 1888.75 1721.98 1884.11 1724.55 1879.2 1726.58 1874.05 1728.06 1868.68 1728.95 1863.12 1729.21 1857.3 1728.81 1851.59 1727.78 1846.03 1726.13 1840.64 1723.91 1835.46 1721.13 1830.51 1717.83 1825.83 1714.04 1821.44 1709.77 1817.39 1705.08 1813.7 1699.97 1810.4 1694.49 1807.54 1688.66 1805.13 1682.51 1803.23 1676.08 1801.84 1669.18 1801C1667.93 1800.85 1667.03 1799.71 1667.19 1798.45 1667.34 1797.2 1668.48 1796.3 1669.74 1796.45ZM1690.24 1926.99 1661.01 1917.46 1686.18 1899.79Z" fill="#0F9ED5"/><path d="M1667.27 1795.24 1674.8 1796.1C1674.94 1796.11 1675.08 1796.14 1675.21 1796.18L1682.19 1798.3C1682.32 1798.34 1682.45 1798.39 1682.57 1798.46L1688.85 1801.7C1688.97 1801.76 1689.09 1801.84 1689.2 1801.93L1694.63 1806.15C1694.74 1806.24 1694.85 1806.34 1694.95 1806.45L1699.37 1811.52C1699.48 1811.63 1699.56 1811.76 1699.64 1811.89L1702.93 1817.66C1703.01 1817.8 1703.07 1817.95 1703.12 1818.11L1705.11 1824.45C1705.15 1824.57 1705.18 1824.69 1705.2 1824.82L1705.67 1828.16 1705.78 1831.84 1705.47 1835.52 1704.77 1839.09C1704.74 1839.21 1704.71 1839.33 1704.66 1839.45L1702.29 1845.68C1702.23 1845.83 1702.16 1845.98 1702.07 1846.11L1698.44 1851.72C1698.36 1851.84 1698.27 1851.96 1698.16 1852.07L1693.43 1856.92C1693.21 1857.15 1692.93 1857.33 1692.63 1857.45L1687.25 1859.57C1686.07 1860.03 1684.74 1859.46 1684.28 1858.28 1683.81 1857.1 1684.39 1855.77 1685.57 1855.31L1690.95 1853.18 1690.15 1853.72 1694.88 1848.87 1694.6 1849.23 1698.22 1843.62 1698.01 1844.05 1700.38 1837.82 1700.28 1838.18 1700.91 1835.12 1701.2 1831.96 1701.13 1828.79 1700.66 1825.45 1700.74 1825.82 1698.75 1819.48 1698.94 1819.93 1695.66 1814.16 1695.92 1814.53 1691.5 1809.47 1691.81 1809.77 1686.39 1805.54 1686.74 1805.77 1680.47 1802.53 1680.86 1802.69 1673.88 1800.57 1674.28 1800.65 1666.75 1799.79C1665.49 1799.65 1664.59 1798.51 1664.73 1797.25 1664.88 1795.99 1666.01 1795.09 1667.27 1795.24ZM1694.99 1869.12 1664.6 1864.48 1686.55 1842.95Z" fill="#0F9ED5"/><path d="M1673 1501C1682.67 1501 1690.5 1506.53 1690.5 1513.36L1690.5 1554.14C1690.5 1560.97 1698.34 1566.5 1708 1566.5 1698.34 1566.5 1690.5 1572.03 1690.5 1578.86L1690.5 1619.64C1690.5 1626.47 1682.67 1632 1673 1632" stroke="#000000" stroke-width="2.29167" stroke-linecap="round" stroke-linejoin="round" stroke-miterlimit="10" fill="none" fill-rule="evenodd"/><path d="M1667.05 1725.22 1674.59 1725.92C1674.71 1725.93 1674.83 1725.95 1674.94 1725.98L1681.93 1727.73C1682.04 1727.76 1682.16 1727.8 1682.27 1727.84L1688.56 1730.53C1688.68 1730.58 1688.79 1730.64 1688.9 1730.71L1694.35 1734.23C1694.47 1734.3 1694.58 1734.39 1694.68 1734.49L1699.14 1738.71C1699.25 1738.82 1699.36 1738.94 1699.45 1739.07L1702.76 1743.88C1702.86 1744.03 1702.95 1744.2 1703.01 1744.36L1705.04 1749.66C1705.09 1749.79 1705.13 1749.94 1705.16 1750.08L1705.64 1752.87 1705.78 1756.04 1705.49 1759.21 1704.79 1762.28C1704.76 1762.43 1704.71 1762.56 1704.65 1762.7L1702.31 1767.92C1702.23 1768.08 1702.14 1768.23 1702.03 1768.37L1698.44 1773.07C1698.34 1773.19 1698.23 1773.3 1698.11 1773.41L1693.41 1777.47C1693.18 1777.68 1692.9 1777.83 1692.6 1777.92L1687.59 1779.51C1686.39 1779.89 1685.1 1779.22 1684.72 1778.01 1684.34 1776.81 1685 1775.52 1686.21 1775.14L1691.22 1773.55 1690.41 1774.01 1695.12 1769.94 1694.8 1770.28 1698.4 1765.58 1698.13 1766.04 1700.47 1760.82 1700.33 1761.23 1700.93 1758.77 1701.2 1756.22 1701.13 1753.66 1700.64 1750.87 1700.76 1751.3 1698.73 1746 1698.99 1746.48 1695.67 1741.67 1695.98 1742.03 1691.53 1737.81 1691.86 1738.08 1686.42 1734.57 1686.76 1734.75 1680.47 1732.06 1680.81 1732.18 1673.83 1730.43 1674.17 1730.48 1666.63 1729.79C1665.37 1729.67 1664.45 1728.56 1664.56 1727.3 1664.68 1726.04 1665.79 1725.11 1667.05 1725.22ZM1695.01 1789.33 1664.83 1783.49 1687.62 1762.85Z" fill="#0F9ED5"/></g></svg>