<svg width="2781" height="2600" xmlns="http://www.w3.org/2000/svg" xmlns:xlink="http://www.w3.org/1999/xlink" xml:space="preserve" overflow="hidden"><defs><clipPath id="clip0"><rect x="670" y="24" width="2781" height="2600"/></clipPath></defs><g clip-path="url(#clip0)" transform="translate(-670 -24)"><path d="M670 80.42C670 49.2601 695.26 24.0001 726.42 24.0001L3394.58 24.0001C3425.74 24.0001 3451 49.2601 3451 80.42L3451 2567.58C3451 2598.74 3425.74 2624 3394.58 2624L726.42 2624C695.26 2624 670 2598.74 670 2567.58Z" fill="#E4E8EC" fill-rule="evenodd"/><path d="M2200.5 1198.43C2200.5 1148.21 2241.21 1107.5 2291.43 1107.5L3164.57 1107.5C3214.79 1107.5 3255.5 1148.21 3255.5 1198.43L3255.5 2015.57C3255.5 2065.79 3214.79 2106.5 3164.57 2106.5L2291.43 2106.5C2241.21 2106.5 2200.5 2065.79 2200.5 2015.57Z" stroke="#000000" stroke-width="4.58333" stroke-linecap="round" stroke-linejoin="round" stroke-miterlimit="10" stroke-dasharray="13.75 18.3333" fill="none" fill-rule="evenodd"/><path d="M2794 1206.11C2794 1216.12 2872.13 1224.23 2968.5 1224.23 3064.87 1224.23 3143 1216.12 3143 1206.11L3143 1972.89C3143 1982.89 3064.87 1991 2968.5 1991 2872.13 1991 2794 1982.89 2794 1972.89Z" fill="#FFFFFF" fill-rule="evenodd"/><path d="M2794 1206.11C2794 1196.11 2872.13 1188 2968.5 1188 3064.87 1188 3143 1196.11 3143 1206.11 3143 1216.12 3064.87 1224.23 2968.5 1224.23 2872.13 1224.23 2794 1216.12 2794 1206.11Z" fill="#FFFFFF" fill-rule="evenodd"/><path d="M3143 1206.11C3143 1216.12 3064.87 1224.23 2968.5 1224.23 2872.13 1224.23 2794 1216.12 2794 1206.11 2794 1196.11 2872.13 1188 2968.5 1188 3064.87 1188 3143 1196.11 3143 1206.11L3143 1972.89C3143 1982.89 3064.87 1991 2968.5 1991 2872.13 1991 2794 1982.89 2794 1972.89L2794 1206.11" stroke="#000000" stroke-width="2.29167" stroke-linecap="round" stroke-linejoin="round" stroke-miterlimit="10" fill="none" fill-rule="evenodd"/><rect x="2360" y="1191" width="391" height="775" stroke="#000000" stroke-width="2.29167" stroke-linecap="round" stroke-linejoin="round" stroke-miterlimit="10" fill="#FFFFFF"/><rect x="2343" y="1207" width="392" height="776" stroke="#000000" stroke-width="2.29167" stroke-linecap="round" stroke-linejoin="round" stroke-miterlimit="10" fill="#FFFFFF"/><rect x="2327" y="1224" width="391" height="775" stroke="#000000" stroke-width="2.29167" stroke-linecap="round" stroke-linejoin="round" stroke-miterlimit="10" fill="#FFFFFF"/><rect x="2310" y="1241" width="392" height="775" stroke="#000000" stroke-width="2.29167" stroke-linecap="round" stroke-linejoin="round" stroke-miterlimit="10" fill="#FFFFFF"/><rect x="891" y="1090" width="1140" height="1403" stroke="#000000" stroke-width="2.29167" stroke-linecap="round" stroke-linejoin="round" stroke-miterlimit="10" fill="#FFFFFF"/><rect x="875" y="1106" width="1140" height="1403" stroke="#000000" stroke-width="2.29167" stroke-linecap="round" stroke-linejoin="round" stroke-miterlimit="10" fill="#FFFFFF"/><rect x="858" y="1122" width="1141" height="1403" stroke="#000000" stroke-width="2.29167" stroke-linecap="round" stroke-linejoin="round" stroke-miterlimit="10" fill="#FFFFFF"/><rect x="842" y="1138" width="1140" height="1402" stroke="#000000" stroke-width="2.29167" stroke-linecap="round" stroke-linejoin="round" stroke-miterlimit="10" fill="#FFFFFF"/><rect x="905" y="306" width="204" height="339" stroke="#000000" stroke-width="2.29167" stroke-linecap="round" stroke-linejoin="round" stroke-miterlimit="10" fill="#FFFFFF"/><rect x="888" y="323" width="205" height="339" stroke="#000000" stroke-width="2.29167" stroke-linecap="round" stroke-linejoin="round" stroke-miterlimit="10" fill="#FFFFFF"/><rect x="871" y="340" width="205" height="338" stroke="#000000" stroke-width="2.29167" stroke-linecap="round" stroke-linejoin="round" stroke-miterlimit="10" fill="#FFFFFF"/><rect x="855" y="356" width="204" height="339" stroke="#000000" stroke-width="2.29167" stroke-linecap="round" stroke-linejoin="round" stroke-miterlimit="10" fill="#FFFFFF"/><rect x="923.5" y="358.5" width="66" height="66" stroke="#000000" stroke-width="4.58333" stroke-linecap="round" stroke-linejoin="round" stroke-miterlimit="10"/><rect x="900.5" y="424.5" width="45.0001" height="68.0001" stroke="#000000" stroke-width="4.58333" stroke-linecap="round" stroke-linejoin="round" stroke-miterlimit="10"/><rect x="878.5" y="493.5" width="44" height="66" stroke="#000000" stroke-width="4.58333" stroke-linecap="round" stroke-linejoin="round" stroke-miterlimit="10"/><rect x="858.5" y="559.5" width="43.0003" height="67.9997" stroke="#000000" stroke-width="4.58333" stroke-linecap="round" stroke-linejoin="round" stroke-miterlimit="10"/><rect x="967.5" y="424.5" width="44.9997" height="68.0001" stroke="#000000" stroke-width="4.58333" stroke-linecap="round" stroke-linejoin="round" stroke-miterlimit="10"/><rect x="990.5" y="493.5" width="43.0003" height="66" stroke="#000000" stroke-width="4.58333" stroke-linecap="round" stroke-linejoin="round" stroke-miterlimit="10"/><rect x="1013.5" y="559.5" width="44" height="67.9997" stroke="#000000" stroke-width="4.58333" stroke-linecap="round" stroke-linejoin="round" stroke-miterlimit="10"/><rect x="900.5" y="543.5" width="113" height="36.0001" stroke="#000000" stroke-width="4.58333" stroke-linecap="round" stroke-linejoin="round" stroke-miterlimit="10"/><text font-family="Noto Sans JP,Noto Sans JP_MSFontService,sans-serif" font-weight="700" font-size="55" transform="matrix(1 0 0 1 885.46 175)">Original</text><text font-family="Noto Sans JP,Noto Sans JP_MSFontService,sans-serif" font-weight="700" font-size="55" transform="matrix(1 0 0 1 1103.17 175)"> </text><text font-family="Noto Sans JP,Noto Sans JP_MSFontService,sans-serif" font-weight="700" font-size="55" transform="matrix(1 0 0 1 901.227 241)">Glyphs</text><text font-family="Noto Sans JP,Noto Sans JP_MSFontService,sans-serif" font-weight="700" font-size="55" transform="matrix(1 0 0 1 1087.42 241)"> </text><text font-family="Noto Sans JP,Noto Sans JP_MSFontService,sans-serif" font-weight="700" font-size="55" transform="matrix(1 0 0 1 1224.47 1017)">Scan and Analysis</text><text font-family="Noto Sans JP,Noto Sans JP_MSFontService,sans-serif" font-weight="700" font-size="55" transform="matrix(1 0 0 1 1708.01 1017)"> </text><rect x="1265" y="1189" width="262" height="45" stroke="#000000" stroke-width="2.29167" stroke-linecap="round" stroke-linejoin="round" stroke-miterlimit="10" fill="#FFFFFF"/><rect x="1265" y="1253" width="262" height="45" stroke="#000000" stroke-width="2.29167" stroke-linecap="round" stroke-linejoin="round" stroke-miterlimit="10" fill="#FFFFFF"/><rect x="1265" y="1254" width="50.9999" height="44" stroke="#000000" stroke-width="2.29167" stroke-linecap="round" stroke-linejoin="round" stroke-miterlimit="10"/><rect x="1265" y="1381" width="262" height="45" stroke="#000000" stroke-width="2.29167" stroke-linecap="round" stroke-linejoin="round" stroke-miterlimit="10" fill="#FFFFFF"/><rect x="1265" y="1382" width="159" height="44" stroke="#000000" stroke-width="2.29167" stroke-linecap="round" stroke-linejoin="round" stroke-miterlimit="10"/><rect x="1265" y="1444" width="262" height="44" stroke="#000000" stroke-width="2.29167" stroke-linecap="round" stroke-linejoin="round" stroke-miterlimit="10" fill="#FFFFFF"/><rect x="1316" y="1444" width="213" height="44" stroke="#000000" stroke-width="2.29167" stroke-linecap="round" stroke-linejoin="round" stroke-miterlimit="10"/><rect x="1265" y="1875" width="262" height="44" stroke="#000000" stroke-width="2.29167" stroke-linecap="round" stroke-linejoin="round" stroke-miterlimit="10" fill="#FFFFFF"/><rect x="1367" y="1875" width="107" height="44" stroke="#000000" stroke-width="2.29167" stroke-linecap="round" stroke-linejoin="round" stroke-miterlimit="10"/><rect x="1265" y="1938" width="262" height="44" stroke="#000000" stroke-width="2.29167" stroke-linecap="round" stroke-linejoin="round" stroke-miterlimit="10" fill="#FFFFFF"/><rect x="1367" y="1939" width="160" height="45" stroke="#000000" stroke-width="2.29167" stroke-linecap="round" stroke-linejoin="round" stroke-miterlimit="10"/><rect x="1265" y="2068" width="262" height="45" stroke="#000000" stroke-width="2.29167" stroke-linecap="round" stroke-linejoin="round" stroke-miterlimit="10" fill="#FFFFFF"/><rect x="1443" y="2070" width="83.9999" height="44" stroke="#000000" stroke-width="2.29167" stroke-linecap="round" stroke-linejoin="round" stroke-miterlimit="10"/><rect x="1265" y="1573" width="262" height="44" stroke="#000000" stroke-width="2.29167" stroke-linecap="round" stroke-linejoin="round" stroke-miterlimit="10" fill="#FFFFFF"/><rect x="1424" y="1573" width="105" height="44" stroke="#000000" stroke-width="2.29167" stroke-linecap="round" stroke-linejoin="round" stroke-miterlimit="10"/><rect x="1265" y="1634" width="262" height="45" stroke="#000000" stroke-width="2.29167" stroke-linecap="round" stroke-linejoin="round" stroke-miterlimit="10" fill="#FFFFFF"/><rect x="1316" y="1635" width="213" height="44" stroke="#000000" stroke-width="2.29167" stroke-linecap="round" stroke-linejoin="round" stroke-miterlimit="10"/><rect x="1265" y="1694" width="262" height="44" stroke="#000000" stroke-width="2.29167" stroke-linecap="round" stroke-linejoin="round" stroke-miterlimit="10" fill="#FFFFFF"/><rect x="1265" y="1695" width="159" height="43" stroke="#000000" stroke-width="2.29167" stroke-linecap="round" stroke-linejoin="round" stroke-miterlimit="10"/><rect x="1265" y="1754" width="262" height="44" stroke="#000000" stroke-width="2.29167" stroke-linecap="round" stroke-linejoin="round" stroke-miterlimit="10" fill="#FFFFFF"/><rect x="1265" y="1755" width="50.9999" height="43.0004" stroke="#000000" stroke-width="2.29167" stroke-linecap="round" stroke-linejoin="round" stroke-miterlimit="10"/><rect x="1265" y="1815" width="262" height="45" stroke="#000000" stroke-width="2.29167" stroke-linecap="round" stroke-linejoin="round" stroke-miterlimit="10" fill="#FFFFFF"/><rect x="1265" y="2129" width="262" height="44" stroke="#000000" stroke-width="2.29167" stroke-linecap="round" stroke-linejoin="round" stroke-miterlimit="10" fill="#FFFFFF"/><rect x="1443" y="2131" width="57.0001" height="44" stroke="#000000" stroke-width="2.29167" stroke-linecap="round" stroke-linejoin="round" stroke-miterlimit="10"/><rect x="1265" y="2196" width="262" height="44" stroke="#000000" stroke-width="2.29167" stroke-linecap="round" stroke-linejoin="round" stroke-miterlimit="10" fill="#FFFFFF"/><rect x="1443" y="2198" width="57.0001" height="44" stroke="#000000" stroke-width="2.29167" stroke-linecap="round" stroke-linejoin="round" stroke-miterlimit="10"/><rect x="1265" y="2255" width="262" height="45" stroke="#000000" stroke-width="2.29167" stroke-linecap="round" stroke-linejoin="round" stroke-miterlimit="10" fill="#FFFFFF"/><rect x="1443" y="2257" width="57.0001" height="44" stroke="#000000" stroke-width="2.29167" stroke-linecap="round" stroke-linejoin="round" stroke-miterlimit="10"/><rect x="1265" y="2312" width="262" height="44" stroke="#000000" stroke-width="2.29167" stroke-linecap="round" stroke-linejoin="round" stroke-miterlimit="10" fill="#FFFFFF"/><rect x="1443" y="2314" width="83.9999" height="44" stroke="#000000" stroke-width="2.29167" stroke-linecap="round" stroke-linejoin="round" stroke-miterlimit="10"/><rect x="1265" y="2374" width="262" height="44" stroke="#000000" stroke-width="2.29167" stroke-linecap="round" stroke-linejoin="round" stroke-miterlimit="10" fill="#FFFFFF"/><rect x="1367" y="2375" width="160" height="45" stroke="#000000" stroke-width="2.29167" stroke-linecap="round" stroke-linejoin="round" stroke-miterlimit="10"/><rect x="1265" y="2436" width="262" height="44.9998" stroke="#000000" stroke-width="2.29167" stroke-linecap="round" stroke-linejoin="round" stroke-miterlimit="10" fill="#FFFFFF"/><rect x="1367" y="2436" width="107" height="44.9998" stroke="#000000" stroke-width="2.29167" stroke-linecap="round" stroke-linejoin="round" stroke-miterlimit="10"/><text font-family="Noto Sans JP,Noto Sans JP_MSFontService,sans-serif" font-weight="700" font-size="55" transform="matrix(1 0 0 1 2281.05 994)">Conversion to “Bytecode”</text><text font-family="Noto Sans JP,Noto Sans JP_MSFontService,sans-serif" font-weight="700" font-size="55" transform="matrix(1 0 0 1 2981.15 994)"> </text><text font-family="Noto Sans JP,Noto Sans JP_MSFontService,sans-serif" font-weight="700" font-size="55" transform="matrix(1 0 0 1 2360.96 1060)">and “Lookup Table”</text><text font-family="Noto Sans JP,Noto Sans JP_MSFontService,sans-serif" font-weight="700" font-size="55" transform="matrix(1 0 0 1 2901.22 1060)"> </text><rect x="905" y="1190" width="246" height="408" stroke="#000000" stroke-width="2.29167" stroke-linecap="round" stroke-linejoin="round" stroke-miterlimit="10" fill="#FFFFFF"/><path d="M931 1190 931 1598.69" stroke="#000000" stroke-width="2.29167" stroke-linecap="round" stroke-linejoin="round" stroke-miterlimit="10" stroke-dasharray="6.875 9.16667" fill="none" fill-rule="evenodd"/><path d="M958 1190 958 1598.69" stroke="#000000" stroke-width="2.29167" stroke-linecap="round" stroke-linejoin="round" stroke-miterlimit="10" stroke-dasharray="6.875 9.16667" fill="none" fill-rule="evenodd"/><path d="M986 1190 986 1598.69" stroke="#000000" stroke-width="2.29167" stroke-linecap="round" stroke-linejoin="round" stroke-miterlimit="10" stroke-dasharray="6.875 9.16667" fill="none" fill-rule="evenodd"/><path d="M1013 1190 1013 1598.69" stroke="#000000" stroke-width="2.29167" stroke-linecap="round" stroke-linejoin="round" stroke-miterlimit="10" stroke-dasharray="6.875 9.16667" fill="none" fill-rule="evenodd"/><path d="M1040 1190 1040 1598.69" stroke="#000000" stroke-width="2.29167" stroke-linecap="round" stroke-linejoin="round" stroke-miterlimit="10" stroke-dasharray="6.875 9.16667" fill="none" fill-rule="evenodd"/><path d="M1068 1190 1068 1598.69" stroke="#000000" stroke-width="2.29167" stroke-linecap="round" stroke-linejoin="round" stroke-miterlimit="10" stroke-dasharray="6.875 9.16667" fill="none" fill-rule="evenodd"/><path d="M1095 1190 1095 1598.69" stroke="#000000" stroke-width="2.29167" stroke-linecap="round" stroke-linejoin="round" stroke-miterlimit="10" stroke-dasharray="6.875 9.16667" fill="none" fill-rule="evenodd"/><path d="M1123 1190 1123 1598.69" stroke="#000000" stroke-width="2.29167" stroke-linecap="round" stroke-linejoin="round" stroke-miterlimit="10" stroke-dasharray="6.875 9.16667" fill="none" fill-rule="evenodd"/><path d="M906 1394 1148.26 1394" stroke="#000000" stroke-width="2.29167" stroke-linecap="round" stroke-linejoin="round" stroke-miterlimit="10" fill="none" fill-rule="evenodd"/><rect x="986.5" y="1188.5" width="80.9998" height="82.0001" stroke="#000000" stroke-width="4.58333" stroke-linecap="round" stroke-linejoin="round" stroke-miterlimit="10"/><rect x="958.5" y="1270.5" width="55" height="82.9999" stroke="#000000" stroke-width="4.58333" stroke-linecap="round" stroke-linejoin="round" stroke-miterlimit="10"/><rect x="931.5" y="1354.5" width="53.9999" height="82.0001" stroke="#000000" stroke-width="4.58333" stroke-linecap="round" stroke-linejoin="round" stroke-miterlimit="10"/><rect x="906.5" y="1436.5" width="53.9999" height="81.9998" stroke="#000000" stroke-width="4.58333" stroke-linecap="round" stroke-linejoin="round" stroke-miterlimit="10"/><rect x="1041.5" y="1270.5" width="54" height="82.9999" stroke="#000000" stroke-width="4.58333" stroke-linecap="round" stroke-linejoin="round" stroke-miterlimit="10"/><rect x="1068.5" y="1354.5" width="54" height="82.0001" stroke="#000000" stroke-width="4.58333" stroke-linecap="round" stroke-linejoin="round" stroke-miterlimit="10"/><rect x="1097.5" y="1436.5" width="54" height="81.9998" stroke="#000000" stroke-width="4.58333" stroke-linecap="round" stroke-linejoin="round" stroke-miterlimit="10"/><rect x="958.5" y="1415.5" width="138" height="45" stroke="#000000" stroke-width="4.58333" stroke-linecap="round" stroke-linejoin="round" stroke-miterlimit="10"/><path d="M920 1285.13 1134.55 1285.13 1139.31 1296.96 924.761 1502.96 920 1491.12 1101.63 1491.12 1101.63 1504.88 920 1504.88 915.238 1493.04 1129.79 1287.04 1134.55 1298.88 920 1298.88ZM1094.75 1477.38 1136 1498 1094.75 1518.62Z" fill="#0F9ED5"/><path d="M1541 1178C1550.67 1178 1558.5 1183.53 1558.5 1190.36L1558.5 1231.14C1558.5 1237.97 1566.34 1243.5 1576 1243.5 1566.34 1243.5 1558.5 1249.03 1558.5 1255.86L1558.5 1296.64C1558.5 1303.47 1550.67 1309 1541 1309" stroke="#000000" stroke-width="2.29167" stroke-linecap="round" stroke-linejoin="round" stroke-miterlimit="10" fill="none" fill-rule="evenodd"/><path d="M1576.21 1242.87 2334.01 1386.42C2334.63 1386.54 2335.04 1387.14 2334.92 1387.76 2334.8 1388.38 2334.2 1388.79 2333.58 1388.67L1575.79 1245.13C1575.17 1245.01 1574.76 1244.41 1574.87 1243.79 1574.99 1243.16 1575.59 1242.76 1576.21 1242.87ZM2331.85 1373.18 2356.31 1391.81 2326.73 1400.2Z"/><path d="M1788.24 1330.88 2336.44 1446.46C2337.06 1446.59 2337.45 1447.2 2337.32 1447.82 2337.19 1448.44 2336.58 1448.84 2335.96 1448.71L1787.76 1333.12C1787.14 1332.99 1786.75 1332.38 1786.88 1331.76 1787.01 1331.14 1787.62 1330.75 1788.24 1330.88ZM2334.55 1433.18 2358.62 1452.31 2328.88 1460.09Z"/><path d="M1786.11 1521.86 2335.63 1573.02C2336.26 1573.08 2336.73 1573.63 2336.67 1574.26 2336.61 1574.89 2336.05 1575.36 2335.42 1575.3L1785.89 1524.14C1785.26 1524.08 1784.8 1523.52 1784.86 1522.89 1784.92 1522.26 1785.48 1521.8 1786.11 1521.86ZM2332.24 1560.04 2358.34 1576.28 2329.69 1587.42Z"/><path d="M0.263187-1.1152 407.646 95.0274C408.262 95.1727 408.644 95.7898 408.498 96.4057 408.353 97.0216 407.736 97.4031 407.12 97.2578L-0.263187 1.1152C-0.879094 0.969844-1.26055 0.35272-1.1152-0.263187-0.969844-0.879094-0.35272-1.26055 0.263187-1.1152ZM406.081 81.7076 429.688 101.406 399.765 108.472Z" transform="matrix(1 0 0 -1 1928 1737.41)"/><path d="M0.318259-1.10075 768.926 221.127C769.534 221.303 769.885 221.938 769.709 222.546 769.533 223.154 768.898 223.504 768.29 223.329L-0.318259 1.10075C-0.926185 0.924978-1.27652 0.289667-1.10075-0.318259-0.924978-0.926185-0.289667-1.27652 0.318259-1.10075ZM768.026 207.746 790.625 228.594 760.388 234.164Z" transform="matrix(1 0 0 -1 1571 1928.59)"/><path d="M0.474386-1.04302 550.239 249C550.815 249.262 551.07 249.942 550.807 250.518 550.545 251.094 549.866 251.348 549.29 251.086L-0.474386 1.04302C-1.05043 0.781025-1.30502 0.101659-1.04302-0.474386-0.781025-1.05043-0.101659-1.30502 0.474386-1.04302ZM551.285 235.63 570.625 259.531 539.9 260.662Z" transform="matrix(1 0 0 -1 1789 2021.53)"/><path d="M0.520775-1.02065 483.701 245.517C484.265 245.804 484.489 246.494 484.201 247.058 483.914 247.622 483.223 247.846 482.66 247.558L-0.520775 1.02065C-1.08446 0.733034-1.30827 0.0429145-1.02065-0.520775-0.733034-1.08446-0.0429145-1.30827 0.520775-1.02065ZM485.347 232.206 503.594 256.953 472.849 256.702Z" transform="matrix(1 0 0 -1 1855 2076.95)"/><path d="M1530.07 1466.86 2335.63 1513.65C2336.26 1513.69 2336.74 1514.23 2336.7 1514.86 2336.67 1515.49 2336.12 1515.98 2335.49 1515.94L1529.93 1469.14C1529.3 1469.11 1528.82 1468.57 1528.86 1467.93 1528.89 1467.3 1529.43 1466.82 1530.07 1466.86ZM2331.78 1500.8 2358.44 1516.13 2330.19 1528.26Z"/><path d="M0.62155-0.962606 500.431 321.762C500.963 322.105 501.116 322.815 500.773 323.346 500.429 323.878 499.72 324.031 499.188 323.687L-0.62155 0.962606C-1.15318 0.619333-1.30588-0.0899172-0.962606-0.62155-0.619333-1.15318 0.0899172-1.30588 0.62155-0.962606ZM503.419 308.688 519.062 335.156 488.501 331.79Z" transform="matrix(1 0 0 -1 1841 2214.16)"/><path d="M0.799076-0.821226 398.593 386.244C399.047 386.685 399.057 387.411 398.616 387.864 398.174 388.318 397.449 388.328 396.995 387.886L-0.799076 0.821226C-1.25263 0.379908-1.26254-0.345525-0.821226-0.799076-0.379908-1.25263 0.345525-1.26254 0.799076-0.821226ZM404.098 374.014 414.219 403.047 384.921 393.724Z" transform="matrix(1 0 0 -1 1946 2349.05)"/><text font-family="Noto Sans JP,Noto Sans JP_MSFontService,sans-serif" font-weight="400" font-size="41" transform="matrix(1 0 0 1 2874.93 1297)">Common</text><text font-family="Noto Sans JP,Noto Sans JP_MSFontService,sans-serif" font-weight="400" font-size="41" transform="matrix(1 0 0 1 3053.68 1297)"> </text><text font-family="Noto Sans JP,Noto Sans JP_MSFontService,sans-serif" font-weight="400" font-size="41" transform="matrix(1 0 0 1 2832.56 1346)">Lookup Table</text><text font-family="Noto Sans JP,Noto Sans JP_MSFontService,sans-serif" font-weight="400" font-size="41" transform="matrix(1 0 0 1 3096.1 1346)"> </text><text font-family="Noto Sans JP,Noto Sans JP_MSFontService,sans-serif" font-weight="400" font-size="41" transform="matrix(1 0 0 1 2826.53 1396)">(Max 64 Bytes)</text><text font-family="Noto Sans JP,Noto Sans JP_MSFontService,sans-serif" font-weight="400" font-size="41" transform="matrix(1 0 0 1 3102.11 1396)"> </text><rect x="2834" y="1433" width="262" height="44" stroke="#000000" stroke-width="2.29167" stroke-linecap="round" stroke-linejoin="round" stroke-miterlimit="10" fill="#FFFFFF"/><rect x="2834" y="1495" width="262" height="45" stroke="#000000" stroke-width="2.29167" stroke-linecap="round" stroke-linejoin="round" stroke-miterlimit="10" fill="#FFFFFF"/><rect x="2834" y="1496" width="51.0002" height="44" stroke="#000000" stroke-width="2.29167" stroke-linecap="round" stroke-linejoin="round" stroke-miterlimit="10"/><rect x="2834" y="1617" width="262" height="44" stroke="#000000" stroke-width="2.29167" stroke-linecap="round" stroke-linejoin="round" stroke-miterlimit="10" fill="#FFFFFF"/><rect x="2937" y="1617" width="106" height="44" stroke="#000000" stroke-width="2.29167" stroke-linecap="round" stroke-linejoin="round" stroke-miterlimit="10"/><rect x="2834" y="1678" width="262" height="44" stroke="#000000" stroke-width="2.29167" stroke-linecap="round" stroke-linejoin="round" stroke-miterlimit="10" fill="#FFFFFF"/><rect x="2937" y="1679" width="159" height="45" stroke="#000000" stroke-width="2.29167" stroke-linecap="round" stroke-linejoin="round" stroke-miterlimit="10"/><rect x="2833" y="1557" width="262" height="44" stroke="#000000" stroke-width="2.29167" stroke-linecap="round" stroke-linejoin="round" stroke-miterlimit="10" fill="#FFFFFF"/><rect x="2885" y="1558" width="212" height="43" stroke="#000000" stroke-width="2.29167" stroke-linecap="round" stroke-linejoin="round" stroke-miterlimit="10"/><rect x="2362" y="1370" width="285" height="44" fill="#96DCF8"/><text font-family="Noto Sans JP,Noto Sans JP_MSFontService,sans-serif" font-weight="700" font-size="34" transform="matrix(1 0 0 1 2374.84 1405)">Double Lookup</text><text font-family="Noto Sans JP,Noto Sans JP_MSFontService,sans-serif" font-weight="700" font-size="34" transform="matrix(1 0 0 1 2632.66 1405)"> </text><rect x="2362" y="1433" width="285" height="43" fill="#96DCF8"/><text font-family="Noto Sans JP,Noto Sans JP_MSFontService,sans-serif" font-weight="700" font-size="34" transform="matrix(1 0 0 1 2374.84 1467)">Shift Right</text><text font-family="Noto Sans JP,Noto Sans JP_MSFontService,sans-serif" font-weight="700" font-size="34" transform="matrix(1 0 0 1 2553.59 1467)"> </text><rect x="2362" y="1494" width="285" height="44" fill="#96DCF8"/><text font-family="Noto Sans JP,Noto Sans JP_MSFontService,sans-serif" font-weight="700" font-size="34" transform="matrix(1 0 0 1 2374.84 1528)">Lookup</text><text font-family="Noto Sans JP,Noto Sans JP_MSFontService,sans-serif" font-weight="700" font-size="34" transform="matrix(1 0 0 1 2503.18 1528)"> </text><rect x="2362" y="1619" width="285" height="43" fill="#96DCF8"/><text font-family="Noto Sans JP,Noto Sans JP_MSFontService,sans-serif" font-weight="700" font-size="34" transform="matrix(1 0 0 1 2374.84 1653)">Reverse Copy</text><text font-family="Noto Sans JP,Noto Sans JP_MSFontService,sans-serif" font-weight="700" font-size="34" transform="matrix(1 0 0 1 2604.58 1653)"> </text><rect x="2362" y="1681" width="285" height="44" fill="#96DCF8"/><text font-family="Noto Sans JP,Noto Sans JP_MSFontService,sans-serif" font-weight="700" font-size="34" transform="matrix(1 0 0 1 2374.84 1715)">Double Lookup</text><text font-family="Noto Sans JP,Noto Sans JP_MSFontService,sans-serif" font-weight="700" font-size="34" transform="matrix(1 0 0 1 2632.66 1715)"> </text><rect x="2362" y="1741" width="285" height="43" fill="#96DCF8"/><text font-family="Noto Sans JP,Noto Sans JP_MSFontService,sans-serif" font-weight="700" font-size="34" transform="matrix(1 0 0 1 2374.84 1775)">Shift Right</text><text font-family="Noto Sans JP,Noto Sans JP_MSFontService,sans-serif" font-weight="700" font-size="34" transform="matrix(1 0 0 1 2553.59 1775)"> </text><rect x="2362" y="1802" width="285" height="43" fill="#96DCF8"/><text font-family="Noto Sans JP,Noto Sans JP_MSFontService,sans-serif" font-weight="700" font-size="34" transform="matrix(1 0 0 1 2374.84 1836)">XOR</text><text font-family="Noto Sans JP,Noto Sans JP_MSFontService,sans-serif" font-weight="700" font-size="34" transform="matrix(1 0 0 1 2446.46 1836)"> </text><rect x="2362" y="1863" width="285" height="44" fill="#96DCF8"/><text font-family="Noto Sans JP,Noto Sans JP_MSFontService,sans-serif" font-weight="700" font-size="34" transform="matrix(1 0 0 1 2374.84 1897)">Repeat</text><text font-family="Noto Sans JP,Noto Sans JP_MSFontService,sans-serif" font-weight="700" font-size="34" transform="matrix(1 0 0 1 2495.16 1897)"> </text><rect x="2362" y="1925" width="285" height="43" fill="#96DCF8"/><text font-family="Noto Sans JP,Noto Sans JP_MSFontService,sans-serif" font-weight="700" font-size="34" transform="matrix(1 0 0 1 2374.84 1959)">Reverse Copy</text><text font-family="Noto Sans JP,Noto Sans JP_MSFontService,sans-serif" font-weight="700" font-size="34" transform="matrix(1 0 0 1 2604.58 1959)"> </text><text font-family="Noto Sans JP,Noto Sans JP_MSFontService,sans-serif" font-weight="400" font-size="41" transform="matrix(1 0 0 1 2413.71 1326)">Bytecode</text><text font-family="Noto Sans JP,Noto Sans JP_MSFontService,sans-serif" font-weight="400" font-size="41" transform="matrix(1 0 0 1 2595.33 1326)"> </text><rect x="2362" y="1556" width="285" height="43" fill="#96DCF8"/><text font-family="Noto Sans JP,Noto Sans JP_MSFontService,sans-serif" font-weight="700" font-size="34" transform="matrix(1 0 0 1 2374.84 1590)">Shift Right</text><text font-family="Noto Sans JP,Noto Sans JP_MSFontService,sans-serif" font-weight="700" font-size="34" transform="matrix(1 0 0 1 2553.59 1590)"> </text><rect x="2834" y="1740" width="262" height="44" stroke="#000000" stroke-width="2.29167" stroke-linecap="round" stroke-linejoin="round" stroke-miterlimit="10" fill="#FFFFFF"/><rect x="2885" y="1740" width="106" height="44" stroke="#000000" stroke-width="2.29167" stroke-linecap="round" stroke-linejoin="round" stroke-miterlimit="10"/><rect x="2834" y="1801" width="262" height="44" stroke="#000000" stroke-width="2.29167" stroke-linecap="round" stroke-linejoin="round" stroke-miterlimit="10" fill="#FFFFFF"/><rect x="3043" y="1801" width="27.0002" height="44" stroke="#000000" stroke-width="2.29167" stroke-linecap="round" stroke-linejoin="round" stroke-miterlimit="10"/><rect x="2937" y="1801" width="59.0002" height="44" stroke="#000000" stroke-width="2.29167" stroke-linecap="round" stroke-linejoin="round" stroke-miterlimit="10"/><path d="M2971 1872 2971 1960.29" stroke="#000000" stroke-width="13.75" stroke-linecap="round" stroke-linejoin="round" stroke-miterlimit="10" stroke-dasharray="0 27.5" fill="none" fill-rule="evenodd"/><path d="M2650 1391 2832.37 1516.65" stroke="#000000" stroke-width="2.29167" stroke-linecap="round" stroke-linejoin="round" stroke-miterlimit="10" stroke-dasharray="6.875 9.16667" fill="none" fill-rule="evenodd"/><path d="M2656 1392 2834.91 1454.88" stroke="#000000" stroke-width="2.29167" stroke-linecap="round" stroke-linejoin="round" stroke-miterlimit="10" stroke-dasharray="6.875 9.16667" fill="none" fill-rule="evenodd"/><path d="M2650 1516 2831.52 1581.11" stroke="#000000" stroke-width="2.29167" stroke-linecap="round" stroke-linejoin="round" stroke-miterlimit="10" stroke-dasharray="6.875 9.16667" fill="none" fill-rule="evenodd"/><path d="M0 0 182.373 61.4986" stroke="#000000" stroke-width="2.29167" stroke-linecap="round" stroke-linejoin="round" stroke-miterlimit="10" stroke-dasharray="6.875 9.16667" fill="none" fill-rule="evenodd" transform="matrix(1 0 0 -1 2650 1699.5)"/><path d="M0 0 183.543 2.65472" stroke="#000000" stroke-width="2.29167" stroke-linecap="round" stroke-linejoin="round" stroke-miterlimit="10" stroke-dasharray="6.875 9.16667" fill="none" fill-rule="evenodd" transform="matrix(1 0 0 -1 2649 1703.65)"/><path d="M0 0 130.859 38.238" stroke="#000000" stroke-width="2.29167" stroke-linecap="round" stroke-linejoin="round" stroke-miterlimit="10" stroke-dasharray="6.875 9.16667" fill="none" fill-rule="evenodd" transform="matrix(1 0 0 -1 2702 1623.24)"/><path d="M2720 1741 2833.86 1763.09" stroke="#000000" stroke-width="2.29167" stroke-linecap="round" stroke-linejoin="round" stroke-miterlimit="10" stroke-dasharray="6.875 9.16667" fill="none" fill-rule="evenodd"/><path d="M0 0 98.5691 25.492" stroke="#000000" stroke-width="2.29167" stroke-linecap="round" stroke-linejoin="round" stroke-miterlimit="10" stroke-dasharray="6.875 9.16667" fill="none" fill-rule="evenodd" transform="matrix(1 0 0 -1 2736 1791.49)"/><path d="M0 0 134.258 37.3881" stroke="#000000" stroke-width="2.29167" stroke-linecap="round" stroke-linejoin="round" stroke-miterlimit="10" stroke-dasharray="6.875 9.16667" fill="none" fill-rule="evenodd" transform="matrix(1 0 0 -1 2700 1858.39)"/><path d="M0 0 97.7192 122.361" stroke="#000000" stroke-width="2.29167" stroke-linecap="round" stroke-linejoin="round" stroke-miterlimit="10" stroke-dasharray="6.875 9.16667" fill="none" fill-rule="evenodd" transform="matrix(1 0 0 -1 2736 1942.36)"/><text font-family="Noto Sans JP,Noto Sans JP_MSFontService,sans-serif" font-weight="700" font-size="55" transform="matrix(1 0 0 1 2933.67 176)">MameFont</text><text font-family="Noto Sans JP,Noto Sans JP_MSFontService,sans-serif" font-weight="700" font-size="55" transform="matrix(1 0 0 1 3222.42 176)"> </text><text font-family="Noto Sans JP,Noto Sans JP_MSFontService,sans-serif" font-weight="700" font-size="55" transform="matrix(1 0 0 1 3015.88 242)">Blob</text><text font-family="Noto Sans JP,Noto Sans JP_MSFontService,sans-serif" font-weight="700" font-size="55" transform="matrix(1 0 0 1 3140.2 242)"> </text><rect x="2902" y="281" width="348" height="60.0002" stroke="#000000" stroke-width="2.29167" stroke-linecap="round" stroke-linejoin="round" stroke-miterlimit="10" fill="#FFFFFF"/><text font-family="Noto Sans JP,Noto Sans JP_MSFontService,sans-serif" font-weight="400" font-size="41" transform="matrix(1 0 0 1 3005.48 326)">Header</text><text font-family="Noto Sans JP,Noto Sans JP_MSFontService,sans-serif" font-weight="400" font-size="41" transform="matrix(1 0 0 1 3146.42 326)"> </text><rect x="2902" y="340" width="348" height="138" stroke="#000000" stroke-width="2.29167" stroke-linecap="round" stroke-linejoin="round" stroke-miterlimit="10" fill="#FFFFFF"/><text font-family="Noto Sans JP,Noto Sans JP_MSFontService,sans-serif" font-weight="400" font-size="41" transform="matrix(1 0 0 1 2961.08 424)">Glyph Table</text><text font-family="Noto Sans JP,Noto Sans JP_MSFontService,sans-serif" font-weight="400" font-size="41" transform="matrix(1 0 0 1 3190.82 424)"> </text><rect x="2902" y="478" width="348" height="67.9997" stroke="#000000" stroke-width="2.29167" stroke-linecap="round" stroke-linejoin="round" stroke-miterlimit="10" fill="#FFFFFF"/><text font-family="Noto Sans JP,Noto Sans JP_MSFontService,sans-serif" font-weight="400" font-size="41" transform="matrix(1 0 0 1 2944.18 527)">Lookup Table</text><text font-family="Noto Sans JP,Noto Sans JP_MSFontService,sans-serif" font-weight="400" font-size="41" transform="matrix(1 0 0 1 3207.72 527)"> </text><rect x="2902" y="541" width="348" height="280" stroke="#000000" stroke-width="2.29167" stroke-linecap="round" stroke-linejoin="round" stroke-miterlimit="10" fill="#FFFFFF"/><text font-family="Noto Sans JP,Noto Sans JP_MSFontService,sans-serif" font-weight="400" font-size="41" transform="matrix(1 0 0 1 2985.14 696)">Bytecode</text><text font-family="Noto Sans JP,Noto Sans JP_MSFontService,sans-serif" font-weight="400" font-size="41" transform="matrix(1 0 0 1 3166.76 696)"> </text><path d="M1265.5 1293.5 1265.5 1316 1375.5 1362.73 1375.5 1383.5" stroke="#0F9ED5" stroke-width="4.58333" stroke-linecap="square" stroke-linejoin="round" stroke-miterlimit="10" stroke-dasharray="13.75 4.58333" fill="none" fill-rule="evenodd"/><path d="M1416.5 1293.5 1416.5 1316 1527.5 1362.73 1527.5 1383.5" stroke="#0F9ED5" stroke-width="4.58333" stroke-linecap="square" stroke-linejoin="round" stroke-miterlimit="10" stroke-dasharray="13.75 4.58333" fill="none" fill-rule="evenodd"/><text fill="#0F9ED5" font-family="Noto Sans JP,Noto Sans JP_MSFontService,sans-serif" font-weight="700" font-size="41" transform="matrix(1 0 0 1 1557.63 1351)">Right Shift</text><text fill="#0F9ED5" font-family="Noto Sans JP,Noto Sans JP_MSFontService,sans-serif" font-weight="700" font-size="41" transform="matrix(1 0 0 1 1773.05 1351)"> </text><path d="M1265.5 1486.5 1265.5 1509 1375.5 1555.73 1375.5 1576.5" stroke="#0F9ED5" stroke-width="4.58333" stroke-linecap="square" stroke-linejoin="round" stroke-miterlimit="10" stroke-dasharray="13.75 4.58333" fill="none" fill-rule="evenodd"/><path d="M1416.5 1486.5 1416.5 1509 1527.5 1555.73 1527.5 1576.5" stroke="#0F9ED5" stroke-width="4.58333" stroke-linecap="square" stroke-linejoin="round" stroke-miterlimit="10" stroke-dasharray="13.75 4.58333" fill="none" fill-rule="evenodd"/><text fill="#0F9ED5" font-family="Noto Sans JP,Noto Sans JP_MSFontService,sans-serif" font-weight="700" font-size="41" transform="matrix(1 0 0 1 1557.63 1542)">Right Shift</text><text fill="#0F9ED5" font-family="Noto Sans JP,Noto Sans JP_MSFontService,sans-serif" font-weight="700" font-size="41" transform="matrix(1 0 0 1 1773.05 1542)"> </text><text fill="#0F9ED5" font-family="Noto Sans JP,Noto Sans JP_MSFontService,sans-serif" font-weight="400" font-size="41" transform="matrix(1 0 0 1 1221.8 1227)">0</text><text fill="#0F9ED5" font-family="Noto Sans JP,Noto Sans JP_MSFontService,sans-serif" font-weight="400" font-size="41" transform="matrix(1 0 0 1 1244.72 1227)"> </text><text fill="#0F9ED5" font-family="Noto Sans JP,Noto Sans JP_MSFontService,sans-serif" font-weight="400" font-size="41" transform="matrix(1 0 0 1 1221.8 1292)">1</text><text fill="#0F9ED5" font-family="Noto Sans JP,Noto Sans JP_MSFontService,sans-serif" font-weight="400" font-size="41" transform="matrix(1 0 0 1 1244.72 1292)"> </text><text fill="#0F9ED5" font-family="Noto Sans JP,Noto Sans JP_MSFontService,sans-serif" font-weight="400" font-size="41" transform="matrix(1 0 0 1 1221.8 1418)">2</text><text fill="#0F9ED5" font-family="Noto Sans JP,Noto Sans JP_MSFontService,sans-serif" font-weight="400" font-size="41" transform="matrix(1 0 0 1 1244.72 1418)"> </text><text fill="#0F9ED5" font-family="Noto Sans JP,Noto Sans JP_MSFontService,sans-serif" font-weight="400" font-size="41" transform="matrix(1 0 0 1 1221.8 1480)">3</text><text fill="#0F9ED5" font-family="Noto Sans JP,Noto Sans JP_MSFontService,sans-serif" font-weight="400" font-size="41" transform="matrix(1 0 0 1 1244.72 1480)"> </text><text fill="#0F9ED5" font-family="Noto Sans JP,Noto Sans JP_MSFontService,sans-serif" font-weight="400" font-size="41" transform="matrix(1 0 0 1 1221.8 1611)">4</text><text fill="#0F9ED5" font-family="Noto Sans JP,Noto Sans JP_MSFontService,sans-serif" font-weight="400" font-size="41" transform="matrix(1 0 0 1 1244.72 1611)"> </text><text fill="#0F9ED5" font-family="Noto Sans JP,Noto Sans JP_MSFontService,sans-serif" font-weight="400" font-size="41" transform="matrix(1 0 0 1 1221.8 1672)">5</text><text fill="#0F9ED5" font-family="Noto Sans JP,Noto Sans JP_MSFontService,sans-serif" font-weight="400" font-size="41" transform="matrix(1 0 0 1 1244.72 1672)"> </text><text fill="#0F9ED5" font-family="Noto Sans JP,Noto Sans JP_MSFontService,sans-serif" font-weight="400" font-size="41" transform="matrix(1 0 0 1 1221.8 1733)">6</text><text fill="#0F9ED5" font-family="Noto Sans JP,Noto Sans JP_MSFontService,sans-serif" font-weight="400" font-size="41" transform="matrix(1 0 0 1 1244.72 1733)"> </text><text fill="#0F9ED5" font-family="Noto Sans JP,Noto Sans JP_MSFontService,sans-serif" font-weight="400" font-size="41" transform="matrix(1 0 0 1 1221.8 1794)">7</text><text fill="#0F9ED5" font-family="Noto Sans JP,Noto Sans JP_MSFontService,sans-serif" font-weight="400" font-size="41" transform="matrix(1 0 0 1 1244.72 1794)"> </text><text fill="#0F9ED5" font-family="Noto Sans JP,Noto Sans JP_MSFontService,sans-serif" font-weight="400" font-size="41" transform="matrix(1 0 0 1 1221.8 1856)">8</text><text fill="#0F9ED5" font-family="Noto Sans JP,Noto Sans JP_MSFontService,sans-serif" font-weight="400" font-size="41" transform="matrix(1 0 0 1 1244.72 1856)"> </text><text fill="#0F9ED5" font-family="Noto Sans JP,Noto Sans JP_MSFontService,sans-serif" font-weight="400" font-size="41" transform="matrix(1 0 0 1 1221.8 1917)">9</text><text fill="#0F9ED5" font-family="Noto Sans JP,Noto Sans JP_MSFontService,sans-serif" font-weight="400" font-size="41" transform="matrix(1 0 0 1 1244.72 1917)"> </text><text fill="#0F9ED5" font-family="Noto Sans JP,Noto Sans JP_MSFontService,sans-serif" font-weight="400" font-size="41" transform="matrix(1 0 0 1 1198.89 1978)">10</text><text fill="#0F9ED5" font-family="Noto Sans JP,Noto Sans JP_MSFontService,sans-serif" font-weight="400" font-size="41" transform="matrix(1 0 0 1 1244.72 1978)"> </text><text fill="#0F9ED5" font-family="Noto Sans JP,Noto Sans JP_MSFontService,sans-serif" font-weight="400" font-size="41" transform="matrix(1 0 0 1 1198.89 2106)">11</text><text fill="#0F9ED5" font-family="Noto Sans JP,Noto Sans JP_MSFontService,sans-serif" font-weight="400" font-size="41" transform="matrix(1 0 0 1 1244.72 2106)"> </text><text fill="#0F9ED5" font-family="Noto Sans JP,Noto Sans JP_MSFontService,sans-serif" font-weight="400" font-size="41" transform="matrix(1 0 0 1 1198.89 2167)">12</text><text fill="#0F9ED5" font-family="Noto Sans JP,Noto Sans JP_MSFontService,sans-serif" font-weight="400" font-size="41" transform="matrix(1 0 0 1 1244.72 2167)"> </text><text fill="#0F9ED5" font-family="Noto Sans JP,Noto Sans JP_MSFontService,sans-serif" font-weight="400" font-size="41" transform="matrix(1 0 0 1 1198.89 2229)">13</text><text fill="#0F9ED5" font-family="Noto Sans JP,Noto Sans JP_MSFontService,sans-serif" font-weight="400" font-size="41" transform="matrix(1 0 0 1 1244.72 2229)"> </text><text fill="#0F9ED5" font-family="Noto Sans JP,Noto Sans JP_MSFontService,sans-serif" font-weight="400" font-size="41" transform="matrix(1 0 0 1 1198.89 2290)">14</text><text fill="#0F9ED5" font-family="Noto Sans JP,Noto Sans JP_MSFontService,sans-serif" font-weight="400" font-size="41" transform="matrix(1 0 0 1 1244.72 2290)"> </text><text fill="#0F9ED5" font-family="Noto Sans JP,Noto Sans JP_MSFontService,sans-serif" font-weight="400" font-size="41" transform="matrix(1 0 0 1 1198.89 2351)">15</text><text fill="#0F9ED5" font-family="Noto Sans JP,Noto Sans JP_MSFontService,sans-serif" font-weight="400" font-size="41" transform="matrix(1 0 0 1 1244.72 2351)"> </text><text fill="#0F9ED5" font-family="Noto Sans JP,Noto Sans JP_MSFontService,sans-serif" font-weight="400" font-size="41" transform="matrix(1 0 0 1 1198.89 2412)">16</text><text fill="#0F9ED5" font-family="Noto Sans JP,Noto Sans JP_MSFontService,sans-serif" font-weight="400" font-size="41" transform="matrix(1 0 0 1 1244.72 2412)"> </text><text fill="#0F9ED5" font-family="Noto Sans JP,Noto Sans JP_MSFontService,sans-serif" font-weight="400" font-size="41" transform="matrix(1 0 0 1 1198.89 2473)">17</text><text fill="#0F9ED5" font-family="Noto Sans JP,Noto Sans JP_MSFontService,sans-serif" font-weight="400" font-size="41" transform="matrix(1 0 0 1 1244.72 2473)"> </text><path d="M1265.5 1981.5 1265.5 2004 1375.5 2050.73 1375.5 2071.5" stroke="#0F9ED5" stroke-width="4.58333" stroke-linecap="square" stroke-linejoin="round" stroke-miterlimit="10" stroke-dasharray="13.75 4.58333" fill="none" fill-rule="evenodd"/><path d="M1416.5 1981.5 1416.5 2004 1527.5 2050.73 1527.5 2071.5" stroke="#0F9ED5" stroke-width="4.58333" stroke-linecap="square" stroke-linejoin="round" stroke-miterlimit="10" stroke-dasharray="13.75 4.58333" fill="none" fill-rule="evenodd"/><text fill="#0F9ED5" font-family="Noto Sans JP,Noto Sans JP_MSFontService,sans-serif" font-weight="700" font-size="41" transform="matrix(1 0 0 1 1557.63 2035)">Right Shift</text><text fill="#0F9ED5" font-family="Noto Sans JP,Noto Sans JP_MSFontService,sans-serif" font-weight="700" font-size="41" transform="matrix(1 0 0 1 1773.05 2035)"> </text><path d="M1541.5 2250.5C1556.41 2250.5 1568.5 2259.02 1568.5 2269.54L1568.5 2344.46C1568.5 2354.98 1580.59 2363.5 1595.5 2363.5 1580.59 2363.5 1568.5 2372.02 1568.5 2382.54L1568.5 2457.46C1568.5 2467.98 1556.41 2476.5 1541.5 2476.5" stroke="#0F9ED5" stroke-width="4.58333" stroke-linejoin="bevel" stroke-miterlimit="10" fill="none" fill-rule="evenodd"/><text fill="#0F9ED5" font-family="Noto Sans JP,Noto Sans JP_MSFontService,sans-serif" font-weight="700" font-size="41" transform="matrix(1 0 0 1 1621.35 2382)">Same as #12...9</text><text fill="#0F9ED5" font-family="Noto Sans JP,Noto Sans JP_MSFontService,sans-serif" font-weight="700" font-size="41" transform="matrix(1 0 0 1 1934.74 2382)"> </text><path d="M1541.5 1631.5C1556.41 1631.5 1568.5 1640.02 1568.5 1650.54L1568.5 1725.96C1568.5 1736.48 1580.59 1745 1595.5 1745 1580.59 1745 1568.5 1753.52 1568.5 1764.04L1568.5 1839.46C1568.5 1849.98 1556.41 1858.5 1541.5 1858.5" stroke="#0F9ED5" stroke-width="4.58333" stroke-linejoin="bevel" stroke-miterlimit="10" fill="none" fill-rule="evenodd"/><text fill="#0F9ED5" font-family="Noto Sans JP,Noto Sans JP_MSFontService,sans-serif" font-weight="700" font-size="41" transform="matrix(1 0 0 1 1621.35 1763)">Same as #3...0</text><text fill="#0F9ED5" font-family="Noto Sans JP,Noto Sans JP_MSFontService,sans-serif" font-weight="700" font-size="41" transform="matrix(1 0 0 1 1910.68 1763)"> </text><text fill="#0F9ED5" font-family="Noto Sans JP,Noto Sans JP_MSFontService,sans-serif" font-weight="700" font-size="41" transform="matrix(1 0 0 1 1629.78 2229)">Repeated</text><text fill="#0F9ED5" font-family="Noto Sans JP,Noto Sans JP_MSFontService,sans-serif" font-weight="700" font-size="41" transform="matrix(1 0 0 1 1824.57 2229)"> </text><text fill="#0F9ED5" font-family="Noto Sans JP,Noto Sans JP_MSFontService,sans-serif" font-weight="700" font-size="41" transform="matrix(1 0 0 1 1596.43 2103)">Single Pixel</text><text fill="#0F9ED5" font-family="Noto Sans JP,Noto Sans JP_MSFontService,sans-serif" font-weight="700" font-size="41" transform="matrix(1 0 0 1 1832.47 2103)"> </text><text fill="#0F9ED5" font-family="Noto Sans JP,Noto Sans JP_MSFontService,sans-serif" font-weight="700" font-size="41" transform="matrix(1 0 0 1 1596.43 2152)">Change</text><text fill="#0F9ED5" font-family="Noto Sans JP,Noto Sans JP_MSFontService,sans-serif" font-weight="700" font-size="41" transform="matrix(1 0 0 1 1749.4 2152)"> </text><path d="M1537.74 2157.45 1544.63 2158.29 1551.47 2159.74 1558.01 2161.76 1564.23 2164.3 1570.09 2167.34 1575.56 2170.84 1580.6 2174.78 1585.19 2179.11 1589.29 2183.82 1592.87 2188.86 1595.9 2194.21 1598.34 2199.83 1600.16 2205.68 1601.32 2211.74 1601.78 2217.96 1601.53 2224.31 1600.59 2230.39 1599 2236.26 1596.81 2241.88 1594.05 2247.22 1590.75 2252.27 1586.95 2256.99 1582.68 2261.36 1577.98 2265.35 1572.89 2268.94 1567.44 2272.11 1561.66 2274.82C1561.54 2274.88 1561.4 2274.93 1561.26 2274.97L1552.25 2277.29C1551.02 2277.61 1549.77 2276.87 1549.46 2275.64 1549.14 2274.42 1549.88 2273.17 1551.11 2272.85L1560.12 2270.53 1559.72 2270.67 1565.15 2268.14 1570.26 2265.2 1575.02 2261.86 1579.41 2258.15 1583.38 2254.11 1586.92 2249.75 1589.98 2245.11 1592.55 2240.2 1594.58 2235.05 1596.06 2229.68 1596.95 2224.12 1597.21 2218.3 1596.81 2212.59 1595.78 2207.03 1594.13 2201.64 1591.91 2196.46 1589.13 2191.51 1585.83 2186.83 1582.04 2182.44 1577.77 2178.39 1573.08 2174.7 1567.97 2171.4 1562.49 2168.54 1556.66 2166.13 1550.51 2164.23 1544.08 2162.84 1537.18 2162C1535.93 2161.85 1535.03 2160.71 1535.19 2159.45 1535.34 2158.2 1536.48 2157.3 1537.74 2157.45ZM1558.24 2287.99 1529.01 2278.46 1554.18 2260.79Z" fill="#0F9ED5"/><path d="M1535.27 2156.24 1542.8 2157.1C1542.94 2157.11 1543.08 2157.14 1543.21 2157.18L1550.19 2159.3C1550.32 2159.34 1550.45 2159.39 1550.57 2159.46L1556.85 2162.7C1556.97 2162.76 1557.09 2162.84 1557.2 2162.93L1562.63 2167.15C1562.74 2167.24 1562.85 2167.34 1562.95 2167.45L1567.37 2172.52C1567.48 2172.63 1567.56 2172.76 1567.64 2172.89L1570.93 2178.66C1571.01 2178.8 1571.07 2178.95 1571.12 2179.11L1573.11 2185.45C1573.15 2185.57 1573.18 2185.69 1573.2 2185.82L1573.67 2189.16 1573.78 2192.84 1573.47 2196.52 1572.77 2200.09C1572.74 2200.21 1572.71 2200.33 1572.66 2200.45L1570.29 2206.68C1570.23 2206.83 1570.16 2206.98 1570.07 2207.11L1566.44 2212.72C1566.36 2212.84 1566.27 2212.96 1566.16 2213.07L1561.43 2217.92C1561.21 2218.15 1560.93 2218.33 1560.63 2218.45L1555.25 2220.57C1554.07 2221.03 1552.74 2220.46 1552.28 2219.28 1551.81 2218.1 1552.39 2216.77 1553.57 2216.31L1558.95 2214.18 1558.15 2214.72 1562.88 2209.87 1562.6 2210.23 1566.22 2204.62 1566.01 2205.05 1568.38 2198.82 1568.28 2199.18 1568.91 2196.12 1569.2 2192.96 1569.13 2189.79 1568.66 2186.45 1568.74 2186.82 1566.75 2180.48 1566.94 2180.93 1563.66 2175.16 1563.92 2175.53 1559.5 2170.47 1559.81 2170.77 1554.39 2166.54 1554.74 2166.77 1548.47 2163.53 1548.86 2163.69 1541.88 2161.57 1542.28 2161.65 1534.75 2160.79C1533.49 2160.65 1532.59 2159.51 1532.73 2158.25 1532.88 2156.99 1534.01 2156.09 1535.27 2156.24ZM1562.99 2230.12 1532.6 2225.48 1554.55 2203.95Z" fill="#0F9ED5"/><path d="M1541 1862C1550.67 1862 1558.5 1867.53 1558.5 1874.36L1558.5 1915.14C1558.5 1921.97 1566.34 1927.5 1576 1927.5 1566.34 1927.5 1558.5 1933.03 1558.5 1939.86L1558.5 1980.64C1558.5 1987.47 1550.67 1993 1541 1993" stroke="#000000" stroke-width="2.29167" stroke-linecap="round" stroke-linejoin="round" stroke-miterlimit="10" fill="none" fill-rule="evenodd"/><path d="M1535.05 2086.23 1542.59 2086.92C1542.71 2086.93 1542.83 2086.95 1542.94 2086.98L1549.93 2088.73C1550.04 2088.76 1550.16 2088.8 1550.27 2088.84L1556.56 2091.53C1556.68 2091.58 1556.79 2091.64 1556.9 2091.71L1562.35 2095.23C1562.47 2095.3 1562.58 2095.39 1562.68 2095.49L1567.14 2099.71C1567.25 2099.82 1567.36 2099.94 1567.45 2100.07L1570.76 2104.89C1570.86 2105.03 1570.95 2105.2 1571.01 2105.36L1573.04 2110.66C1573.09 2110.79 1573.13 2110.94 1573.16 2111.08L1573.64 2113.87 1573.78 2117.04 1573.49 2120.21 1572.79 2123.28C1572.76 2123.43 1572.71 2123.56 1572.65 2123.7L1570.31 2128.92C1570.23 2129.08 1570.14 2129.23 1570.03 2129.37L1566.44 2134.07C1566.34 2134.19 1566.23 2134.31 1566.11 2134.41L1561.41 2138.47C1561.18 2138.68 1560.9 2138.83 1560.6 2138.92L1555.59 2140.51C1554.39 2140.89 1553.1 2140.22 1552.72 2139.01 1552.34 2137.81 1553 2136.52 1554.21 2136.14L1559.22 2134.55 1558.41 2135.01 1563.12 2130.94 1562.8 2131.28 1566.4 2126.58 1566.13 2127.04 1568.47 2121.82 1568.33 2122.23 1568.93 2119.77 1569.2 2117.22 1569.13 2114.66 1568.64 2111.87 1568.76 2112.3 1566.73 2107 1566.99 2107.48 1563.67 2102.67 1563.98 2103.03 1559.53 2098.82 1559.86 2099.08 1554.42 2095.57 1554.76 2095.75 1548.47 2093.06 1548.81 2093.18 1541.83 2091.43 1542.17 2091.48 1534.63 2090.79C1533.37 2090.67 1532.45 2089.56 1532.56 2088.3 1532.68 2087.04 1533.79 2086.11 1535.05 2086.23ZM1563.01 2150.33 1532.83 2144.49 1555.62 2123.85Z" fill="#0F9ED5"/><path d="M918 1031.5 943.75 1031.5 943.75 698 995.25 698 995.25 1031.5 1021 1031.5 969.5 1083Z" stroke="#000000" stroke-width="2.29167" stroke-linecap="round" stroke-miterlimit="8" fill="#FFFFFF" fill-rule="evenodd"/><path d="M3130 877 3104 877 3104 1112 3052 1112 3052 877 3026 877 3078 825Z" stroke="#000000" stroke-width="2.29167" stroke-linecap="round" stroke-miterlimit="8" fill="#FFFFFF" fill-rule="evenodd"/></g></svg>