<svg width="2409" height="1540" xmlns="http://www.w3.org/2000/svg" xmlns:xlink="http://www.w3.org/1999/xlink" xml:space="preserve" overflow="hidden"><defs><clipPath id="clip0"><rect x="449" y="95" width="2409" height="1540"/></clipPath></defs><g clip-path="url(#clip0)" transform="translate(-449 -95)"><path d="M449 138.92C449 114.664 468.664 94.9999 492.92 94.9999L2814.08 94.9999C2838.34 94.9999 2858 114.664 2858 138.92L2858 1591.08C2858 1615.34 2838.34 1635 2814.08 1635L492.92 1635C468.664 1635 449 1615.34 449 1591.08Z" fill="#E4E8EC" fill-rule="evenodd"/><rect x="1016.5" y="230.5" width="692" height="108" stroke="#000000" stroke-width="4.58333" stroke-linecap="round" stroke-linejoin="round" stroke-miterlimit="10" fill="#FFFFFF"/><text font-family="Arial,Arial_MSFontService,sans-serif" font-weight="400" font-size="55" transform="matrix(1 0 0 1 1209.53 304)">Font Header</text><rect x="1016.5" y="540.5" width="692" height="247" stroke="#000000" stroke-width="4.58333" stroke-linecap="round" stroke-linejoin="round" stroke-miterlimit="10" fill="#FFFFFF"/><text font-family="Arial,Arial_MSFontService,sans-serif" font-weight="400" font-size="55" transform="matrix(1 0 0 1 1217.65 684)">Glyph Table</text><rect x="1016.5" y="787.5" width="692" height="188" stroke="#000000" stroke-width="4.58333" stroke-linecap="round" stroke-linejoin="round" stroke-miterlimit="10" fill="#FFFFFF"/><text font-family="Arial,Arial_MSFontService,sans-serif" font-weight="400" font-size="55" transform="matrix(1 0 0 1 1171.82 901)">Fragment Table</text><rect x="1016.5" y="975.5" width="692" height="544" stroke="#000000" stroke-width="4.58333" stroke-linecap="round" stroke-linejoin="round" stroke-miterlimit="10" fill="#FFFFFF"/><text font-family="Arial,Arial_MSFontService,sans-serif" font-weight="400" font-size="55" transform="matrix(1 0 0 1 1159.11 1267)">Byte Code Block</text><rect x="1016.5" y="338.5" width="692" height="202" stroke="#000000" stroke-width="4.58333" stroke-linecap="round" stroke-linejoin="round" stroke-miterlimit="10" fill="#D9D9D9"/><text fill="#7F7F7F" font-family="Arial,Arial_MSFontService,sans-serif" font-weight="400" font-size="55" transform="matrix(1 0 0 1 1148.8 459)">Extended Header</text><text font-family="Arial,Arial_MSFontService,sans-serif" font-weight="400" font-size="55" transform="matrix(1 0 0 1 1735.2 263)">Information common to all fonts</text><text font-family="Arial,Arial_MSFontService,sans-serif" font-weight="400" font-size="55" transform="matrix(1 0 0 1 1735.2 329)">(8 Bytes)</text><text font-family="Arial,Arial_MSFontService,sans-serif" font-weight="400" font-size="55" transform="matrix(1 0 0 1 1735.2 651)">Information for each glyph</text><text font-family="Arial,Arial_MSFontService,sans-serif" font-weight="400" font-size="55" transform="matrix(1 0 0 1 1735.2 717)">(1, 2, or 4 Bytes) </text><text font-family="Arial,Arial_MSFontService,sans-serif" font-weight="400" font-size="55" transform="matrix(1 0 0 1 2157.44 717)">×</text><text font-family="Arial,Arial_MSFontService,sans-serif" font-weight="400" font-size="55" transform="matrix(1 0 0 1 2205 717)">number of </text><text font-family="Arial,Arial_MSFontService,sans-serif" font-weight="400" font-size="55" transform="matrix(1 0 0 1 2467.39 717)">glyphs</text><text font-family="Arial,Arial_MSFontService,sans-serif" font-weight="400" font-size="55" transform="matrix(1 0 0 1 1735.2 868)">Fragments of glyphs</text><text font-family="Arial,Arial_MSFontService,sans-serif" font-weight="400" font-size="55" transform="matrix(1 0 0 1 1735.2 934)">(maximum 64 Bytes)</text><text font-family="Arial,Arial_MSFontService,sans-serif" font-weight="400" font-size="55" transform="matrix(1 0 0 1 1735.2 1234)">Set of instruction codes for each glyph</text><text font-family="Arial,Arial_MSFontService,sans-serif" font-weight="400" font-size="55" transform="matrix(1 0 0 1 1735.2 1300)">(variable size)</text><text font-family="Arial,Arial_MSFontService,sans-serif" font-weight="400" font-size="55" transform="matrix(1 0 0 1 1735.2 426)">Unsupported in the current version</text><text font-family="Arial,Arial_MSFontService,sans-serif" font-weight="400" font-size="55" transform="matrix(1 0 0 1 1735.2 492)">(variable size)</text><text font-family="Arial,Arial_MSFontService,sans-serif" font-weight="700" font-size="55" transform="matrix(1 0 0 1 600.789 805)">MameFont</text><text font-family="Arial,Arial_MSFontService,sans-serif" font-weight="700" font-size="55" transform="matrix(1 0 0 1 676.987 871)">Blob</text><path d="M981.5 1519.5C962.17 1519.5 946.5 1507.95 946.5 1493.71L946.5 848.202C946.5 833.958 930.83 822.41 911.5 822.41 930.83 822.41 946.5 810.863 946.5 796.619L946.5 255.292C946.5 241.047 962.17 229.5 981.5 229.5" stroke="#000000" stroke-width="4.58333" stroke-linecap="round" stroke-linejoin="round" stroke-miterlimit="10" fill="none" fill-rule="evenodd"/></g></svg>