<svg width="4070" height="2509" xmlns="http://www.w3.org/2000/svg" xmlns:xlink="http://www.w3.org/1999/xlink" xml:space="preserve" overflow="hidden"><defs><clipPath id="clip0"><rect x="330" y="-34" width="4070" height="2509"/></clipPath></defs><g clip-path="url(#clip0)" transform="translate(-330 34)"><path d="M330 56.7517C330 6.63088 370.631-34 420.752-34L4309.25-34C4359.37-34 4400 6.63088 4400 56.7517L4400 2384.25C4400 2434.37 4359.37 2475 4309.25 2475L420.752 2475C370.631 2475 330 2434.37 330 2384.25Z" fill="#E4E8EC" fill-rule="evenodd"/><rect x="986" y="475" width="845" height="1386" fill="#FFFFFF"/><rect x="3024" y="475" width="846" height="1386" fill="#FFFFFF"/><rect x="1292" y="477" width="233" height="231" fill="#A6A6A6"/><rect x="1218" y="707" width="154" height="232" fill="#A6A6A6"/><rect x="1137" y="938" width="158" height="231" fill="#A6A6A6"/><rect x="1064" y="1170" width="155" height="231" fill="#A6A6A6"/><rect x="983" y="1401" width="158" height="232" fill="#A6A6A6"/><rect x="1675" y="1401" width="158" height="232" fill="#A6A6A6"/><rect x="1601" y="1170" width="154" height="231" fill="#A6A6A6"/><rect x="1523" y="938" width="156" height="231" fill="#A6A6A6"/><rect x="1448" y="707" width="152" height="232" fill="#A6A6A6"/><rect x="1215" y="1246" width="388" height="155" fill="#A6A6A6"/><rect x="3028" y="1864" width="853" height="460" fill="#C5BAEC"/><rect x="3335" y="475" width="233" height="231" fill="#A6A6A6"/><rect x="3261" y="706" width="154" height="232" fill="#A6A6A6"/><rect x="3180" y="937" width="158" height="231" fill="#A6A6A6"/><rect x="3107" y="1168" width="155" height="232" fill="#A6A6A6"/><rect x="3026" y="1400" width="158" height="231" fill="#A6A6A6"/><rect x="3719" y="1400" width="157" height="231" fill="#A6A6A6"/><rect x="3644" y="1168" width="154" height="232" fill="#A6A6A6"/><rect x="3566" y="937" width="157" height="231" fill="#A6A6A6"/><rect x="3491" y="706" width="153" height="232" fill="#A6A6A6"/><rect x="3259" y="1244" width="387" height="156" fill="#A6A6A6"/><path d="M3029 410 3029 2376.25" stroke="#0070C0" stroke-width="2.29167" stroke-linecap="round" stroke-linejoin="round" stroke-miterlimit="10" stroke-dasharray="16.0417 9.16667" fill="none" fill-rule="evenodd"/><path d="M3106 410 3106 2376.25" stroke="#0070C0" stroke-width="2.29167" stroke-linecap="round" stroke-linejoin="round" stroke-miterlimit="10" stroke-dasharray="16.0417 9.16667" fill="none" fill-rule="evenodd"/><path d="M3183 410 3183 2376.25" stroke="#0070C0" stroke-width="2.29167" stroke-linecap="round" stroke-linejoin="round" stroke-miterlimit="10" stroke-dasharray="16.0417 9.16667" fill="none" fill-rule="evenodd"/><path d="M3260 410 3260 2376.25" stroke="#0070C0" stroke-width="2.29167" stroke-linecap="round" stroke-linejoin="round" stroke-miterlimit="10" stroke-dasharray="16.0417 9.16667" fill="none" fill-rule="evenodd"/><path d="M3337 410 3337 2376.25" stroke="#0070C0" stroke-width="2.29167" stroke-linecap="round" stroke-linejoin="round" stroke-miterlimit="10" stroke-dasharray="16.0417 9.16667" fill="none" fill-rule="evenodd"/><path d="M3414 410 3414 2376.25" stroke="#0070C0" stroke-width="2.29167" stroke-linecap="round" stroke-linejoin="round" stroke-miterlimit="10" stroke-dasharray="16.0417 9.16667" fill="none" fill-rule="evenodd"/><path d="M3491 410 3491 2376.25" stroke="#0070C0" stroke-width="2.29167" stroke-linecap="round" stroke-linejoin="round" stroke-miterlimit="10" stroke-dasharray="16.0417 9.16667" fill="none" fill-rule="evenodd"/><path d="M3568 410 3568 2376.25" stroke="#0070C0" stroke-width="2.29167" stroke-linecap="round" stroke-linejoin="round" stroke-miterlimit="10" stroke-dasharray="16.0417 9.16667" fill="none" fill-rule="evenodd"/><path d="M3645 410 3645 2376.25" stroke="#0070C0" stroke-width="2.29167" stroke-linecap="round" stroke-linejoin="round" stroke-miterlimit="10" stroke-dasharray="16.0417 9.16667" fill="none" fill-rule="evenodd"/><path d="M3722 410 3722 2376.25" stroke="#0070C0" stroke-width="2.29167" stroke-linecap="round" stroke-linejoin="round" stroke-miterlimit="10" stroke-dasharray="16.0417 9.16667" fill="none" fill-rule="evenodd"/><path d="M3799 410 3799 2376.25" stroke="#0070C0" stroke-width="2.29167" stroke-linecap="round" stroke-linejoin="round" stroke-miterlimit="10" stroke-dasharray="16.0417 9.16667" fill="none" fill-rule="evenodd"/><path d="M3876 410 3876 2376.25" stroke="#0070C0" stroke-width="2.29167" stroke-linecap="round" stroke-linejoin="round" stroke-miterlimit="10" stroke-dasharray="16.0417 9.16667" fill="none" fill-rule="evenodd"/><path d="M2963 476 3942.92 476" stroke="#0070C0" stroke-width="2.29167" stroke-linecap="round" stroke-linejoin="round" stroke-miterlimit="10" stroke-dasharray="16.0417 9.16667" fill="none" fill-rule="evenodd"/><path d="M2963 553 3942.92 553" stroke="#0070C0" stroke-width="2.29167" stroke-linecap="round" stroke-linejoin="round" stroke-miterlimit="10" stroke-dasharray="16.0417 9.16667" fill="none" fill-rule="evenodd"/><path d="M2963 630 3942.92 630" stroke="#0070C0" stroke-width="2.29167" stroke-linecap="round" stroke-linejoin="round" stroke-miterlimit="10" stroke-dasharray="16.0417 9.16667" fill="none" fill-rule="evenodd"/><path d="M2963 707 3942.92 707" stroke="#0070C0" stroke-width="2.29167" stroke-linecap="round" stroke-linejoin="round" stroke-miterlimit="10" stroke-dasharray="16.0417 9.16667" fill="none" fill-rule="evenodd"/><path d="M2963 784 3942.92 784" stroke="#0070C0" stroke-width="2.29167" stroke-linecap="round" stroke-linejoin="round" stroke-miterlimit="10" stroke-dasharray="16.0417 9.16667" fill="none" fill-rule="evenodd"/><path d="M2963 861 3942.92 861" stroke="#0070C0" stroke-width="2.29167" stroke-linecap="round" stroke-linejoin="round" stroke-miterlimit="10" stroke-dasharray="16.0417 9.16667" fill="none" fill-rule="evenodd"/><path d="M2963 938 3942.92 938" stroke="#0070C0" stroke-width="2.29167" stroke-linecap="round" stroke-linejoin="round" stroke-miterlimit="10" stroke-dasharray="16.0417 9.16667" fill="none" fill-rule="evenodd"/><path d="M2963 1015 3942.92 1015" stroke="#0070C0" stroke-width="2.29167" stroke-linecap="round" stroke-linejoin="round" stroke-miterlimit="10" stroke-dasharray="16.0417 9.16667" fill="none" fill-rule="evenodd"/><path d="M2963 1092 3942.92 1092" stroke="#0070C0" stroke-width="2.29167" stroke-linecap="round" stroke-linejoin="round" stroke-miterlimit="10" stroke-dasharray="16.0417 9.16667" fill="none" fill-rule="evenodd"/><path d="M2963 1169 3942.92 1169" stroke="#0070C0" stroke-width="2.29167" stroke-linecap="round" stroke-linejoin="round" stroke-miterlimit="10" stroke-dasharray="16.0417 9.16667" fill="none" fill-rule="evenodd"/><path d="M2963 1246 3942.92 1246" stroke="#0070C0" stroke-width="2.29167" stroke-linecap="round" stroke-linejoin="round" stroke-miterlimit="10" stroke-dasharray="16.0417 9.16667" fill="none" fill-rule="evenodd"/><path d="M2963 1323 3942.92 1323" stroke="#0070C0" stroke-width="2.29167" stroke-linecap="round" stroke-linejoin="round" stroke-miterlimit="10" stroke-dasharray="16.0417 9.16667" fill="none" fill-rule="evenodd"/><path d="M2963 1400 3942.92 1400" stroke="#0070C0" stroke-width="2.29167" stroke-linecap="round" stroke-linejoin="round" stroke-miterlimit="10" stroke-dasharray="16.0417 9.16667" fill="none" fill-rule="evenodd"/><path d="M2963 1477 3942.92 1477" stroke="#0070C0" stroke-width="2.29167" stroke-linecap="round" stroke-linejoin="round" stroke-miterlimit="10" stroke-dasharray="16.0417 9.16667" fill="none" fill-rule="evenodd"/><path d="M2963 1554 3942.92 1554" stroke="#0070C0" stroke-width="2.29167" stroke-linecap="round" stroke-linejoin="round" stroke-miterlimit="10" stroke-dasharray="16.0417 9.16667" fill="none" fill-rule="evenodd"/><path d="M2963 1631 3942.92 1631" stroke="#0070C0" stroke-width="2.29167" stroke-linecap="round" stroke-linejoin="round" stroke-miterlimit="10" stroke-dasharray="16.0417 9.16667" fill="none" fill-rule="evenodd"/><path d="M2963 1708 3942.92 1708" stroke="#0070C0" stroke-width="2.29167" stroke-linecap="round" stroke-linejoin="round" stroke-miterlimit="10" stroke-dasharray="16.0417 9.16667" fill="none" fill-rule="evenodd"/><path d="M2963 1785 3942.92 1785" stroke="#0070C0" stroke-width="2.29167" stroke-linecap="round" stroke-linejoin="round" stroke-miterlimit="10" stroke-dasharray="16.0417 9.16667" fill="none" fill-rule="evenodd"/><path d="M2963 1862 3942.92 1862" stroke="#0070C0" stroke-width="2.29167" stroke-linecap="round" stroke-linejoin="round" stroke-miterlimit="10" stroke-dasharray="16.0417 9.16667" fill="none" fill-rule="evenodd"/><path d="M2963 1939 3942.92 1939" stroke="#0070C0" stroke-width="2.29167" stroke-linecap="round" stroke-linejoin="round" stroke-miterlimit="10" stroke-dasharray="16.0417 9.16667" fill="none" fill-rule="evenodd"/><path d="M2963 2016 3942.92 2016" stroke="#0070C0" stroke-width="2.29167" stroke-linecap="round" stroke-linejoin="round" stroke-miterlimit="10" stroke-dasharray="16.0417 9.16667" fill="none" fill-rule="evenodd"/><path d="M2963 2087 3942.92 2087" stroke="#0070C0" stroke-width="2.29167" stroke-linecap="round" stroke-linejoin="round" stroke-miterlimit="10" stroke-dasharray="16.0417 9.16667" fill="none" fill-rule="evenodd"/><path d="M2963 2164 3942.92 2164" stroke="#0070C0" stroke-width="2.29167" stroke-linecap="round" stroke-linejoin="round" stroke-miterlimit="10" stroke-dasharray="16.0417 9.16667" fill="none" fill-rule="evenodd"/><path d="M2963 2241 3942.92 2241" stroke="#0070C0" stroke-width="2.29167" stroke-linecap="round" stroke-linejoin="round" stroke-miterlimit="10" stroke-dasharray="16.0417 9.16667" fill="none" fill-rule="evenodd"/><path d="M2963 2318 3942.92 2318" stroke="#0070C0" stroke-width="2.29167" stroke-linecap="round" stroke-linejoin="round" stroke-miterlimit="10" stroke-dasharray="16.0417 9.16667" fill="none" fill-rule="evenodd"/><rect x="3029.5" y="476.5" width="847" height="1385" stroke="#4EA72E" stroke-width="9.16667" stroke-linecap="round" stroke-linejoin="round" stroke-miterlimit="10" fill="none"/><path d="M3028 1708 3880.44 1708" stroke="#FF0000" stroke-width="13.75" stroke-linecap="round" stroke-linejoin="round" stroke-miterlimit="10" stroke-dasharray="27.5 27.5" fill="none" fill-rule="evenodd"/><path d="M3028 1092 3880.44 1092" stroke="#FF0000" stroke-width="13.75" stroke-linecap="round" stroke-linejoin="round" stroke-miterlimit="10" stroke-dasharray="27.5 27.5" fill="none" fill-rule="evenodd"/><path d="M3028 476 3880.44 476" stroke="#FF0000" stroke-width="13.75" stroke-linecap="round" stroke-linejoin="round" stroke-miterlimit="10" stroke-dasharray="27.5 27.5" fill="none" fill-rule="evenodd"/><path d="M3028 2318 3880.44 2318" stroke="#FF0000" stroke-width="13.75" stroke-linecap="round" stroke-linejoin="round" stroke-miterlimit="10" stroke-dasharray="27.5 27.5" fill="none" fill-rule="evenodd"/><path d="M2944.09 392.854 3000.97 447.951C3001.88 448.831 3001.9 450.282 3001.02 451.191 3000.14 452.1 2998.69 452.123 2997.78 451.242L2940.91 396.146C2940 395.265 2939.97 393.815 2940.85 392.906 2941.73 391.997 2943.19 391.974 2944.09 392.854ZM3005.65 436.532 3015.83 465.542 2986.51 456.283Z"/><text font-family="Noto Sans JP,Noto Sans JP_MSFontService,sans-serif" font-weight="400" font-size="55" transform="matrix(1 0 0 1 2693.64 300)">Cusror</text><text font-family="Noto Sans JP,Noto Sans JP_MSFontService,sans-serif" font-weight="400" font-size="55" transform="matrix(1 0 0 1 2862.07 300)"> </text><text font-family="Noto Sans JP,Noto Sans JP_MSFontService,sans-serif" font-weight="400" font-size="55" transform="matrix(1 0 0 1 2874.68 300)">at</text><text font-family="Noto Sans JP,Noto Sans JP_MSFontService,sans-serif" font-weight="400" font-size="55" transform="matrix(1 0 0 1 2925.09 300)"> </text><text font-family="Noto Sans JP,Noto Sans JP_MSFontService,sans-serif" font-weight="400" font-size="55" transform="matrix(1 0 0 1 2653.81 366)">start of scan</text><text font-family="Noto Sans JP,Noto Sans JP_MSFontService,sans-serif" font-weight="400" font-size="55" transform="matrix(1 0 0 1 2964.9 366)"> </text><path d="M0.94576-2.08741 77.4679 32.5831C78.6207 33.1054 79.1319 34.4634 78.6095 35.6163 78.0872 36.7691 76.7292 37.2803 75.5764 36.7579L-0.94576 2.08741C-2.0986 1.56508-2.60974 0.207084-2.08741-0.94576-1.56508-2.0986-0.207084-2.60974 0.94576-2.08741ZM78.0219 20.2545 97.3962 44.1281 66.6727 45.3035Z" transform="matrix(-1 0 0 1 3978.9 1662.5)"/><text font-family="Noto Sans JP,Noto Sans JP_MSFontService,sans-serif" font-weight="400" font-size="55" transform="matrix(1 0 0 1 4031.6 1650)">Cusror</text><text font-family="Noto Sans JP,Noto Sans JP_MSFontService,sans-serif" font-weight="400" font-size="55" transform="matrix(1 0 0 1 4200.04 1650)"> </text><text font-family="Noto Sans JP,Noto Sans JP_MSFontService,sans-serif" font-weight="400" font-size="55" transform="matrix(1 0 0 1 4212.64 1650)">at</text><text font-family="Noto Sans JP,Noto Sans JP_MSFontService,sans-serif" font-weight="400" font-size="55" transform="matrix(1 0 0 1 4263.06 1650)"> </text><text font-family="Noto Sans JP,Noto Sans JP_MSFontService,sans-serif" font-weight="400" font-size="55" transform="matrix(1 0 0 1 4001.53 1716)">end of scan</text><text font-family="Noto Sans JP,Noto Sans JP_MSFontService,sans-serif" font-weight="400" font-size="55" transform="matrix(1 0 0 1 4293.15 1716)"> </text><path d="M3147 784 3832.21 784" stroke="#FF0000" stroke-width="13.75" stroke-linecap="round" stroke-linejoin="round" stroke-miterlimit="10" fill="none" fill-rule="evenodd"/><path d="M0 0 763.125 616.001" stroke="#FF0000" stroke-width="13.75" stroke-linecap="round" stroke-linejoin="round" stroke-miterlimit="10" fill="none" fill-rule="evenodd" transform="matrix(-1 0 0 1 3832.12 784)"/><path d="M0 0 763.125 616.001" stroke="#FF0000" stroke-width="13.75" stroke-linecap="round" stroke-linejoin="round" stroke-miterlimit="10" fill="none" fill-rule="evenodd" transform="matrix(-1 0 0 1 3832.12 1403)"/><path d="M3070 1403 3832.5 1403" stroke="#FF0000" stroke-width="13.75" stroke-linecap="round" stroke-linejoin="round" stroke-miterlimit="10" fill="none" fill-rule="evenodd"/><path d="M3070 2012.12 3722.5 2012.13C3726.3 2012.13 3729.38 2015.2 3729.38 2019 3729.38 2022.8 3726.3 2025.88 3722.5 2025.88L3070 2025.87C3066.2 2025.87 3063.12 2022.8 3063.12 2019 3063.12 2015.2 3066.2 2012.12 3070 2012.12ZM3715.63 1998.38 3756.88 2019 3715.63 2039.63Z" fill="#FF0000"/><path d="M0 0 0.000360892 153.542" stroke="#000000" stroke-width="4.58333" stroke-linecap="round" stroke-linejoin="round" stroke-miterlimit="10" fill="none" fill-rule="evenodd" transform="matrix(1 0 0 -1 3029.5 454.042)"/><path d="M0 0 0.000360892 153.542" stroke="#000000" stroke-width="4.58333" stroke-linecap="round" stroke-linejoin="round" stroke-miterlimit="10" fill="none" fill-rule="evenodd" transform="matrix(1 0 0 -1 3878.5 454.042)"/><path d="M3052.42 344.208 3856.33 344.209C3857.6 344.209 3858.62 345.235 3858.62 346.5 3858.62 347.766 3857.6 348.792 3856.33 348.792L3052.42 348.792C3051.15 348.792 3050.12 347.766 3050.12 346.5 3050.12 345.234 3051.15 344.208 3052.42 344.208ZM3057 360.25 3029.5 346.5 3057 332.75ZM3851.75 332.75 3879.25 346.5 3851.75 360.25Z"/><text font-family="Noto Sans JP,Noto Sans JP_MSFontService,sans-serif" font-weight="400" font-size="55" transform="matrix(1 0 0 1 3303.26 317)">glyphWidth</text><text font-family="Noto Sans JP,Noto Sans JP_MSFontService,sans-serif" font-weight="400" font-size="55" transform="matrix(1 0 0 1 3597.17 317)"> </text><path d="M2.29167 22.9158 2.29202 1362.45C2.29202 1363.72 1.26601 1364.74 0.000355521 1364.74-1.2653 1364.74-2.29131 1363.72-2.29131 1362.45L-2.29166 22.9158C-2.29166 21.6501-1.26565 20.6241 5.37265e-06 20.6241 1.26566 20.6241 2.29167 21.6501 2.29167 22.9158ZM-13.75 27.5 0 0 13.75 27.5ZM13.7504 1357.86 0.000360892 1385.36-13.7496 1357.86Z" transform="matrix(1 0 0 -1 2691.5 1860.86)"/><path d="M0 0 0.000360892 357.156" stroke="#000000" stroke-width="4.58333" stroke-linecap="round" stroke-linejoin="round" stroke-miterlimit="10" fill="none" fill-rule="evenodd" transform="matrix(6.12323e-17 1 1 -6.12323e-17 2640.5 477.5)"/><path d="M0 0 0.000360892 357.156" stroke="#000000" stroke-width="4.58333" stroke-linecap="round" stroke-linejoin="round" stroke-miterlimit="10" fill="none" fill-rule="evenodd" transform="matrix(6.12323e-17 1 1 -6.12323e-17 2640.5 1861.5)"/><text font-family="Noto Sans JP,Noto Sans JP_MSFontService,sans-serif" font-weight="400" font-size="55" transform="matrix(1 0 0 1 2356.89 1183)">glyphHeight</text><text font-family="Noto Sans JP,Noto Sans JP_MSFontService,sans-serif" font-weight="400" font-size="55" transform="matrix(1 0 0 1 2669.7 1183)"> </text><path d="M2999.5 2324.5C2976.58 2324.5 2958 2310.05 2958 2292.22L2958 2134.28C2958 2116.45 2939.42 2102 2916.5 2102 2939.42 2102 2958 2087.55 2958 2069.72L2958 1911.78C2958 1893.95 2976.58 1879.5 2999.5 1879.5" stroke="#000000" stroke-width="4.58333" stroke-linecap="round" stroke-linejoin="round" stroke-miterlimit="10" fill="none" fill-rule="evenodd"/><text font-family="Noto Sans JP,Noto Sans JP_MSFontService,sans-serif" font-weight="400" font-size="55" transform="matrix(1 0 0 1 2479.74 2022)">The output of</text><text font-family="Noto Sans JP,Noto Sans JP_MSFontService,sans-serif" font-weight="400" font-size="55" transform="matrix(1 0 0 1 2828.08 2022)"> </text><text font-family="Noto Sans JP,Noto Sans JP_MSFontService,sans-serif" font-weight="400" font-size="55" transform="matrix(1 0 0 1 2426.19 2088)">the state machine</text><text font-family="Noto Sans JP,Noto Sans JP_MSFontService,sans-serif" font-weight="400" font-size="55" transform="matrix(1 0 0 1 2881.66 2088)"> </text><text font-family="Noto Sans JP,Noto Sans JP_MSFontService,sans-serif" font-weight="400" font-size="55" transform="matrix(1 0 0 1 2462.56 2154)">in this area will</text><text font-family="Noto Sans JP,Noto Sans JP_MSFontService,sans-serif" font-weight="400" font-size="55" transform="matrix(1 0 0 1 2845.26 2154)"> </text><text font-family="Noto Sans JP,Noto Sans JP_MSFontService,sans-serif" font-weight="400" font-size="55" transform="matrix(1 0 0 1 2489.21 2220)">be discarded</text><text font-family="Noto Sans JP,Noto Sans JP_MSFontService,sans-serif" font-weight="400" font-size="55" transform="matrix(1 0 0 1 2818.63 2220)"> </text><text fill="#FF0000" font-family="Noto Sans JP,Noto Sans JP_MSFontService,sans-serif" font-weight="400" font-size="55" transform="matrix(1 0 0 1 2757.79 535)">Near Pixel</text><text fill="#FF0000" font-family="Noto Sans JP,Noto Sans JP_MSFontService,sans-serif" font-weight="400" font-size="55" transform="matrix(1 0 0 1 3012.74 535)"> </text><text fill="#FF0000" font-family="Noto Sans JP,Noto Sans JP_MSFontService,sans-serif" font-weight="400" font-size="55" transform="matrix(1 0 0 1 2797.9 1072)">Far Pixel</text><text fill="#FF0000" font-family="Noto Sans JP,Noto Sans JP_MSFontService,sans-serif" font-weight="400" font-size="55" transform="matrix(1 0 0 1 3012.74 1072)"> </text><rect x="1829" y="475" width="385" height="1386" fill="#C5BAEC"/><path d="M984 410 984.001 1939" stroke="#0070C0" stroke-width="2.29167" stroke-linecap="round" stroke-linejoin="round" stroke-miterlimit="10" stroke-dasharray="16.0417 9.16667" fill="none" fill-rule="evenodd"/><path d="M1061 410 1061 1939" stroke="#0070C0" stroke-width="2.29167" stroke-linecap="round" stroke-linejoin="round" stroke-miterlimit="10" stroke-dasharray="16.0417 9.16667" fill="none" fill-rule="evenodd"/><path d="M1138 410 1138 1939" stroke="#0070C0" stroke-width="2.29167" stroke-linecap="round" stroke-linejoin="round" stroke-miterlimit="10" stroke-dasharray="16.0417 9.16667" fill="none" fill-rule="evenodd"/><path d="M1215 410 1215 1939" stroke="#0070C0" stroke-width="2.29167" stroke-linecap="round" stroke-linejoin="round" stroke-miterlimit="10" stroke-dasharray="16.0417 9.16667" fill="none" fill-rule="evenodd"/><path d="M1292 410 1292 1939" stroke="#0070C0" stroke-width="2.29167" stroke-linecap="round" stroke-linejoin="round" stroke-miterlimit="10" stroke-dasharray="16.0417 9.16667" fill="none" fill-rule="evenodd"/><path d="M1369 410 1369 1939" stroke="#0070C0" stroke-width="2.29167" stroke-linecap="round" stroke-linejoin="round" stroke-miterlimit="10" stroke-dasharray="16.0417 9.16667" fill="none" fill-rule="evenodd"/><path d="M1446 410 1446 1939" stroke="#0070C0" stroke-width="2.29167" stroke-linecap="round" stroke-linejoin="round" stroke-miterlimit="10" stroke-dasharray="16.0417 9.16667" fill="none" fill-rule="evenodd"/><path d="M1523 410 1523 1939" stroke="#0070C0" stroke-width="2.29167" stroke-linecap="round" stroke-linejoin="round" stroke-miterlimit="10" stroke-dasharray="16.0417 9.16667" fill="none" fill-rule="evenodd"/><path d="M1600 410 1600 1939" stroke="#0070C0" stroke-width="2.29167" stroke-linecap="round" stroke-linejoin="round" stroke-miterlimit="10" stroke-dasharray="16.0417 9.16667" fill="none" fill-rule="evenodd"/><path d="M1677 410 1677 1939" stroke="#0070C0" stroke-width="2.29167" stroke-linecap="round" stroke-linejoin="round" stroke-miterlimit="10" stroke-dasharray="16.0417 9.16667" fill="none" fill-rule="evenodd"/><path d="M1754 410 1754 1939" stroke="#0070C0" stroke-width="2.29167" stroke-linecap="round" stroke-linejoin="round" stroke-miterlimit="10" stroke-dasharray="16.0417 9.16667" fill="none" fill-rule="evenodd"/><path d="M1831 410 1831 1939" stroke="#0070C0" stroke-width="2.29167" stroke-linecap="round" stroke-linejoin="round" stroke-miterlimit="10" stroke-dasharray="16.0417 9.16667" fill="none" fill-rule="evenodd"/><path d="M1908 410 1908 1939" stroke="#0070C0" stroke-width="2.29167" stroke-linecap="round" stroke-linejoin="round" stroke-miterlimit="10" stroke-dasharray="16.0417 9.16667" fill="none" fill-rule="evenodd"/><path d="M1982 410 1982 1939" stroke="#0070C0" stroke-width="2.29167" stroke-linecap="round" stroke-linejoin="round" stroke-miterlimit="10" stroke-dasharray="16.0417 9.16667" fill="none" fill-rule="evenodd"/><path d="M2059 410 2059 1939" stroke="#0070C0" stroke-width="2.29167" stroke-linecap="round" stroke-linejoin="round" stroke-miterlimit="10" stroke-dasharray="16.0417 9.16667" fill="none" fill-rule="evenodd"/><path d="M2136 410 2136 1939" stroke="#0070C0" stroke-width="2.29167" stroke-linecap="round" stroke-linejoin="round" stroke-miterlimit="10" stroke-dasharray="16.0417 9.16667" fill="none" fill-rule="evenodd"/><path d="M2213 410 2213 1939" stroke="#0070C0" stroke-width="2.29167" stroke-linecap="round" stroke-linejoin="round" stroke-miterlimit="10" stroke-dasharray="16.0417 9.16667" fill="none" fill-rule="evenodd"/><path d="M918 476 2282.29 476" stroke="#0070C0" stroke-width="2.29167" stroke-linecap="round" stroke-linejoin="round" stroke-miterlimit="10" stroke-dasharray="16.0417 9.16667" fill="none" fill-rule="evenodd"/><path d="M918 553 2282.29 553" stroke="#0070C0" stroke-width="2.29167" stroke-linecap="round" stroke-linejoin="round" stroke-miterlimit="10" stroke-dasharray="16.0417 9.16667" fill="none" fill-rule="evenodd"/><path d="M918 630 2282.29 630" stroke="#0070C0" stroke-width="2.29167" stroke-linecap="round" stroke-linejoin="round" stroke-miterlimit="10" stroke-dasharray="16.0417 9.16667" fill="none" fill-rule="evenodd"/><path d="M918 707 2282.29 707" stroke="#0070C0" stroke-width="2.29167" stroke-linecap="round" stroke-linejoin="round" stroke-miterlimit="10" stroke-dasharray="16.0417 9.16667" fill="none" fill-rule="evenodd"/><path d="M918 784 2282.29 784" stroke="#0070C0" stroke-width="2.29167" stroke-linecap="round" stroke-linejoin="round" stroke-miterlimit="10" stroke-dasharray="16.0417 9.16667" fill="none" fill-rule="evenodd"/><path d="M918 861 2282.29 861" stroke="#0070C0" stroke-width="2.29167" stroke-linecap="round" stroke-linejoin="round" stroke-miterlimit="10" stroke-dasharray="16.0417 9.16667" fill="none" fill-rule="evenodd"/><path d="M918 938 2282.29 938" stroke="#0070C0" stroke-width="2.29167" stroke-linecap="round" stroke-linejoin="round" stroke-miterlimit="10" stroke-dasharray="16.0417 9.16667" fill="none" fill-rule="evenodd"/><path d="M918 1015 2282.29 1015" stroke="#0070C0" stroke-width="2.29167" stroke-linecap="round" stroke-linejoin="round" stroke-miterlimit="10" stroke-dasharray="16.0417 9.16667" fill="none" fill-rule="evenodd"/><path d="M918 1092 2282.29 1092" stroke="#0070C0" stroke-width="2.29167" stroke-linecap="round" stroke-linejoin="round" stroke-miterlimit="10" stroke-dasharray="16.0417 9.16667" fill="none" fill-rule="evenodd"/><path d="M918 1169 2282.29 1169" stroke="#0070C0" stroke-width="2.29167" stroke-linecap="round" stroke-linejoin="round" stroke-miterlimit="10" stroke-dasharray="16.0417 9.16667" fill="none" fill-rule="evenodd"/><path d="M918 1246 2282.29 1246" stroke="#0070C0" stroke-width="2.29167" stroke-linecap="round" stroke-linejoin="round" stroke-miterlimit="10" stroke-dasharray="16.0417 9.16667" fill="none" fill-rule="evenodd"/><path d="M918 1323 2282.29 1323" stroke="#0070C0" stroke-width="2.29167" stroke-linecap="round" stroke-linejoin="round" stroke-miterlimit="10" stroke-dasharray="16.0417 9.16667" fill="none" fill-rule="evenodd"/><path d="M918 1400 2282.29 1400" stroke="#0070C0" stroke-width="2.29167" stroke-linecap="round" stroke-linejoin="round" stroke-miterlimit="10" stroke-dasharray="16.0417 9.16667" fill="none" fill-rule="evenodd"/><path d="M918 1477 2282.29 1477" stroke="#0070C0" stroke-width="2.29167" stroke-linecap="round" stroke-linejoin="round" stroke-miterlimit="10" stroke-dasharray="16.0417 9.16667" fill="none" fill-rule="evenodd"/><path d="M918 1554 2282.29 1554" stroke="#0070C0" stroke-width="2.29167" stroke-linecap="round" stroke-linejoin="round" stroke-miterlimit="10" stroke-dasharray="16.0417 9.16667" fill="none" fill-rule="evenodd"/><path d="M918 1631 2282.29 1631" stroke="#0070C0" stroke-width="2.29167" stroke-linecap="round" stroke-linejoin="round" stroke-miterlimit="10" stroke-dasharray="16.0417 9.16667" fill="none" fill-rule="evenodd"/><path d="M918 1708 2282.29 1708" stroke="#0070C0" stroke-width="2.29167" stroke-linecap="round" stroke-linejoin="round" stroke-miterlimit="10" stroke-dasharray="16.0417 9.16667" fill="none" fill-rule="evenodd"/><path d="M918 1785 2282.29 1785" stroke="#0070C0" stroke-width="2.29167" stroke-linecap="round" stroke-linejoin="round" stroke-miterlimit="10" stroke-dasharray="16.0417 9.16667" fill="none" fill-rule="evenodd"/><path d="M918 1862 2282.29 1862" stroke="#0070C0" stroke-width="2.29167" stroke-linecap="round" stroke-linejoin="round" stroke-miterlimit="10" stroke-dasharray="16.0417 9.16667" fill="none" fill-rule="evenodd"/><rect x="984.5" y="476.5" width="848" height="1385" stroke="#4EA72E" stroke-width="9.16667" stroke-linecap="round" stroke-linejoin="round" stroke-miterlimit="10" fill="none"/><rect x="986" y="477" width="609" height="77" stroke="#FF0000" stroke-width="13.75" stroke-linecap="round" stroke-linejoin="round" stroke-miterlimit="10" fill="none"/><text fill="#FF0000" font-family="Noto Sans JP,Noto Sans JP_MSFontService,sans-serif" font-weight="700" font-size="55" transform="matrix(1 0 0 1 1159.7 536)">Fragment</text><text fill="#FF0000" font-family="Noto Sans JP,Noto Sans JP_MSFontService,sans-serif" font-weight="700" font-size="55" transform="matrix(1 0 0 1 1420.95 536)"> </text><path d="M2215 1856.08 2215 464" stroke="#FF0000" stroke-width="13.75" stroke-linecap="round" stroke-linejoin="round" stroke-miterlimit="10" stroke-dasharray="27.5 27.5" fill="none" fill-rule="evenodd"/><path d="M1599 1856.08 1599 464" stroke="#FF0000" stroke-width="13.75" stroke-linecap="round" stroke-linejoin="round" stroke-miterlimit="10" stroke-dasharray="27.5 27.5" fill="none" fill-rule="evenodd"/><path d="M983 1856.08 983.001 464" stroke="#FF0000" stroke-width="13.75" stroke-linecap="round" stroke-linejoin="round" stroke-miterlimit="10" stroke-dasharray="27.5 27.5" fill="none" fill-rule="evenodd"/><path d="M899.095 392.854 955.968 447.951C956.877 448.831 956.9 450.282 956.02 451.191 955.139 452.1 953.688 452.123 952.779 451.242L895.906 396.146C894.996 395.265 894.973 393.815 895.854 392.906 896.735 391.997 898.186 391.974 899.095 392.854ZM960.649 436.532 970.833 465.542 941.515 456.283Z"/><text font-family="Noto Sans JP,Noto Sans JP_MSFontService,sans-serif" font-weight="400" font-size="55" transform="matrix(1 0 0 1 648.724 300)">Cusror</text><text font-family="Noto Sans JP,Noto Sans JP_MSFontService,sans-serif" font-weight="400" font-size="55" transform="matrix(1 0 0 1 817.162 300)"> </text><text font-family="Noto Sans JP,Noto Sans JP_MSFontService,sans-serif" font-weight="400" font-size="55" transform="matrix(1 0 0 1 829.766 300)">at</text><text font-family="Noto Sans JP,Noto Sans JP_MSFontService,sans-serif" font-weight="400" font-size="55" transform="matrix(1 0 0 1 880.183 300)"> </text><text font-family="Noto Sans JP,Noto Sans JP_MSFontService,sans-serif" font-weight="400" font-size="55" transform="matrix(1 0 0 1 608.895 366)">start of scan</text><text font-family="Noto Sans JP,Noto Sans JP_MSFontService,sans-serif" font-weight="400" font-size="55" transform="matrix(1 0 0 1 919.989 366)"> </text><path d="M1.83136-1.37763 80.4092 103.08C81.1701 104.092 80.9669 105.529 79.9555 106.289 78.9441 107.05 77.5074 106.847 76.7465 105.836L-1.83136 1.37763C-2.5922 0.366196-2.38906-1.07052-1.37763-1.83136-0.366196-2.5922 1.07052-2.38906 1.83136-1.37763ZM86.8108 92.5295 92.3542 122.772 64.8345 109.061Z" transform="matrix(1 0 0 -1 1502.5 1991.27)"/><text font-family="Noto Sans JP,Noto Sans JP_MSFontService,sans-serif" font-weight="400" font-size="55" transform="matrix(1 0 0 1 1309.05 2057)">Cusror</text><text font-family="Noto Sans JP,Noto Sans JP_MSFontService,sans-serif" font-weight="400" font-size="55" transform="matrix(1 0 0 1 1477.48 2057)"> </text><text font-family="Noto Sans JP,Noto Sans JP_MSFontService,sans-serif" font-weight="400" font-size="55" transform="matrix(1 0 0 1 1490.09 2057)">at</text><text font-family="Noto Sans JP,Noto Sans JP_MSFontService,sans-serif" font-weight="400" font-size="55" transform="matrix(1 0 0 1 1540.5 2057)"> </text><text font-family="Noto Sans JP,Noto Sans JP_MSFontService,sans-serif" font-weight="400" font-size="55" transform="matrix(1 0 0 1 1278.98 2123)">end of scan</text><text font-family="Noto Sans JP,Noto Sans JP_MSFontService,sans-serif" font-weight="400" font-size="55" transform="matrix(1 0 0 1 1570.59 2123)"> </text><path d="M0 0 0.000360892 153.542" stroke="#000000" stroke-width="4.58333" stroke-linecap="round" stroke-linejoin="round" stroke-miterlimit="10" fill="none" fill-rule="evenodd" transform="matrix(1 0 0 -1 984.5 454.042)"/><path d="M0 0 0.000360892 153.542" stroke="#000000" stroke-width="4.58333" stroke-linecap="round" stroke-linejoin="round" stroke-miterlimit="10" fill="none" fill-rule="evenodd" transform="matrix(1 0 0 -1 1835.5 454.042)"/><path d="M1007.42 344.208 1812.71 344.209C1813.97 344.209 1815 345.235 1815 346.5 1815 347.766 1813.97 348.792 1812.71 348.792L1007.42 348.792C1006.15 348.792 1005.13 347.766 1005.13 346.5 1005.13 345.234 1006.15 344.208 1007.42 344.208ZM1012 360.25 984.5 346.5 1012 332.75ZM1808.12 332.75 1835.62 346.5 1808.12 360.25Z"/><text font-family="Noto Sans JP,Noto Sans JP_MSFontService,sans-serif" font-weight="400" font-size="55" transform="matrix(1 0 0 1 1299.6 317)">glyphWidth</text><text font-family="Noto Sans JP,Noto Sans JP_MSFontService,sans-serif" font-weight="400" font-size="55" transform="matrix(1 0 0 1 1593.51 317)"> </text><path d="M2.29167 22.9158 2.29202 1362.45C2.29202 1363.72 1.26601 1364.74 0.000355521 1364.74-1.2653 1364.74-2.29131 1363.72-2.29131 1362.45L-2.29166 22.9158C-2.29166 21.6501-1.26565 20.6241 5.37265e-06 20.6241 1.26566 20.6241 2.29167 21.6501 2.29167 22.9158ZM-13.75 27.5 0 0 13.75 27.5ZM13.7504 1357.86 0.000360892 1385.36-13.7496 1357.86Z" transform="matrix(1 0 0 -1 773.5 1860.86)"/><path d="M0 0 0.000360892 226.761" stroke="#000000" stroke-width="4.58333" stroke-linecap="round" stroke-linejoin="round" stroke-miterlimit="10" fill="none" fill-rule="evenodd" transform="matrix(6.12323e-17 1 1 -6.12323e-17 725.5 477.5)"/><path d="M0 0 0.000360892 226.761" stroke="#000000" stroke-width="4.58333" stroke-linecap="round" stroke-linejoin="round" stroke-miterlimit="10" fill="none" fill-rule="evenodd" transform="matrix(6.12323e-17 1 1 -6.12323e-17 725.5 1861.5)"/><text font-family="Noto Sans JP,Noto Sans JP_MSFontService,sans-serif" font-weight="400" font-size="55" transform="matrix(1 0 0 1 438.911 1183)">glyphHeight</text><text font-family="Noto Sans JP,Noto Sans JP_MSFontService,sans-serif" font-weight="400" font-size="55" transform="matrix(1 0 0 1 751.723 1183)"> </text><path d="M78.9997 361C57.1844 361 39.4997 347.245 39.4997 330.278L39.5 211.222C39.5 194.255 21.8153 180.5-5.74503e-15 180.5 21.8153 180.5 39.5 166.745 39.5 149.778L39.5 30.7221C39.5 13.7548 57.1848 0 79.0001 0" stroke="#000000" stroke-width="4.58333" stroke-linecap="round" stroke-linejoin="round" stroke-miterlimit="10" fill="none" fill-rule="evenodd" transform="matrix(-6.12323e-17 -1 -1 6.12323e-17 2202.5 1969.5)"/><text fill="#FF0000" font-family="Noto Sans JP,Noto Sans JP_MSFontService,sans-serif" font-weight="400" font-size="55" transform="matrix(1 0 0 1 996.13 454)">Near </text><text fill="#FF0000" font-family="Noto Sans JP,Noto Sans JP_MSFontService,sans-serif" font-weight="400" font-size="55" transform="matrix(1 0 0 1 1129.05 454)">Pixel</text><text fill="#FF0000" font-family="Noto Sans JP,Noto Sans JP_MSFontService,sans-serif" font-weight="400" font-size="55" transform="matrix(1 0 0 1 1251.08 454)"> </text><text fill="#FF0000" font-family="Noto Sans JP,Noto Sans JP_MSFontService,sans-serif" font-weight="400" font-size="55" transform="matrix(1 0 0 1 1373.45 450)">Far </text><text fill="#FF0000" font-family="Noto Sans JP,Noto Sans JP_MSFontService,sans-serif" font-weight="400" font-size="55" transform="matrix(1 0 0 1 1466.27 450)">Pixel</text><text fill="#FF0000" font-family="Noto Sans JP,Noto Sans JP_MSFontService,sans-serif" font-weight="400" font-size="55" transform="matrix(1 0 0 1 1588.3 450)"> </text><path d="M1296 591 1296 1817.5" stroke="#FF0000" stroke-width="13.75" stroke-linecap="round" stroke-linejoin="round" stroke-miterlimit="10" fill="none" fill-rule="evenodd"/><path d="M0 0 605 1300.75" stroke="#FF0000" stroke-width="13.75" stroke-linecap="round" stroke-linejoin="round" stroke-miterlimit="10" fill="none" fill-rule="evenodd" transform="matrix(1 0 0 -1 1299 1817.75)"/><path d="M1909.88 517 1909.88 1709.13C1909.88 1712.92 1906.8 1716 1903 1716 1899.2 1716 1896.13 1712.92 1896.13 1709.13L1896.12 517C1896.12 513.203 1899.2 510.125 1903 510.125 1906.8 510.125 1909.88 513.203 1909.88 517ZM1923.63 1702.25 1903 1743.5 1882.38 1702.25Z" fill="#FF0000"/><text font-family="Noto Sans JP,Noto Sans JP_MSFontService,sans-serif" font-weight="700" font-size="83" transform="matrix(1 0 0 1 1021.74 137)">Horizonal Fragment</text><text font-family="Noto Sans JP,Noto Sans JP_MSFontService,sans-serif" font-weight="700" font-size="83" transform="matrix(1 0 0 1 1827.83 137)"> </text><text font-family="Noto Sans JP,Noto Sans JP_MSFontService,sans-serif" font-weight="700" font-size="83" transform="matrix(1 0 0 1 3074.33 137)">Vertical Fragment</text><text font-family="Noto Sans JP,Noto Sans JP_MSFontService,sans-serif" font-weight="700" font-size="83" transform="matrix(1 0 0 1 3795.63 137)"> </text><text font-family="Noto Sans JP,Noto Sans JP_MSFontService,sans-serif" font-weight="400" font-size="55" transform="matrix(1 0 0 1 1847.41 2046)">The output of</text><text font-family="Noto Sans JP,Noto Sans JP_MSFontService,sans-serif" font-weight="400" font-size="55" transform="matrix(1 0 0 1 2195.75 2046)"> </text><text font-family="Noto Sans JP,Noto Sans JP_MSFontService,sans-serif" font-weight="400" font-size="55" transform="matrix(1 0 0 1 1793.86 2112)">the state machine</text><text font-family="Noto Sans JP,Noto Sans JP_MSFontService,sans-serif" font-weight="400" font-size="55" transform="matrix(1 0 0 1 2249.33 2112)"> </text><text font-family="Noto Sans JP,Noto Sans JP_MSFontService,sans-serif" font-weight="400" font-size="55" transform="matrix(1 0 0 1 1830.23 2178)">in this area will</text><text font-family="Noto Sans JP,Noto Sans JP_MSFontService,sans-serif" font-weight="400" font-size="55" transform="matrix(1 0 0 1 2212.94 2178)"> </text><text font-family="Noto Sans JP,Noto Sans JP_MSFontService,sans-serif" font-weight="400" font-size="55" transform="matrix(1 0 0 1 1856.88 2244)">be discarded</text><text font-family="Noto Sans JP,Noto Sans JP_MSFontService,sans-serif" font-weight="400" font-size="55" transform="matrix(1 0 0 1 2186.31 2244)"> </text><rect x="1598" y="1784" width="616" height="77" stroke="#FF0000" stroke-width="13.75" stroke-linecap="round" stroke-linejoin="round" stroke-miterlimit="10" fill="none"/><text fill="#FF0000" font-family="Noto Sans JP,Noto Sans JP_MSFontService,sans-serif" font-weight="700" font-size="55" transform="matrix(1 0 0 1 1775.51 1842)">Fragment</text><text fill="#FF0000" font-family="Noto Sans JP,Noto Sans JP_MSFontService,sans-serif" font-weight="700" font-size="55" transform="matrix(1 0 0 1 2036.76 1842)"> </text><rect x="3028" y="475" width="77" height="616" stroke="#FF0000" stroke-width="13.75" stroke-linecap="round" stroke-linejoin="round" stroke-miterlimit="10" fill="none"/><text fill="#FF0000" font-family="Noto Sans JP,Noto Sans JP_MSFontService,sans-serif" font-weight="700" font-size="55" transform="matrix(-1.83697e-16 -1 1 -1.83697e-16 3086.54 914)">Fragment</text><text fill="#FF0000" font-family="Noto Sans JP,Noto Sans JP_MSFontService,sans-serif" font-weight="700" font-size="55" transform="matrix(-1.83697e-16 -1 1 -1.83697e-16 3086.54 653)"> </text><rect x="3799" y="1708" width="77" height="616" stroke="#FF0000" stroke-width="13.75" stroke-linecap="round" stroke-linejoin="round" stroke-miterlimit="10" fill="none"/><text fill="#FF0000" font-family="Noto Sans JP,Noto Sans JP_MSFontService,sans-serif" font-weight="700" font-size="55" transform="matrix(-1.83697e-16 -1 1 -1.83697e-16 3857.63 2146)">Fragment</text><text fill="#FF0000" font-family="Noto Sans JP,Noto Sans JP_MSFontService,sans-serif" font-weight="700" font-size="55" transform="matrix(-1.83697e-16 -1 1 -1.83697e-16 3857.63 1885)"> </text><text fill="#FF0000" font-family="Noto Sans JP,Noto Sans JP_MSFontService,sans-serif" font-weight="400" font-size="55" transform="matrix(-1.83697e-16 -1 1 -1.83697e-16 1257.99 1316)">Scan Lane 0</text><text fill="#FF0000" font-family="Noto Sans JP,Noto Sans JP_MSFontService,sans-serif" font-weight="400" font-size="55" transform="matrix(-1.83697e-16 -1 1 -1.83697e-16 1257.99 1011)"> </text><text fill="#FF0000" font-family="Noto Sans JP,Noto Sans JP_MSFontService,sans-serif" font-weight="400" font-size="55" transform="matrix(-1.83697e-16 -1 1 -1.83697e-16 1859.34 1316)">Scan Lane 1</text><text fill="#FF0000" font-family="Noto Sans JP,Noto Sans JP_MSFontService,sans-serif" font-weight="400" font-size="55" transform="matrix(-1.83697e-16 -1 1 -1.83697e-16 1859.34 1011)"> </text><text fill="#FF0000" font-family="Noto Sans JP,Noto Sans JP_MSFontService,sans-serif" font-weight="400" font-size="55" transform="matrix(1 0 0 1 3319.42 757)">Scan Lane 0</text><text fill="#FF0000" font-family="Noto Sans JP,Noto Sans JP_MSFontService,sans-serif" font-weight="400" font-size="55" transform="matrix(1 0 0 1 3624.21 757)"> </text><text fill="#FF0000" font-family="Noto Sans JP,Noto Sans JP_MSFontService,sans-serif" font-weight="400" font-size="55" transform="matrix(1 0 0 1 3319.42 1376)">Scan Lane 1</text><text fill="#FF0000" font-family="Noto Sans JP,Noto Sans JP_MSFontService,sans-serif" font-weight="400" font-size="55" transform="matrix(1 0 0 1 3624.21 1376)"> </text><text fill="#FF0000" font-family="Noto Sans JP,Noto Sans JP_MSFontService,sans-serif" font-weight="400" font-size="55" transform="matrix(1 0 0 1 3319.42 1989)">Scan Lane 2</text><text fill="#FF0000" font-family="Noto Sans JP,Noto Sans JP_MSFontService,sans-serif" font-weight="400" font-size="55" transform="matrix(1 0 0 1 3624.21 1989)"> </text></g></svg>