<svg width="2790" height="1373" xmlns="http://www.w3.org/2000/svg" xmlns:xlink="http://www.w3.org/1999/xlink" xml:space="preserve" overflow="hidden"><defs><clipPath id="clip0"><rect x="275" y="395" width="2790" height="1373"/></clipPath></defs><g clip-path="url(#clip0)" transform="translate(-275 -395)"><path d="M275 460.78C275 424.451 304.451 395 340.78 395L2999.22 395C3035.55 395 3065 424.451 3065 460.78L3065 1702.22C3065 1738.55 3035.55 1768 2999.22 1768L340.78 1768C304.451 1768 275 1738.55 275 1702.22Z" fill="#E4E8EC" fill-rule="evenodd"/><text font-family="Arial,Arial_MSFontService,sans-serif" font-weight="400" font-size="55" transform="matrix(1 0 0 1 1790.29 717)">firstCode</text><text font-family="Arial,Arial_MSFontService,sans-serif" font-weight="400" font-size="55" transform="matrix(1 0 0 1 1790.29 933)">firstCode</text><text font-family="Arial,Arial_MSFontService,sans-serif" font-weight="400" font-size="55" transform="matrix(1 0 0 1 2025.19 933)">+ 1</text><text font-family="Arial,Arial_MSFontService,sans-serif" font-weight="400" font-size="55" transform="matrix(1 0 0 1 1790.29 1149)">firstCode</text><text font-family="Arial,Arial_MSFontService,sans-serif" font-weight="400" font-size="55" transform="matrix(1 0 0 1 2025.19 1149)">+ 2</text><path d="M2208.5 799.5C2189.45 799.5 2174 788.117 2174 774.076L2174 726.546C2174 712.505 2158.55 701.122 2139.5 701.122 2158.55 701.122 2174 689.74 2174 675.698L2174 624.924C2174 610.883 2189.45 599.5 2208.5 599.5" stroke="#000000" stroke-width="4.58333" stroke-linecap="round" stroke-linejoin="round" stroke-miterlimit="10" fill="none" fill-rule="evenodd"/><path d="M2208.5 1016.5C2189.45 1016.5 2174 1005.12 2174 991.076L2174 943.054C2174 929.013 2158.55 917.63 2139.5 917.63 2158.55 917.63 2174 906.247 2174 892.206L2174 840.924C2174 826.882 2189.45 815.5 2208.5 815.5" stroke="#000000" stroke-width="4.58333" stroke-linecap="round" stroke-linejoin="round" stroke-miterlimit="10" fill="none" fill-rule="evenodd"/><path d="M2208.5 1232.5C2189.45 1232.5 2174 1221.12 2174 1207.08L2174 1159.55C2174 1145.5 2158.55 1134.12 2139.5 1134.12 2158.55 1134.12 2174 1122.74 2174 1108.7L2174 1057.92C2174 1043.88 2189.45 1032.5 2208.5 1032.5" stroke="#000000" stroke-width="4.58333" stroke-linecap="round" stroke-linejoin="round" stroke-miterlimit="10" fill="none" fill-rule="evenodd"/><text font-family="Arial,Arial_MSFontService,sans-serif" font-weight="400" font-size="55" transform="matrix(1 0 0 1 542.035 664)">firstCode</text><text font-family="Arial,Arial_MSFontService,sans-serif" font-weight="400" font-size="55" transform="matrix(1 0 0 1 542.035 771)">firstCode</text><text font-family="Arial,Arial_MSFontService,sans-serif" font-weight="400" font-size="55" transform="matrix(1 0 0 1 776.931 771)">+ 1</text><text font-family="Arial,Arial_MSFontService,sans-serif" font-weight="400" font-size="55" transform="matrix(1 0 0 1 542.035 878)">firstCode</text><text font-family="Arial,Arial_MSFontService,sans-serif" font-weight="400" font-size="55" transform="matrix(1 0 0 1 776.931 878)">+ 2</text><text font-family="Arial,Arial_MSFontService,sans-serif" font-weight="400" font-size="55" transform="matrix(1 0 0 1 542.035 986)">firstCode</text><text font-family="Arial,Arial_MSFontService,sans-serif" font-weight="400" font-size="55" transform="matrix(1 0 0 1 776.931 986)">+ 3</text><text font-family="Arial,Arial_MSFontService,sans-serif" font-weight="400" font-size="55" transform="matrix(1 0 0 1 542.035 1092)">firstCode</text><text font-family="Arial,Arial_MSFontService,sans-serif" font-weight="400" font-size="55" transform="matrix(1 0 0 1 776.931 1092)">+ </text><text font-family="Arial,Arial_MSFontService,sans-serif" font-weight="400" font-size="55" transform="matrix(1 0 0 1 824.483 1092)">4</text><text font-family="Arial,Arial_MSFontService,sans-serif" font-weight="400" font-size="55" transform="matrix(1 0 0 1 542.035 1199)">firstCode</text><text font-family="Arial,Arial_MSFontService,sans-serif" font-weight="400" font-size="55" transform="matrix(1 0 0 1 776.931 1199)">+ </text><text font-family="Arial,Arial_MSFontService,sans-serif" font-weight="400" font-size="55" transform="matrix(1 0 0 1 824.483 1199)">5</text><text font-family="Arial,Arial_MSFontService,sans-serif" font-weight="700" font-size="55" transform="matrix(1 0 0 1 973.999 547)">Monospaced</text><rect x="889" y="589" width="507" height="1047" fill="#FFFFFF"/><rect x="889" y="1528" width="507" height="108" fill="#D9D9D9"/><text font-family="Arial,Arial_MSFontService,sans-serif" font-weight="400" font-size="55" transform="matrix(1 0 0 1 906.969 1602)">(0xFF if necessary)</text><text font-family="Arial,Arial_MSFontService,sans-serif" font-weight="400" font-size="55" transform="matrix(1 0 0 1 1012.67 663)">glyphEntry</text><text font-family="Arial,Arial_MSFontService,sans-serif" font-weight="400" font-size="55" transform="matrix(1 0 0 1 1012.67 772)">glyphEntry</text><text font-family="Arial,Arial_MSFontService,sans-serif" font-weight="400" font-size="55" transform="matrix(1 0 0 1 1012.67 880)">glyphEntry</text><text font-family="Arial,Arial_MSFontService,sans-serif" font-weight="400" font-size="55" transform="matrix(1 0 0 1 1012.67 988)">glyphEntry</text><text font-family="Arial,Arial_MSFontService,sans-serif" font-weight="400" font-size="55" transform="matrix(1 0 0 1 1012.67 1096)">glyphEntry</text><text font-family="Arial,Arial_MSFontService,sans-serif" font-weight="400" font-size="55" transform="matrix(1 0 0 1 1012.67 1203)">glyphEntry</text><path d="M889.5 698.5 1396.67 698.5" stroke="#000000" stroke-width="4.58333" stroke-linecap="round" stroke-linejoin="round" stroke-miterlimit="10" fill="none" fill-rule="evenodd"/><path d="M889.5 806.5 1396.67 806.5" stroke="#000000" stroke-width="4.58333" stroke-linecap="round" stroke-linejoin="round" stroke-miterlimit="10" fill="none" fill-rule="evenodd"/><path d="M889.5 914.5 1396.67 914.5" stroke="#000000" stroke-width="4.58333" stroke-linecap="round" stroke-linejoin="round" stroke-miterlimit="10" fill="none" fill-rule="evenodd"/><path d="M889.5 1022.5 1396.67 1022.5" stroke="#000000" stroke-width="4.58333" stroke-linecap="round" stroke-linejoin="round" stroke-miterlimit="10" fill="none" fill-rule="evenodd"/><path d="M889.5 1130.5 1396.67 1130.5" stroke="#000000" stroke-width="4.58333" stroke-linecap="round" stroke-linejoin="round" stroke-miterlimit="10" fill="none" fill-rule="evenodd"/><path d="M889.5 1237.5 1396.67 1237.5" stroke="#000000" stroke-width="4.58333" stroke-linecap="round" stroke-linejoin="round" stroke-miterlimit="10" fill="none" fill-rule="evenodd"/><path d="M889.5 1420.5 1396.67 1420.5" stroke="#000000" stroke-width="4.58333" stroke-linecap="round" stroke-linejoin="round" stroke-miterlimit="10" fill="none" fill-rule="evenodd"/><path d="M889.5 1528.5 1396.67 1528.5" stroke="#000000" stroke-width="4.58333" stroke-linecap="round" stroke-linejoin="round" stroke-miterlimit="10" fill="none" fill-rule="evenodd"/><text font-family="Arial,Arial_MSFontService,sans-serif" font-weight="400" font-size="55" transform="matrix(1 0 0 1 1012.67 1494)">glyphEntry</text><rect x="889.5" y="589.5" width="507" height="1047" stroke="#000000" stroke-width="4.58333" stroke-linecap="round" stroke-linejoin="round" stroke-miterlimit="10" fill="none"/><path d="M1134 1294C1134 1289.03 1137.58 1285 1142 1285 1146.42 1285 1150 1289.03 1150 1294 1150 1298.97 1146.42 1303 1142 1303 1137.58 1303 1134 1298.97 1134 1294Z" fill-rule="evenodd"/><path d="M1134 1333C1134 1328.03 1137.58 1324 1142 1324 1146.42 1324 1150 1328.03 1150 1333 1150 1337.97 1146.42 1342 1142 1342 1137.58 1342 1134 1337.97 1134 1333Z" fill-rule="evenodd"/><path d="M1134 1372C1134 1367.03 1137.58 1363 1142 1363 1146.42 1363 1150 1367.03 1150 1372 1150 1376.97 1146.42 1381 1142 1381 1137.58 1381 1134 1376.97 1134 1372Z" fill-rule="evenodd"/><text font-family="Arial,Arial_MSFontService,sans-serif" font-weight="700" font-size="55" transform="matrix(1 0 0 1 2320.16 547)">Proportional</text><rect x="2230" y="589" width="508" height="1047" fill="#FFFFFF"/><text font-family="Arial,Arial_MSFontService,sans-serif" font-weight="400" font-size="55" transform="matrix(1 0 0 1 2354.54 663)">glyphEntry</text><text font-family="Arial,Arial_MSFontService,sans-serif" font-weight="400" font-size="55" transform="matrix(1 0 0 1 2289.51 772)">glyphDimension</text><text font-family="Arial,Arial_MSFontService,sans-serif" font-weight="400" font-size="55" transform="matrix(1 0 0 1 2354.54 880)">glyphEntry</text><text font-family="Arial,Arial_MSFontService,sans-serif" font-weight="400" font-size="55" transform="matrix(1 0 0 1 2289.51 988)">glyphDimension</text><text font-family="Arial,Arial_MSFontService,sans-serif" font-weight="400" font-size="55" transform="matrix(1 0 0 1 2354.54 1096)">glyphEntry</text><text font-family="Arial,Arial_MSFontService,sans-serif" font-weight="400" font-size="55" transform="matrix(1 0 0 1 2289.51 1204)">glyphDimension</text><path d="M2230.5 698.5 2737.67 698.5" stroke="#000000" stroke-width="4.58333" stroke-linecap="round" stroke-linejoin="round" stroke-miterlimit="10" stroke-dasharray="13.75 18.3333" fill="none" fill-rule="evenodd"/><path d="M2230.5 806.5 2737.67 806.5" stroke="#000000" stroke-width="4.58333" stroke-linecap="round" stroke-linejoin="round" stroke-miterlimit="10" fill="none" fill-rule="evenodd"/><path d="M2230.5 914.5 2737.67 914.5" stroke="#000000" stroke-width="4.58333" stroke-linecap="round" stroke-linejoin="round" stroke-miterlimit="10" stroke-dasharray="13.75 18.3333" fill="none" fill-rule="evenodd"/><path d="M2230.5 1022.5 2737.67 1022.5" stroke="#000000" stroke-width="4.58333" stroke-linecap="round" stroke-linejoin="round" stroke-miterlimit="10" fill="none" fill-rule="evenodd"/><path d="M2230.5 1130.5 2737.67 1130.5" stroke="#000000" stroke-width="4.58333" stroke-linecap="round" stroke-linejoin="round" stroke-miterlimit="10" stroke-dasharray="13.75 18.3333" fill="none" fill-rule="evenodd"/><path d="M2230.5 1238.5 2737.67 1238.5" stroke="#000000" stroke-width="4.58333" stroke-linecap="round" stroke-linejoin="round" stroke-miterlimit="10" fill="none" fill-rule="evenodd"/><path d="M2230.5 1420.5 2737.67 1420.5" stroke="#000000" stroke-width="4.58333" stroke-linecap="round" stroke-linejoin="round" stroke-miterlimit="10" fill="none" fill-rule="evenodd"/><path d="M2230.5 1528.5 2737.67 1528.5" stroke="#000000" stroke-width="4.58333" stroke-linecap="round" stroke-linejoin="round" stroke-miterlimit="10" stroke-dasharray="13.75 18.3333" fill="none" fill-rule="evenodd"/><text font-family="Arial,Arial_MSFontService,sans-serif" font-weight="400" font-size="55" transform="matrix(1 0 0 1 2354.54 1494)">glyphEntry</text><text font-family="Arial,Arial_MSFontService,sans-serif" font-weight="400" font-size="55" transform="matrix(1 0 0 1 2289.51 1602)">glyphDimension</text><rect x="2230.5" y="589.5" width="508" height="1047" stroke="#000000" stroke-width="4.58333" stroke-linecap="round" stroke-linejoin="round" stroke-miterlimit="10" fill="none"/><path d="M2476 1294C2476 1289.03 2479.58 1285 2484 1285 2488.42 1285 2492 1289.03 2492 1294 2492 1298.97 2488.42 1303 2484 1303 2479.58 1303 2476 1298.97 2476 1294Z" fill-rule="evenodd"/><path d="M2476 1333C2476 1328.03 2479.58 1324 2484 1324 2488.42 1324 2492 1328.03 2492 1333 2492 1337.97 2488.42 1342 2484 1342 2479.58 1342 2476 1337.97 2476 1333Z" fill-rule="evenodd"/><path d="M2476 1372C2476 1367.03 2479.58 1363 2484 1363 2488.42 1363 2492 1367.03 2492 1372 2492 1376.97 2488.42 1381 2484 1381 2479.58 1381 2476 1376.97 2476 1372Z" fill-rule="evenodd"/><path d="M2208.5 1627.5C2189.45 1627.5 2174 1616.12 2174 1602.08L2174 1554.55C2174 1540.5 2158.55 1529.12 2139.5 1529.12 2158.55 1529.12 2174 1517.74 2174 1503.7L2174 1452.92C2174 1438.88 2189.45 1427.5 2208.5 1427.5" stroke="#000000" stroke-width="4.58333" stroke-linecap="round" stroke-linejoin="round" stroke-miterlimit="10" fill="none" fill-rule="evenodd"/><path d="M789.5 1634.21 843.927 1634.21C845.193 1634.21 846.219 1635.23 846.219 1636.5 846.219 1637.77 845.193 1638.79 843.927 1638.79L789.5 1638.79C788.234 1638.79 787.208 1637.77 787.208 1636.5 787.208 1635.23 788.234 1634.21 789.5 1634.21ZM839.344 1622.75 866.844 1636.5 839.344 1650.25Z"/><text font-family="Arial,Arial_MSFontService,sans-serif" font-weight="400" font-size="55" transform="matrix(1 0 0 1 366.642 1657)">2</text><text font-family="Arial,Arial_MSFontService,sans-serif" font-weight="400" font-size="55" transform="matrix(1 0 0 1 412.476 1657)">Byte</text><text font-family="Arial,Arial_MSFontService,sans-serif" font-weight="400" font-size="55" transform="matrix(1 0 0 1 537.945 1657)">Boundar</text><text font-family="Arial,Arial_MSFontService,sans-serif" font-weight="400" font-size="55" transform="matrix(1 0 0 1 744.767 1657)">y</text><path d="M1418.5 698.5 1501.34 698.5" stroke="#000000" stroke-width="4.58333" stroke-linecap="round" stroke-linejoin="round" stroke-miterlimit="10" fill="none" fill-rule="evenodd"/><path d="M1418.5 589.5 1501.34 589.5" stroke="#000000" stroke-width="4.58333" stroke-linecap="round" stroke-linejoin="round" stroke-miterlimit="10" fill="none" fill-rule="evenodd"/><path d="M1472.79 612.417 1472.79 674.78C1472.79 676.046 1471.77 677.072 1470.5 677.072 1469.23 677.072 1468.21 676.046 1468.21 674.78L1468.21 612.417C1468.21 611.151 1469.23 610.125 1470.5 610.125 1471.77 610.125 1472.79 611.151 1472.79 612.417ZM1456.75 617 1470.5 589.5 1484.25 617ZM1484.25 670.197 1470.5 697.697 1456.75 670.197Z"/><text font-family="Arial,Arial_MSFontService,sans-serif" font-weight="400" font-size="55" transform="matrix(1 0 0 1 1527.4 630)">1 or 2</text><text font-family="Arial,Arial_MSFontService,sans-serif" font-weight="400" font-size="55" transform="matrix(1 0 0 1 1528.82 696)">Bytes</text><path d="M2756.5 806.5 2839.34 806.5" stroke="#000000" stroke-width="4.58333" stroke-linecap="round" stroke-linejoin="round" stroke-miterlimit="10" fill="none" fill-rule="evenodd"/><path d="M2756.5 589.5 2839.34 589.5" stroke="#000000" stroke-width="4.58333" stroke-linecap="round" stroke-linejoin="round" stroke-miterlimit="10" fill="none" fill-rule="evenodd"/><path d="M2811.79 612.417 2811.79 782.78C2811.79 784.045 2810.77 785.071 2809.5 785.071 2808.23 785.071 2807.21 784.045 2807.21 782.78L2807.21 612.417C2807.21 611.151 2808.23 610.125 2809.5 610.125 2810.77 610.125 2811.79 611.151 2811.79 612.417ZM2795.75 617 2809.5 589.5 2823.25 617ZM2823.25 778.196 2809.5 805.696 2795.75 778.196Z"/><text font-family="Arial,Arial_MSFontService,sans-serif" font-weight="400" font-size="55" transform="matrix(1 0 0 1 2846.53 685)">2 or 4</text><text font-family="Arial,Arial_MSFontService,sans-serif" font-weight="400" font-size="55" transform="matrix(1 0 0 1 2847.95 751)">Bytes</text><text font-family="Arial,Arial_MSFontService,sans-serif" font-weight="400" font-size="55" transform="matrix(1 0 0 1 1790.29 1551)">lastCode</text><text font-family="Arial,Arial_MSFontService,sans-serif" font-weight="400" font-size="55" transform="matrix(1 0 0 1 542.035 1497)">lastCode</text></g></svg>