<svg width="2021" height="1126" xmlns="http://www.w3.org/2000/svg" xmlns:xlink="http://www.w3.org/1999/xlink" xml:space="preserve" overflow="hidden"><g transform="translate(-2267 -1146)"><path d="M2267 1176.44C2267 1159.63 2280.63 1146 2297.44 1146L4257.56 1146C4274.37 1146 4288 1159.63 4288 1176.44L4288 2241.56C4288 2258.37 4274.37 2272 4257.56 2272L2297.44 2272C2280.63 2272 2267 2258.37 2267 2241.56Z" fill="#E4E8EC" fill-rule="evenodd"/><rect x="2487" y="1582" width="1579" height="615" fill="#FFFFFF"/><rect x="2701.5" y="2043.5" width="234" height="156" stroke="#000000" stroke-width="4.58333" stroke-linecap="round" stroke-linejoin="round" stroke-miterlimit="10"/><rect x="2934.5" y="1966.5" width="227" height="156" stroke="#000000" stroke-width="4.58333" stroke-linecap="round" stroke-linejoin="round" stroke-miterlimit="10"/><rect x="3158.5" y="1889.5" width="232" height="156" stroke="#000000" stroke-width="4.58333" stroke-linecap="round" stroke-linejoin="round" stroke-miterlimit="10"/><rect x="3389.5" y="1813.5" width="237" height="156" stroke="#000000" stroke-width="4.58333" stroke-linecap="round" stroke-linejoin="round" stroke-miterlimit="10"/><rect x="3627.5" y="1735.5" width="228" height="156" stroke="#000000" stroke-width="4.58333" stroke-linecap="round" stroke-linejoin="round" stroke-miterlimit="10"/><path d="M2487 1582 4073.44 1582" stroke="#0F9ED5" stroke-width="2.29167" stroke-linecap="round" stroke-linejoin="round" stroke-miterlimit="10" stroke-dasharray="16.0417 9.16667" fill="none" fill-rule="evenodd"/><path d="M2487 1659 4073.44 1659" stroke="#0F9ED5" stroke-width="2.29167" stroke-linecap="round" stroke-linejoin="round" stroke-miterlimit="10" stroke-dasharray="16.0417 9.16667" fill="none" fill-rule="evenodd"/><path d="M2487 1736 4073.44 1736" stroke="#0F9ED5" stroke-width="2.29167" stroke-linecap="round" stroke-linejoin="round" stroke-miterlimit="10" stroke-dasharray="16.0417 9.16667" fill="none" fill-rule="evenodd"/><path d="M2487 1813 4073.44 1813" stroke="#0F9ED5" stroke-width="2.29167" stroke-linecap="round" stroke-linejoin="round" stroke-miterlimit="10" stroke-dasharray="16.0417 9.16667" fill="none" fill-rule="evenodd"/><path d="M2487 1890 4073.44 1890" stroke="#0F9ED5" stroke-width="2.29167" stroke-linecap="round" stroke-linejoin="round" stroke-miterlimit="10" stroke-dasharray="16.0417 9.16667" fill="none" fill-rule="evenodd"/><path d="M2487 1967 4073.44 1967" stroke="#0F9ED5" stroke-width="2.29167" stroke-linecap="round" stroke-linejoin="round" stroke-miterlimit="10" stroke-dasharray="16.0417 9.16667" fill="none" fill-rule="evenodd"/><path d="M2487 2044 4073.44 2044" stroke="#0F9ED5" stroke-width="2.29167" stroke-linecap="round" stroke-linejoin="round" stroke-miterlimit="10" stroke-dasharray="16.0417 9.16667" fill="none" fill-rule="evenodd"/><path d="M2487 2121 4073.44 2121" stroke="#0F9ED5" stroke-width="2.29167" stroke-linecap="round" stroke-linejoin="round" stroke-miterlimit="10" stroke-dasharray="16.0417 9.16667" fill="none" fill-rule="evenodd"/><path d="M2487 2198 4073.44 2198" stroke="#0F9ED5" stroke-width="2.29167" stroke-linecap="round" stroke-linejoin="round" stroke-miterlimit="10" stroke-dasharray="16.0417 9.16667" fill="none" fill-rule="evenodd"/><path d="M2548 1582 2548 2197.17" stroke="#0F9ED5" stroke-width="2.29167" stroke-linecap="round" stroke-linejoin="round" stroke-miterlimit="10" stroke-dasharray="16.0417 9.16667" fill="none" fill-rule="evenodd"/><path d="M2625 1582 2625 2197.17" stroke="#0F9ED5" stroke-width="2.29167" stroke-linecap="round" stroke-linejoin="round" stroke-miterlimit="10" stroke-dasharray="16.0417 9.16667" fill="none" fill-rule="evenodd"/><path d="M2702 1582 2702 2197.17" stroke="#0F9ED5" stroke-width="2.29167" stroke-linecap="round" stroke-linejoin="round" stroke-miterlimit="10" stroke-dasharray="16.0417 9.16667" fill="none" fill-rule="evenodd"/><path d="M2779 1582 2779 2197.17" stroke="#0F9ED5" stroke-width="2.29167" stroke-linecap="round" stroke-linejoin="round" stroke-miterlimit="10" stroke-dasharray="16.0417 9.16667" fill="none" fill-rule="evenodd"/><path d="M2856 1582 2856 2197.17" stroke="#0F9ED5" stroke-width="2.29167" stroke-linecap="round" stroke-linejoin="round" stroke-miterlimit="10" stroke-dasharray="16.0417 9.16667" fill="none" fill-rule="evenodd"/><path d="M2933 1582 2933 2197.17" stroke="#0F9ED5" stroke-width="2.29167" stroke-linecap="round" stroke-linejoin="round" stroke-miterlimit="10" stroke-dasharray="16.0417 9.16667" fill="none" fill-rule="evenodd"/><path d="M3010 1582 3010 2197.17" stroke="#0F9ED5" stroke-width="2.29167" stroke-linecap="round" stroke-linejoin="round" stroke-miterlimit="10" stroke-dasharray="16.0417 9.16667" fill="none" fill-rule="evenodd"/><path d="M3087 1582 3087 2197.17" stroke="#0F9ED5" stroke-width="2.29167" stroke-linecap="round" stroke-linejoin="round" stroke-miterlimit="10" stroke-dasharray="16.0417 9.16667" fill="none" fill-rule="evenodd"/><path d="M3164 1582 3164 2197.17" stroke="#0F9ED5" stroke-width="2.29167" stroke-linecap="round" stroke-linejoin="round" stroke-miterlimit="10" stroke-dasharray="16.0417 9.16667" fill="none" fill-rule="evenodd"/><path d="M3241 1582 3241 2197.17" stroke="#0F9ED5" stroke-width="2.29167" stroke-linecap="round" stroke-linejoin="round" stroke-miterlimit="10" stroke-dasharray="16.0417 9.16667" fill="none" fill-rule="evenodd"/><path d="M3318 1582 3318 2197.17" stroke="#0F9ED5" stroke-width="2.29167" stroke-linecap="round" stroke-linejoin="round" stroke-miterlimit="10" stroke-dasharray="16.0417 9.16667" fill="none" fill-rule="evenodd"/><path d="M3395 1582 3395 2197.17" stroke="#0F9ED5" stroke-width="2.29167" stroke-linecap="round" stroke-linejoin="round" stroke-miterlimit="10" stroke-dasharray="16.0417 9.16667" fill="none" fill-rule="evenodd"/><path d="M3472 1582 3472 2197.17" stroke="#0F9ED5" stroke-width="2.29167" stroke-linecap="round" stroke-linejoin="round" stroke-miterlimit="10" stroke-dasharray="16.0417 9.16667" fill="none" fill-rule="evenodd"/><path d="M3549 1582 3549 2197.17" stroke="#0F9ED5" stroke-width="2.29167" stroke-linecap="round" stroke-linejoin="round" stroke-miterlimit="10" stroke-dasharray="16.0417 9.16667" fill="none" fill-rule="evenodd"/><path d="M3626 1582 3626 2197.17" stroke="#0F9ED5" stroke-width="2.29167" stroke-linecap="round" stroke-linejoin="round" stroke-miterlimit="10" stroke-dasharray="16.0417 9.16667" fill="none" fill-rule="evenodd"/><path d="M3703 1582 3703 2197.17" stroke="#0F9ED5" stroke-width="2.29167" stroke-linecap="round" stroke-linejoin="round" stroke-miterlimit="10" stroke-dasharray="16.0417 9.16667" fill="none" fill-rule="evenodd"/><path d="M3780 1582 3780 2197.17" stroke="#0F9ED5" stroke-width="2.29167" stroke-linecap="round" stroke-linejoin="round" stroke-miterlimit="10" stroke-dasharray="16.0417 9.16667" fill="none" fill-rule="evenodd"/><path d="M3857 1582 3857 2197.17" stroke="#0F9ED5" stroke-width="2.29167" stroke-linecap="round" stroke-linejoin="round" stroke-miterlimit="10" stroke-dasharray="16.0417 9.16667" fill="none" fill-rule="evenodd"/><path d="M3934 1582 3934 2197.17" stroke="#0F9ED5" stroke-width="2.29167" stroke-linecap="round" stroke-linejoin="round" stroke-miterlimit="10" stroke-dasharray="16.0417 9.16667" fill="none" fill-rule="evenodd"/><path d="M4011 1582 4011 2197.17" stroke="#0F9ED5" stroke-width="2.29167" stroke-linecap="round" stroke-linejoin="round" stroke-miterlimit="10" stroke-dasharray="16.0417 9.16667" fill="none" fill-rule="evenodd"/><text font-family="Arial,Arial_MSFontService,sans-serif" font-weight="400" font-size="41" transform="matrix(1 0 0 1 3004.41 1300)">(</text><text font-family="Arial,Arial_MSFontService,sans-serif" font-weight="400" font-size="41" transform="matrix(1 0 0 1 3018.16 1300)">preShift</text><text font-family="Arial,Arial_MSFontService,sans-serif" font-weight="400" font-size="41" transform="matrix(1 0 0 1 3160.24 1300)">=0)</text><path d="M3705.5 1410.5 3705.5 1563.24" stroke="#000000" stroke-width="4.58333" stroke-linecap="round" stroke-linejoin="round" stroke-miterlimit="10" fill="none" fill-rule="evenodd"/><path d="M3010.5 1410.5 3010.5 1563.24" stroke="#000000" stroke-width="4.58333" stroke-linecap="round" stroke-linejoin="round" stroke-miterlimit="10" fill="none" fill-rule="evenodd"/><path d="M2937.5 1410.5 2937.5 1563.24" stroke="#000000" stroke-width="4.58333" stroke-linecap="round" stroke-linejoin="round" stroke-miterlimit="10" fill="none" fill-rule="evenodd"/><path d="M1.76207-1.46522 46.9798 52.9136C47.789 53.8868 47.6561 55.3317 46.6829 56.1409 45.7098 56.9501 44.2649 56.8172 43.4557 55.844L-1.76207 1.46522C-2.57128 0.492053-2.43838-0.952851-1.46522-1.76207-0.492053-2.57128 0.952851-2.43838 1.76207-1.46522ZM52.8597 42.0634 59.8699 71.9995 31.7149 59.646Z" transform="matrix(-1 0 0 1 3068.37 1322.5)"/><path d="M3709.79 1320.5 3709.79 1371.3C3709.79 1372.57 3708.77 1373.59 3707.5 1373.59 3706.23 1373.59 3705.21 1372.57 3705.21 1371.3L3705.21 1320.5C3705.21 1319.23 3706.23 1318.21 3707.5 1318.21 3708.77 1318.21 3709.79 1319.23 3709.79 1320.5ZM3721.25 1366.72 3707.5 1394.22 3693.75 1366.72Z"/><text font-family="Arial,Arial_MSFontService,sans-serif" font-weight="400" font-size="41" transform="matrix(1 0 0 1 3632.04 1242)">updated</text><text font-family="Arial,Arial_MSFontService,sans-serif" font-weight="400" font-size="41" transform="matrix(1 0 0 1 3572.45 1292)">cursor position</text><path d="M3243.5 1485.5 3243.5 1563.66" stroke="#000000" stroke-width="4.58333" stroke-linecap="round" stroke-linejoin="round" stroke-miterlimit="10" fill="none" fill-rule="evenodd"/><path d="M22.9166-2.29163 203.169-2.29134C204.434-2.29134 205.46-1.26532 205.46 0.000327969 205.46 1.26598 204.434 2.29199 203.169 2.29199L22.9166 2.2917C21.651 2.2917 20.625 1.26569 20.625 3.29229e-05 20.625-1.26562 21.651-2.29163 22.9166-2.29163ZM27.5 13.75 0 0 27.5-13.75ZM198.585-13.7497 226.085 0.000360892 198.585 13.7503Z" transform="matrix(-1 0 0 1 3241.59 1523.5)"/><text font-family="Arial,Arial_MSFontService,sans-serif" font-weight="400" font-size="41" transform="matrix(1 0 0 1 3071.45 1505)">period</text><rect x="2856.5" y="1658.5" width="72.9998" height="544" stroke="#00B050" stroke-width="9.16667" stroke-linecap="round" stroke-linejoin="round" stroke-miterlimit="10" fill="none"/><text font-family="Arial,Arial_MSFontService,sans-serif" font-weight="400" font-size="41" transform="matrix(1 0 0 1 2724.25 1300)">(</text><text font-family="Arial,Arial_MSFontService,sans-serif" font-weight="400" font-size="41" transform="matrix(1 0 0 1 2738 1300)">preShift</text><text font-family="Arial,Arial_MSFontService,sans-serif" font-weight="400" font-size="41" transform="matrix(1 0 0 1 2880.08 1300)">=1)</text><path d="M2875.2 1321.97 2921.75 1373.68C2922.59 1374.62 2922.52 1376.07 2921.58 1376.92 2920.64 1377.77 2919.19 1377.69 2918.34 1376.75L2871.8 1325.03C2870.95 1324.09 2871.03 1322.64 2871.97 1321.8 2872.91 1320.95 2874.36 1321.03 2875.2 1321.97ZM2927.2 1362.61 2935.38 1392.25 2906.76 1381.01Z"/><text font-family="Arial,Arial_MSFontService,sans-serif" font-weight="400" font-size="41" transform="matrix(1 0 0 1 3233.38 1382)">repeatCount</text><path d="M3473.5 1485.5 3473.5 1563.66" stroke="#000000" stroke-width="4.58333" stroke-linecap="round" stroke-linejoin="round" stroke-miterlimit="10" fill="none" fill-rule="evenodd"/><path d="M22.9166-2.29163 203.169-2.29134C204.434-2.29134 205.46-1.26532 205.46 0.000327969 205.46 1.26598 204.434 2.29199 203.169 2.29199L22.9166 2.2917C21.651 2.2917 20.625 1.26569 20.625 3.29229e-05 20.625-1.26562 21.651-2.29163 22.9166-2.29163ZM27.5 13.75 0 0 27.5-13.75ZM198.585-13.7497 226.085 0.000360892 198.585 13.7503Z" transform="matrix(-1 0 0 1 3470.59 1523.5)"/><text font-family="Arial,Arial_MSFontService,sans-serif" font-weight="400" font-size="41" transform="matrix(1 0 0 1 3299.57 1505)">period</text><path d="M22.9166-2.29163 203.169-2.29134C204.434-2.29134 205.46-1.26532 205.46 0.000327969 205.46 1.26598 204.434 2.29199 203.169 2.29199L22.9166 2.2917C21.651 2.2917 20.625 1.26569 20.625 3.29229e-05 20.625-1.26562 21.651-2.29163 22.9166-2.29163ZM27.5 13.75 0 0 27.5-13.75ZM198.585-13.7497 226.085 0.000360892 198.585 13.7503Z" transform="matrix(-1 0 0 1 3700.59 1523.5)"/><text font-family="Arial,Arial_MSFontService,sans-serif" font-weight="400" font-size="41" transform="matrix(1 0 0 1 3529.88 1505)">period</text><path d="M3121.5 1459.5C3121.5 1443.76 3135.63 1431 3153.06 1431L3316.94 1431C3334.37 1431 3348.5 1418.24 3348.5 1402.5 3348.5 1418.24 3362.63 1431 3380.06 1431L3543.94 1431C3561.37 1431 3575.5 1443.76 3575.5 1459.5" stroke="#000000" stroke-width="4.58333" stroke-linecap="round" stroke-linejoin="round" stroke-miterlimit="10" fill="none" fill-rule="evenodd"/><text font-family="Arial,Arial_MSFontService,sans-serif" font-weight="400" font-size="41" transform="matrix(1 0 0 1 2750.86 1238)">current </text><text font-family="Arial,Arial_MSFontService,sans-serif" font-weight="400" font-size="41" transform="matrix(1 0 0 1 2890.65 1238)">cursor </text><text font-family="Arial,Arial_MSFontService,sans-serif" font-weight="400" font-size="41" transform="matrix(1 0 0 1 3016.69 1238)">position</text><path d="M2939.5 1582.5 3146.61 1582.5 3159.5 1582.5 3391.54 1582.5 3391.54 1582.5 3458.57 1582.5 3621.86 1582.5 3703.5 1582.5 3703.5 1887.4 3621.86 1887.4 3621.86 1963 3391.54 1963 3391.54 2039.46 3159.5 2039.46 3159.5 2116.5 2939.5 2116.5Z" stroke="#E97132" stroke-width="9.16667" stroke-linecap="round" stroke-linejoin="round" stroke-miterlimit="10" fill="none" fill-rule="evenodd"/><path d="M2984.5 2041.21 3029.13 2041.21C3030.39 2041.21 3031.42 2042.23 3031.42 2043.5 3031.42 2044.77 3030.39 2045.79 3029.13 2045.79L2984.5 2045.79C2983.23 2045.79 2982.21 2044.77 2982.21 2043.5 2982.21 2042.23 2983.23 2041.21 2984.5 2041.21ZM3024.54 2029.75 3052.04 2043.5 3024.54 2057.25Z" fill="#FFC000"/><path d="M3057.5 2041.21 3104.42 2041.21C3105.69 2041.21 3106.71 2042.23 3106.71 2043.5 3106.71 2044.77 3105.69 2045.79 3104.42 2045.79L3057.5 2045.79C3056.23 2045.79 3055.21 2044.77 3055.21 2043.5 3055.21 2042.23 3056.23 2041.21 3057.5 2041.21ZM3099.84 2029.75 3127.34 2043.5 3099.84 2057.25Z" fill="#FFC000"/><path d="M1.56923-1.6701 71.9255 64.4367C72.8479 65.3034 72.8931 66.7537 72.0264 67.6761 71.1597 68.5984 69.7094 68.6436 68.7871 67.7769L-1.56923 1.6701C-2.4916 0.803442-2.53677-0.646858-1.6701-1.56923-0.803442-2.4916 0.646858-2.53677 1.56923-1.6701ZM76.4315 52.9477 87.0574 81.7991 57.6007 72.989Z" fill="#FFC000" transform="matrix(1 0 0 -1 2890.5 2125.3)"/><path d="M1.56923-1.67011 59.8421 53.0831C60.7645 53.9497 60.8097 55.4 59.943 56.3224 59.0763 57.2448 57.626 57.2899 56.7037 56.4233L-1.56923 1.67011C-2.4916 0.803444-2.53677-0.646856-1.67011-1.56923-0.803444-2.4916 0.646856-2.53677 1.56923-1.67011ZM64.3481 41.5941 74.974 70.4455 45.5173 61.6353Z" fill="#FFC000" transform="matrix(1 0 0 -1 3130.5 2038.95)"/><path d="M3212.5 1966.21 3257.13 1966.21C3258.39 1966.21 3259.42 1967.23 3259.42 1968.5 3259.42 1969.77 3258.39 1970.79 3257.13 1970.79L3212.5 1970.79C3211.23 1970.79 3210.21 1969.77 3210.21 1968.5 3210.21 1967.23 3211.23 1966.21 3212.5 1966.21ZM3252.54 1954.75 3280.04 1968.5 3252.54 1982.25Z" fill="#FFC000"/><path d="M3285.5 1966.21 3332.42 1966.21C3333.68 1966.21 3334.71 1967.23 3334.71 1968.5 3334.71 1969.77 3333.68 1970.79 3332.42 1970.79L3285.5 1970.79C3284.23 1970.79 3283.21 1969.77 3283.21 1968.5 3283.21 1967.23 3284.23 1966.21 3285.5 1966.21ZM3327.84 1954.75 3355.34 1968.5 3327.84 1982.25Z" fill="#FFC000"/><path d="M1.56923-1.67011 59.8421 53.0831C60.7645 53.9497 60.8097 55.4 59.943 56.3224 59.0763 57.2448 57.626 57.2899 56.7037 56.4233L-1.56923 1.67011C-2.4916 0.803444-2.53677-0.646856-1.67011-1.56923-0.803444-2.4916 0.646856-2.53677 1.56923-1.67011ZM64.3481 41.5941 74.974 70.4455 45.5173 61.6353Z" fill="#FFC000" transform="matrix(1 0 0 -1 3362.5 1963.95)"/><path d="M3444.5 1891.21 3489.13 1891.21C3490.39 1891.21 3491.42 1892.23 3491.42 1893.5 3491.42 1894.77 3490.39 1895.79 3489.13 1895.79L3444.5 1895.79C3443.23 1895.79 3442.21 1894.77 3442.21 1893.5 3442.21 1892.23 3443.23 1891.21 3444.5 1891.21ZM3484.54 1879.75 3512.04 1893.5 3484.54 1907.25Z" fill="#FFC000"/><path d="M3517.5 1891.21 3564.42 1891.21C3565.68 1891.21 3566.71 1892.23 3566.71 1893.5 3566.71 1894.77 3565.68 1895.79 3564.42 1895.79L3517.5 1895.79C3516.23 1895.79 3515.21 1894.77 3515.21 1893.5 3515.21 1892.23 3516.23 1891.21 3517.5 1891.21ZM3559.84 1879.75 3587.34 1893.5 3559.84 1907.25Z" fill="#FFC000"/><path d="M1.56923-1.67011 59.8421 53.0831C60.7645 53.9497 60.8097 55.4 59.943 56.3224 59.0763 57.2448 57.626 57.2899 56.7037 56.4233L-1.56923 1.67011C-2.4916 0.803444-2.53677-0.646856-1.67011-1.56923-0.803444-2.4916 0.646856-2.53677 1.56923-1.67011ZM64.3481 41.5941 74.974 70.4455 45.5173 61.6353Z" fill="#FFC000" transform="matrix(1 0 0 -1 3591.5 1891.95)"/><path d="M3631.31 1897.5 3703.5 1897.5 3703.5 1972.28 3703.5 1983.17 3703.5 2048.78 3703.5 2057.95 3703.5 2126.14 3703.5 2134.45 3703.5 2201.5 2939.5 2201.5 2939.5 2126.14 3168.1 2126.14 3168.1 2048.78 3399.27 2048.78 3399.27 1972.28 3631.31 1972.28Z" stroke="#0097FE" stroke-width="9.16667" stroke-linecap="round" stroke-linejoin="round" stroke-miterlimit="10" fill="none" fill-rule="evenodd"/><text font-family="Arial,Arial_MSFontService,sans-serif" font-weight="400" font-size="41" transform="matrix(1 0 0 1 3827.32 2090)">postOp</text><text font-family="Arial,Arial_MSFontService,sans-serif" font-weight="400" font-size="41" transform="matrix(1 0 0 1 3778.04 2140)">(clear or set)</text><path d="M3768.56 2102.67 3609.95 2082.64C3608.69 2082.49 3607.8 2081.34 3607.96 2080.08 3608.12 2078.83 3609.27 2077.94 3610.52 2078.1L3769.14 2098.12C3770.39 2098.28 3771.28 2099.43 3771.12 2100.69 3770.96 2101.94 3769.82 2102.83 3768.56 2102.67ZM3613.06 2094.59 3587.5 2077.5 3616.51 2067.3Z"/><path d="M2.29167-1.04741e-05 2.29192 56.044C2.29193 57.3097 1.26592 58.3357 0.000266625 58.3357-1.26539 58.3357-2.2914 57.3097-2.29141 56.0441L-2.29167 1.04741e-05C-2.29167-1.26564-1.26566-2.29166-1.04741e-05-2.29167 1.26564-2.29167 2.29166-1.26566 2.29167-1.04741e-05ZM13.7502 51.4607 0.000360892 78.9607-13.7498 51.4608Z" transform="matrix(1 0 0 -1 2980.5 2201.46)"/><text font-family="Arial,Arial_MSFontService,sans-serif" font-weight="400" font-size="41" transform="matrix(1 0 0 1 3010.7 2183)">shiftDir</text></g></svg>