<svg width="2620" height="1490" xmlns="http://www.w3.org/2000/svg" xmlns:xlink="http://www.w3.org/1999/xlink" xml:space="preserve" overflow="hidden"><g transform="translate(-126 -90)"><path d="M126 147.841C126 115.896 151.897 90.0001 183.841 90.0001L2688.16 90.0001C2720.1 90.0001 2746 115.896 2746 147.841L2746 1522.16C2746 1554.1 2720.1 1580 2688.16 1580L183.841 1580C151.897 1580 126 1554.1 126 1522.16Z" fill="#E4E8EC" fill-rule="evenodd"/><rect x="264" y="676" width="1083" height="616" fill="#FFFFFF"/><rect x="1567" y="671" width="988" height="616" fill="#FFFFFF"/><rect x="414.5" y="674.5" width="152" height="618" stroke="#000000" stroke-width="4.58333" stroke-linecap="round" stroke-linejoin="round" stroke-miterlimit="10"/><rect x="1029.5" y="831.5" width="154" height="456" stroke="#000000" stroke-width="4.58333" stroke-linecap="round" stroke-linejoin="round" stroke-miterlimit="10"/><rect x="874.5" y="675.5" width="228" height="74.9999" stroke="#000000" stroke-width="4.58333" stroke-linecap="round" stroke-linejoin="round" stroke-miterlimit="10"/><rect x="565.5" y="827.5" width="78.0001" height="76" stroke="#000000" stroke-width="4.58333" stroke-linecap="round" stroke-linejoin="round" stroke-miterlimit="10"/><rect x="566.5" y="748.5" width="619" height="79.0001" stroke="#000000" stroke-width="4.58333" stroke-linecap="round" stroke-linejoin="round" stroke-miterlimit="10"/><rect x="641.5" y="674.5" width="154" height="75.9999" stroke="#000000" stroke-width="4.58333" stroke-linecap="round" stroke-linejoin="round" stroke-miterlimit="10"/><rect x="720.5" y="830.5" width="230" height="74.9999" stroke="#000000" stroke-width="4.58333" stroke-linecap="round" stroke-linejoin="round" stroke-miterlimit="10"/><rect x="727.5" y="906.5" width="149" height="386" stroke="#000000" stroke-width="4.58333" stroke-linecap="round" stroke-linejoin="round" stroke-miterlimit="10"/><path d="M334 674 334 1288.28" stroke="#61CBF4" stroke-width="2.29167" stroke-linecap="round" stroke-linejoin="round" stroke-miterlimit="10" stroke-dasharray="16.0417 9.16667" fill="none" fill-rule="evenodd"/><path d="M411 674 411 1288.28" stroke="#61CBF4" stroke-width="2.29167" stroke-linecap="round" stroke-linejoin="round" stroke-miterlimit="10" stroke-dasharray="16.0417 9.16667" fill="none" fill-rule="evenodd"/><path d="M488 674 488 1288.28" stroke="#61CBF4" stroke-width="2.29167" stroke-linecap="round" stroke-linejoin="round" stroke-miterlimit="10" stroke-dasharray="16.0417 9.16667" fill="none" fill-rule="evenodd"/><path d="M565 674 565 1288.28" stroke="#61CBF4" stroke-width="2.29167" stroke-linecap="round" stroke-linejoin="round" stroke-miterlimit="10" stroke-dasharray="16.0417 9.16667" fill="none" fill-rule="evenodd"/><path d="M642 674 642 1288.28" stroke="#61CBF4" stroke-width="2.29167" stroke-linecap="round" stroke-linejoin="round" stroke-miterlimit="10" stroke-dasharray="16.0417 9.16667" fill="none" fill-rule="evenodd"/><path d="M719 674 719 1288.28" stroke="#61CBF4" stroke-width="2.29167" stroke-linecap="round" stroke-linejoin="round" stroke-miterlimit="10" stroke-dasharray="16.0417 9.16667" fill="none" fill-rule="evenodd"/><path d="M796 674 796 1288.28" stroke="#61CBF4" stroke-width="2.29167" stroke-linecap="round" stroke-linejoin="round" stroke-miterlimit="10" stroke-dasharray="16.0417 9.16667" fill="none" fill-rule="evenodd"/><path d="M873 674 873 1288.28" stroke="#61CBF4" stroke-width="2.29167" stroke-linecap="round" stroke-linejoin="round" stroke-miterlimit="10" stroke-dasharray="16.0417 9.16667" fill="none" fill-rule="evenodd"/><path d="M950 674 950 1288.28" stroke="#61CBF4" stroke-width="2.29167" stroke-linecap="round" stroke-linejoin="round" stroke-miterlimit="10" stroke-dasharray="16.0417 9.16667" fill="none" fill-rule="evenodd"/><path d="M1027 674 1027 1288.28" stroke="#61CBF4" stroke-width="2.29167" stroke-linecap="round" stroke-linejoin="round" stroke-miterlimit="10" stroke-dasharray="16.0417 9.16667" fill="none" fill-rule="evenodd"/><path d="M1104 674 1104 1288.28" stroke="#61CBF4" stroke-width="2.29167" stroke-linecap="round" stroke-linejoin="round" stroke-miterlimit="10" stroke-dasharray="16.0417 9.16667" fill="none" fill-rule="evenodd"/><path d="M1181 674 1181 1288.28" stroke="#61CBF4" stroke-width="2.29167" stroke-linecap="round" stroke-linejoin="round" stroke-miterlimit="10" stroke-dasharray="16.0417 9.16667" fill="none" fill-rule="evenodd"/><path d="M1267 674 1267 1288.28" stroke="#61CBF4" stroke-width="2.29167" stroke-linecap="round" stroke-linejoin="round" stroke-miterlimit="10" stroke-dasharray="16.0417 9.16667" fill="none" fill-rule="evenodd"/><path d="M268 674 1343.94 674" stroke="#0F9ED5" stroke-width="2.29167" stroke-linecap="round" stroke-linejoin="round" stroke-miterlimit="10" stroke-dasharray="16.0417 9.16667" fill="none" fill-rule="evenodd"/><path d="M268 751 1343.94 751" stroke="#0F9ED5" stroke-width="2.29167" stroke-linecap="round" stroke-linejoin="round" stroke-miterlimit="10" stroke-dasharray="16.0417 9.16667" fill="none" fill-rule="evenodd"/><path d="M268 828 1343.94 828" stroke="#0F9ED5" stroke-width="2.29167" stroke-linecap="round" stroke-linejoin="round" stroke-miterlimit="10" stroke-dasharray="16.0417 9.16667" fill="none" fill-rule="evenodd"/><path d="M268 905 1343.94 905" stroke="#0F9ED5" stroke-width="2.29167" stroke-linecap="round" stroke-linejoin="round" stroke-miterlimit="10" stroke-dasharray="16.0417 9.16667" fill="none" fill-rule="evenodd"/><path d="M268 982 1343.94 982" stroke="#0F9ED5" stroke-width="2.29167" stroke-linecap="round" stroke-linejoin="round" stroke-miterlimit="10" stroke-dasharray="16.0417 9.16667" fill="none" fill-rule="evenodd"/><path d="M268 1059 1343.94 1059" stroke="#0F9ED5" stroke-width="2.29167" stroke-linecap="round" stroke-linejoin="round" stroke-miterlimit="10" stroke-dasharray="16.0417 9.16667" fill="none" fill-rule="evenodd"/><path d="M268 1136 1343.94 1136" stroke="#0F9ED5" stroke-width="2.29167" stroke-linecap="round" stroke-linejoin="round" stroke-miterlimit="10" stroke-dasharray="16.0417 9.16667" fill="none" fill-rule="evenodd"/><path d="M268 1213 1343.94 1213" stroke="#0F9ED5" stroke-width="2.29167" stroke-linecap="round" stroke-linejoin="round" stroke-miterlimit="10" stroke-dasharray="16.0417 9.16667" fill="none" fill-rule="evenodd"/><path d="M268 1290 1343.94 1290" stroke="#0F9ED5" stroke-width="2.29167" stroke-linecap="round" stroke-linejoin="round" stroke-miterlimit="10" stroke-dasharray="16.0417 9.16667" fill="none" fill-rule="evenodd"/><rect x="642" y="674" width="231" height="618" stroke="#00B050" stroke-width="13.75" stroke-linecap="round" stroke-linejoin="round" stroke-miterlimit="10" fill="none"/><rect x="946" y="674" width="237" height="618" stroke="#E97132" stroke-width="13.75" stroke-linecap="round" stroke-linejoin="round" stroke-miterlimit="10" fill="none"/><path d="M-1.73535 66.6055-0.898543 62.8689 0.38316 58.9747 4.05502 51.5415C4.11177 51.4274 4.17763 51.3187 4.25251 51.2155L9.2103 44.3877 15.7021 37.6529 23.4295 31.3562 32.3017 25.5156 42.234 20.1517 53.1445 15.2886 64.9522 10.9531 77.5765 7.17406 90.9366 3.98194 104.951 1.40816 119.539-0.515111 134.619-1.75519 150.108-2.27898 165.926-2.05312 180.754-1.14372 195.088 0.408142 208.87 2.57035 222.036 5.311 234.525 8.59855 246.275 12.4019 257.225 16.6907 267.314 21.4354 276.48 26.6077 284.662 32.1813 291.797 38.1319 297.821 44.438C297.993 44.6184 298.134 44.8256 298.239 45.0514L300.843 50.6474C301.377 51.7949 300.879 53.158 299.732 53.6919 298.584 54.2258 297.221 53.7283 296.687 52.5808L294.083 46.9849 294.501 47.5983 288.858 41.6484 282.078 35.9671 274.225 30.598 265.361 25.5821 255.552 20.9578 244.862 16.7621 233.357 13.0306 221.101 9.79795 208.158 7.09816 194.594 4.96477 180.472 3.43097 165.86 2.52974 150.263 2.30176 134.994 2.81279 120.137 4.02902 105.778 5.91629 92.0005 8.44007 78.8895 11.5653 66.5302 15.2562 55.0081 19.476 44.4088 24.1862 34.8176 29.3467 26.3189 34.914 18.9942 40.8418 12.9191 47.0807 7.96126 53.9085 8.15876 53.5826 4.73269 60.4199 3.57401 63.8705 2.7372 67.6071C2.46061 68.8422 1.23518 69.6192 0.000115731 69.3426-1.23495 69.066-2.01194 67.8405-1.73535 66.6055ZM309.949 42.3957 307 72.9999 284.286 52.2781Z" transform="matrix(1 -1.22465e-16 -1.22465e-16 -1 638.5 1386.5)"/><text font-family="Noto Sans JP,Noto Sans JP_MSFontService,sans-serif" font-weight="400" font-size="41" transform="matrix(1 0 0 1 816.307 1443)">block copy</text><text font-family="Noto Sans JP,Noto Sans JP_MSFontService,sans-serif" font-weight="400" font-size="41" transform="matrix(1 0 0 1 1025.42 1443)"> </text><text font-family="Noto Sans JP,Noto Sans JP_MSFontService,sans-serif" font-weight="400" font-size="41" transform="matrix(1 0 0 1 821.129 399)">current</text><text font-family="Noto Sans JP,Noto Sans JP_MSFontService,sans-serif" font-weight="400" font-size="41" transform="matrix(1 0 0 1 963.212 399)"> </text><text font-family="Noto Sans JP,Noto Sans JP_MSFontService,sans-serif" font-weight="400" font-size="41" transform="matrix(1 0 0 1 746.375 448)">cursor position</text><text font-family="Noto Sans JP,Noto Sans JP_MSFontService,sans-serif" font-weight="400" font-size="41" transform="matrix(1 0 0 1 1037.99 448)"> </text><path d="M871.5 585.5 871.5 654.706" stroke="#000000" stroke-width="4.58333" stroke-linecap="round" stroke-linejoin="round" stroke-miterlimit="10" fill="none" fill-rule="evenodd"/><path d="M949.5 585.5 949.5 654.706" stroke="#000000" stroke-width="4.58333" stroke-linecap="round" stroke-linejoin="round" stroke-miterlimit="10" fill="none" fill-rule="evenodd"/><path d="M1181.5 585.5 1181.5 654.706" stroke="#000000" stroke-width="4.58333" stroke-linecap="round" stroke-linejoin="round" stroke-miterlimit="10" fill="none" fill-rule="evenodd"/><path d="M641.5 585.5 641.5 654.706" stroke="#000000" stroke-width="4.58333" stroke-linecap="round" stroke-linejoin="round" stroke-miterlimit="10" fill="none" fill-rule="evenodd"/><path d="M949.792 464.5 949.792 547.286C949.792 548.552 948.766 549.578 947.5 549.578 946.234 549.578 945.208 548.552 945.208 547.286L945.208 464.5C945.208 463.234 946.234 462.208 947.5 462.208 948.766 462.208 949.792 463.234 949.792 464.5ZM961.25 542.703 947.5 570.203 933.75 542.703Z"/><path d="M1184.79 464.5 1184.79 547.286C1184.79 548.552 1183.77 549.578 1182.5 549.578 1181.23 549.578 1180.21 548.552 1180.21 547.286L1180.21 464.5C1180.21 463.234 1181.23 462.208 1182.5 462.208 1183.77 462.208 1184.79 463.234 1184.79 464.5ZM1196.25 542.703 1182.5 570.203 1168.75 542.703Z"/><text font-family="Noto Sans JP,Noto Sans JP_MSFontService,sans-serif" font-weight="400" font-size="41" transform="matrix(1 0 0 1 1145.61 399)">updated</text><text font-family="Noto Sans JP,Noto Sans JP_MSFontService,sans-serif" font-weight="400" font-size="41" transform="matrix(1 0 0 1 1310.04 399)"> </text><text font-family="Noto Sans JP,Noto Sans JP_MSFontService,sans-serif" font-weight="400" font-size="41" transform="matrix(1 0 0 1 1082.04 448)">cursor position</text><text font-family="Noto Sans JP,Noto Sans JP_MSFontService,sans-serif" font-weight="400" font-size="41" transform="matrix(1 0 0 1 1373.65 448)"> </text><path d="M22.9166-2.29163 206.756-2.29134C208.021-2.29134 209.047-1.26532 209.047 0.000328484 209.047 1.26598 208.021 2.29199 206.756 2.29199L22.9166 2.2917C21.651 2.2917 20.625 1.26568 20.625 3.24088e-05 20.625-1.26562 21.651-2.29163 22.9166-2.29163ZM27.5 13.75 0 0 27.5-13.75ZM202.172-13.7497 229.672 0.000360892 202.172 13.7503Z" transform="matrix(-1 0 0 1 1181.17 608.5)"/><text font-family="Noto Sans JP,Noto Sans JP_MSFontService,sans-serif" font-weight="400" font-size="41" transform="matrix(1 0 0 1 1004.16 595)">length</text><text font-family="Noto Sans JP,Noto Sans JP_MSFontService,sans-serif" font-weight="400" font-size="41" transform="matrix(1 0 0 1 1127.91 595)"> </text><path d="M896.417 606.208 924.606 606.208C925.872 606.209 926.898 607.235 926.898 608.5 926.898 609.766 925.872 610.792 924.606 610.792L896.417 610.792C895.151 610.792 894.125 609.766 894.125 608.5 894.125 607.234 895.151 606.208 896.417 606.208ZM901 622.25 873.5 608.5 901 594.75ZM920.023 594.75 947.523 608.5 920.023 622.25Z"/><text font-family="Noto Sans JP,Noto Sans JP_MSFontService,sans-serif" font-weight="400" font-size="41" transform="matrix(1 0 0 1 793.357 527)">offset</text><text font-family="Noto Sans JP,Noto Sans JP_MSFontService,sans-serif" font-weight="400" font-size="41" transform="matrix(1 0 0 1 902.784 527)"> </text><path d="M880.5 535.5 910.578 601.672" stroke="#000000" stroke-width="4.58333" stroke-linecap="round" stroke-linejoin="round" stroke-miterlimit="10" fill="none" fill-rule="evenodd"/><rect x="1712.5" y="825.5" width="154" height="308" stroke="#000000" stroke-width="4.58333" stroke-linecap="round" stroke-linejoin="round" stroke-miterlimit="10"/><rect x="1789.5" y="1133.5" width="154" height="77" stroke="#000000" stroke-width="4.58333" stroke-linecap="round" stroke-linejoin="round" stroke-miterlimit="10"/><rect x="1866.5" y="1211.5" width="385" height="74.0002" stroke="#000000" stroke-width="4.58333" stroke-linecap="round" stroke-linejoin="round" stroke-miterlimit="10"/><rect x="1789.5" y="748.5" width="154" height="77" stroke="#000000" stroke-width="4.58333" stroke-linecap="round" stroke-linejoin="round" stroke-miterlimit="10"/><rect x="2097.5" y="1133.5" width="231" height="77" stroke="#000000" stroke-width="4.58333" stroke-linecap="round" stroke-linejoin="round" stroke-miterlimit="10"/><rect x="2251.5" y="825.5" width="154" height="308" stroke="#000000" stroke-width="4.58333" stroke-linecap="round" stroke-linejoin="round" stroke-miterlimit="10"/><rect x="2174.5" y="748.5" width="154" height="77" stroke="#000000" stroke-width="4.58333" stroke-linecap="round" stroke-linejoin="round" stroke-miterlimit="10"/><rect x="1866.5" y="673.5" width="385" height="74.9999" stroke="#000000" stroke-width="4.58333" stroke-linecap="round" stroke-linejoin="round" stroke-miterlimit="10"/><rect x="2020.5" y="1058.5" width="154" height="73.0002" stroke="#000000" stroke-width="4.58333" stroke-linecap="round" stroke-linejoin="round" stroke-miterlimit="10"/><rect x="1943.5" y="981.5" width="154" height="74.9999" stroke="#000000" stroke-width="4.58333" stroke-linecap="round" stroke-linejoin="round" stroke-miterlimit="10"/><path d="M1635 671 1635 1285.28" stroke="#61CBF4" stroke-width="2.29167" stroke-linecap="round" stroke-linejoin="round" stroke-miterlimit="10" stroke-dasharray="16.0417 9.16667" fill="none" fill-rule="evenodd"/><path d="M1712 671 1712 1285.28" stroke="#61CBF4" stroke-width="2.29167" stroke-linecap="round" stroke-linejoin="round" stroke-miterlimit="10" stroke-dasharray="16.0417 9.16667" fill="none" fill-rule="evenodd"/><path d="M1789 671 1789 1285.28" stroke="#61CBF4" stroke-width="2.29167" stroke-linecap="round" stroke-linejoin="round" stroke-miterlimit="10" stroke-dasharray="16.0417 9.16667" fill="none" fill-rule="evenodd"/><path d="M1866 671 1866 1285.28" stroke="#61CBF4" stroke-width="2.29167" stroke-linecap="round" stroke-linejoin="round" stroke-miterlimit="10" stroke-dasharray="16.0417 9.16667" fill="none" fill-rule="evenodd"/><path d="M1943 671 1943 1285.28" stroke="#61CBF4" stroke-width="2.29167" stroke-linecap="round" stroke-linejoin="round" stroke-miterlimit="10" stroke-dasharray="16.0417 9.16667" fill="none" fill-rule="evenodd"/><path d="M2020 671 2020 1285.28" stroke="#61CBF4" stroke-width="2.29167" stroke-linecap="round" stroke-linejoin="round" stroke-miterlimit="10" stroke-dasharray="16.0417 9.16667" fill="none" fill-rule="evenodd"/><path d="M2097 671 2097 1285.28" stroke="#61CBF4" stroke-width="2.29167" stroke-linecap="round" stroke-linejoin="round" stroke-miterlimit="10" stroke-dasharray="16.0417 9.16667" fill="none" fill-rule="evenodd"/><path d="M2174 671 2174 1285.28" stroke="#61CBF4" stroke-width="2.29167" stroke-linecap="round" stroke-linejoin="round" stroke-miterlimit="10" stroke-dasharray="16.0417 9.16667" fill="none" fill-rule="evenodd"/><path d="M2251 671 2251 1285.28" stroke="#61CBF4" stroke-width="2.29167" stroke-linecap="round" stroke-linejoin="round" stroke-miterlimit="10" stroke-dasharray="16.0417 9.16667" fill="none" fill-rule="evenodd"/><path d="M2328 671 2328 1285.28" stroke="#61CBF4" stroke-width="2.29167" stroke-linecap="round" stroke-linejoin="round" stroke-miterlimit="10" stroke-dasharray="16.0417 9.16667" fill="none" fill-rule="evenodd"/><path d="M2405 671 2405 1285.28" stroke="#61CBF4" stroke-width="2.29167" stroke-linecap="round" stroke-linejoin="round" stroke-miterlimit="10" stroke-dasharray="16.0417 9.16667" fill="none" fill-rule="evenodd"/><path d="M2482 671 2482 1285.28" stroke="#61CBF4" stroke-width="2.29167" stroke-linecap="round" stroke-linejoin="round" stroke-miterlimit="10" stroke-dasharray="16.0417 9.16667" fill="none" fill-rule="evenodd"/><path d="M1569 671 2552.35 671" stroke="#0F9ED5" stroke-width="2.29167" stroke-linecap="round" stroke-linejoin="round" stroke-miterlimit="10" stroke-dasharray="16.0417 9.16667" fill="none" fill-rule="evenodd"/><path d="M1569 748 2552.35 748" stroke="#0F9ED5" stroke-width="2.29167" stroke-linecap="round" stroke-linejoin="round" stroke-miterlimit="10" stroke-dasharray="16.0417 9.16667" fill="none" fill-rule="evenodd"/><path d="M1569 825 2552.35 825" stroke="#0F9ED5" stroke-width="2.29167" stroke-linecap="round" stroke-linejoin="round" stroke-miterlimit="10" stroke-dasharray="16.0417 9.16667" fill="none" fill-rule="evenodd"/><path d="M1569 902 2552.35 902" stroke="#0F9ED5" stroke-width="2.29167" stroke-linecap="round" stroke-linejoin="round" stroke-miterlimit="10" stroke-dasharray="16.0417 9.16667" fill="none" fill-rule="evenodd"/><path d="M1569 979 2552.35 979" stroke="#0F9ED5" stroke-width="2.29167" stroke-linecap="round" stroke-linejoin="round" stroke-miterlimit="10" stroke-dasharray="16.0417 9.16667" fill="none" fill-rule="evenodd"/><path d="M1569 1056 2552.35 1056" stroke="#0F9ED5" stroke-width="2.29167" stroke-linecap="round" stroke-linejoin="round" stroke-miterlimit="10" stroke-dasharray="16.0417 9.16667" fill="none" fill-rule="evenodd"/><path d="M1569 1133 2552.35 1133" stroke="#0F9ED5" stroke-width="2.29167" stroke-linecap="round" stroke-linejoin="round" stroke-miterlimit="10" stroke-dasharray="16.0417 9.16667" fill="none" fill-rule="evenodd"/><path d="M1569 1210 2552.35 1210" stroke="#0F9ED5" stroke-width="2.29167" stroke-linecap="round" stroke-linejoin="round" stroke-miterlimit="10" stroke-dasharray="16.0417 9.16667" fill="none" fill-rule="evenodd"/><path d="M1569 1287 2552.35 1287" stroke="#0F9ED5" stroke-width="2.29167" stroke-linecap="round" stroke-linejoin="round" stroke-miterlimit="10" stroke-dasharray="16.0417 9.16667" fill="none" fill-rule="evenodd"/><rect x="1635" y="671" width="308" height="618" stroke="#00B050" stroke-width="13.75" stroke-linecap="round" stroke-linejoin="round" stroke-miterlimit="10" fill="none"/><rect x="2176" y="671" width="308" height="618" stroke="#E97132" stroke-width="13.75" stroke-linecap="round" stroke-linejoin="round" stroke-miterlimit="10" fill="none"/><path d="M-2.21593 101.617-1.34327 96.293C-1.31925 96.1464-1.28102 96.0025-1.22916 95.8634L0.727403 90.6136C0.773039 90.4911 0.829109 90.3727 0.894916 90.2598L3.90829 85.0902C3.96373 84.9951 4.02613 84.9038 4.09466 84.8177L8.13775 79.7347 13.3655 74.5418 19.5534 69.5018 26.6709 64.6066 34.6913 59.8515 43.5896 55.2349 53.3411 50.7577 63.9207 46.4225 75.3036 42.233 87.4641 38.1935 100.377 34.3092 114.015 30.5855 128.353 27.028 143.365 23.6426 159.024 20.4352 175.303 17.412 192.176 14.5792 209.617 11.9428 227.597 9.50922 246.091 7.28472 265.072 5.2756 284.513 3.4882 304.386 1.92887 324.665 0.603961 345.324-0.480148 387.655-1.90001 431.193-2.28082 474.23-1.60361 515.988 0.0849005 536.339 1.29332 556.278 2.73489 575.796 4.40389 594.865 6.294 613.461 8.3989 631.558 10.7123 649.131 13.2279 666.154 15.9394 682.601 18.8406 698.447 21.9254 713.667 25.1874 728.235 28.6207 742.126 32.2192 755.315 35.977 767.778 39.8884 779.488 43.9478 790.422 48.1499 800.555 52.4899 809.864 56.9636 818.324 61.5676 825.912 66.2998 832.605 71.16 838.377 76.1507C838.569 76.3166 838.731 76.5131 838.858 76.7322L841.809 81.8151C842.444 82.9098 842.072 84.3122 840.977 84.9475 839.883 85.5829 838.48 85.2106 837.845 84.116L834.894 79.0331 835.376 79.6146 829.909 74.8667 823.485 70.1877 816.132 65.5927 807.878 61.0942 798.75 56.7028 788.778 52.428 777.987 48.2782 766.405 44.2613 754.059 40.3849 740.977 36.656 727.183 33.0818 712.706 29.6689 697.571 26.4242 681.805 23.3543 665.433 20.4657 648.482 17.765 630.977 15.2586 612.946 12.9532 594.413 10.855 575.405 8.97055 555.948 7.30628 536.067 5.86859 515.803 4.66449 474.158 2.97915 431.233 2.30234 387.809 2.68075 345.564 4.09689 324.964 5.17755 304.745 6.49816 284.932 8.05229 265.555 9.83348 246.639 11.8353 228.212 14.0511 210.302 16.4746 192.935 19.0992 176.14 21.9183 159.944 24.9254 144.373 28.1137 129.457 31.4765 115.222 35.0071 101.697 38.6984 88.9085 42.5433 76.8861 46.5344 65.6579 50.6639 55.2524 54.9235 45.6989 59.304 37.0266 63.7953 29.2649 68.3852 22.443 73.0595 16.5884 77.8007 11.7247 82.5878 7.68165 87.6708 7.86802 87.3983 4.85465 92.5679 5.02216 92.2142 3.06559 97.464 3.1797 97.0344 2.30703 102.358C2.10229 103.607 0.923819 104.453-0.325164 104.249-1.57415 104.044-2.42067 102.866-2.21593 101.617ZM850.113 72.7546 850 103.5 825.471 84.9627Z" transform="matrix(1 -1.22465e-16 -1.22465e-16 -1 1632.5 1417.5)"/><path d="M-1.69581 44.7684-0.00854793 39.7003C0.0406433 39.5525 0.104828 39.41 0.182899 39.2753L3.00799 34.3993C3.07366 34.2859 3.14903 34.1783 3.23307 34.0778L7.13186 29.4167 12.2638 24.7611 18.3236 20.4328 25.2428 16.4347 32.9585 12.775 41.4098 9.46666 50.5358 6.52579 60.2755 3.97083 70.5675 1.82166 81.3497 0.0991457 92.56-1.1752 104.136-1.9794 116.014-2.29112 128.132-2.08777 139.406-1.42477 150.299-0.328263 160.768 1.18017 170.766 3.07915 180.249 5.34763 189.17 7.96498 197.484 10.9112 205.147 14.1673 212.113 17.7155 218.339 21.54C218.524 21.6541 218.692 21.794 218.838 21.9554L224.989 28.7662C225.837 29.7054 225.763 31.1546 224.824 32.0029 223.885 32.8512 222.436 32.7774 221.587 31.8382L215.436 25.0274 215.936 25.4428 210.03 21.7981 203.352 18.3847 195.952 15.2307 187.878 12.3625 179.182 9.80491 169.91 7.5818 160.113 5.71652 149.839 4.23194 139.136 3.15061 128.054 2.4949 116.134 2.29066 104.453 2.59297 93.0768 3.37891 82.0717 4.62526 71.5031 6.30848 61.437 8.40456 51.9396 10.8888 43.0779 13.7356 34.9191 16.9179 27.5307 20.4062 20.9799 24.1679 15.3322 28.1658 10.6475 32.3573 6.7487 37.0184 6.97378 36.697 4.14868 41.573 4.34013 41.148 2.65287 46.2161C2.25309 47.417 0.955515 48.0664-0.245339 47.6666-1.44619 47.2668-2.09559 45.9692-1.69581 44.7684ZM232.765 19.3354 235 50 209.127 33.3898Z" transform="matrix(1 -1.22465e-16 -1.22465e-16 -1 1939.5 1363.5)"/><text font-family="Noto Sans JP,Noto Sans JP_MSFontService,sans-serif" font-weight="400" font-size="41" transform="matrix(1 0 0 1 1830.8 1465)">copy with byte</text><text font-family="Noto Sans JP,Noto Sans JP_MSFontService,sans-serif" font-weight="400" font-size="41" transform="matrix(1 0 0 1 2113.82 1465)">-</text><text font-family="Noto Sans JP,Noto Sans JP_MSFontService,sans-serif" font-weight="400" font-size="41" transform="matrix(1 0 0 1 2128.15 1465)">reversal</text><text font-family="Noto Sans JP,Noto Sans JP_MSFontService,sans-serif" font-weight="400" font-size="41" transform="matrix(1 0 0 1 2281.69 1465)"> </text><path d="M2176.79 511.5 2176.79 542.487C2176.79 543.752 2175.77 544.778 2174.5 544.778 2173.23 544.778 2172.21 543.752 2172.21 542.487L2172.21 511.5C2172.21 510.234 2173.23 509.208 2174.5 509.208 2175.77 509.208 2176.79 510.234 2176.79 511.5ZM2188.25 537.903 2174.5 565.403 2160.75 537.903Z"/><text font-family="Noto Sans JP,Noto Sans JP_MSFontService,sans-serif" font-weight="400" font-size="41" transform="matrix(1 0 0 1 2069.95 446)">current</text><text font-family="Noto Sans JP,Noto Sans JP_MSFontService,sans-serif" font-weight="400" font-size="41" transform="matrix(1 0 0 1 2212.03 446)"> </text><text font-family="Noto Sans JP,Noto Sans JP_MSFontService,sans-serif" font-weight="400" font-size="41" transform="matrix(1 0 0 1 1995.19 495)">cursor position</text><text font-family="Noto Sans JP,Noto Sans JP_MSFontService,sans-serif" font-weight="400" font-size="41" transform="matrix(1 0 0 1 2286.81 495)"> </text><path d="M1939.5 582.5 1939.5 651.707" stroke="#000000" stroke-width="4.58333" stroke-linecap="round" stroke-linejoin="round" stroke-miterlimit="10" fill="none" fill-rule="evenodd"/><path d="M2174.5 582.5 2174.5 651.707" stroke="#000000" stroke-width="4.58333" stroke-linecap="round" stroke-linejoin="round" stroke-miterlimit="10" fill="none" fill-rule="evenodd"/><path d="M2482.5 582.5 2482.5 651.707" stroke="#000000" stroke-width="4.58333" stroke-linecap="round" stroke-linejoin="round" stroke-miterlimit="10" fill="none" fill-rule="evenodd"/><path d="M1632.5 582.5 1632.5 651.707" stroke="#000000" stroke-width="4.58333" stroke-linecap="round" stroke-linejoin="round" stroke-miterlimit="10" fill="none" fill-rule="evenodd"/><path d="M2483.79 511.5 2483.79 542.487C2483.79 543.752 2482.77 544.778 2481.5 544.778 2480.23 544.778 2479.21 543.752 2479.21 542.487L2479.21 511.5C2479.21 510.234 2480.23 509.208 2481.5 509.208 2482.77 509.208 2483.79 510.234 2483.79 511.5ZM2495.25 537.903 2481.5 565.403 2467.75 537.903Z"/><text font-family="Noto Sans JP,Noto Sans JP_MSFontService,sans-serif" font-weight="400" font-size="41" transform="matrix(1 0 0 1 2399.01 446)">updated</text><text font-family="Noto Sans JP,Noto Sans JP_MSFontService,sans-serif" font-weight="400" font-size="41" transform="matrix(1 0 0 1 2563.44 446)"> </text><text font-family="Noto Sans JP,Noto Sans JP_MSFontService,sans-serif" font-weight="400" font-size="41" transform="matrix(1 0 0 1 2335.44 495)">cursor position</text><text font-family="Noto Sans JP,Noto Sans JP_MSFontService,sans-serif" font-weight="400" font-size="41" transform="matrix(1 0 0 1 2627.06 495)"> </text><path d="M22.9166-2.29164 284.675-2.29133C285.94-2.29133 286.967-1.26532 286.967 0.000336693 286.967 1.26599 285.94 2.292 284.675 2.292L22.9166 2.29169C21.651 2.29169 20.625 1.26568 20.625 2.4199e-05 20.625-1.26563 21.651-2.29164 22.9166-2.29164ZM27.5 13.75 0 0 27.5-13.75ZM280.091-13.7497 307.591 0.000360892 280.091 13.7503Z" transform="matrix(-1 0 0 1 2482.09 605.5)"/><text font-family="Noto Sans JP,Noto Sans JP_MSFontService,sans-serif" font-weight="400" font-size="41" transform="matrix(1 0 0 1 2265.58 592)">length</text><text font-family="Noto Sans JP,Noto Sans JP_MSFontService,sans-serif" font-weight="400" font-size="41" transform="matrix(1 0 0 1 2389.33 592)"> </text><path d="M1966.42 603.208 2149.98 603.208C2151.25 603.208 2152.28 604.234 2152.28 605.5 2152.28 606.766 2151.25 607.792 2149.98 607.792L1966.42 607.792C1965.15 607.792 1964.13 606.766 1964.13 605.5 1964.13 604.234 1965.15 603.208 1966.42 603.208ZM1971 619.25 1943.5 605.5 1971 591.75ZM2145.4 591.75 2172.9 605.5 2145.4 619.25Z"/><text font-family="Noto Sans JP,Noto Sans JP_MSFontService,sans-serif" font-weight="400" font-size="41" transform="matrix(1 0 0 1 2002.64 592)">offset</text><text font-family="Noto Sans JP,Noto Sans JP_MSFontService,sans-serif" font-weight="400" font-size="41" transform="matrix(1 0 0 1 2112.07 592)"> </text><path d="M22.9166-2.29164 281.834-2.29133C283.1-2.29133 284.126-1.26532 284.126 0.000336468 284.126 1.26599 283.1 2.292 281.834 2.292L22.9166 2.29169C21.651 2.29169 20.625 1.26568 20.625 2.44245e-05 20.625-1.26563 21.651-2.29164 22.9166-2.29164ZM27.5 13.75 0 0 27.5-13.75ZM277.251-13.7497 304.751 0.000360892 277.251 13.7503Z" transform="matrix(-1 0 0 1 1937.25 605.5)"/><text font-family="Noto Sans JP,Noto Sans JP_MSFontService,sans-serif" font-weight="400" font-size="41" transform="matrix(1 0 0 1 1722.98 592)">length</text><text font-family="Noto Sans JP,Noto Sans JP_MSFontService,sans-serif" font-weight="400" font-size="41" transform="matrix(1 0 0 1 1846.73 592)"> </text><path d="M22.9166-2.29163 206.756-2.29134C208.021-2.29134 209.047-1.26532 209.047 0.000328484 209.047 1.26598 208.021 2.29199 206.756 2.29199L22.9166 2.2917C21.651 2.2917 20.625 1.26568 20.625 3.24088e-05 20.625-1.26562 21.651-2.29163 22.9166-2.29163ZM27.5 13.75 0 0 27.5-13.75ZM202.172-13.7497 229.672 0.000360892 202.172 13.7503Z" transform="matrix(-1 0 0 1 871.172 608.5)"/><text font-family="Noto Sans JP,Noto Sans JP_MSFontService,sans-serif" font-weight="400" font-size="41" transform="matrix(1 0 0 1 693.635 595)">length</text><text font-family="Noto Sans JP,Noto Sans JP_MSFontService,sans-serif" font-weight="400" font-size="41" transform="matrix(1 0 0 1 817.385 595)"> </text><path d="M-1.73535 66.6055-0.898544 62.8689 0.383156 58.9747 4.05501 51.5415C4.1117 51.4275 4.1777 51.3186 4.2525 51.2156L9.21029 44.3877 15.7021 37.6529 23.4294 31.3562 32.3016 25.5156 42.2339 20.1517 53.1444 15.2886 64.9521 10.9531 77.5764 7.17406 90.9365 3.98194 104.951 1.40816 119.539-0.515111 134.619-1.75519 150.108-2.27899 165.926-2.05312 180.754-1.14372 195.088 0.408142 208.869 2.57035 222.035 5.311 234.524 8.59855 246.275 12.4019 257.225 16.6907 267.313 21.4354 276.479 26.6077 284.661 32.1813 291.797 38.1319 297.821 44.438C297.992 44.6184 298.134 44.8256 298.239 45.0514L300.842 50.6474C301.376 51.7949 300.879 53.158 299.731 53.6919 298.584 54.2258 297.221 53.7283 296.687 52.5808L294.083 46.9849 294.501 47.5983 288.857 41.6484 282.078 35.9671 274.225 30.598 265.361 25.5821 255.552 20.9578 244.862 16.7621 233.357 13.0306 221.1 9.79795 208.158 7.09816 194.594 4.96477 180.472 3.43097 165.859 2.52974 150.262 2.30176 134.994 2.81279 120.137 4.02902 105.778 5.91629 92.0004 8.44007 78.8894 11.5653 66.5301 15.2562 55.0081 19.476 44.4088 24.1862 34.8176 29.3467 26.3189 34.914 18.9942 40.8418 12.919 47.0807 7.96126 53.9085 8.15875 53.5826 4.73269 60.4199 3.57401 63.8705 2.7372 67.6071C2.46061 68.8422 1.23518 69.6192 0.000115731 69.3426-1.23495 69.066-2.01194 67.8405-1.73535 66.6055ZM309.949 42.3957 307 72.9999 284.286 52.2781Z" transform="matrix(1 -1.22465e-16 -1.22465e-16 -1 872.5 1386.5)"/><text font-family="Noto Sans JP,Noto Sans JP_MSFontService,sans-serif" font-weight="700" font-size="55" transform="matrix(1 0 0 1 590.255 222)">byte</text><text font-family="Noto Sans JP,Noto Sans JP_MSFontService,sans-serif" font-weight="700" font-size="55" transform="matrix(1 0 0 1 709.995 222)">R</text><text font-family="Noto Sans JP,Noto Sans JP_MSFontService,sans-serif" font-weight="700" font-size="55" transform="matrix(1 0 0 1 747.234 222)">everse</text><text font-family="Noto Sans JP,Noto Sans JP_MSFontService,sans-serif" font-weight="700" font-size="55" transform="matrix(1 0 0 1 924.839 222)"> </text><text font-family="Noto Sans JP,Noto Sans JP_MSFontService,sans-serif" font-weight="700" font-size="55" transform="matrix(1 0 0 1 937.443 222)">= 0</text><text font-family="Noto Sans JP,Noto Sans JP_MSFontService,sans-serif" font-weight="700" font-size="55" transform="matrix(1 0 0 1 1015.36 222)"> </text><text font-family="Noto Sans JP,Noto Sans JP_MSFontService,sans-serif" font-weight="700" font-size="55" transform="matrix(1 0 0 1 1834.63 222)">byte</text><text font-family="Noto Sans JP,Noto Sans JP_MSFontService,sans-serif" font-weight="700" font-size="55" transform="matrix(1 0 0 1 1954.37 222)">R</text><text font-family="Noto Sans JP,Noto Sans JP_MSFontService,sans-serif" font-weight="700" font-size="55" transform="matrix(1 0 0 1 1991.61 222)">everse</text><text font-family="Noto Sans JP,Noto Sans JP_MSFontService,sans-serif" font-weight="700" font-size="55" transform="matrix(1 0 0 1 2169.21 222)"> </text><text font-family="Noto Sans JP,Noto Sans JP_MSFontService,sans-serif" font-weight="700" font-size="55" transform="matrix(1 0 0 1 2181.82 222)">= 1</text><text font-family="Noto Sans JP,Noto Sans JP_MSFontService,sans-serif" font-weight="700" font-size="55" transform="matrix(1 0 0 1 2259.73 222)"> </text></g></svg>