<svg width="2021" height="1004" xmlns="http://www.w3.org/2000/svg" xmlns:xlink="http://www.w3.org/1999/xlink" xml:space="preserve" overflow="hidden"><defs><clipPath id="clip0"><rect x="2267" y="34" width="2021" height="1004"/></clipPath></defs><g clip-path="url(#clip0)" transform="translate(-2267 -34)"><path d="M2267 77.6248C2267 53.5315 2286.53 34 2310.62 34L4244.38 34C4268.47 34 4288 53.5315 4288 77.6248L4288 994.375C4288 1018.47 4268.47 1038 4244.38 1038L2310.62 1038C2286.53 1038 2267 1018.47 2267 994.375Z" fill="#E4E8EC" fill-rule="evenodd"/><rect x="2790" y="354" width="899" height="615" fill="#FFFFFF"/><rect x="3014.5" y="816.5" width="150" height="156" stroke="#000000" stroke-width="4.58333" stroke-linecap="round" stroke-linejoin="round" stroke-miterlimit="10"/><rect x="3091.5" y="663.5" width="150" height="156" stroke="#000000" stroke-width="4.58333" stroke-linecap="round" stroke-linejoin="round" stroke-miterlimit="10"/><rect x="3168.5" y="510.5" width="151" height="156" stroke="#000000" stroke-width="4.58333" stroke-linecap="round" stroke-linejoin="round" stroke-miterlimit="10"/><rect x="3246.5" y="355.5" width="150" height="156" stroke="#000000" stroke-width="4.58333" stroke-linecap="round" stroke-linejoin="round" stroke-miterlimit="10"/><path d="M2861 354 2861 968.276" stroke="#0F9ED5" stroke-width="2.29167" stroke-linecap="round" stroke-linejoin="round" stroke-miterlimit="10" stroke-dasharray="16.0417 9.16667" fill="none" fill-rule="evenodd"/><path d="M2938 354 2938 968.276" stroke="#0F9ED5" stroke-width="2.29167" stroke-linecap="round" stroke-linejoin="round" stroke-miterlimit="10" stroke-dasharray="16.0417 9.16667" fill="none" fill-rule="evenodd"/><path d="M3015 354 3015 968.276" stroke="#0F9ED5" stroke-width="2.29167" stroke-linecap="round" stroke-linejoin="round" stroke-miterlimit="10" stroke-dasharray="16.0417 9.16667" fill="none" fill-rule="evenodd"/><path d="M3092 354 3092 968.276" stroke="#0F9ED5" stroke-width="2.29167" stroke-linecap="round" stroke-linejoin="round" stroke-miterlimit="10" stroke-dasharray="16.0417 9.16667" fill="none" fill-rule="evenodd"/><path d="M3169 354 3169 968.276" stroke="#0F9ED5" stroke-width="2.29167" stroke-linecap="round" stroke-linejoin="round" stroke-miterlimit="10" stroke-dasharray="16.0417 9.16667" fill="none" fill-rule="evenodd"/><path d="M3246 354 3246 968.276" stroke="#0F9ED5" stroke-width="2.29167" stroke-linecap="round" stroke-linejoin="round" stroke-miterlimit="10" stroke-dasharray="16.0417 9.16667" fill="none" fill-rule="evenodd"/><path d="M3323 354 3323 968.276" stroke="#0F9ED5" stroke-width="2.29167" stroke-linecap="round" stroke-linejoin="round" stroke-miterlimit="10" stroke-dasharray="16.0417 9.16667" fill="none" fill-rule="evenodd"/><path d="M3400 354 3400 968.276" stroke="#0F9ED5" stroke-width="2.29167" stroke-linecap="round" stroke-linejoin="round" stroke-miterlimit="10" stroke-dasharray="16.0417 9.16667" fill="none" fill-rule="evenodd"/><path d="M3477 354 3477 968.276" stroke="#0F9ED5" stroke-width="2.29167" stroke-linecap="round" stroke-linejoin="round" stroke-miterlimit="10" stroke-dasharray="16.0417 9.16667" fill="none" fill-rule="evenodd"/><path d="M3554 354 3554 968.276" stroke="#0F9ED5" stroke-width="2.29167" stroke-linecap="round" stroke-linejoin="round" stroke-miterlimit="10" stroke-dasharray="16.0417 9.16667" fill="none" fill-rule="evenodd"/><path d="M3631 354 3631 968.276" stroke="#0F9ED5" stroke-width="2.29167" stroke-linecap="round" stroke-linejoin="round" stroke-miterlimit="10" stroke-dasharray="16.0417 9.16667" fill="none" fill-rule="evenodd"/><path d="M2795 354 3692.76 354" stroke="#0F9ED5" stroke-width="2.29167" stroke-linecap="round" stroke-linejoin="round" stroke-miterlimit="10" stroke-dasharray="16.0417 9.16667" fill="none" fill-rule="evenodd"/><path d="M2795 431 3692.76 431" stroke="#0F9ED5" stroke-width="2.29167" stroke-linecap="round" stroke-linejoin="round" stroke-miterlimit="10" stroke-dasharray="16.0417 9.16667" fill="none" fill-rule="evenodd"/><path d="M2795 508 3692.76 508" stroke="#0F9ED5" stroke-width="2.29167" stroke-linecap="round" stroke-linejoin="round" stroke-miterlimit="10" stroke-dasharray="16.0417 9.16667" fill="none" fill-rule="evenodd"/><path d="M2795 585 3692.76 585" stroke="#0F9ED5" stroke-width="2.29167" stroke-linecap="round" stroke-linejoin="round" stroke-miterlimit="10" stroke-dasharray="16.0417 9.16667" fill="none" fill-rule="evenodd"/><path d="M2795 662 3692.76 662" stroke="#0F9ED5" stroke-width="2.29167" stroke-linecap="round" stroke-linejoin="round" stroke-miterlimit="10" stroke-dasharray="16.0417 9.16667" fill="none" fill-rule="evenodd"/><path d="M2795 739 3692.76 739" stroke="#0F9ED5" stroke-width="2.29167" stroke-linecap="round" stroke-linejoin="round" stroke-miterlimit="10" stroke-dasharray="16.0417 9.16667" fill="none" fill-rule="evenodd"/><path d="M2795 816 3692.76 816" stroke="#0F9ED5" stroke-width="2.29167" stroke-linecap="round" stroke-linejoin="round" stroke-miterlimit="10" stroke-dasharray="16.0417 9.16667" fill="none" fill-rule="evenodd"/><path d="M2795 893 3692.76 893" stroke="#0F9ED5" stroke-width="2.29167" stroke-linecap="round" stroke-linejoin="round" stroke-miterlimit="10" stroke-dasharray="16.0417 9.16667" fill="none" fill-rule="evenodd"/><path d="M2795 970 3692.76 970" stroke="#0F9ED5" stroke-width="2.29167" stroke-linecap="round" stroke-linejoin="round" stroke-miterlimit="10" stroke-dasharray="16.0417 9.16667" fill="none" fill-rule="evenodd"/><text font-family="Arial,Arial_MSFontService,sans-serif" font-weight="400" font-size="41" transform="matrix(1 0 0 1 3069.66 120)">current</text><text font-family="Arial,Arial_MSFontService,sans-serif" font-weight="400" font-size="41" transform="matrix(1 0 0 1 2999.77 170)">cursor position</text><path d="M3479.5 266.5 3479.5 335.706" stroke="#000000" stroke-width="4.58333" stroke-linecap="round" stroke-linejoin="round" stroke-miterlimit="10" fill="none" fill-rule="evenodd"/><path d="M3172.5 266.5 3172.5 335.706" stroke="#000000" stroke-width="4.58333" stroke-linecap="round" stroke-linejoin="round" stroke-miterlimit="10" fill="none" fill-rule="evenodd"/><path d="M3174.79 189.5 3174.79 227.567C3174.79 228.833 3173.77 229.859 3172.5 229.859 3171.23 229.859 3170.21 228.833 3170.21 227.567L3170.21 189.5C3170.21 188.234 3171.23 187.208 3172.5 187.208 3173.77 187.208 3174.79 188.234 3174.79 189.5ZM3186.25 222.984 3172.5 250.484 3158.75 222.984Z"/><path d="M3481.79 189.5 3481.79 227.567C3481.79 228.833 3480.77 229.859 3479.5 229.859 3478.23 229.859 3477.21 228.833 3477.21 227.567L3477.21 189.5C3477.21 188.234 3478.23 187.208 3479.5 187.208 3480.77 187.208 3481.79 188.234 3481.79 189.5ZM3493.25 222.984 3479.5 250.484 3465.75 222.984Z"/><text font-family="Arial,Arial_MSFontService,sans-serif" font-weight="400" font-size="41" transform="matrix(1 0 0 1 3424.23 120)">updated</text><text font-family="Arial,Arial_MSFontService,sans-serif" font-weight="400" font-size="41" transform="matrix(1 0 0 1 3364.65 170)">cursor position</text><path d="M22.9166-2.29164 276.995-2.29133C278.261-2.29133 279.287-1.26532 279.287 0.000336074 279.287 1.26599 278.261 2.292 276.995 2.292L22.9166 2.29169C21.651 2.29169 20.625 1.26568 20.625 2.48186e-05 20.625-1.26563 21.651-2.29164 22.9166-2.29164ZM27.5 13.75 0 0 27.5-13.75ZM272.412-13.7497 299.912 0.000360892 272.412 13.7503Z" transform="matrix(-1 0 0 1 3475.41 289.5)"/><text font-family="Arial,Arial_MSFontService,sans-serif" font-weight="400" font-size="41" transform="matrix(1 0 0 1 3211.28 275)">repeatCount</text><text font-family="Arial,Arial_MSFontService,sans-serif" font-weight="400" font-size="41" transform="matrix(1 0 0 1 3230.96 885)">shiftDir</text><text font-family="Arial,Arial_MSFontService,sans-serif" font-weight="400" font-size="41" transform="matrix(1 0 0 1 3230.96 935)">shiftSize</text><rect x="3087.5" y="509.5" width="77" height="462" stroke="#00B050" stroke-width="9.16667" stroke-linecap="round" stroke-linejoin="round" stroke-miterlimit="10" fill="none"/><path d="M3172.5 355.5 3241.82 355.5 3241.82 355.5 3313.38 355.5 3318.56 355.5 3396.5 355.5 3396.5 504.125 3318.56 504.125 3318.56 658.023 3241.82 658.023 3241.82 814.5 3172.5 814.5Z" stroke="#E97132" stroke-width="9.16667" stroke-linecap="round" stroke-linejoin="round" stroke-miterlimit="10" fill="none" fill-rule="evenodd"/><text font-family="Arial,Arial_MSFontService,sans-serif" font-weight="400" font-size="41" transform="matrix(1 0 0 1 3584.31 843)">postOp</text><text font-family="Arial,Arial_MSFontService,sans-serif" font-weight="400" font-size="41" transform="matrix(1 0 0 1 3535.04 893)">(clear or set)</text><path d="M3403.83 355.5 3478.5 355.5 3478.5 513.684 3478.5 518.44 3478.5 667.569 3478.5 676.624 3478.5 822.315 3478.5 830.51 3478.5 971.5 3173.5 971.5 3173.5 822.315 3250.47 822.315 3250.47 667.569 3328.01 667.569 3328.01 513.684 3403.83 513.684Z" stroke="#0097FE" stroke-width="9.16667" stroke-linecap="round" stroke-linejoin="round" stroke-miterlimit="10" fill="none" fill-rule="evenodd"/><path d="M2.0246-1.07365 71.2103 129.391C71.8032 130.509 71.3775 131.896 70.2593 132.489 69.1412 133.082 67.754 132.657 67.1611 131.538L-2.0246 1.07365C-2.61756-0.0445078-2.19181-1.43164-1.07365-2.0246 0.0445078-2.61756 1.43164-2.19181 2.0246-1.07365ZM79.186 119.974 79.9221 150.711 54.8907 132.857Z" fill="#FFC000" transform="matrix(1 0 0 -1 3133.5 773.211)"/><path d="M2.0246-1.07365 71.2103 129.391C71.8032 130.509 71.3775 131.896 70.2593 132.489 69.1412 133.082 67.754 132.657 67.1611 131.538L-2.0246 1.07365C-2.61756-0.0445078-2.19181-1.43164-1.07365-2.0246 0.0445078-2.61756 1.43164-2.19181 2.0246-1.07365ZM79.186 119.974 79.9221 150.711 54.8907 132.857Z" fill="#FFC000" transform="matrix(1 0 0 -1 3209.5 773.211)"/><path d="M2.0246-1.07365 71.2103 129.391C71.8032 130.509 71.3775 131.896 70.2593 132.489 69.1412 133.082 67.754 132.657 67.1611 131.538L-2.0246 1.07365C-2.61756-0.0445078-2.19181-1.43164-1.07365-2.0246 0.0445078-2.61756 1.43164-2.19181 2.0246-1.07365ZM79.186 119.974 79.9221 150.711 54.8907 132.857Z" fill="#FFC000" transform="matrix(1 0 0 -1 3287.5 773.211)"/><path d="M2.0246-1.07365 71.2103 129.391C71.8032 130.509 71.3775 131.896 70.2593 132.489 69.1412 133.082 67.754 132.657 67.1611 131.538L-2.0246 1.07365C-2.61756-0.0445078-2.19181-1.43164-1.07365-2.0246 0.0445078-2.61756 1.43164-2.19181 2.0246-1.07365ZM79.186 119.974 79.9221 150.711 54.8907 132.857Z" fill="#FFC000" transform="matrix(1 0 0 -1 3365.5 773.211)"/><path d="M2.29167-5.59523e-06 2.29197 124.896C2.29197 126.161 1.26596 127.188 0.000310535 127.188-1.26534 127.188-2.29136 126.161-2.29136 124.896L-2.29167 5.59523e-06C-2.29167-1.26565-1.26566-2.29166-5.59523e-06-2.29167 1.26565-2.29167 2.29166-1.26566 2.29167-5.59523e-06ZM13.7503 120.312 0.000360892 147.812-13.7497 120.313Z" transform="matrix(1 0 0 -1 3213.5 965.312)"/><path d="M3544.14 836.66 3452.86 789.975C3451.73 789.399 3451.29 788.018 3451.86 786.892 3452.44 785.765 3453.82 785.319 3454.95 785.895L3546.23 832.58C3547.35 833.156 3547.8 834.537 3547.22 835.663 3546.65 836.79 3545.26 837.237 3544.14 836.66ZM3451.72 802.264 3433.5 777.5 3464.24 777.78Z"/></g></svg>