<svg width="2021" height="1005" xmlns="http://www.w3.org/2000/svg" xmlns:xlink="http://www.w3.org/1999/xlink" xml:space="preserve" overflow="hidden"><g transform="translate(-2267 -59)"><path d="M2267 102.667C2267 78.5504 2286.55 59.0001 2310.67 59.0001L4244.33 59.0001C4268.45 59.0001 4288 78.5504 4288 102.667L4288 1020.33C4288 1044.45 4268.45 1064 4244.33 1064L2310.67 1064C2286.55 1064 2267 1044.45 2267 1020.33Z" fill="#E4E8EC" fill-rule="evenodd"/><rect x="2790" y="379" width="899" height="616" fill="#FFFFFF"/><rect x="3014.5" y="842.5" width="150" height="155" stroke="#000000" stroke-width="4.58333" stroke-linecap="round" stroke-linejoin="round" stroke-miterlimit="10"/><rect x="3091.5" y="688.5" width="150" height="156" stroke="#000000" stroke-width="4.58333" stroke-linecap="round" stroke-linejoin="round" stroke-miterlimit="10"/><rect x="3168.5" y="535.5" width="151" height="156" stroke="#000000" stroke-width="4.58333" stroke-linecap="round" stroke-linejoin="round" stroke-miterlimit="10"/><rect x="3246.5" y="380.5" width="150" height="156" stroke="#000000" stroke-width="4.58333" stroke-linecap="round" stroke-linejoin="round" stroke-miterlimit="10"/><path d="M2861 380 2861 994.276" stroke="#0F9ED5" stroke-width="2.29167" stroke-linecap="round" stroke-linejoin="round" stroke-miterlimit="10" stroke-dasharray="16.0417 9.16667" fill="none" fill-rule="evenodd"/><path d="M2938 380 2938 994.276" stroke="#0F9ED5" stroke-width="2.29167" stroke-linecap="round" stroke-linejoin="round" stroke-miterlimit="10" stroke-dasharray="16.0417 9.16667" fill="none" fill-rule="evenodd"/><path d="M3015 380 3015 994.276" stroke="#0F9ED5" stroke-width="2.29167" stroke-linecap="round" stroke-linejoin="round" stroke-miterlimit="10" stroke-dasharray="16.0417 9.16667" fill="none" fill-rule="evenodd"/><path d="M3092 380 3092 994.276" stroke="#0F9ED5" stroke-width="2.29167" stroke-linecap="round" stroke-linejoin="round" stroke-miterlimit="10" stroke-dasharray="16.0417 9.16667" fill="none" fill-rule="evenodd"/><path d="M3169 380 3169 994.276" stroke="#0F9ED5" stroke-width="2.29167" stroke-linecap="round" stroke-linejoin="round" stroke-miterlimit="10" stroke-dasharray="16.0417 9.16667" fill="none" fill-rule="evenodd"/><path d="M3246 380 3246 994.276" stroke="#0F9ED5" stroke-width="2.29167" stroke-linecap="round" stroke-linejoin="round" stroke-miterlimit="10" stroke-dasharray="16.0417 9.16667" fill="none" fill-rule="evenodd"/><path d="M3323 380 3323 994.276" stroke="#0F9ED5" stroke-width="2.29167" stroke-linecap="round" stroke-linejoin="round" stroke-miterlimit="10" stroke-dasharray="16.0417 9.16667" fill="none" fill-rule="evenodd"/><path d="M3400 380 3400 994.276" stroke="#0F9ED5" stroke-width="2.29167" stroke-linecap="round" stroke-linejoin="round" stroke-miterlimit="10" stroke-dasharray="16.0417 9.16667" fill="none" fill-rule="evenodd"/><path d="M3477 380 3477 994.276" stroke="#0F9ED5" stroke-width="2.29167" stroke-linecap="round" stroke-linejoin="round" stroke-miterlimit="10" stroke-dasharray="16.0417 9.16667" fill="none" fill-rule="evenodd"/><path d="M3554 380 3554 994.276" stroke="#0F9ED5" stroke-width="2.29167" stroke-linecap="round" stroke-linejoin="round" stroke-miterlimit="10" stroke-dasharray="16.0417 9.16667" fill="none" fill-rule="evenodd"/><path d="M3631 380 3631 994.276" stroke="#0F9ED5" stroke-width="2.29167" stroke-linecap="round" stroke-linejoin="round" stroke-miterlimit="10" stroke-dasharray="16.0417 9.16667" fill="none" fill-rule="evenodd"/><path d="M2795 380 3692.76 380" stroke="#0F9ED5" stroke-width="2.29167" stroke-linecap="round" stroke-linejoin="round" stroke-miterlimit="10" stroke-dasharray="16.0417 9.16667" fill="none" fill-rule="evenodd"/><path d="M2795 457 3692.76 457" stroke="#0F9ED5" stroke-width="2.29167" stroke-linecap="round" stroke-linejoin="round" stroke-miterlimit="10" stroke-dasharray="16.0417 9.16667" fill="none" fill-rule="evenodd"/><path d="M2795 534 3692.76 534" stroke="#0F9ED5" stroke-width="2.29167" stroke-linecap="round" stroke-linejoin="round" stroke-miterlimit="10" stroke-dasharray="16.0417 9.16667" fill="none" fill-rule="evenodd"/><path d="M2795 611 3692.76 611" stroke="#0F9ED5" stroke-width="2.29167" stroke-linecap="round" stroke-linejoin="round" stroke-miterlimit="10" stroke-dasharray="16.0417 9.16667" fill="none" fill-rule="evenodd"/><path d="M2795 688 3692.76 688" stroke="#0F9ED5" stroke-width="2.29167" stroke-linecap="round" stroke-linejoin="round" stroke-miterlimit="10" stroke-dasharray="16.0417 9.16667" fill="none" fill-rule="evenodd"/><path d="M2795 765 3692.76 765" stroke="#0F9ED5" stroke-width="2.29167" stroke-linecap="round" stroke-linejoin="round" stroke-miterlimit="10" stroke-dasharray="16.0417 9.16667" fill="none" fill-rule="evenodd"/><path d="M2795 842 3692.76 842" stroke="#0F9ED5" stroke-width="2.29167" stroke-linecap="round" stroke-linejoin="round" stroke-miterlimit="10" stroke-dasharray="16.0417 9.16667" fill="none" fill-rule="evenodd"/><path d="M2795 919 3692.76 919" stroke="#0F9ED5" stroke-width="2.29167" stroke-linecap="round" stroke-linejoin="round" stroke-miterlimit="10" stroke-dasharray="16.0417 9.16667" fill="none" fill-rule="evenodd"/><path d="M2795 996 3692.76 996" stroke="#0F9ED5" stroke-width="2.29167" stroke-linecap="round" stroke-linejoin="round" stroke-miterlimit="10" stroke-dasharray="16.0417 9.16667" fill="none" fill-rule="evenodd"/><text font-family="Noto Sans JP,Noto Sans JP_MSFontService,sans-serif" font-weight="400" font-size="41" transform="matrix(1 0 0 1 3062.77 146)">current</text><text font-family="Noto Sans JP,Noto Sans JP_MSFontService,sans-serif" font-weight="400" font-size="41" transform="matrix(1 0 0 1 3204.86 146)"> </text><text font-family="Noto Sans JP,Noto Sans JP_MSFontService,sans-serif" font-weight="400" font-size="41" transform="matrix(1 0 0 1 2988.02 195)">cursor position</text><text font-family="Noto Sans JP,Noto Sans JP_MSFontService,sans-serif" font-weight="400" font-size="41" transform="matrix(1 0 0 1 3279.64 195)"> </text><path d="M3479.5 291.5 3479.5 360.707" stroke="#000000" stroke-width="4.58333" stroke-linecap="round" stroke-linejoin="round" stroke-miterlimit="10" fill="none" fill-rule="evenodd"/><path d="M3172.5 291.5 3172.5 360.707" stroke="#000000" stroke-width="4.58333" stroke-linecap="round" stroke-linejoin="round" stroke-miterlimit="10" fill="none" fill-rule="evenodd"/><path d="M3174.79 214.5 3174.79 252.567C3174.79 253.833 3173.77 254.859 3172.5 254.859 3171.23 254.859 3170.21 253.833 3170.21 252.567L3170.21 214.5C3170.21 213.234 3171.23 212.208 3172.5 212.208 3173.77 212.208 3174.79 213.234 3174.79 214.5ZM3186.25 247.984 3172.5 275.484 3158.75 247.984Z"/><path d="M3481.79 214.5 3481.79 252.567C3481.79 253.833 3480.77 254.859 3479.5 254.859 3478.23 254.859 3477.21 253.833 3477.21 252.567L3477.21 214.5C3477.21 213.234 3478.23 212.208 3479.5 212.208 3480.77 212.208 3481.79 213.234 3481.79 214.5ZM3493.25 247.984 3479.5 275.484 3465.75 247.984Z"/><text font-family="Noto Sans JP,Noto Sans JP_MSFontService,sans-serif" font-weight="400" font-size="41" transform="matrix(1 0 0 1 3416.48 146)">updated</text><text font-family="Noto Sans JP,Noto Sans JP_MSFontService,sans-serif" font-weight="400" font-size="41" transform="matrix(1 0 0 1 3580.9 146)"> </text><text font-family="Noto Sans JP,Noto Sans JP_MSFontService,sans-serif" font-weight="400" font-size="41" transform="matrix(1 0 0 1 3352.9 195)">cursor position</text><text font-family="Noto Sans JP,Noto Sans JP_MSFontService,sans-serif" font-weight="400" font-size="41" transform="matrix(1 0 0 1 3644.52 195)"> </text><path d="M22.9166-2.29164 276.995-2.29133C278.261-2.29133 279.287-1.26532 279.287 0.000336074 279.287 1.26599 278.261 2.292 276.995 2.292L22.9166 2.29169C21.651 2.29169 20.625 1.26568 20.625 2.48186e-05 20.625-1.26563 21.651-2.29164 22.9166-2.29164ZM27.5 13.75 0 0 27.5-13.75ZM272.412-13.7497 299.912 0.000360892 272.412 13.7503Z" transform="matrix(-1 0 0 1 3475.41 314.5)"/><text font-family="Noto Sans JP,Noto Sans JP_MSFontService,sans-serif" font-weight="400" font-size="41" transform="matrix(1 0 0 1 3202.69 300)">repeat</text><text font-family="Noto Sans JP,Noto Sans JP_MSFontService,sans-serif" font-weight="400" font-size="41" transform="matrix(1 0 0 1 3329.3 300)">C</text><text font-family="Noto Sans JP,Noto Sans JP_MSFontService,sans-serif" font-weight="400" font-size="41" transform="matrix(1 0 0 1 3355.65 300)">ount</text><text font-family="Noto Sans JP,Noto Sans JP_MSFontService,sans-serif" font-weight="400" font-size="41" transform="matrix(1 0 0 1 3446.75 300)"> </text><path d="M2862 994 3084.29 994" stroke="#FFFFFF" stroke-width="13.75" stroke-linecap="round" stroke-linejoin="round" stroke-miterlimit="10" fill="none" fill-rule="evenodd"/><path d="M2862 841 3084.29 841.001" stroke="#FFFFFF" stroke-width="13.75" stroke-linecap="round" stroke-linejoin="round" stroke-miterlimit="10" fill="none" fill-rule="evenodd"/><path d="M2.29167-5.59523e-06 2.29197 124.896C2.29197 126.161 1.26596 127.188 0.000310535 127.188-1.26534 127.188-2.29136 126.161-2.29136 124.896L-2.29167 5.59523e-06C-2.29167-1.26565-1.26566-2.29166-5.59523e-06-2.29167 1.26565-2.29167 2.29166-1.26566 2.29167-5.59523e-06ZM13.7503 120.312 0.000360892 147.812-13.7497 120.313Z" transform="matrix(1 0 0 -1 2900.5 990.313)"/><text font-family="Noto Sans JP,Noto Sans JP_MSFontService,sans-serif" font-weight="400" font-size="41" transform="matrix(1 0 0 1 2719.9 909)">shift</text><text font-family="Noto Sans JP,Noto Sans JP_MSFontService,sans-serif" font-weight="400" font-size="41" transform="matrix(1 0 0 1 2804.69 909)">D</text><text font-family="Noto Sans JP,Noto Sans JP_MSFontService,sans-serif" font-weight="400" font-size="41" transform="matrix(1 0 0 1 2833.33 909)">ir</text><text font-family="Noto Sans JP,Noto Sans JP_MSFontService,sans-serif" font-weight="400" font-size="41" transform="matrix(1 0 0 1 2860.83 909)"> </text><text font-family="Noto Sans JP,Noto Sans JP_MSFontService,sans-serif" font-weight="400" font-size="41" transform="matrix(1 0 0 1 2708.74 958)">shift</text><text font-family="Noto Sans JP,Noto Sans JP_MSFontService,sans-serif" font-weight="400" font-size="41" transform="matrix(1 0 0 1 2793.53 958)">S</text><text font-family="Noto Sans JP,Noto Sans JP_MSFontService,sans-serif" font-weight="400" font-size="41" transform="matrix(1 0 0 1 2818.16 958)">ize</text><text font-family="Noto Sans JP,Noto Sans JP_MSFontService,sans-serif" font-weight="400" font-size="41" transform="matrix(1 0 0 1 2872.02 958)"> </text><path d="M2862.5 992.5 3074.48 992.5" stroke="#000000" stroke-width="4.58333" stroke-linecap="round" stroke-linejoin="round" stroke-miterlimit="10" fill="none" fill-rule="evenodd"/><path d="M2862.5 839.5 3074.48 839.5" stroke="#000000" stroke-width="4.58333" stroke-linecap="round" stroke-linejoin="round" stroke-miterlimit="10" fill="none" fill-rule="evenodd"/><rect x="3087.5" y="534.5" width="77" height="463" stroke="#00B050" stroke-width="9.16667" stroke-linecap="round" stroke-linejoin="round" stroke-miterlimit="10" fill="none"/><rect x="3164.5" y="534.5" width="77" height="463" stroke="#00B050" stroke-width="9.16667" stroke-linecap="round" stroke-linejoin="round" stroke-miterlimit="10" fill="none"/><rect x="3241.5" y="534.5" width="77" height="463" stroke="#00B050" stroke-width="9.16667" stroke-linecap="round" stroke-linejoin="round" stroke-miterlimit="10" fill="none"/><rect x="3318.5" y="534.5" width="76" height="463" stroke="#00B050" stroke-width="9.16667" stroke-linecap="round" stroke-linejoin="round" stroke-miterlimit="10" fill="none"/><rect x="3172.5" y="380.5" width="77" height="457" stroke="#E97132" stroke-width="9.16667" stroke-linecap="round" stroke-linejoin="round" stroke-miterlimit="10" fill="none"/><rect x="3249.5" y="380.5" width="77" height="457" stroke="#E97132" stroke-width="9.16667" stroke-linecap="round" stroke-linejoin="round" stroke-miterlimit="10" fill="none"/><rect x="3326.5" y="380.5" width="77" height="457" stroke="#E97132" stroke-width="9.16667" stroke-linecap="round" stroke-linejoin="round" stroke-miterlimit="10" fill="none"/><rect x="3403.5" y="380.5" width="76" height="457" stroke="#E97132" stroke-width="9.16667" stroke-linecap="round" stroke-linejoin="round" stroke-miterlimit="10" fill="none"/><rect x="3176.5" y="850.5" width="304" height="140" stroke="#0097FE" stroke-width="9.16667" stroke-linecap="round" stroke-linejoin="round" stroke-miterlimit="10" fill="none"/><text font-family="Noto Sans JP,Noto Sans JP_MSFontService,sans-serif" font-weight="400" font-size="41" transform="matrix(1 0 0 1 3598.92 828)">post</text><text font-family="Noto Sans JP,Noto Sans JP_MSFontService,sans-serif" font-weight="400" font-size="41" transform="matrix(1 0 0 1 3684.86 828)">OO</text><text font-family="Noto Sans JP,Noto Sans JP_MSFontService,sans-serif" font-weight="400" font-size="41" transform="matrix(1 0 0 1 3745.59 828)">p</text><text font-family="Noto Sans JP,Noto Sans JP_MSFontService,sans-serif" font-weight="400" font-size="41" transform="matrix(1 0 0 1 3771.37 828)"> </text><text font-family="Noto Sans JP,Noto Sans JP_MSFontService,sans-serif" font-weight="400" font-size="41" transform="matrix(1 0 0 1 3565.12 877)">(clear or set)</text><text font-family="Noto Sans JP,Noto Sans JP_MSFontService,sans-serif" font-weight="400" font-size="41" transform="matrix(1 0 0 1 3805.17 877)"> </text><path d="M1.0205-2.0519 44.4346 19.5399C45.5679 20.1035 46.0296 21.479 45.466 22.6123 44.9024 23.7455 43.5269 24.2073 42.3936 23.6437L-1.0205 2.0519C-2.15374 1.4883-2.61551 0.112733-2.0519-1.0205-1.4883-2.15374-0.112733-2.61551 1.0205-2.0519ZM45.4333 7.23933 63.9332 31.7968 33.1873 31.8622Z" transform="matrix(-1 0 0 1 3545.43 859.5)"/><path d="M2.0246-1.07365 71.2103 129.391C71.8032 130.509 71.3775 131.896 70.2593 132.489 69.1412 133.082 67.754 132.657 67.1611 131.538L-2.0246 1.07365C-2.61756-0.0445078-2.19181-1.43164-1.07365-2.0246 0.0445078-2.61756 1.43164-2.19181 2.0246-1.07365ZM79.186 119.974 79.9221 150.711 54.8907 132.857Z" fill="#FFC000" transform="matrix(1 0 0 -1 3133.5 784.211)"/><path d="M2.0246-1.07365 71.2103 129.391C71.8032 130.509 71.3775 131.896 70.2593 132.489 69.1412 133.082 67.754 132.657 67.1611 131.538L-2.0246 1.07365C-2.61756-0.0445078-2.19181-1.43164-1.07365-2.0246 0.0445078-2.61756 1.43164-2.19181 2.0246-1.07365ZM79.186 119.974 79.9221 150.711 54.8907 132.857Z" fill="#FFC000" transform="matrix(1 0 0 -1 3203.5 784.211)"/><path d="M2.0246-1.07365 71.2103 129.391C71.8032 130.509 71.3775 131.896 70.2593 132.489 69.1412 133.082 67.754 132.657 67.1611 131.538L-2.0246 1.07365C-2.61756-0.0445078-2.19181-1.43164-1.07365-2.0246 0.0445078-2.61756 1.43164-2.19181 2.0246-1.07365ZM79.186 119.974 79.9221 150.711 54.8907 132.857Z" fill="#FFC000" transform="matrix(1 0 0 -1 3287.5 784.211)"/><path d="M2.0246-1.07365 71.2103 129.391C71.8032 130.509 71.3775 131.896 70.2593 132.489 69.1412 133.082 67.754 132.657 67.1611 131.538L-2.0246 1.07365C-2.61756-0.0445078-2.19181-1.43164-1.07365-2.0246 0.0445078-2.61756 1.43164-2.19181 2.0246-1.07365ZM79.186 119.974 79.9221 150.711 54.8907 132.857Z" fill="#FFC000" transform="matrix(1 0 0 -1 3365.5 784.211)"/></g></svg>