<svg width="2021" height="1004" xmlns="http://www.w3.org/2000/svg" xmlns:xlink="http://www.w3.org/1999/xlink" xml:space="preserve" overflow="hidden"><defs><clipPath id="clip0"><rect x="2207" y="132" width="2021" height="1004"/></clipPath></defs><g clip-path="url(#clip0)" transform="translate(-2207 -132)"><path d="M2207 176.898C2207 152.101 2227.1 132 2251.9 132L4183.1 132C4207.9 132 4228 152.101 4228 176.898L4228 1091.1C4228 1115.9 4207.9 1136 4183.1 1136L2251.9 1136C2227.1 1136 2207 1115.9 2207 1091.1Z" fill="#E4E8EC" fill-rule="evenodd"/><rect x="3061" y="408" width="898" height="618" fill="#FFFFFF"/><rect x="0" y="0" width="295" height="602" stroke="#000000" stroke-width="4.58333" stroke-linecap="round" stroke-linejoin="round" stroke-miterlimit="10" fill="#FFFFFF" transform="matrix(-1 0 0 1 2814.5 403.5)"/><rect x="3205.5" y="870.5" width="151" height="156" stroke="#000000" stroke-width="4.58333" stroke-linecap="round" stroke-linejoin="round" stroke-miterlimit="10"/><rect x="3282.5" y="717.5" width="151" height="155" stroke="#000000" stroke-width="4.58333" stroke-linecap="round" stroke-linejoin="round" stroke-miterlimit="10"/><rect x="3360.5" y="564.5" width="150" height="151" stroke="#000000" stroke-width="4.58333" stroke-linecap="round" stroke-linejoin="round" stroke-miterlimit="10"/><rect x="3437.5" y="409.5" width="231" height="156" stroke="#000000" stroke-width="4.58333" stroke-linecap="round" stroke-linejoin="round" stroke-miterlimit="10"/><rect x="3592.5" y="564.5" width="151" height="151" stroke="#000000" stroke-width="4.58333" stroke-linecap="round" stroke-linejoin="round" stroke-miterlimit="10"/><rect x="3670.5" y="715.5" width="150" height="155" stroke="#000000" stroke-width="4.58333" stroke-linecap="round" stroke-linejoin="round" stroke-miterlimit="10"/><rect x="3747.5" y="869.5" width="150" height="156" stroke="#000000" stroke-width="4.58333" stroke-linecap="round" stroke-linejoin="round" stroke-miterlimit="10"/><rect x="3431.5" y="793.5" width="238" height="77" stroke="#000000" stroke-width="4.58333" stroke-linecap="round" stroke-linejoin="round" stroke-miterlimit="10"/><path d="M3129 408 3129 1022.28" stroke="#0F9ED5" stroke-width="2.29167" stroke-linecap="round" stroke-linejoin="round" stroke-miterlimit="10" stroke-dasharray="16.0417 9.16667" fill="none" fill-rule="evenodd"/><path d="M3206 408 3206 1022.28" stroke="#0F9ED5" stroke-width="2.29167" stroke-linecap="round" stroke-linejoin="round" stroke-miterlimit="10" stroke-dasharray="16.0417 9.16667" fill="none" fill-rule="evenodd"/><path d="M3283 408 3283 1022.28" stroke="#0F9ED5" stroke-width="2.29167" stroke-linecap="round" stroke-linejoin="round" stroke-miterlimit="10" stroke-dasharray="16.0417 9.16667" fill="none" fill-rule="evenodd"/><path d="M3360 408 3360 1022.28" stroke="#0F9ED5" stroke-width="2.29167" stroke-linecap="round" stroke-linejoin="round" stroke-miterlimit="10" stroke-dasharray="16.0417 9.16667" fill="none" fill-rule="evenodd"/><path d="M3437 408 3437 1022.28" stroke="#0F9ED5" stroke-width="2.29167" stroke-linecap="round" stroke-linejoin="round" stroke-miterlimit="10" stroke-dasharray="16.0417 9.16667" fill="none" fill-rule="evenodd"/><path d="M3514 408 3514 1022.28" stroke="#0F9ED5" stroke-width="2.29167" stroke-linecap="round" stroke-linejoin="round" stroke-miterlimit="10" stroke-dasharray="16.0417 9.16667" fill="none" fill-rule="evenodd"/><path d="M3591 408 3591 1022.28" stroke="#0F9ED5" stroke-width="2.29167" stroke-linecap="round" stroke-linejoin="round" stroke-miterlimit="10" stroke-dasharray="16.0417 9.16667" fill="none" fill-rule="evenodd"/><path d="M3668 408 3668 1022.28" stroke="#0F9ED5" stroke-width="2.29167" stroke-linecap="round" stroke-linejoin="round" stroke-miterlimit="10" stroke-dasharray="16.0417 9.16667" fill="none" fill-rule="evenodd"/><path d="M3745 408 3745 1022.28" stroke="#0F9ED5" stroke-width="2.29167" stroke-linecap="round" stroke-linejoin="round" stroke-miterlimit="10" stroke-dasharray="16.0417 9.16667" fill="none" fill-rule="evenodd"/><path d="M3822 408 3822 1022.28" stroke="#0F9ED5" stroke-width="2.29167" stroke-linecap="round" stroke-linejoin="round" stroke-miterlimit="10" stroke-dasharray="16.0417 9.16667" fill="none" fill-rule="evenodd"/><path d="M3899 408 3899 1022.28" stroke="#0F9ED5" stroke-width="2.29167" stroke-linecap="round" stroke-linejoin="round" stroke-miterlimit="10" stroke-dasharray="16.0417 9.16667" fill="none" fill-rule="evenodd"/><path d="M3063 408 3960.76 408" stroke="#0F9ED5" stroke-width="2.29167" stroke-linecap="round" stroke-linejoin="round" stroke-miterlimit="10" stroke-dasharray="16.0417 9.16667" fill="none" fill-rule="evenodd"/><path d="M3063 485 3960.76 485" stroke="#0F9ED5" stroke-width="2.29167" stroke-linecap="round" stroke-linejoin="round" stroke-miterlimit="10" stroke-dasharray="16.0417 9.16667" fill="none" fill-rule="evenodd"/><path d="M3063 562 3960.76 562" stroke="#0F9ED5" stroke-width="2.29167" stroke-linecap="round" stroke-linejoin="round" stroke-miterlimit="10" stroke-dasharray="16.0417 9.16667" fill="none" fill-rule="evenodd"/><path d="M3063 639 3960.76 639" stroke="#0F9ED5" stroke-width="2.29167" stroke-linecap="round" stroke-linejoin="round" stroke-miterlimit="10" stroke-dasharray="16.0417 9.16667" fill="none" fill-rule="evenodd"/><path d="M3063 716 3960.76 716" stroke="#0F9ED5" stroke-width="2.29167" stroke-linecap="round" stroke-linejoin="round" stroke-miterlimit="10" stroke-dasharray="16.0417 9.16667" fill="none" fill-rule="evenodd"/><path d="M3063 793 3960.76 793" stroke="#0F9ED5" stroke-width="2.29167" stroke-linecap="round" stroke-linejoin="round" stroke-miterlimit="10" stroke-dasharray="16.0417 9.16667" fill="none" fill-rule="evenodd"/><path d="M3063 870 3960.76 870" stroke="#0F9ED5" stroke-width="2.29167" stroke-linecap="round" stroke-linejoin="round" stroke-miterlimit="10" stroke-dasharray="16.0417 9.16667" fill="none" fill-rule="evenodd"/><path d="M3063 947 3960.76 947" stroke="#0F9ED5" stroke-width="2.29167" stroke-linecap="round" stroke-linejoin="round" stroke-miterlimit="10" stroke-dasharray="16.0417 9.16667" fill="none" fill-rule="evenodd"/><path d="M3063 1024 3960.76 1024" stroke="#0F9ED5" stroke-width="2.29167" stroke-linecap="round" stroke-linejoin="round" stroke-miterlimit="10" stroke-dasharray="16.0417 9.16667" fill="none" fill-rule="evenodd"/><text font-family="Noto Sans JP,Noto Sans JP_MSFontService,sans-serif" font-weight="400" font-size="41" transform="matrix(1 0 0 1 3008.35 256)">current</text><text font-family="Noto Sans JP,Noto Sans JP_MSFontService,sans-serif" font-weight="400" font-size="41" transform="matrix(1 0 0 1 3150.43 256)"> </text><text font-family="Noto Sans JP,Noto Sans JP_MSFontService,sans-serif" font-weight="400" font-size="41" transform="matrix(1 0 0 1 2933.59 305)">cursor position</text><text font-family="Noto Sans JP,Noto Sans JP_MSFontService,sans-serif" font-weight="400" font-size="41" transform="matrix(1 0 0 1 3225.21 305)"> </text><path d="M2.04973-1.02486 27.8947 50.665C28.4607 51.797 28.0018 53.1736 26.8698 53.7396 25.7378 54.3056 24.3612 53.8467 23.7952 52.7147L-2.04973 1.02486C-2.61575-0.10717-2.1569-1.48371-1.02486-2.04973 0.10717-2.61575 1.48371-2.1569 2.04973-1.02486ZM36.0936 41.4412 36.0936 72.1871 11.4968 53.7396Z" transform="matrix(-1 0 0 1 3321.59 322.5)"/><text font-family="Noto Sans JP,Noto Sans JP_MSFontService,sans-serif" font-weight="400" font-size="41" transform="matrix(1 0 0 1 3339.13 254)">updated</text><text font-family="Noto Sans JP,Noto Sans JP_MSFontService,sans-serif" font-weight="400" font-size="41" transform="matrix(1 0 0 1 3503.56 254)"> </text><text font-family="Noto Sans JP,Noto Sans JP_MSFontService,sans-serif" font-weight="400" font-size="41" transform="matrix(1 0 0 1 3275.56 303)">cursor position</text><text font-family="Noto Sans JP,Noto Sans JP_MSFontService,sans-serif" font-weight="400" font-size="41" transform="matrix(1 0 0 1 3567.17 303)"> </text><rect x="3206.5" y="408.5" width="77" height="615" stroke="#E97132" stroke-width="9.16667" stroke-linecap="round" stroke-linejoin="round" stroke-miterlimit="10" fill="none"/><text font-family="Noto Sans JP,Noto Sans JP_MSFontService,sans-serif" font-weight="400" font-size="41" transform="matrix(1 0 0 1 2534.35 380)">Lookup Table</text><text font-family="Noto Sans JP,Noto Sans JP_MSFontService,sans-serif" font-weight="400" font-size="41" transform="matrix(1 0 0 1 2797.89 380)"> </text><rect x="0" y="0" width="36.9998" height="39.0002" transform="matrix(-1 0 0 1 2814 402)"/><rect x="0" y="0" width="36.9998" height="39.0002" transform="matrix(-1 0 0 1 2703 402)"/><rect x="0" y="0" width="37.0001" height="39.0002" transform="matrix(-1 0 0 1 2666 402)"/><rect x="0" y="0" width="36.0001" height="39.0002" transform="matrix(-1 0 0 1 2555 402)"/><rect x="0" y="0" width="36.9998" height="39.9999" transform="matrix(-1 0 0 1 2814 441)"/><rect x="0" y="0" width="37.0001" height="39.9999" transform="matrix(-1 0 0 1 2777 441)"/><rect x="0" y="0" width="36.9998" height="39.9999" transform="matrix(-1 0 0 1 2703 441)"/><rect x="0" y="0" width="36.9998" height="39.9999" transform="matrix(-1 0 0 1 2592 441)"/><rect x="0" y="0" width="36.9998" height="39.0002" transform="matrix(-1 0 0 1 2814 481)"/><rect x="0" y="0" width="37.0001" height="39.0002" transform="matrix(-1 0 0 1 2740 481)"/><rect x="0" y="0" width="37.0001" height="39.0002" transform="matrix(-1 0 0 1 2666 481)"/><rect x="0" y="0" width="37.0001" height="39.0002" transform="matrix(-1 0 0 1 2629 481)"/><rect x="0" y="0" width="36.9998" height="39.0002" transform="matrix(-1 0 0 1 2592 481)"/><rect x="0" y="0" width="36.9998" height="40.0002" transform="matrix(-1 0 0 1 2814 965)"/><rect x="0" y="0" width="37.0001" height="40.0002" transform="matrix(-1 0 0 1 2777 965)"/><rect x="0" y="0" width="37.0001" height="40.0002" transform="matrix(-1 0 0 1 2740 965)"/><rect x="0" y="0" width="37.0001" height="40.0002" transform="matrix(-1 0 0 1 2666 965)"/><rect x="0" y="0" width="36.9998" height="40.0002" transform="matrix(-1 0 0 1 2592 965)"/><rect x="0" y="0" width="36.0001" height="40.0002" transform="matrix(-1 0 0 1 2555 965)"/><rect x="0" y="0" width="36.9998" height="38.9998" transform="matrix(-1 0 0 1 2814 926)"/><rect x="0" y="0" width="37.0001" height="38.9998" transform="matrix(-1 0 0 1 2666 926)"/><rect x="0" y="0" width="36.9998" height="38.9998" transform="matrix(-1 0 0 1 2592 926)"/><rect x="0" y="0" width="37.0001" height="39.0002" transform="matrix(-1 0 0 1 2777 888)"/><rect x="0" y="0" width="37.0001" height="39.0002" transform="matrix(-1 0 0 1 2740 888)"/><rect x="0" y="0" width="37.0001" height="39.0002" transform="matrix(-1 0 0 1 2666 888)"/><rect x="0" y="0" width="37.0001" height="39.0002" transform="matrix(-1 0 0 1 2629 888)"/><rect x="0" y="0" width="36.0001" height="39.0002" transform="matrix(-1 0 0 1 2555 888)"/><rect x="0" y="0" width="36.9998" height="38.9998" fill="#FFFFFF" transform="matrix(-1 0 0 1 2814 687)"/><rect x="0" y="0" width="37.0001" height="38.9998" fill="#FFFFFF" transform="matrix(-1 0 0 1 2777 687)"/><rect x="0" y="0" width="37.0001" height="38.9998" fill="#FFFFFF" transform="matrix(-1 0 0 1 2740 687)"/><rect x="0" y="0" width="36.9998" height="38.9998" fill="#FFFFFF" transform="matrix(-1 0 0 1 2703 687)"/><rect x="0" y="0" width="37.0001" height="38.9998" fill="#FFFFFF" transform="matrix(-1 0 0 1 2666 687)"/><rect x="0" y="0" width="37.0001" height="38.9998" fill="#FFFFFF" transform="matrix(-1 0 0 1 2629 687)"/><rect x="0" y="0" width="36.9998" height="38.9998" transform="matrix(-1 0 0 1 2592 687)"/><rect x="0" y="0" width="36.0001" height="38.9998" transform="matrix(-1 0 0 1 2555 687)"/><path d="M0 0 295.168 0.000360892" stroke="#0F9ED5" stroke-width="2.29167" stroke-linecap="round" stroke-linejoin="round" stroke-miterlimit="10" stroke-dasharray="16.0417 9.16667" fill="none" fill-rule="evenodd" transform="matrix(-1 0 0 1 2814.17 441)"/><path d="M0 0 295.168 0.000360892" stroke="#0F9ED5" stroke-width="2.29167" stroke-linecap="round" stroke-linejoin="round" stroke-miterlimit="10" stroke-dasharray="16.0417 9.16667" fill="none" fill-rule="evenodd" transform="matrix(-1 0 0 1 2814.17 480)"/><path d="M0 0 295.168 0.000360892" stroke="#0F9ED5" stroke-width="2.29167" stroke-linecap="round" stroke-linejoin="round" stroke-miterlimit="10" stroke-dasharray="16.0417 9.16667" fill="none" fill-rule="evenodd" transform="matrix(-1 0 0 1 2814.17 519)"/><path d="M0 0 295.168 0.000360892" stroke="#0F9ED5" stroke-width="2.29167" stroke-linecap="round" stroke-linejoin="round" stroke-miterlimit="10" stroke-dasharray="16.0417 9.16667" fill="none" fill-rule="evenodd" transform="matrix(-1 0 0 1 2814.17 887)"/><path d="M0 0 295.168 0.000360892" stroke="#0F9ED5" stroke-width="2.29167" stroke-linecap="round" stroke-linejoin="round" stroke-miterlimit="10" stroke-dasharray="16.0417 9.16667" fill="none" fill-rule="evenodd" transform="matrix(-1 0 0 1 2814.17 926)"/><path d="M0 0 295.168 0.000360892" stroke="#0F9ED5" stroke-width="2.29167" stroke-linecap="round" stroke-linejoin="round" stroke-miterlimit="10" stroke-dasharray="16.0417 9.16667" fill="none" fill-rule="evenodd" transform="matrix(-1 0 0 1 2814.17 965)"/><path d="M0 0 0.000360892 145.235" stroke="#61CBF4" stroke-width="2.29167" stroke-linecap="round" stroke-linejoin="round" stroke-miterlimit="10" stroke-dasharray="16.0417 9.16667" fill="none" fill-rule="evenodd" transform="matrix(-1 0 0 1 2776 403)"/><path d="M0 0 0.000360892 145.235" stroke="#61CBF4" stroke-width="2.29167" stroke-linecap="round" stroke-linejoin="round" stroke-miterlimit="10" stroke-dasharray="16.0417 9.16667" fill="none" fill-rule="evenodd" transform="matrix(-1 0 0 1 2739 403)"/><path d="M0 0 0.000360892 145.235" stroke="#61CBF4" stroke-width="2.29167" stroke-linecap="round" stroke-linejoin="round" stroke-miterlimit="10" stroke-dasharray="16.0417 9.16667" fill="none" fill-rule="evenodd" transform="matrix(-1 0 0 1 2702 403)"/><path d="M0 0 0.000360892 145.235" stroke="#61CBF4" stroke-width="2.29167" stroke-linecap="round" stroke-linejoin="round" stroke-miterlimit="10" stroke-dasharray="16.0417 9.16667" fill="none" fill-rule="evenodd" transform="matrix(-1 0 0 1 2665 403)"/><path d="M0 0 0.000360892 145.235" stroke="#61CBF4" stroke-width="2.29167" stroke-linecap="round" stroke-linejoin="round" stroke-miterlimit="10" stroke-dasharray="16.0417 9.16667" fill="none" fill-rule="evenodd" transform="matrix(-1 0 0 1 2628 403)"/><path d="M0 0 0.000360892 145.235" stroke="#61CBF4" stroke-width="2.29167" stroke-linecap="round" stroke-linejoin="round" stroke-miterlimit="10" stroke-dasharray="16.0417 9.16667" fill="none" fill-rule="evenodd" transform="matrix(-1 0 0 1 2592 403)"/><path d="M0 0 0.000360892 145.235" stroke="#61CBF4" stroke-width="2.29167" stroke-linecap="round" stroke-linejoin="round" stroke-miterlimit="10" stroke-dasharray="16.0417 9.16667" fill="none" fill-rule="evenodd" transform="matrix(-1 0 0 1 2555 403)"/><text font-family="Noto Sans JP,Noto Sans JP_MSFontService,sans-serif" font-weight="400" font-size="28" transform="matrix(1 0 0 1 2473.57 431)">#0</text><text font-family="Noto Sans JP,Noto Sans JP_MSFontService,sans-serif" font-weight="400" font-size="28" transform="matrix(1 0 0 1 2504.5 431)"> </text><text font-family="Noto Sans JP,Noto Sans JP_MSFontService,sans-serif" font-weight="400" font-size="28" transform="matrix(1 0 0 1 2473.57 472)">#1</text><text font-family="Noto Sans JP,Noto Sans JP_MSFontService,sans-serif" font-weight="400" font-size="28" transform="matrix(1 0 0 1 2504.5 472)"> </text><text font-family="Noto Sans JP,Noto Sans JP_MSFontService,sans-serif" font-weight="400" font-size="28" transform="matrix(1 0 0 1 2473.57 509)">#2</text><text font-family="Noto Sans JP,Noto Sans JP_MSFontService,sans-serif" font-weight="400" font-size="28" transform="matrix(1 0 0 1 2504.5 509)"> </text><text font-family="Noto Sans JP,Noto Sans JP_MSFontService,sans-serif" font-weight="400" font-size="28" transform="matrix(1 0 0 1 2458.1 913)">#61</text><text font-family="Noto Sans JP,Noto Sans JP_MSFontService,sans-serif" font-weight="400" font-size="28" transform="matrix(1 0 0 1 2504.5 913)"> </text><text font-family="Noto Sans JP,Noto Sans JP_MSFontService,sans-serif" font-weight="400" font-size="28" transform="matrix(1 0 0 1 2458.1 955)">#62</text><text font-family="Noto Sans JP,Noto Sans JP_MSFontService,sans-serif" font-weight="400" font-size="28" transform="matrix(1 0 0 1 2504.5 955)"> </text><text font-family="Noto Sans JP,Noto Sans JP_MSFontService,sans-serif" font-weight="400" font-size="28" transform="matrix(1 0 0 1 2458.1 998)">#63</text><text font-family="Noto Sans JP,Noto Sans JP_MSFontService,sans-serif" font-weight="400" font-size="28" transform="matrix(1 0 0 1 2504.5 998)"> </text><path d="M0 0 0.000360892 145.235" stroke="#61CBF4" stroke-width="2.29167" stroke-linecap="round" stroke-linejoin="round" stroke-miterlimit="10" stroke-dasharray="16.0417 9.16667" fill="none" fill-rule="evenodd" transform="matrix(-1 0 0 1 2776 862)"/><path d="M0 0 0.000360892 145.235" stroke="#61CBF4" stroke-width="2.29167" stroke-linecap="round" stroke-linejoin="round" stroke-miterlimit="10" stroke-dasharray="16.0417 9.16667" fill="none" fill-rule="evenodd" transform="matrix(-1 0 0 1 2739 862)"/><path d="M0 0 0.000360892 145.235" stroke="#61CBF4" stroke-width="2.29167" stroke-linecap="round" stroke-linejoin="round" stroke-miterlimit="10" stroke-dasharray="16.0417 9.16667" fill="none" fill-rule="evenodd" transform="matrix(-1 0 0 1 2702 862)"/><path d="M0 0 0.000360892 145.235" stroke="#61CBF4" stroke-width="2.29167" stroke-linecap="round" stroke-linejoin="round" stroke-miterlimit="10" stroke-dasharray="16.0417 9.16667" fill="none" fill-rule="evenodd" transform="matrix(-1 0 0 1 2665 862)"/><path d="M0 0 0.000360892 145.235" stroke="#61CBF4" stroke-width="2.29167" stroke-linecap="round" stroke-linejoin="round" stroke-miterlimit="10" stroke-dasharray="16.0417 9.16667" fill="none" fill-rule="evenodd" transform="matrix(-1 0 0 1 2628 862)"/><path d="M0 0 0.000360892 145.235" stroke="#61CBF4" stroke-width="2.29167" stroke-linecap="round" stroke-linejoin="round" stroke-miterlimit="10" stroke-dasharray="16.0417 9.16667" fill="none" fill-rule="evenodd" transform="matrix(-1 0 0 1 2592 862)"/><path d="M0 0 0.000360892 145.235" stroke="#61CBF4" stroke-width="2.29167" stroke-linecap="round" stroke-linejoin="round" stroke-miterlimit="10" stroke-dasharray="16.0417 9.16667" fill="none" fill-rule="evenodd" transform="matrix(-1 0 0 1 2555 862)"/><path d="M0 0 0.000360892 79.9218" stroke="#61CBF4" stroke-width="2.29167" stroke-linecap="round" stroke-linejoin="round" stroke-miterlimit="10" stroke-dasharray="16.0417 9.16667" fill="none" fill-rule="evenodd" transform="matrix(-1 0 0 1 2776 669)"/><path d="M0 0 0.000360892 79.9218" stroke="#61CBF4" stroke-width="2.29167" stroke-linecap="round" stroke-linejoin="round" stroke-miterlimit="10" stroke-dasharray="16.0417 9.16667" fill="none" fill-rule="evenodd" transform="matrix(-1 0 0 1 2739 669)"/><path d="M0 0 0.000360892 79.9218" stroke="#61CBF4" stroke-width="2.29167" stroke-linecap="round" stroke-linejoin="round" stroke-miterlimit="10" stroke-dasharray="16.0417 9.16667" fill="none" fill-rule="evenodd" transform="matrix(-1 0 0 1 2702 669)"/><path d="M0 0 0.000360892 79.9218" stroke="#61CBF4" stroke-width="2.29167" stroke-linecap="round" stroke-linejoin="round" stroke-miterlimit="10" stroke-dasharray="16.0417 9.16667" fill="none" fill-rule="evenodd" transform="matrix(-1 0 0 1 2665 669)"/><path d="M0 0 0.000360892 79.9218" stroke="#61CBF4" stroke-width="2.29167" stroke-linecap="round" stroke-linejoin="round" stroke-miterlimit="10" stroke-dasharray="16.0417 9.16667" fill="none" fill-rule="evenodd" transform="matrix(-1 0 0 1 2628 669)"/><path d="M0 0 0.000360892 79.9218" stroke="#61CBF4" stroke-width="2.29167" stroke-linecap="round" stroke-linejoin="round" stroke-miterlimit="10" stroke-dasharray="16.0417 9.16667" fill="none" fill-rule="evenodd" transform="matrix(-1 0 0 1 2592 669)"/><path d="M0 0 0.000360892 79.9218" stroke="#61CBF4" stroke-width="2.29167" stroke-linecap="round" stroke-linejoin="round" stroke-miterlimit="10" stroke-dasharray="16.0417 9.16667" fill="none" fill-rule="evenodd" transform="matrix(-1 0 0 1 2555 669)"/><rect x="0" y="0" width="290" height="39.9999" stroke="#00B050" stroke-width="9.16667" stroke-linecap="round" stroke-linejoin="round" stroke-miterlimit="10" fill="none" transform="matrix(-1 0 0 1 2810.5 686.5)"/><text font-family="Noto Sans JP,Noto Sans JP_MSFontService,sans-serif" font-weight="400" font-size="41" transform="matrix(1 0 0 1 2398.8 721)">index</text><text font-family="Noto Sans JP,Noto Sans JP_MSFontService,sans-serif" font-weight="400" font-size="41" transform="matrix(1 0 0 1 2504.79 721)"> </text><path d="M3173.55 321.475 3199.39 373.165C3199.96 374.297 3199.5 375.673 3198.37 376.24 3197.24 376.806 3195.86 376.347 3195.3 375.215L3169.45 323.525C3168.88 322.393 3169.34 321.016 3170.48 320.45 3171.61 319.884 3172.98 320.343 3173.55 321.475ZM3207.59 363.941 3207.59 394.687 3183 376.24Z"/><path d="M2830.59 702.21 3175.09 715.103C3176.36 715.151 3177.35 716.214 3177.3 717.479 3177.25 718.744 3176.19 719.731 3174.92 719.684L2830.41 706.79C2829.15 706.743 2828.16 705.679 2828.21 704.414 2828.26 703.149 2829.32 702.162 2830.59 702.21ZM3170.94 703.482 3197.91 718.251 3169.91 730.962Z"/><text font-family="Noto Sans JP,Noto Sans JP_MSFontService,sans-serif" font-weight="400" font-size="41" transform="matrix(1 0 0 1 2956.62 689)">copy</text><text font-family="Noto Sans JP,Noto Sans JP_MSFontService,sans-serif" font-weight="400" font-size="41" transform="matrix(1 0 0 1 3050.57 689)"> </text></g></svg>