<svg width="2619" height="1490" xmlns="http://www.w3.org/2000/svg" xmlns:xlink="http://www.w3.org/1999/xlink" xml:space="preserve" overflow="hidden"><defs><clipPath id="clip0"><rect x="361" y="-26" width="2619" height="1490"/></clipPath></defs><g clip-path="url(#clip0)" transform="translate(-361 26)"><rect x="361" y="-26.0001" width="2619" height="1490" fill="#FFFFFF"/><rect x="649.5" y="558.5" width="152" height="618" stroke="#000000" stroke-width="4.58333" stroke-linecap="round" stroke-linejoin="round" stroke-miterlimit="10"/><rect x="1264.5" y="715.5" width="154" height="457" stroke="#000000" stroke-width="4.58333" stroke-linecap="round" stroke-linejoin="round" stroke-miterlimit="10"/><rect x="1109.5" y="559.5" width="228" height="76" stroke="#000000" stroke-width="4.58333" stroke-linecap="round" stroke-linejoin="round" stroke-miterlimit="10"/><rect x="800.5" y="712.5" width="78" height="74.9999" stroke="#000000" stroke-width="4.58333" stroke-linecap="round" stroke-linejoin="round" stroke-miterlimit="10"/><rect x="801.5" y="633.5" width="619" height="79.0001" stroke="#000000" stroke-width="4.58333" stroke-linecap="round" stroke-linejoin="round" stroke-miterlimit="10"/><rect x="876.5" y="558.5" width="154" height="76" stroke="#000000" stroke-width="4.58333" stroke-linecap="round" stroke-linejoin="round" stroke-miterlimit="10"/><rect x="954.5" y="714.5" width="231" height="75.9999" stroke="#000000" stroke-width="4.58333" stroke-linecap="round" stroke-linejoin="round" stroke-miterlimit="10"/><rect x="962.5" y="791.5" width="149" height="385" stroke="#000000" stroke-width="4.58333" stroke-linecap="round" stroke-linejoin="round" stroke-miterlimit="10"/><path d="M569 558 569 1172.28" stroke="#61CBF4" stroke-width="2.29167" stroke-linecap="round" stroke-linejoin="round" stroke-miterlimit="10" stroke-dasharray="16.0417 9.16667" fill="none" fill-rule="evenodd"/><path d="M646 558 646 1172.28" stroke="#61CBF4" stroke-width="2.29167" stroke-linecap="round" stroke-linejoin="round" stroke-miterlimit="10" stroke-dasharray="16.0417 9.16667" fill="none" fill-rule="evenodd"/><path d="M723 558 723 1172.28" stroke="#61CBF4" stroke-width="2.29167" stroke-linecap="round" stroke-linejoin="round" stroke-miterlimit="10" stroke-dasharray="16.0417 9.16667" fill="none" fill-rule="evenodd"/><path d="M800 558 800 1172.28" stroke="#61CBF4" stroke-width="2.29167" stroke-linecap="round" stroke-linejoin="round" stroke-miterlimit="10" stroke-dasharray="16.0417 9.16667" fill="none" fill-rule="evenodd"/><path d="M877 558 877 1172.28" stroke="#61CBF4" stroke-width="2.29167" stroke-linecap="round" stroke-linejoin="round" stroke-miterlimit="10" stroke-dasharray="16.0417 9.16667" fill="none" fill-rule="evenodd"/><path d="M954 558 954 1172.28" stroke="#61CBF4" stroke-width="2.29167" stroke-linecap="round" stroke-linejoin="round" stroke-miterlimit="10" stroke-dasharray="16.0417 9.16667" fill="none" fill-rule="evenodd"/><path d="M1031 558 1031 1172.28" stroke="#61CBF4" stroke-width="2.29167" stroke-linecap="round" stroke-linejoin="round" stroke-miterlimit="10" stroke-dasharray="16.0417 9.16667" fill="none" fill-rule="evenodd"/><path d="M1108 558 1108 1172.28" stroke="#61CBF4" stroke-width="2.29167" stroke-linecap="round" stroke-linejoin="round" stroke-miterlimit="10" stroke-dasharray="16.0417 9.16667" fill="none" fill-rule="evenodd"/><path d="M1185 558 1185 1172.28" stroke="#61CBF4" stroke-width="2.29167" stroke-linecap="round" stroke-linejoin="round" stroke-miterlimit="10" stroke-dasharray="16.0417 9.16667" fill="none" fill-rule="evenodd"/><path d="M1262 558 1262 1172.28" stroke="#61CBF4" stroke-width="2.29167" stroke-linecap="round" stroke-linejoin="round" stroke-miterlimit="10" stroke-dasharray="16.0417 9.16667" fill="none" fill-rule="evenodd"/><path d="M1339 558 1339 1172.28" stroke="#61CBF4" stroke-width="2.29167" stroke-linecap="round" stroke-linejoin="round" stroke-miterlimit="10" stroke-dasharray="16.0417 9.16667" fill="none" fill-rule="evenodd"/><path d="M1416 558 1416 1172.28" stroke="#61CBF4" stroke-width="2.29167" stroke-linecap="round" stroke-linejoin="round" stroke-miterlimit="10" stroke-dasharray="16.0417 9.16667" fill="none" fill-rule="evenodd"/><path d="M1502 558 1502 1172.28" stroke="#61CBF4" stroke-width="2.29167" stroke-linecap="round" stroke-linejoin="round" stroke-miterlimit="10" stroke-dasharray="16.0417 9.16667" fill="none" fill-rule="evenodd"/><path d="M503 558 1578.94 558" stroke="#0F9ED5" stroke-width="2.29167" stroke-linecap="round" stroke-linejoin="round" stroke-miterlimit="10" stroke-dasharray="16.0417 9.16667" fill="none" fill-rule="evenodd"/><path d="M503 635 1578.94 635" stroke="#0F9ED5" stroke-width="2.29167" stroke-linecap="round" stroke-linejoin="round" stroke-miterlimit="10" stroke-dasharray="16.0417 9.16667" fill="none" fill-rule="evenodd"/><path d="M503 712 1578.94 712" stroke="#0F9ED5" stroke-width="2.29167" stroke-linecap="round" stroke-linejoin="round" stroke-miterlimit="10" stroke-dasharray="16.0417 9.16667" fill="none" fill-rule="evenodd"/><path d="M503 789 1578.94 789" stroke="#0F9ED5" stroke-width="2.29167" stroke-linecap="round" stroke-linejoin="round" stroke-miterlimit="10" stroke-dasharray="16.0417 9.16667" fill="none" fill-rule="evenodd"/><path d="M503 866 1578.94 866" stroke="#0F9ED5" stroke-width="2.29167" stroke-linecap="round" stroke-linejoin="round" stroke-miterlimit="10" stroke-dasharray="16.0417 9.16667" fill="none" fill-rule="evenodd"/><path d="M503 943 1578.94 943" stroke="#0F9ED5" stroke-width="2.29167" stroke-linecap="round" stroke-linejoin="round" stroke-miterlimit="10" stroke-dasharray="16.0417 9.16667" fill="none" fill-rule="evenodd"/><path d="M503 1020 1578.94 1020" stroke="#0F9ED5" stroke-width="2.29167" stroke-linecap="round" stroke-linejoin="round" stroke-miterlimit="10" stroke-dasharray="16.0417 9.16667" fill="none" fill-rule="evenodd"/><path d="M503 1097 1578.94 1097" stroke="#0F9ED5" stroke-width="2.29167" stroke-linecap="round" stroke-linejoin="round" stroke-miterlimit="10" stroke-dasharray="16.0417 9.16667" fill="none" fill-rule="evenodd"/><path d="M503 1174 1578.94 1174" stroke="#0F9ED5" stroke-width="2.29167" stroke-linecap="round" stroke-linejoin="round" stroke-miterlimit="10" stroke-dasharray="16.0417 9.16667" fill="none" fill-rule="evenodd"/><rect x="877" y="558" width="230" height="618" stroke="#00B050" stroke-width="13.75" stroke-linecap="round" stroke-linejoin="round" stroke-miterlimit="10" fill="none"/><rect x="1181" y="558" width="237" height="618" stroke="#E97132" stroke-width="13.75" stroke-linecap="round" stroke-linejoin="round" stroke-miterlimit="10" fill="none"/><path d="M-1.73535 66.6055-0.898548 62.8688 0.383149 58.9747 4.05499 51.5414C4.11166 51.4275 4.17772 51.3185 4.25249 51.2155L9.21027 44.3876 15.7021 37.6528 23.4294 31.3561 32.3016 25.5154 42.2339 20.1515 53.1444 15.2884 64.9521 10.9528 77.5764 7.17378 90.9364 3.98164 104.951 1.40785 119.539-0.515432 134.619-1.75552 150.108-2.27932 165.926-2.05345 180.754-1.14405 195.088 0.407813 208.869 2.57003 222.035 5.31069 234.524 8.59826 246.275 12.4017 257.225 16.6905 267.313 21.4352 276.479 26.6075 284.661 32.1811 291.797 38.1318 297.821 44.4379C297.992 44.6183 298.134 44.8255 298.239 45.0513L300.842 50.6474C301.376 51.7949 300.879 53.1579 299.731 53.6919 298.584 54.2258 297.221 53.7283 296.687 52.5808L294.083 46.9848 294.501 47.5982 288.857 41.6483 282.078 35.967 274.225 30.5978 265.361 25.5818 255.552 20.9575 244.862 16.7618 233.356 13.0303 221.1 9.79765 208.158 7.09784 194.594 4.96444 180.472 3.43063 165.859 2.5294 150.262 2.30142 134.993 2.81246 120.137 4.0287 105.778 5.91598 92.0004 8.43978 78.8893 11.565 66.5301 15.2559 55.008 19.4757 44.4087 24.186 34.8176 29.3465 26.3189 34.9139 18.9942 40.8417 12.919 47.0806 7.96125 53.9085 8.15874 53.5825 4.73268 60.4198 3.574 63.8705 2.7372 67.6071C2.46061 68.8422 1.23518 69.6192 0.000119563 69.3426-1.23494 69.066-2.01194 67.8406-1.73535 66.6055ZM309.949 42.3957 307 72.9999 284.286 52.2781Z" transform="matrix(1 -1.22465e-16 -1.22465e-16 -1 873.5 1270.5)"/><text font-family="Noto Sans JP,Noto Sans JP_MSFontService,sans-serif" font-weight="400" font-size="41" transform="matrix(1 0 0 1 1051.05 1327)">block copy</text><text font-family="Noto Sans JP,Noto Sans JP_MSFontService,sans-serif" font-weight="400" font-size="41" transform="matrix(1 0 0 1 1260.16 1327)"> </text><text font-family="Noto Sans JP,Noto Sans JP_MSFontService,sans-serif" font-weight="400" font-size="41" transform="matrix(1 0 0 1 1055.87 283)">current</text><text font-family="Noto Sans JP,Noto Sans JP_MSFontService,sans-serif" font-weight="400" font-size="41" transform="matrix(1 0 0 1 1197.95 283)"> </text><text font-family="Noto Sans JP,Noto Sans JP_MSFontService,sans-serif" font-weight="400" font-size="41" transform="matrix(1 0 0 1 981.117 332)">cursor position</text><text font-family="Noto Sans JP,Noto Sans JP_MSFontService,sans-serif" font-weight="400" font-size="41" transform="matrix(1 0 0 1 1272.73 332)"> </text><path d="M1106.5 470.5 1106.5 539.707" stroke="#000000" stroke-width="4.58333" stroke-linecap="round" stroke-linejoin="round" stroke-miterlimit="10" fill="none" fill-rule="evenodd"/><path d="M1184.5 470.5 1184.5 539.707" stroke="#000000" stroke-width="4.58333" stroke-linecap="round" stroke-linejoin="round" stroke-miterlimit="10" fill="none" fill-rule="evenodd"/><path d="M1416.5 470.5 1416.5 539.707" stroke="#000000" stroke-width="4.58333" stroke-linecap="round" stroke-linejoin="round" stroke-miterlimit="10" fill="none" fill-rule="evenodd"/><path d="M876.5 470.5 876.5 539.707" stroke="#000000" stroke-width="4.58333" stroke-linecap="round" stroke-linejoin="round" stroke-miterlimit="10" fill="none" fill-rule="evenodd"/><path d="M1183.79 348.5 1183.79 431.287C1183.79 432.552 1182.77 433.578 1181.5 433.578 1180.23 433.578 1179.21 432.552 1179.21 431.287L1179.21 348.5C1179.21 347.234 1180.23 346.208 1181.5 346.208 1182.77 346.208 1183.79 347.234 1183.79 348.5ZM1195.25 426.703 1181.5 454.203 1167.75 426.703Z"/><path d="M1419.79 348.5 1419.79 431.287C1419.79 432.552 1418.77 433.578 1417.5 433.578 1416.23 433.578 1415.21 432.552 1415.21 431.287L1415.21 348.5C1415.21 347.234 1416.23 346.208 1417.5 346.208 1418.77 346.208 1419.79 347.234 1419.79 348.5ZM1431.25 426.703 1417.5 454.203 1403.75 426.703Z"/><text font-family="Noto Sans JP,Noto Sans JP_MSFontService,sans-serif" font-weight="400" font-size="41" transform="matrix(1 0 0 1 1421.9 283)">new</text><text font-family="Noto Sans JP,Noto Sans JP_MSFontService,sans-serif" font-weight="400" font-size="41" transform="matrix(1 0 0 1 1503.26 283)"> </text><text font-family="Noto Sans JP,Noto Sans JP_MSFontService,sans-serif" font-weight="400" font-size="41" transform="matrix(1 0 0 1 1316.78 332)">cursor position</text><text font-family="Noto Sans JP,Noto Sans JP_MSFontService,sans-serif" font-weight="400" font-size="41" transform="matrix(1 0 0 1 1608.4 332)"> </text><path d="M22.9166-2.29163 206.756-2.29134C208.021-2.29134 209.047-1.26532 209.047 0.000328484 209.047 1.26598 208.021 2.29199 206.756 2.29199L22.9166 2.2917C21.651 2.2917 20.625 1.26568 20.625 3.24088e-05 20.625-1.26562 21.651-2.29163 22.9166-2.29163ZM27.5 13.75 0 0 27.5-13.75ZM202.172-13.7497 229.672 0.000360892 202.172 13.7503Z" transform="matrix(-1 0 0 1 1416.17 493.5)"/><text font-family="Noto Sans JP,Noto Sans JP_MSFontService,sans-serif" font-weight="400" font-size="41" transform="matrix(1 0 0 1 1238.9 479)">length</text><text font-family="Noto Sans JP,Noto Sans JP_MSFontService,sans-serif" font-weight="400" font-size="41" transform="matrix(1 0 0 1 1362.65 479)"> </text><path d="M1131.42 491.209 1159.61 491.209C1160.87 491.209 1161.9 492.235 1161.9 493.5 1161.9 494.766 1160.87 495.792 1159.61 495.792L1131.42 495.792C1130.15 495.792 1129.13 494.766 1129.13 493.5 1129.13 492.235 1130.15 491.209 1131.42 491.209ZM1136 507.25 1108.5 493.5 1136 479.75ZM1155.02 479.75 1182.52 493.5 1155.02 507.25Z"/><text font-family="Noto Sans JP,Noto Sans JP_MSFontService,sans-serif" font-weight="400" font-size="41" transform="matrix(1 0 0 1 1028.1 411)">offset</text><text font-family="Noto Sans JP,Noto Sans JP_MSFontService,sans-serif" font-weight="400" font-size="41" transform="matrix(1 0 0 1 1137.53 411)"> </text><path d="M1115.5 419.5 1145.58 485.672" stroke="#000000" stroke-width="4.58333" stroke-linecap="round" stroke-linejoin="round" stroke-miterlimit="10" fill="none" fill-rule="evenodd"/><rect x="1946.5" y="709.5" width="154" height="308" stroke="#000000" stroke-width="4.58333" stroke-linecap="round" stroke-linejoin="round" stroke-miterlimit="10"/><rect x="2023.5" y="1017.5" width="154" height="77" stroke="#000000" stroke-width="4.58333" stroke-linecap="round" stroke-linejoin="round" stroke-miterlimit="10"/><rect x="2100.5" y="1095.5" width="385" height="73.9999" stroke="#000000" stroke-width="4.58333" stroke-linecap="round" stroke-linejoin="round" stroke-miterlimit="10"/><rect x="2023.5" y="632.5" width="154" height="77" stroke="#000000" stroke-width="4.58333" stroke-linecap="round" stroke-linejoin="round" stroke-miterlimit="10"/><rect x="2331.5" y="1017.5" width="231" height="77" stroke="#000000" stroke-width="4.58333" stroke-linecap="round" stroke-linejoin="round" stroke-miterlimit="10"/><rect x="2485.5" y="709.5" width="154" height="308" stroke="#000000" stroke-width="4.58333" stroke-linecap="round" stroke-linejoin="round" stroke-miterlimit="10"/><rect x="2408.5" y="632.5" width="154" height="77" stroke="#000000" stroke-width="4.58333" stroke-linecap="round" stroke-linejoin="round" stroke-miterlimit="10"/><rect x="2100.5" y="557.5" width="385" height="74.9999" stroke="#000000" stroke-width="4.58333" stroke-linecap="round" stroke-linejoin="round" stroke-miterlimit="10"/><rect x="2254.5" y="942.5" width="154" height="72.9999" stroke="#000000" stroke-width="4.58333" stroke-linecap="round" stroke-linejoin="round" stroke-miterlimit="10"/><rect x="2177.5" y="865.5" width="154" height="75.9999" stroke="#000000" stroke-width="4.58333" stroke-linecap="round" stroke-linejoin="round" stroke-miterlimit="10"/><path d="M1869 555 1869 1169.28" stroke="#61CBF4" stroke-width="2.29167" stroke-linecap="round" stroke-linejoin="round" stroke-miterlimit="10" stroke-dasharray="16.0417 9.16667" fill="none" fill-rule="evenodd"/><path d="M1946 555 1946 1169.28" stroke="#61CBF4" stroke-width="2.29167" stroke-linecap="round" stroke-linejoin="round" stroke-miterlimit="10" stroke-dasharray="16.0417 9.16667" fill="none" fill-rule="evenodd"/><path d="M2023 555 2023 1169.28" stroke="#61CBF4" stroke-width="2.29167" stroke-linecap="round" stroke-linejoin="round" stroke-miterlimit="10" stroke-dasharray="16.0417 9.16667" fill="none" fill-rule="evenodd"/><path d="M2100 555 2100 1169.28" stroke="#61CBF4" stroke-width="2.29167" stroke-linecap="round" stroke-linejoin="round" stroke-miterlimit="10" stroke-dasharray="16.0417 9.16667" fill="none" fill-rule="evenodd"/><path d="M2177 555 2177 1169.28" stroke="#61CBF4" stroke-width="2.29167" stroke-linecap="round" stroke-linejoin="round" stroke-miterlimit="10" stroke-dasharray="16.0417 9.16667" fill="none" fill-rule="evenodd"/><path d="M2254 555 2254 1169.28" stroke="#61CBF4" stroke-width="2.29167" stroke-linecap="round" stroke-linejoin="round" stroke-miterlimit="10" stroke-dasharray="16.0417 9.16667" fill="none" fill-rule="evenodd"/><path d="M2331 555 2331 1169.28" stroke="#61CBF4" stroke-width="2.29167" stroke-linecap="round" stroke-linejoin="round" stroke-miterlimit="10" stroke-dasharray="16.0417 9.16667" fill="none" fill-rule="evenodd"/><path d="M2408 555 2408 1169.28" stroke="#61CBF4" stroke-width="2.29167" stroke-linecap="round" stroke-linejoin="round" stroke-miterlimit="10" stroke-dasharray="16.0417 9.16667" fill="none" fill-rule="evenodd"/><path d="M2485 555 2485 1169.28" stroke="#61CBF4" stroke-width="2.29167" stroke-linecap="round" stroke-linejoin="round" stroke-miterlimit="10" stroke-dasharray="16.0417 9.16667" fill="none" fill-rule="evenodd"/><path d="M2562 555 2562 1169.28" stroke="#61CBF4" stroke-width="2.29167" stroke-linecap="round" stroke-linejoin="round" stroke-miterlimit="10" stroke-dasharray="16.0417 9.16667" fill="none" fill-rule="evenodd"/><path d="M2639 555 2639 1169.28" stroke="#61CBF4" stroke-width="2.29167" stroke-linecap="round" stroke-linejoin="round" stroke-miterlimit="10" stroke-dasharray="16.0417 9.16667" fill="none" fill-rule="evenodd"/><path d="M2716 555 2716 1169.28" stroke="#61CBF4" stroke-width="2.29167" stroke-linecap="round" stroke-linejoin="round" stroke-miterlimit="10" stroke-dasharray="16.0417 9.16667" fill="none" fill-rule="evenodd"/><path d="M1803 555 2786.35 555.001" stroke="#0F9ED5" stroke-width="2.29167" stroke-linecap="round" stroke-linejoin="round" stroke-miterlimit="10" stroke-dasharray="16.0417 9.16667" fill="none" fill-rule="evenodd"/><path d="M1803 632 2786.35 632.001" stroke="#0F9ED5" stroke-width="2.29167" stroke-linecap="round" stroke-linejoin="round" stroke-miterlimit="10" stroke-dasharray="16.0417 9.16667" fill="none" fill-rule="evenodd"/><path d="M1803 709 2786.35 709.001" stroke="#0F9ED5" stroke-width="2.29167" stroke-linecap="round" stroke-linejoin="round" stroke-miterlimit="10" stroke-dasharray="16.0417 9.16667" fill="none" fill-rule="evenodd"/><path d="M1803 786 2786.35 786.001" stroke="#0F9ED5" stroke-width="2.29167" stroke-linecap="round" stroke-linejoin="round" stroke-miterlimit="10" stroke-dasharray="16.0417 9.16667" fill="none" fill-rule="evenodd"/><path d="M1803 863 2786.35 863.001" stroke="#0F9ED5" stroke-width="2.29167" stroke-linecap="round" stroke-linejoin="round" stroke-miterlimit="10" stroke-dasharray="16.0417 9.16667" fill="none" fill-rule="evenodd"/><path d="M1803 940 2786.35 940.001" stroke="#0F9ED5" stroke-width="2.29167" stroke-linecap="round" stroke-linejoin="round" stroke-miterlimit="10" stroke-dasharray="16.0417 9.16667" fill="none" fill-rule="evenodd"/><path d="M1803 1017 2786.35 1017" stroke="#0F9ED5" stroke-width="2.29167" stroke-linecap="round" stroke-linejoin="round" stroke-miterlimit="10" stroke-dasharray="16.0417 9.16667" fill="none" fill-rule="evenodd"/><path d="M1803 1094 2786.35 1094" stroke="#0F9ED5" stroke-width="2.29167" stroke-linecap="round" stroke-linejoin="round" stroke-miterlimit="10" stroke-dasharray="16.0417 9.16667" fill="none" fill-rule="evenodd"/><path d="M1803 1171 2786.35 1171" stroke="#0F9ED5" stroke-width="2.29167" stroke-linecap="round" stroke-linejoin="round" stroke-miterlimit="10" stroke-dasharray="16.0417 9.16667" fill="none" fill-rule="evenodd"/><rect x="1869" y="555" width="308" height="618" stroke="#00B050" stroke-width="13.75" stroke-linecap="round" stroke-linejoin="round" stroke-miterlimit="10" fill="none"/><rect x="2411" y="555" width="308" height="618" stroke="#E97132" stroke-width="13.75" stroke-linecap="round" stroke-linejoin="round" stroke-miterlimit="10" fill="none"/><path d="M-2.2174 102.121-1.34766 96.7714C-1.32396 96.6255-1.28617 96.4822-1.23489 96.3437L0.717494 91.0685C0.762702 90.9464 0.818244 90.8283 0.883511 90.7156L3.89149 85.521C3.94661 85.4258 4.00848 85.3347 4.07669 85.2484L8.1132 80.1408 13.3326 74.9232 19.5113 69.8588 26.6188 64.9397 34.6284 60.1613 43.515 55.522 53.2537 51.0229 63.8198 46.6663 75.1882 42.4562 87.3333 38.3968 100.23 34.4934 113.851 30.7513 128.171 27.1763 143.165 23.7741 158.804 20.5509 175.064 17.5127 191.916 14.6658 209.335 12.0163 227.294 9.57053 245.766 7.33487 264.724 5.31562 284.141 3.51916 303.991 1.95186 324.246 0.620115 344.88-0.469679 387.161-1.89731 430.648-2.28089 473.638-1.60127 515.35 0.0947006 535.679 1.30867 555.596 2.75693 575.092 4.43377 594.141 6.33282 612.717 8.44774 630.795 10.7722 648.349 13.2998 665.353 16.0244 681.783 18.9396 697.612 22.0392 712.816 25.3171 727.368 28.767 741.245 32.383 754.42 36.1591 766.869 40.0896 778.568 44.1688 789.49 48.3914 799.613 52.7527 808.912 57.2483 817.364 61.8749 824.944 66.6303 831.629 71.5144 837.396 76.5293C837.585 76.6939 837.745 76.8884 837.871 77.1049L840.879 82.2777C841.515 83.3719 841.144 84.7746 840.05 85.4108 838.956 86.047 837.553 85.6758 836.917 84.5817L833.909 79.4089 834.384 79.9845 828.923 75.2134 822.506 70.5118 815.161 65.8945 806.917 61.3743 797.799 56.9617 787.837 52.6662 777.058 48.4964 765.489 44.4602 753.157 40.565 740.089 36.8182 726.311 33.2267 711.85 29.7974 696.731 26.5371 680.982 23.4524 664.628 20.55 647.696 17.8364 630.211 15.3181 612.199 13.0016 593.687 10.8935 574.7 9.00024 555.264 7.3282 535.405 5.88384 515.164 4.67425 473.565 2.98149 430.689 2.30226 387.316 2.68341 345.121 4.10728 324.547 5.19358 304.351 6.52098 284.563 8.08301 265.209 9.87318 246.316 11.885 227.912 14.1119 210.024 16.5475 192.68 19.1851 175.905 22.0181 159.729 25.0399 144.179 28.2439 129.281 31.6232 115.065 35.171 101.557 38.8803 88.7858 42.7439 76.7794 46.7544 65.5662 50.9039 55.1749 55.1841 45.6346 59.5858 36.9745 64.0987 29.2239 68.7107 22.4119 73.4076 16.5658 78.1718 11.7092 82.9826 7.67264 88.0903 7.85784 87.8177 4.84986 93.0123 5.01588 92.6594 3.06349 97.9346 3.17627 97.5069 2.30653 102.856C2.10342 104.105 0.926046 104.953-0.323203 104.75-1.57245 104.547-2.42051 103.37-2.2174 102.121ZM849.219 73.2545 849 104 824.536 85.3768Z" transform="matrix(1 -1.22465e-16 -1.22465e-16 -1 1867.5 1302.5)"/><path d="M-1.70345 44.792-0.027908 39.7236C0.0208719 39.576 0.084552 39.4338 0.162118 39.2991L2.97083 34.4226C3.03616 34.3092 3.11118 34.2015 3.19489 34.1008L7.07291 29.4391 12.1795 24.782 18.2106 20.4519 25.0978 16.452 32.7785 12.7905 41.1919 9.48027 50.2775 6.53753 59.9745 3.9807 70.2217 1.82963 80.9574 0.105184 92.1197-1.17111 103.646-1.97728 115.475-2.29097 127.542-2.0896 138.772-1.42815 149.624-0.332881 160.053 1.17462 170.013 3.07298 179.46 5.34112 188.348 7.95842 196.631 10.9049 204.266 14.1614 211.206 17.7104 217.409 21.5359C217.594 21.6506 217.763 21.791 217.908 21.9533L224.021 28.7536C224.867 29.6949 224.789 31.1438 223.848 31.9899 222.907 32.8359 221.458 32.7587 220.612 31.8174L214.5 25.0171 214.999 25.4345 209.117 21.7897 202.465 18.3763 195.094 15.2225 187.052 12.3547 178.389 9.79751 169.154 7.57508 159.396 5.71068 149.162 4.2272 138.502 3.14721 127.465 2.49308 115.595 2.29078 103.965 2.59495 92.6394 3.38266 81.6832 4.63068 71.162 6.31546 61.1415 8.41297 51.6878 10.8985 42.8674 13.7464 34.7472 16.9295 27.3944 20.4184 20.876 24.1806 15.2568 28.1786 10.5964 32.3702 6.71842 37.032 6.94248 36.7102 4.13377 41.5867 4.3238 41.1622 2.64825 46.2306C2.25099 47.4323 0.954786 48.0844-0.246904 47.6872-1.44859 47.2899-2.10071 45.9937-1.70345 44.792ZM231.808 19.3323 234 50 208.151 33.3529Z" transform="matrix(1 -1.22465e-16 -1.22465e-16 -1 2174.5 1247.5)"/><text font-family="Noto Sans JP,Noto Sans JP_MSFontService,sans-serif" font-weight="400" font-size="41" transform="matrix(1 0 0 1 2065.54 1349)">copy with byte</text><text font-family="Noto Sans JP,Noto Sans JP_MSFontService,sans-serif" font-weight="400" font-size="41" transform="matrix(1 0 0 1 2348.57 1349)">-</text><text font-family="Noto Sans JP,Noto Sans JP_MSFontService,sans-serif" font-weight="400" font-size="41" transform="matrix(1 0 0 1 2362.89 1349)">reversal</text><text font-family="Noto Sans JP,Noto Sans JP_MSFontService,sans-serif" font-weight="400" font-size="41" transform="matrix(1 0 0 1 2516.43 1349)"> </text><path d="M2410.79 395.5 2410.79 426.487C2410.79 427.752 2409.77 428.778 2408.5 428.778 2407.23 428.778 2406.21 427.752 2406.21 426.487L2406.21 395.5C2406.21 394.235 2407.23 393.208 2408.5 393.208 2409.77 393.208 2410.79 394.234 2410.79 395.5ZM2422.25 421.903 2408.5 449.403 2394.75 421.904Z"/><text font-family="Noto Sans JP,Noto Sans JP_MSFontService,sans-serif" font-weight="400" font-size="41" transform="matrix(1 0 0 1 2304.69 330)">current</text><text font-family="Noto Sans JP,Noto Sans JP_MSFontService,sans-serif" font-weight="400" font-size="41" transform="matrix(1 0 0 1 2446.77 330)"> </text><text font-family="Noto Sans JP,Noto Sans JP_MSFontService,sans-serif" font-weight="400" font-size="41" transform="matrix(1 0 0 1 2229.94 379)">cursor position</text><text font-family="Noto Sans JP,Noto Sans JP_MSFontService,sans-serif" font-weight="400" font-size="41" transform="matrix(1 0 0 1 2521.55 379)"> </text><path d="M2174.5 467.5 2174.5 536.707" stroke="#000000" stroke-width="4.58333" stroke-linecap="round" stroke-linejoin="round" stroke-miterlimit="10" fill="none" fill-rule="evenodd"/><path d="M2408.5 467.5 2408.5 536.707" stroke="#000000" stroke-width="4.58333" stroke-linecap="round" stroke-linejoin="round" stroke-miterlimit="10" fill="none" fill-rule="evenodd"/><path d="M2716.5 467.5 2716.5 536.707" stroke="#000000" stroke-width="4.58333" stroke-linecap="round" stroke-linejoin="round" stroke-miterlimit="10" fill="none" fill-rule="evenodd"/><path d="M1867.5 467.5 1867.5 536.707" stroke="#000000" stroke-width="4.58333" stroke-linecap="round" stroke-linejoin="round" stroke-miterlimit="10" fill="none" fill-rule="evenodd"/><path d="M2718.79 395.5 2718.79 426.487C2718.79 427.752 2717.77 428.778 2716.5 428.778 2715.23 428.778 2714.21 427.752 2714.21 426.487L2714.21 395.5C2714.21 394.235 2715.23 393.208 2716.5 393.208 2717.77 393.208 2718.79 394.234 2718.79 395.5ZM2730.25 421.903 2716.5 449.403 2702.75 421.904Z"/><text font-family="Noto Sans JP,Noto Sans JP_MSFontService,sans-serif" font-weight="400" font-size="41" transform="matrix(1 0 0 1 2675.3 330)">new</text><text font-family="Noto Sans JP,Noto Sans JP_MSFontService,sans-serif" font-weight="400" font-size="41" transform="matrix(1 0 0 1 2756.66 330)"> </text><text font-family="Noto Sans JP,Noto Sans JP_MSFontService,sans-serif" font-weight="400" font-size="41" transform="matrix(1 0 0 1 2570.18 379)">cursor position</text><text font-family="Noto Sans JP,Noto Sans JP_MSFontService,sans-serif" font-weight="400" font-size="41" transform="matrix(1 0 0 1 2861.8 379)"> </text><path d="M22.9166-2.29164 284.675-2.29133C285.94-2.29133 286.967-1.26532 286.967 0.000336693 286.967 1.26599 285.94 2.292 284.675 2.292L22.9166 2.29169C21.651 2.29169 20.625 1.26568 20.625 2.4199e-05 20.625-1.26563 21.651-2.29164 22.9166-2.29164ZM27.5 13.75 0 0 27.5-13.75ZM280.091-13.7497 307.591 0.000360892 280.091 13.7503Z" transform="matrix(-1 0 0 1 2716.09 490.5)"/><text font-family="Noto Sans JP,Noto Sans JP_MSFontService,sans-serif" font-weight="400" font-size="41" transform="matrix(1 0 0 1 2500.32 476)">length</text><text font-family="Noto Sans JP,Noto Sans JP_MSFontService,sans-serif" font-weight="400" font-size="41" transform="matrix(1 0 0 1 2624.07 476)"> </text><path d="M2200.42 488.208 2383.98 488.209C2385.25 488.209 2386.28 489.235 2386.28 490.5 2386.28 491.766 2385.25 492.792 2383.98 492.792L2200.42 492.792C2199.15 492.792 2198.13 491.766 2198.13 490.5 2198.13 489.234 2199.15 488.208 2200.42 488.208ZM2205 504.25 2177.5 490.5 2205 476.75ZM2379.4 476.75 2406.9 490.5 2379.4 504.25Z"/><text font-family="Noto Sans JP,Noto Sans JP_MSFontService,sans-serif" font-weight="400" font-size="41" transform="matrix(1 0 0 1 2237.39 476)">offset</text><text font-family="Noto Sans JP,Noto Sans JP_MSFontService,sans-serif" font-weight="400" font-size="41" transform="matrix(1 0 0 1 2346.81 476)"> </text><path d="M22.9166-2.29164 281.834-2.29133C283.1-2.29133 284.126-1.26532 284.126 0.000336468 284.126 1.26599 283.1 2.292 281.834 2.292L22.9166 2.29169C21.651 2.29169 20.625 1.26568 20.625 2.44245e-05 20.625-1.26563 21.651-2.29164 22.9166-2.29164ZM27.5 13.75 0 0 27.5-13.75ZM277.251-13.7497 304.751 0.000360892 277.251 13.7503Z" transform="matrix(-1 0 0 1 2172.25 490.5)"/><text font-family="Noto Sans JP,Noto Sans JP_MSFontService,sans-serif" font-weight="400" font-size="41" transform="matrix(1 0 0 1 1957.73 476)">length</text><text font-family="Noto Sans JP,Noto Sans JP_MSFontService,sans-serif" font-weight="400" font-size="41" transform="matrix(1 0 0 1 2081.48 476)"> </text><path d="M22.9166-2.29163 206.756-2.29134C208.021-2.29134 209.047-1.26532 209.047 0.000328484 209.047 1.26598 208.021 2.29199 206.756 2.29199L22.9166 2.2917C21.651 2.2917 20.625 1.26568 20.625 3.24088e-05 20.625-1.26562 21.651-2.29163 22.9166-2.29163ZM27.5 13.75 0 0 27.5-13.75ZM202.172-13.7497 229.672 0.000360892 202.172 13.7503Z" transform="matrix(-1 0 0 1 1105.17 493.5)"/><text font-family="Noto Sans JP,Noto Sans JP_MSFontService,sans-serif" font-weight="400" font-size="41" transform="matrix(1 0 0 1 928.378 479)">length</text><text font-family="Noto Sans JP,Noto Sans JP_MSFontService,sans-serif" font-weight="400" font-size="41" transform="matrix(1 0 0 1 1052.13 479)"> </text><path d="M-1.73535 66.6055-0.898548 62.8688 0.383149 58.9747 4.05499 51.5414C4.11166 51.4275 4.17772 51.3185 4.25249 51.2155L9.21027 44.3876 15.7021 37.6528 23.4294 31.3561 32.3016 25.5154 42.2339 20.1515 53.1444 15.2884 64.9521 10.9528 77.5764 7.17378 90.9364 3.98164 104.951 1.40785 119.539-0.515432 134.619-1.75552 150.108-2.27932 165.926-2.05345 180.754-1.14405 195.088 0.407813 208.869 2.57003 222.035 5.31069 234.524 8.59826 246.275 12.4017 257.225 16.6905 267.313 21.4352 276.479 26.6075 284.661 32.1811 291.797 38.1318 297.821 44.4379C297.992 44.6183 298.134 44.8255 298.239 45.0513L300.842 50.6474C301.376 51.7949 300.879 53.1579 299.731 53.6919 298.584 54.2258 297.221 53.7283 296.687 52.5808L294.083 46.9848 294.501 47.5982 288.857 41.6483 282.078 35.967 274.225 30.5978 265.361 25.5818 255.552 20.9575 244.862 16.7618 233.356 13.0303 221.1 9.79765 208.158 7.09784 194.594 4.96444 180.472 3.43063 165.859 2.5294 150.262 2.30142 134.993 2.81246 120.137 4.0287 105.778 5.91598 92.0004 8.43978 78.8893 11.565 66.5301 15.2559 55.008 19.4757 44.4087 24.186 34.8176 29.3465 26.3189 34.9139 18.9942 40.8417 12.919 47.0806 7.96125 53.9085 8.15874 53.5825 4.73268 60.4198 3.574 63.8705 2.7372 67.6071C2.46061 68.8422 1.23518 69.6192 0.000119563 69.3426-1.23494 69.066-2.01194 67.8406-1.73535 66.6055ZM309.949 42.3957 307 72.9999 284.286 52.2781Z" transform="matrix(1 -1.22465e-16 -1.22465e-16 -1 1107.5 1270.5)"/><text font-family="Noto Sans JP,Noto Sans JP_MSFontService,sans-serif" font-weight="700" font-size="55" transform="matrix(1 0 0 1 824.998 107)">byte</text><text font-family="Noto Sans JP,Noto Sans JP_MSFontService,sans-serif" font-weight="700" font-size="55" transform="matrix(1 0 0 1 944.737 107)">R</text><text font-family="Noto Sans JP,Noto Sans JP_MSFontService,sans-serif" font-weight="700" font-size="55" transform="matrix(1 0 0 1 981.977 107)">everse</text><text font-family="Noto Sans JP,Noto Sans JP_MSFontService,sans-serif" font-weight="700" font-size="55" transform="matrix(1 0 0 1 1159.58 107)"> </text><text font-family="Noto Sans JP,Noto Sans JP_MSFontService,sans-serif" font-weight="700" font-size="55" transform="matrix(1 0 0 1 1172.19 107)">= 0</text><text font-family="Noto Sans JP,Noto Sans JP_MSFontService,sans-serif" font-weight="700" font-size="55" transform="matrix(1 0 0 1 1250.1 107)"> </text><text font-family="Noto Sans JP,Noto Sans JP_MSFontService,sans-serif" font-weight="700" font-size="55" transform="matrix(1 0 0 1 2069.37 107)">byte</text><text font-family="Noto Sans JP,Noto Sans JP_MSFontService,sans-serif" font-weight="700" font-size="55" transform="matrix(1 0 0 1 2189.11 107)">R</text><text font-family="Noto Sans JP,Noto Sans JP_MSFontService,sans-serif" font-weight="700" font-size="55" transform="matrix(1 0 0 1 2226.35 107)">everse</text><text font-family="Noto Sans JP,Noto Sans JP_MSFontService,sans-serif" font-weight="700" font-size="55" transform="matrix(1 0 0 1 2403.96 107)"> </text><text font-family="Noto Sans JP,Noto Sans JP_MSFontService,sans-serif" font-weight="700" font-size="55" transform="matrix(1 0 0 1 2416.56 107)">= 1</text><text font-family="Noto Sans JP,Noto Sans JP_MSFontService,sans-serif" font-weight="700" font-size="55" transform="matrix(1 0 0 1 2494.48 107)"> </text></g></svg>