<svg width="2301" height="2023" xmlns="http://www.w3.org/2000/svg" xmlns:xlink="http://www.w3.org/1999/xlink" xml:space="preserve" overflow="hidden"><defs><clipPath id="clip0"><rect x="108" y="231" width="2301" height="2023"/></clipPath></defs><g clip-path="url(#clip0)" transform="translate(-108 -231)"><path d="M108 290.435C108 257.61 134.61 231 167.435 231L2349.57 231C2382.39 231 2409 257.61 2409 290.435L2409 2194.56C2409 2227.39 2382.39 2254 2349.57 2254L167.435 2254C134.61 2254 108 2227.39 108 2194.56Z" fill="#E4E8EC" fill-rule="evenodd"/><rect x="484" y="1048" width="1485" height="470" fill="#FFFFFF"/><rect x="484" y="1696" width="1485" height="470" fill="#FFFFFF"/><rect x="484" y="402" width="1485" height="470" fill="#FFFFFF"/><rect x="663.5" y="402.5" width="291" height="58.0001" stroke="#000000" stroke-width="4.58333" stroke-linecap="round" stroke-linejoin="round" stroke-miterlimit="10"/><rect x="543.5" y="461.5" width="533" height="116" stroke="#000000" stroke-width="4.58333" stroke-linecap="round" stroke-linejoin="round" stroke-miterlimit="10"/><rect x="484.5" y="578.5" width="236" height="58.0001" stroke="#000000" stroke-width="4.58333" stroke-linecap="round" stroke-linejoin="round" stroke-miterlimit="10"/><rect x="897.5" y="578.5" width="237" height="58.0001" stroke="#000000" stroke-width="4.58333" stroke-linecap="round" stroke-linejoin="round" stroke-miterlimit="10"/><rect x="483.5" y="638.5" width="177" height="174" stroke="#000000" stroke-width="4.58333" stroke-linecap="round" stroke-linejoin="round" stroke-miterlimit="10"/><rect x="958.5" y="637.5" width="176" height="175" stroke="#000000" stroke-width="4.58333" stroke-linecap="round" stroke-linejoin="round" stroke-miterlimit="10"/><rect x="484.5" y="812.5" width="236" height="60.9998" stroke="#000000" stroke-width="4.58333" stroke-linecap="round" stroke-linejoin="round" stroke-miterlimit="10"/><rect x="897.5" y="812.5" width="237" height="60.9998" stroke="#000000" stroke-width="4.58333" stroke-linecap="round" stroke-linejoin="round" stroke-miterlimit="10"/><rect x="1376.5" y="400.5" width="355" height="119" stroke="#000000" stroke-width="4.58333" stroke-linecap="round" stroke-linejoin="round" stroke-miterlimit="10"/><rect x="1316.5" y="518.5" width="355" height="119" stroke="#000000" stroke-width="4.58333" stroke-linecap="round" stroke-linejoin="round" stroke-miterlimit="10"/><rect x="1256.5" y="636.5" width="355" height="119" stroke="#000000" stroke-width="4.58333" stroke-linecap="round" stroke-linejoin="round" stroke-miterlimit="10"/><rect x="1196.5" y="754.5" width="355" height="119" stroke="#000000" stroke-width="4.58333" stroke-linecap="round" stroke-linejoin="round" stroke-miterlimit="10"/><text font-family="Noto Sans JP,Noto Sans JP_MSFontService,sans-serif" font-weight="400" font-size="41" transform="matrix(1 0 0 1 1046.52 951)">current</text><text font-family="Noto Sans JP,Noto Sans JP_MSFontService,sans-serif" font-weight="400" font-size="41" transform="matrix(1 0 0 1 1188.61 951)"> </text><text font-family="Noto Sans JP,Noto Sans JP_MSFontService,sans-serif" font-weight="400" font-size="41" transform="matrix(1 0 0 1 1197.77 951)">cursor </text><text font-family="Noto Sans JP,Noto Sans JP_MSFontService,sans-serif" font-weight="400" font-size="41" transform="matrix(1 0 0 1 1330.12 951)">position</text><text font-family="Noto Sans JP,Noto Sans JP_MSFontService,sans-serif" font-weight="400" font-size="41" transform="matrix(1 0 0 1 1489.39 951)"> </text><path d="M484 400 1965.56 400" stroke="#0F9ED5" stroke-width="2.29167" stroke-linecap="round" stroke-linejoin="round" stroke-miterlimit="10" stroke-dasharray="16.0417 9.16667" fill="none" fill-rule="evenodd"/><path d="M484 459 1965.56 459" stroke="#0F9ED5" stroke-width="2.29167" stroke-linecap="round" stroke-linejoin="round" stroke-miterlimit="10" stroke-dasharray="16.0417 9.16667" fill="none" fill-rule="evenodd"/><path d="M484 518 1965.56 518" stroke="#0F9ED5" stroke-width="2.29167" stroke-linecap="round" stroke-linejoin="round" stroke-miterlimit="10" stroke-dasharray="16.0417 9.16667" fill="none" fill-rule="evenodd"/><path d="M484 577 1965.56 577.001" stroke="#0F9ED5" stroke-width="2.29167" stroke-linecap="round" stroke-linejoin="round" stroke-miterlimit="10" stroke-dasharray="16.0417 9.16667" fill="none" fill-rule="evenodd"/><path d="M484 636 1965.56 636" stroke="#0F9ED5" stroke-width="2.29167" stroke-linecap="round" stroke-linejoin="round" stroke-miterlimit="10" stroke-dasharray="16.0417 9.16667" fill="none" fill-rule="evenodd"/><path d="M484 696 1965.56 696" stroke="#0F9ED5" stroke-width="2.29167" stroke-linecap="round" stroke-linejoin="round" stroke-miterlimit="10" stroke-dasharray="16.0417 9.16667" fill="none" fill-rule="evenodd"/><path d="M484 755 1965.56 755" stroke="#0F9ED5" stroke-width="2.29167" stroke-linecap="round" stroke-linejoin="round" stroke-miterlimit="10" stroke-dasharray="16.0417 9.16667" fill="none" fill-rule="evenodd"/><path d="M484 814 1965.56 814" stroke="#0F9ED5" stroke-width="2.29167" stroke-linecap="round" stroke-linejoin="round" stroke-miterlimit="10" stroke-dasharray="16.0417 9.16667" fill="none" fill-rule="evenodd"/><path d="M484 873 1965.56 873" stroke="#0F9ED5" stroke-width="2.29167" stroke-linecap="round" stroke-linejoin="round" stroke-miterlimit="10" stroke-dasharray="16.0417 9.16667" fill="none" fill-rule="evenodd"/><path d="M484 400 484 872.138" stroke="#0F9ED5" stroke-width="2.29167" stroke-linecap="round" stroke-linejoin="round" stroke-miterlimit="10" stroke-dasharray="16.0417 9.16667" fill="none" fill-rule="evenodd"/><path d="M543 400 543 872.138" stroke="#0F9ED5" stroke-width="2.29167" stroke-linecap="round" stroke-linejoin="round" stroke-miterlimit="10" stroke-dasharray="16.0417 9.16667" fill="none" fill-rule="evenodd"/><path d="M602 400 602 872.138" stroke="#0F9ED5" stroke-width="2.29167" stroke-linecap="round" stroke-linejoin="round" stroke-miterlimit="10" stroke-dasharray="16.0417 9.16667" fill="none" fill-rule="evenodd"/><path d="M661 400 661 872.138" stroke="#0F9ED5" stroke-width="2.29167" stroke-linecap="round" stroke-linejoin="round" stroke-miterlimit="10" stroke-dasharray="16.0417 9.16667" fill="none" fill-rule="evenodd"/><path d="M720 400 720.001 872.138" stroke="#0F9ED5" stroke-width="2.29167" stroke-linecap="round" stroke-linejoin="round" stroke-miterlimit="10" stroke-dasharray="16.0417 9.16667" fill="none" fill-rule="evenodd"/><path d="M779 400 779 872.138" stroke="#0F9ED5" stroke-width="2.29167" stroke-linecap="round" stroke-linejoin="round" stroke-miterlimit="10" stroke-dasharray="16.0417 9.16667" fill="none" fill-rule="evenodd"/><path d="M838 400 838 872.138" stroke="#0F9ED5" stroke-width="2.29167" stroke-linecap="round" stroke-linejoin="round" stroke-miterlimit="10" stroke-dasharray="16.0417 9.16667" fill="none" fill-rule="evenodd"/><path d="M897 400 897 872.138" stroke="#0F9ED5" stroke-width="2.29167" stroke-linecap="round" stroke-linejoin="round" stroke-miterlimit="10" stroke-dasharray="16.0417 9.16667" fill="none" fill-rule="evenodd"/><path d="M956 400 956 872.138" stroke="#0F9ED5" stroke-width="2.29167" stroke-linecap="round" stroke-linejoin="round" stroke-miterlimit="10" stroke-dasharray="16.0417 9.16667" fill="none" fill-rule="evenodd"/><path d="M1015 400 1015 872.138" stroke="#0F9ED5" stroke-width="2.29167" stroke-linecap="round" stroke-linejoin="round" stroke-miterlimit="10" stroke-dasharray="16.0417 9.16667" fill="none" fill-rule="evenodd"/><path d="M1075 400 1075 872.138" stroke="#0F9ED5" stroke-width="2.29167" stroke-linecap="round" stroke-linejoin="round" stroke-miterlimit="10" stroke-dasharray="16.0417 9.16667" fill="none" fill-rule="evenodd"/><path d="M1134 400 1134 872.138" stroke="#0F9ED5" stroke-width="2.29167" stroke-linecap="round" stroke-linejoin="round" stroke-miterlimit="10" stroke-dasharray="16.0417 9.16667" fill="none" fill-rule="evenodd"/><path d="M1194 400 1194 872.138" stroke="#0F9ED5" stroke-width="2.29167" stroke-linecap="round" stroke-linejoin="round" stroke-miterlimit="10" stroke-dasharray="16.0417 9.16667" fill="none" fill-rule="evenodd"/><path d="M1256 400 1256 872.138" stroke="#0F9ED5" stroke-width="2.29167" stroke-linecap="round" stroke-linejoin="round" stroke-miterlimit="10" stroke-dasharray="16.0417 9.16667" fill="none" fill-rule="evenodd"/><path d="M1315 400 1315 872.138" stroke="#0F9ED5" stroke-width="2.29167" stroke-linecap="round" stroke-linejoin="round" stroke-miterlimit="10" stroke-dasharray="16.0417 9.16667" fill="none" fill-rule="evenodd"/><path d="M1374 400 1374 872.138" stroke="#0F9ED5" stroke-width="2.29167" stroke-linecap="round" stroke-linejoin="round" stroke-miterlimit="10" stroke-dasharray="16.0417 9.16667" fill="none" fill-rule="evenodd"/><path d="M1433 400 1433 872.138" stroke="#0F9ED5" stroke-width="2.29167" stroke-linecap="round" stroke-linejoin="round" stroke-miterlimit="10" stroke-dasharray="16.0417 9.16667" fill="none" fill-rule="evenodd"/><path d="M1492 400 1492 872.138" stroke="#0F9ED5" stroke-width="2.29167" stroke-linecap="round" stroke-linejoin="round" stroke-miterlimit="10" stroke-dasharray="16.0417 9.16667" fill="none" fill-rule="evenodd"/><path d="M1608 400 1608 872.138" stroke="#0F9ED5" stroke-width="2.29167" stroke-linecap="round" stroke-linejoin="round" stroke-miterlimit="10" stroke-dasharray="16.0417 9.16667" fill="none" fill-rule="evenodd"/><path d="M1668 400 1668 872.138" stroke="#0F9ED5" stroke-width="2.29167" stroke-linecap="round" stroke-linejoin="round" stroke-miterlimit="10" stroke-dasharray="16.0417 9.16667" fill="none" fill-rule="evenodd"/><path d="M1730 400 1730 872.138" stroke="#0F9ED5" stroke-width="2.29167" stroke-linecap="round" stroke-linejoin="round" stroke-miterlimit="10" stroke-dasharray="16.0417 9.16667" fill="none" fill-rule="evenodd"/><path d="M1789 400 1789 872.138" stroke="#0F9ED5" stroke-width="2.29167" stroke-linecap="round" stroke-linejoin="round" stroke-miterlimit="10" stroke-dasharray="16.0417 9.16667" fill="none" fill-rule="evenodd"/><path d="M1848 400 1848 872.138" stroke="#0F9ED5" stroke-width="2.29167" stroke-linecap="round" stroke-linejoin="round" stroke-miterlimit="10" stroke-dasharray="16.0417 9.16667" fill="none" fill-rule="evenodd"/><path d="M1907 400 1907 872.138" stroke="#0F9ED5" stroke-width="2.29167" stroke-linecap="round" stroke-linejoin="round" stroke-miterlimit="10" stroke-dasharray="16.0417 9.16667" fill="none" fill-rule="evenodd"/><path d="M1966 400 1966 872.138" stroke="#0F9ED5" stroke-width="2.29167" stroke-linecap="round" stroke-linejoin="round" stroke-miterlimit="10" stroke-dasharray="16.0417 9.16667" fill="none" fill-rule="evenodd"/><path d="M1551 400 1551 872.138" stroke="#0F9ED5" stroke-width="2.29167" stroke-linecap="round" stroke-linejoin="round" stroke-miterlimit="10" stroke-dasharray="16.0417 9.16667" fill="none" fill-rule="evenodd"/><rect x="662.5" y="1167.5" width="294" height="58.0001" stroke="#000000" stroke-width="4.58333" stroke-linecap="round" stroke-linejoin="round" stroke-miterlimit="10"/><rect x="543.5" y="1049.5" width="531" height="119" stroke="#000000" stroke-width="4.58333" stroke-linecap="round" stroke-linejoin="round" stroke-miterlimit="10"/><rect x="1498.5" y="1346.5" width="290" height="58.0001" stroke="#000000" stroke-width="4.58333" stroke-linecap="round" stroke-linejoin="round" stroke-miterlimit="10"/><rect x="1377.5" y="1405.5" width="533" height="116" stroke="#000000" stroke-width="4.58333" stroke-linecap="round" stroke-linejoin="round" stroke-miterlimit="10"/><rect x="1136.5" y="1048.5" width="355" height="118" stroke="#000000" stroke-width="4.58333" stroke-linecap="round" stroke-linejoin="round" stroke-miterlimit="10"/><rect x="1076.5" y="1165.5" width="355" height="119" stroke="#000000" stroke-width="4.58333" stroke-linecap="round" stroke-linejoin="round" stroke-miterlimit="10"/><rect x="1016.5" y="1283.5" width="355" height="119" stroke="#000000" stroke-width="4.58333" stroke-linecap="round" stroke-linejoin="round" stroke-miterlimit="10"/><rect x="956.5" y="1401.5" width="355" height="119" stroke="#000000" stroke-width="4.58333" stroke-linecap="round" stroke-linejoin="round" stroke-miterlimit="10"/><rect x="1318.5" y="1697.5" width="237" height="57.0001" stroke="#000000" stroke-width="4.58333" stroke-linecap="round" stroke-linejoin="round" stroke-miterlimit="10"/><rect x="1732.5" y="1697.5" width="236" height="57.0001" stroke="#000000" stroke-width="4.58333" stroke-linecap="round" stroke-linejoin="round" stroke-miterlimit="10"/><rect x="1318.5" y="1757.5" width="176" height="174" stroke="#000000" stroke-width="4.58333" stroke-linecap="round" stroke-linejoin="round" stroke-miterlimit="10"/><rect x="1497.5" y="2111.5" width="294" height="56.9998" stroke="#000000" stroke-width="4.58333" stroke-linecap="round" stroke-linejoin="round" stroke-miterlimit="10"/><rect x="1377.5" y="1993.5" width="532" height="118" stroke="#000000" stroke-width="4.58333" stroke-linecap="round" stroke-linejoin="round" stroke-miterlimit="10"/><rect x="1792.5" y="1755.5" width="177" height="175" stroke="#000000" stroke-width="4.58333" stroke-linecap="round" stroke-linejoin="round" stroke-miterlimit="10"/><rect x="1318.5" y="1931.5" width="237" height="59.9998" stroke="#000000" stroke-width="4.58333" stroke-linecap="round" stroke-linejoin="round" stroke-miterlimit="10"/><rect x="1732.5" y="1931.5" width="236" height="59.9998" stroke="#000000" stroke-width="4.58333" stroke-linecap="round" stroke-linejoin="round" stroke-miterlimit="10"/><rect x="896.5" y="1694.5" width="355" height="119" stroke="#000000" stroke-width="4.58333" stroke-linecap="round" stroke-linejoin="round" stroke-miterlimit="10"/><rect x="836.5" y="1812.5" width="355" height="119" stroke="#000000" stroke-width="4.58333" stroke-linecap="round" stroke-linejoin="round" stroke-miterlimit="10"/><rect x="776.5" y="1930.5" width="354" height="119" stroke="#000000" stroke-width="4.58333" stroke-linecap="round" stroke-linejoin="round" stroke-miterlimit="10"/><rect x="716.5" y="2048.5" width="354" height="119" stroke="#000000" stroke-width="4.58333" stroke-linecap="round" stroke-linejoin="round" stroke-miterlimit="10"/><path d="M484 1048 1965.56 1048" stroke="#0F9ED5" stroke-width="2.29167" stroke-linecap="round" stroke-linejoin="round" stroke-miterlimit="10" stroke-dasharray="16.0417 9.16667" fill="none" fill-rule="evenodd"/><path d="M484 1107 1965.56 1107" stroke="#0F9ED5" stroke-width="2.29167" stroke-linecap="round" stroke-linejoin="round" stroke-miterlimit="10" stroke-dasharray="16.0417 9.16667" fill="none" fill-rule="evenodd"/><path d="M484 1166 1965.56 1166" stroke="#0F9ED5" stroke-width="2.29167" stroke-linecap="round" stroke-linejoin="round" stroke-miterlimit="10" stroke-dasharray="16.0417 9.16667" fill="none" fill-rule="evenodd"/><path d="M484 1225 1965.56 1225" stroke="#0F9ED5" stroke-width="2.29167" stroke-linecap="round" stroke-linejoin="round" stroke-miterlimit="10" stroke-dasharray="16.0417 9.16667" fill="none" fill-rule="evenodd"/><path d="M484 1284 1965.56 1284" stroke="#0F9ED5" stroke-width="2.29167" stroke-linecap="round" stroke-linejoin="round" stroke-miterlimit="10" stroke-dasharray="16.0417 9.16667" fill="none" fill-rule="evenodd"/><path d="M484 1343 1965.56 1343" stroke="#0F9ED5" stroke-width="2.29167" stroke-linecap="round" stroke-linejoin="round" stroke-miterlimit="10" stroke-dasharray="16.0417 9.16667" fill="none" fill-rule="evenodd"/><path d="M484 1402 1965.56 1402" stroke="#0F9ED5" stroke-width="2.29167" stroke-linecap="round" stroke-linejoin="round" stroke-miterlimit="10" stroke-dasharray="16.0417 9.16667" fill="none" fill-rule="evenodd"/><path d="M484 1461 1965.56 1461" stroke="#0F9ED5" stroke-width="2.29167" stroke-linecap="round" stroke-linejoin="round" stroke-miterlimit="10" stroke-dasharray="16.0417 9.16667" fill="none" fill-rule="evenodd"/><path d="M484 1520 1965.56 1520" stroke="#0F9ED5" stroke-width="2.29167" stroke-linecap="round" stroke-linejoin="round" stroke-miterlimit="10" stroke-dasharray="16.0417 9.16667" fill="none" fill-rule="evenodd"/><path d="M484 1048 484 1520.14" stroke="#0F9ED5" stroke-width="2.29167" stroke-linecap="round" stroke-linejoin="round" stroke-miterlimit="10" stroke-dasharray="16.0417 9.16667" fill="none" fill-rule="evenodd"/><path d="M543 1048 543 1520.14" stroke="#0F9ED5" stroke-width="2.29167" stroke-linecap="round" stroke-linejoin="round" stroke-miterlimit="10" stroke-dasharray="16.0417 9.16667" fill="none" fill-rule="evenodd"/><path d="M602 1048 602 1520.14" stroke="#0F9ED5" stroke-width="2.29167" stroke-linecap="round" stroke-linejoin="round" stroke-miterlimit="10" stroke-dasharray="16.0417 9.16667" fill="none" fill-rule="evenodd"/><path d="M661 1048 661 1520.14" stroke="#0F9ED5" stroke-width="2.29167" stroke-linecap="round" stroke-linejoin="round" stroke-miterlimit="10" stroke-dasharray="16.0417 9.16667" fill="none" fill-rule="evenodd"/><path d="M720 1048 720.001 1520.14" stroke="#0F9ED5" stroke-width="2.29167" stroke-linecap="round" stroke-linejoin="round" stroke-miterlimit="10" stroke-dasharray="16.0417 9.16667" fill="none" fill-rule="evenodd"/><path d="M779 1048 779 1520.14" stroke="#0F9ED5" stroke-width="2.29167" stroke-linecap="round" stroke-linejoin="round" stroke-miterlimit="10" stroke-dasharray="16.0417 9.16667" fill="none" fill-rule="evenodd"/><path d="M838 1048 838 1520.14" stroke="#0F9ED5" stroke-width="2.29167" stroke-linecap="round" stroke-linejoin="round" stroke-miterlimit="10" stroke-dasharray="16.0417 9.16667" fill="none" fill-rule="evenodd"/><path d="M897 1048 897 1520.14" stroke="#0F9ED5" stroke-width="2.29167" stroke-linecap="round" stroke-linejoin="round" stroke-miterlimit="10" stroke-dasharray="16.0417 9.16667" fill="none" fill-rule="evenodd"/><path d="M956 1048 956 1520.14" stroke="#0F9ED5" stroke-width="2.29167" stroke-linecap="round" stroke-linejoin="round" stroke-miterlimit="10" stroke-dasharray="16.0417 9.16667" fill="none" fill-rule="evenodd"/><path d="M1015 1048 1015 1520.14" stroke="#0F9ED5" stroke-width="2.29167" stroke-linecap="round" stroke-linejoin="round" stroke-miterlimit="10" stroke-dasharray="16.0417 9.16667" fill="none" fill-rule="evenodd"/><path d="M1075 1048 1075 1520.14" stroke="#0F9ED5" stroke-width="2.29167" stroke-linecap="round" stroke-linejoin="round" stroke-miterlimit="10" stroke-dasharray="16.0417 9.16667" fill="none" fill-rule="evenodd"/><path d="M1134 1048 1134 1520.14" stroke="#0F9ED5" stroke-width="2.29167" stroke-linecap="round" stroke-linejoin="round" stroke-miterlimit="10" stroke-dasharray="16.0417 9.16667" fill="none" fill-rule="evenodd"/><path d="M1194 1048 1194 1520.14" stroke="#0F9ED5" stroke-width="2.29167" stroke-linecap="round" stroke-linejoin="round" stroke-miterlimit="10" stroke-dasharray="16.0417 9.16667" fill="none" fill-rule="evenodd"/><path d="M1256 1048 1256 1520.14" stroke="#0F9ED5" stroke-width="2.29167" stroke-linecap="round" stroke-linejoin="round" stroke-miterlimit="10" stroke-dasharray="16.0417 9.16667" fill="none" fill-rule="evenodd"/><path d="M1315 1048 1315 1520.14" stroke="#0F9ED5" stroke-width="2.29167" stroke-linecap="round" stroke-linejoin="round" stroke-miterlimit="10" stroke-dasharray="16.0417 9.16667" fill="none" fill-rule="evenodd"/><path d="M1374 1048 1374 1520.14" stroke="#0F9ED5" stroke-width="2.29167" stroke-linecap="round" stroke-linejoin="round" stroke-miterlimit="10" stroke-dasharray="16.0417 9.16667" fill="none" fill-rule="evenodd"/><path d="M1433 1048 1433 1520.14" stroke="#0F9ED5" stroke-width="2.29167" stroke-linecap="round" stroke-linejoin="round" stroke-miterlimit="10" stroke-dasharray="16.0417 9.16667" fill="none" fill-rule="evenodd"/><path d="M1492 1048 1492 1520.14" stroke="#0F9ED5" stroke-width="2.29167" stroke-linecap="round" stroke-linejoin="round" stroke-miterlimit="10" stroke-dasharray="16.0417 9.16667" fill="none" fill-rule="evenodd"/><path d="M1608 1048 1608 1520.14" stroke="#0F9ED5" stroke-width="2.29167" stroke-linecap="round" stroke-linejoin="round" stroke-miterlimit="10" stroke-dasharray="16.0417 9.16667" fill="none" fill-rule="evenodd"/><path d="M1668 1048 1668 1520.14" stroke="#0F9ED5" stroke-width="2.29167" stroke-linecap="round" stroke-linejoin="round" stroke-miterlimit="10" stroke-dasharray="16.0417 9.16667" fill="none" fill-rule="evenodd"/><path d="M1730 1048 1730 1520.14" stroke="#0F9ED5" stroke-width="2.29167" stroke-linecap="round" stroke-linejoin="round" stroke-miterlimit="10" stroke-dasharray="16.0417 9.16667" fill="none" fill-rule="evenodd"/><path d="M1789 1048 1789 1520.14" stroke="#0F9ED5" stroke-width="2.29167" stroke-linecap="round" stroke-linejoin="round" stroke-miterlimit="10" stroke-dasharray="16.0417 9.16667" fill="none" fill-rule="evenodd"/><path d="M1848 1048 1848 1520.14" stroke="#0F9ED5" stroke-width="2.29167" stroke-linecap="round" stroke-linejoin="round" stroke-miterlimit="10" stroke-dasharray="16.0417 9.16667" fill="none" fill-rule="evenodd"/><path d="M1907 1048 1907 1520.14" stroke="#0F9ED5" stroke-width="2.29167" stroke-linecap="round" stroke-linejoin="round" stroke-miterlimit="10" stroke-dasharray="16.0417 9.16667" fill="none" fill-rule="evenodd"/><path d="M1966 1048 1966 1520.14" stroke="#0F9ED5" stroke-width="2.29167" stroke-linecap="round" stroke-linejoin="round" stroke-miterlimit="10" stroke-dasharray="16.0417 9.16667" fill="none" fill-rule="evenodd"/><path d="M1551 1048 1551 1520.14" stroke="#0F9ED5" stroke-width="2.29167" stroke-linecap="round" stroke-linejoin="round" stroke-miterlimit="10" stroke-dasharray="16.0417 9.16667" fill="none" fill-rule="evenodd"/><path d="M484 1693 1965.56 1693" stroke="#0F9ED5" stroke-width="2.29167" stroke-linecap="round" stroke-linejoin="round" stroke-miterlimit="10" stroke-dasharray="16.0417 9.16667" fill="none" fill-rule="evenodd"/><path d="M484 1752 1965.56 1752" stroke="#0F9ED5" stroke-width="2.29167" stroke-linecap="round" stroke-linejoin="round" stroke-miterlimit="10" stroke-dasharray="16.0417 9.16667" fill="none" fill-rule="evenodd"/><path d="M484 1811 1965.56 1811" stroke="#0F9ED5" stroke-width="2.29167" stroke-linecap="round" stroke-linejoin="round" stroke-miterlimit="10" stroke-dasharray="16.0417 9.16667" fill="none" fill-rule="evenodd"/><path d="M484 1870 1965.56 1870" stroke="#0F9ED5" stroke-width="2.29167" stroke-linecap="round" stroke-linejoin="round" stroke-miterlimit="10" stroke-dasharray="16.0417 9.16667" fill="none" fill-rule="evenodd"/><path d="M484 1929 1965.56 1929" stroke="#0F9ED5" stroke-width="2.29167" stroke-linecap="round" stroke-linejoin="round" stroke-miterlimit="10" stroke-dasharray="16.0417 9.16667" fill="none" fill-rule="evenodd"/><path d="M484 1988 1965.56 1988" stroke="#0F9ED5" stroke-width="2.29167" stroke-linecap="round" stroke-linejoin="round" stroke-miterlimit="10" stroke-dasharray="16.0417 9.16667" fill="none" fill-rule="evenodd"/><path d="M484 2047 1965.56 2047" stroke="#0F9ED5" stroke-width="2.29167" stroke-linecap="round" stroke-linejoin="round" stroke-miterlimit="10" stroke-dasharray="16.0417 9.16667" fill="none" fill-rule="evenodd"/><path d="M484 2106 1965.56 2106" stroke="#0F9ED5" stroke-width="2.29167" stroke-linecap="round" stroke-linejoin="round" stroke-miterlimit="10" stroke-dasharray="16.0417 9.16667" fill="none" fill-rule="evenodd"/><path d="M484 2165 1965.56 2165" stroke="#0F9ED5" stroke-width="2.29167" stroke-linecap="round" stroke-linejoin="round" stroke-miterlimit="10" stroke-dasharray="16.0417 9.16667" fill="none" fill-rule="evenodd"/><path d="M484 1693 484 2165.14" stroke="#0F9ED5" stroke-width="2.29167" stroke-linecap="round" stroke-linejoin="round" stroke-miterlimit="10" stroke-dasharray="16.0417 9.16667" fill="none" fill-rule="evenodd"/><path d="M543 1693 543 2165.14" stroke="#0F9ED5" stroke-width="2.29167" stroke-linecap="round" stroke-linejoin="round" stroke-miterlimit="10" stroke-dasharray="16.0417 9.16667" fill="none" fill-rule="evenodd"/><path d="M602 1693 602 2165.14" stroke="#0F9ED5" stroke-width="2.29167" stroke-linecap="round" stroke-linejoin="round" stroke-miterlimit="10" stroke-dasharray="16.0417 9.16667" fill="none" fill-rule="evenodd"/><path d="M661 1693 661 2165.14" stroke="#0F9ED5" stroke-width="2.29167" stroke-linecap="round" stroke-linejoin="round" stroke-miterlimit="10" stroke-dasharray="16.0417 9.16667" fill="none" fill-rule="evenodd"/><path d="M720 1693 720.001 2165.14" stroke="#0F9ED5" stroke-width="2.29167" stroke-linecap="round" stroke-linejoin="round" stroke-miterlimit="10" stroke-dasharray="16.0417 9.16667" fill="none" fill-rule="evenodd"/><path d="M779 1693 779 2165.14" stroke="#0F9ED5" stroke-width="2.29167" stroke-linecap="round" stroke-linejoin="round" stroke-miterlimit="10" stroke-dasharray="16.0417 9.16667" fill="none" fill-rule="evenodd"/><path d="M838 1693 838 2165.14" stroke="#0F9ED5" stroke-width="2.29167" stroke-linecap="round" stroke-linejoin="round" stroke-miterlimit="10" stroke-dasharray="16.0417 9.16667" fill="none" fill-rule="evenodd"/><path d="M897 1693 897 2165.14" stroke="#0F9ED5" stroke-width="2.29167" stroke-linecap="round" stroke-linejoin="round" stroke-miterlimit="10" stroke-dasharray="16.0417 9.16667" fill="none" fill-rule="evenodd"/><path d="M956 1693 956 2165.14" stroke="#0F9ED5" stroke-width="2.29167" stroke-linecap="round" stroke-linejoin="round" stroke-miterlimit="10" stroke-dasharray="16.0417 9.16667" fill="none" fill-rule="evenodd"/><path d="M1015 1693 1015 2165.14" stroke="#0F9ED5" stroke-width="2.29167" stroke-linecap="round" stroke-linejoin="round" stroke-miterlimit="10" stroke-dasharray="16.0417 9.16667" fill="none" fill-rule="evenodd"/><path d="M1075 1693 1075 2165.14" stroke="#0F9ED5" stroke-width="2.29167" stroke-linecap="round" stroke-linejoin="round" stroke-miterlimit="10" stroke-dasharray="16.0417 9.16667" fill="none" fill-rule="evenodd"/><path d="M1134 1693 1134 2165.14" stroke="#0F9ED5" stroke-width="2.29167" stroke-linecap="round" stroke-linejoin="round" stroke-miterlimit="10" stroke-dasharray="16.0417 9.16667" fill="none" fill-rule="evenodd"/><path d="M1194 1693 1194 2165.14" stroke="#0F9ED5" stroke-width="2.29167" stroke-linecap="round" stroke-linejoin="round" stroke-miterlimit="10" stroke-dasharray="16.0417 9.16667" fill="none" fill-rule="evenodd"/><path d="M1256 1693 1256 2165.14" stroke="#0F9ED5" stroke-width="2.29167" stroke-linecap="round" stroke-linejoin="round" stroke-miterlimit="10" stroke-dasharray="16.0417 9.16667" fill="none" fill-rule="evenodd"/><path d="M1315 1693 1315 2165.14" stroke="#0F9ED5" stroke-width="2.29167" stroke-linecap="round" stroke-linejoin="round" stroke-miterlimit="10" stroke-dasharray="16.0417 9.16667" fill="none" fill-rule="evenodd"/><path d="M1374 1693 1374 2165.14" stroke="#0F9ED5" stroke-width="2.29167" stroke-linecap="round" stroke-linejoin="round" stroke-miterlimit="10" stroke-dasharray="16.0417 9.16667" fill="none" fill-rule="evenodd"/><path d="M1433 1693 1433 2165.14" stroke="#0F9ED5" stroke-width="2.29167" stroke-linecap="round" stroke-linejoin="round" stroke-miterlimit="10" stroke-dasharray="16.0417 9.16667" fill="none" fill-rule="evenodd"/><path d="M1492 1693 1492 2165.14" stroke="#0F9ED5" stroke-width="2.29167" stroke-linecap="round" stroke-linejoin="round" stroke-miterlimit="10" stroke-dasharray="16.0417 9.16667" fill="none" fill-rule="evenodd"/><path d="M1608 1693 1608 2165.14" stroke="#0F9ED5" stroke-width="2.29167" stroke-linecap="round" stroke-linejoin="round" stroke-miterlimit="10" stroke-dasharray="16.0417 9.16667" fill="none" fill-rule="evenodd"/><path d="M1668 1693 1668 2165.14" stroke="#0F9ED5" stroke-width="2.29167" stroke-linecap="round" stroke-linejoin="round" stroke-miterlimit="10" stroke-dasharray="16.0417 9.16667" fill="none" fill-rule="evenodd"/><path d="M1730 1693 1730 2165.14" stroke="#0F9ED5" stroke-width="2.29167" stroke-linecap="round" stroke-linejoin="round" stroke-miterlimit="10" stroke-dasharray="16.0417 9.16667" fill="none" fill-rule="evenodd"/><path d="M1789 1693 1789 2165.14" stroke="#0F9ED5" stroke-width="2.29167" stroke-linecap="round" stroke-linejoin="round" stroke-miterlimit="10" stroke-dasharray="16.0417 9.16667" fill="none" fill-rule="evenodd"/><path d="M1848 1693 1848 2165.14" stroke="#0F9ED5" stroke-width="2.29167" stroke-linecap="round" stroke-linejoin="round" stroke-miterlimit="10" stroke-dasharray="16.0417 9.16667" fill="none" fill-rule="evenodd"/><path d="M1907 1693 1907 2165.14" stroke="#0F9ED5" stroke-width="2.29167" stroke-linecap="round" stroke-linejoin="round" stroke-miterlimit="10" stroke-dasharray="16.0417 9.16667" fill="none" fill-rule="evenodd"/><path d="M1966 1693 1966 2165.14" stroke="#0F9ED5" stroke-width="2.29167" stroke-linecap="round" stroke-linejoin="round" stroke-miterlimit="10" stroke-dasharray="16.0417 9.16667" fill="none" fill-rule="evenodd"/><path d="M1551 1693 1551 2165.14" stroke="#0F9ED5" stroke-width="2.29167" stroke-linecap="round" stroke-linejoin="round" stroke-miterlimit="10" stroke-dasharray="16.0417 9.16667" fill="none" fill-rule="evenodd"/><path d="M1969 402 484 402 484 873 1969 873" stroke="#00B050" stroke-width="13.75" stroke-linejoin="round" stroke-miterlimit="10" fill="none" fill-rule="evenodd"/><path d="M708 0 0 0 0 472 708 472" stroke="#00B050" stroke-width="13.75" stroke-linejoin="round" stroke-miterlimit="10" fill="none" fill-rule="evenodd" transform="matrix(-1 0 0 1 1192 1045)"/><path d="M1969 1048 1258 1048 1258 1520 1969 1520" stroke="#E97132" stroke-width="13.75" stroke-linejoin="round" stroke-miterlimit="10" fill="none" fill-rule="evenodd"/><path d="M1485 0 0 0 0 472 1485 472" stroke="#E97132" stroke-width="13.75" stroke-linejoin="round" stroke-miterlimit="10" fill="none" fill-rule="evenodd" transform="matrix(-1 0 0 1 1969 1695)"/><path d="M1260.79 976.5 1260.79 1022.79C1260.79 1024.06 1259.77 1025.08 1258.5 1025.08 1257.23 1025.08 1256.21 1024.06 1256.21 1022.79L1256.21 976.5C1256.21 975.234 1257.23 974.208 1258.5 974.208 1259.77 974.208 1260.79 975.234 1260.79 976.5ZM1272.25 1018.21 1258.5 1045.71 1244.75 1018.21Z"/><path d="M0 0 763.641 0.000360892" stroke="#000000" stroke-width="4.58333" stroke-linecap="round" stroke-linejoin="round" stroke-miterlimit="10" fill="none" fill-rule="evenodd" transform="matrix(-1 0 0 1 1253.14 997.5)"/><path d="M486.5 332.5 486.5 401.706" stroke="#000000" stroke-width="4.58333" stroke-linecap="round" stroke-linejoin="round" stroke-miterlimit="10" fill="none" fill-rule="evenodd"/><path d="M5.63015e-07-2.29167 1446.04-2.29131C1447.31-2.29131 1448.33-1.2653 1448.33 0.000355825 1448.33 1.26601 1447.31 2.29202 1446.04 2.29202L-5.63015e-07 2.29167C-1.26565 2.29167-2.29167 1.26565-2.29167-5.63015e-07-2.29167-1.26565-1.26565-2.29167 5.63015e-07-2.29167ZM1441.46-13.7496 1468.96 0.000360892 1441.46 13.7504Z" transform="matrix(-1 0 0 1 1958.46 356.5)"/><path d="M0 0 92.8168 0.000360892" stroke="#000000" stroke-width="4.58333" stroke-linecap="round" stroke-linejoin="round" stroke-miterlimit="10" stroke-dasharray="13.75 18.3333" fill="none" fill-rule="evenodd" transform="matrix(-1 0 0 1 484.317 997.5)"/><path d="M0 0 92.8168 0.000360892" stroke="#000000" stroke-width="4.58333" stroke-linecap="round" stroke-linejoin="round" stroke-miterlimit="10" stroke-dasharray="13.75 18.3333" fill="none" fill-rule="evenodd" transform="matrix(-1 0 0 1 2062.32 358.5)"/><path d="M0 0 92.8168 0.000360892" stroke="#00B050" stroke-width="13.75" stroke-linejoin="round" stroke-miterlimit="10" stroke-dasharray="13.75 13.75" fill="none" fill-rule="evenodd" transform="matrix(-1 0 0 1 2061.82 402)"/><path d="M0 0 92.8168 0.000360892" stroke="#00B050" stroke-width="13.75" stroke-linejoin="round" stroke-miterlimit="10" stroke-dasharray="13.75 13.75" fill="none" fill-rule="evenodd" transform="matrix(-1 0 0 1 2061.82 875)"/><path d="M0 0 92.8168 0.000360892" stroke="#00B050" stroke-width="13.75" stroke-linejoin="round" stroke-miterlimit="10" stroke-dasharray="13.75 13.75" fill="none" fill-rule="evenodd" transform="matrix(-1 0 0 1 486.817 1045)"/><path d="M0 0 92.8168 0.000360892" stroke="#00B050" stroke-width="13.75" stroke-linejoin="round" stroke-miterlimit="10" stroke-dasharray="13.75 13.75" fill="none" fill-rule="evenodd" transform="matrix(-1 0 0 1 486.817 1518)"/><path d="M0 0 92.8168 0.000360892" stroke="#E97132" stroke-width="13.75" stroke-linejoin="round" stroke-miterlimit="10" stroke-dasharray="13.75 13.75" fill="none" fill-rule="evenodd" transform="matrix(-1 0 0 1 2061.82 1046)"/><path d="M0 0 92.8168 0.000360892" stroke="#E97132" stroke-width="13.75" stroke-linejoin="round" stroke-miterlimit="10" stroke-dasharray="13.75 13.75" fill="none" fill-rule="evenodd" transform="matrix(-1 0 0 1 2061.82 1520)"/><path d="M0 0 92.8168 0.000360892" stroke="#E97132" stroke-width="13.75" stroke-linejoin="round" stroke-miterlimit="10" stroke-dasharray="13.75 13.75" fill="none" fill-rule="evenodd" transform="matrix(-1 0 0 1 486.817 1695)"/><path d="M0 0 92.8168 0.000360892" stroke="#E97132" stroke-width="13.75" stroke-linejoin="round" stroke-miterlimit="10" stroke-dasharray="13.75 13.75" fill="none" fill-rule="evenodd" transform="matrix(-1 0 0 1 486.817 2168)"/><text font-family="Noto Sans JP,Noto Sans JP_MSFontService,sans-serif" font-weight="400" font-size="41" transform="matrix(1 0 0 1 1198.35 334)">offset</text><text font-family="Noto Sans JP,Noto Sans JP_MSFontService,sans-serif" font-weight="400" font-size="41" transform="matrix(1 0 0 1 1307.78 334)"> </text><path d="M1.16869e-06-2.29167 684.751-2.29132C686.017-2.29132 687.043-1.2653 687.043 0.000350374 687.043 1.266 686.017 2.29202 684.751 2.29202L-1.16869e-06 2.29167C-1.26565 2.29167-2.29167 1.26565-2.29167-1.16869e-06-2.29167-1.26565-1.26565-2.29167 1.16869e-06-2.29167ZM680.168-13.7497 707.668 0.000360892 680.168 13.7503Z" transform="matrix(-1 0 0 1 1966.17 997.5)"/><path d="M0 0 92.8168 0.000360892" stroke="#000000" stroke-width="4.58333" stroke-linecap="round" stroke-linejoin="round" stroke-miterlimit="10" stroke-dasharray="13.75 18.3333" fill="none" fill-rule="evenodd" transform="matrix(-1 0 0 1 2062.32 996.5)"/><path d="M0 0 92.8168 0.000360892" stroke="#000000" stroke-width="4.58333" stroke-linecap="round" stroke-linejoin="round" stroke-miterlimit="10" stroke-dasharray="13.75 18.3333" fill="none" fill-rule="evenodd" transform="matrix(-1 0 0 1 484.317 1648.5)"/><path d="M489.5 1646.21 1942.42 1646.21C1943.68 1646.21 1944.71 1647.23 1944.71 1648.5 1944.71 1649.77 1943.68 1650.79 1942.42 1650.79L489.5 1650.79C488.234 1650.79 487.208 1649.77 487.208 1648.5 487.208 1647.23 488.234 1646.21 489.5 1646.21ZM1937.83 1634.75 1965.33 1648.5 1937.83 1662.25Z"/><path d="M1969.79 1626.5 1969.79 1672.79C1969.79 1674.06 1968.77 1675.08 1967.5 1675.08 1966.23 1675.08 1965.21 1674.06 1965.21 1672.79L1965.21 1626.5C1965.21 1625.23 1966.23 1624.21 1967.5 1624.21 1968.77 1624.21 1969.79 1625.23 1969.79 1626.5ZM1981.25 1668.21 1967.5 1695.71 1953.75 1668.21Z"/><text font-family="Noto Sans JP,Noto Sans JP_MSFontService,sans-serif" font-weight="400" font-size="41" transform="matrix(1 0 0 1 720.197 978)">offset</text><text font-family="Noto Sans JP,Noto Sans JP_MSFontService,sans-serif" font-weight="400" font-size="41" transform="matrix(1 0 0 1 829.624 978)"> </text><text font-family="Noto Sans JP,Noto Sans JP_MSFontService,sans-serif" font-weight="400" font-size="41" transform="matrix(1 0 0 1 1589.08 978)">length</text><text font-family="Noto Sans JP,Noto Sans JP_MSFontService,sans-serif" font-weight="400" font-size="41" transform="matrix(1 0 0 1 1712.83 978)"> </text><text font-family="Noto Sans JP,Noto Sans JP_MSFontService,sans-serif" font-weight="400" font-size="41" transform="matrix(1 0 0 1 1099.29 1629)">length</text><text font-family="Noto Sans JP,Noto Sans JP_MSFontService,sans-serif" font-weight="400" font-size="41" transform="matrix(1 0 0 1 1223.04 1629)"> </text><path d="M520.47 436.053 562.631 414.848 604.833 394.213 625.965 384.285 647.106 374.722 668.267 365.592 689.449 356.969 710.656 348.924 731.889 341.532 753.152 334.866 774.448 328.998 795.778 324.003 817.144 319.954 838.551 316.924 859.998 314.988 881.488 314.219 903.021 314.693 924.6 316.481 946.223 319.66 957.088 321.799 967.927 324.308 978.778 327.201 989.64 330.487 1000.51 334.175 1011.4 338.273 1022.29 342.792 1033.19 347.739 1044.11 353.124 1055.04 358.956 1065.98 365.243 1076.92 371.994 1087.89 379.218 1098.86 386.925 1109.84 395.122 1120.84 403.819 1131.84 413.025 1142.86 422.749 1153.9 432.999 1164.94 443.784 1176 455.114 1187.08 466.997 1198.16 479.443 1209.27 492.46 1220.38 506.054 1231.51 520.219 1242.66 534.944 1253.82 550.222 1264.99 566.043 1276.18 582.398 1287.38 599.279 1298.59 616.675 1309.82 634.579 1321.06 652.98 1332.31 671.871 1343.58 691.242 1354.86 711.084 1366.15 731.388 1377.45 752.146 1388.77 773.347 1400.1 794.983 1411.44 817.045 1422.79 839.524 1434.15 862.411 1445.53 885.697 1456.91 909.373 1468.31 933.429 1479.72 957.857 1502.56 1007.79 1525.44 1059.1 1548.36 1111.72 1571.31 1165.57 1594.3 1220.58 1617.32 1276.69 1640.36 1333.8 1663.44 1391.86 1686.53 1450.79 1709.65 1510.52 1732.8 1570.97 1755.96 1632.08 1779.13 1693.76 1802.32 1755.96 1825.53 1818.59 1848.74 1881.58 1895.19 2008.36 1933.8 2114.19C1934.23 2115.37 1933.62 2116.69 1932.43 2117.12 1931.24 2117.56 1929.93 2116.95 1929.49 2115.76L1890.88 2009.93 1844.44 1883.16 1821.23 1820.18 1798.03 1757.56 1774.84 1695.38 1751.67 1633.7 1728.52 1572.61 1705.38 1512.17 1682.27 1452.46 1659.18 1393.55 1636.11 1335.52 1613.08 1278.42 1590.07 1222.35 1567.1 1167.37 1544.16 1113.55 1521.25 1060.97 1498.39 1009.69 1475.56 959.796 1464.17 935.391 1452.78 911.359 1441.41 887.709 1430.05 864.449 1418.7 841.59 1407.36 819.14 1396.04 797.109 1384.73 775.505 1373.43 754.338 1362.14 733.616 1350.87 713.349 1339.62 693.546 1328.37 674.217 1317.15 655.37 1305.93 637.014 1294.74 619.158 1283.56 601.812 1272.39 584.986 1261.25 568.687 1250.12 552.926 1239 537.71 1227.91 523.051 1216.84 508.956 1205.78 495.434 1194.74 482.492 1183.72 470.122 1172.72 458.316 1161.74 447.064 1150.78 436.357 1139.83 426.185 1128.9 416.541 1117.99 407.414 1107.1 398.795 1096.22 390.675 1085.36 383.045 1074.52 375.895 1063.69 369.216 1052.88 362.999 1042.08 357.234 1031.3 351.913 1020.53 347.025 1009.78 342.563 999.04 338.515 988.312 334.874 977.597 331.63 966.893 328.774 956.201 326.296 945.555 324.194 924.22 321.049 902.92 319.275 881.651 318.8 860.409 319.553 839.192 321.462 817.997 324.457 796.822 328.466 775.665 333.417 754.523 339.24 733.396 345.861 712.281 353.21 691.177 361.214 670.082 369.8 648.995 378.898 627.914 388.433 606.846 398.33 564.691 418.943 522.53 440.148C521.399 440.716 520.021 440.261 519.453 439.13 518.884 437.999 519.34 436.622 520.47 436.053ZM1942.99 2105.95 1939.5 2136.5 1917.16 2115.38Z" fill="#FFC000"/><path d="M509.835 835.422 554.491 821.875 599.162 808.647 643.847 796.062 688.549 784.445 710.92 779.098 733.283 774.117 755.65 769.541 778.021 765.409 800.397 761.764 822.777 758.645 845.162 756.093 867.552 754.149 889.946 752.855 912.344 752.25 934.747 752.375 957.154 753.273 979.565 754.982 1001.98 757.545 1024.4 761.002 1046.82 765.394 1069.24 770.761 1091.66 777.145 1114.08 784.585 1136.5 793.122 1158.92 802.797 1181.34 813.649 1203.76 825.719 1226.17 839.046 1248.58 853.657 1270.98 869.522 1293.37 886.599 1315.76 904.848 1338.14 924.229 1360.52 944.699 1382.89 966.22 1405.25 988.75 1427.61 1012.25 1449.97 1036.68 1472.33 1061.99 1494.68 1088.16 1517.03 1115.13 1539.38 1142.86 1561.72 1171.33 1584.07 1200.48 1606.41 1230.28 1628.75 1260.68 1651.09 1291.65 1673.43 1323.14 1695.77 1355.12 1718.11 1387.54 1740.44 1420.36 1762.78 1453.55 1807.44 1520.84 1852.11 1589.11 1896.77 1658.03 1929 1708C1929.69 1709.06 1929.38 1710.48 1928.32 1711.17 1927.26 1711.85 1925.84 1711.55 1925.15 1710.48L1892.92 1660.52 1848.27 1591.62 1803.62 1523.38 1758.97 1456.11 1736.65 1422.94 1714.33 1390.14 1692.01 1357.74 1669.69 1325.79 1647.38 1294.33 1625.06 1263.39 1602.74 1233.03 1580.43 1203.27 1558.12 1174.16 1535.81 1145.74 1513.5 1118.05 1491.19 1091.13 1468.89 1065.03 1446.59 1039.77 1424.29 1015.41 1402 991.979 1379.71 969.523 1357.42 948.081 1335.14 927.693 1312.86 908.401 1290.59 890.244 1268.33 873.262 1246.08 857.496 1223.83 842.985 1201.59 829.754 1179.35 817.774 1157.11 807.005 1134.87 797.406 1112.64 788.935 1090.4 781.553 1068.17 775.219 1045.93 769.892 1023.7 765.532 1001.46 762.099 979.216 759.552 956.971 757.852 934.721 756.959 912.468 756.831 890.21 757.43 867.948 758.716 845.681 760.647 823.41 763.184 801.134 766.287 778.854 769.916 756.569 774.031 734.279 778.591 711.986 783.555 689.701 788.881 645.09 800.474 600.463 813.042 555.821 826.261 511.165 839.808C509.954 840.176 508.674 839.492 508.307 838.28 507.94 837.069 508.624 835.79 509.835 835.422ZM1936.15 1697.94 1939.5 1728.5 1913.04 1712.84Z" fill="#FFC000"/><path d="M2.20245-0.633204 114.464 389.842C114.814 391.058 114.111 392.328 112.895 392.678 111.678 393.027 110.409 392.325 110.059 391.108L-2.20245 0.633204C-2.55216-0.583176-1.84958-1.85274-0.633204-2.20245 0.583176-2.55216 1.85274-1.84958 2.20245-0.633204ZM124.21 382.271 118.594 412.5 97.7804 389.87Z" fill="#FFC000" transform="matrix(1 0 0 -1 1166.5 1492)"/><path d="M1163.69 1080.83 1280.7 1460.79C1281.07 1462 1280.39 1463.28 1279.18 1463.65 1277.97 1464.02 1276.69 1463.34 1276.32 1462.13L1159.31 1082.17C1158.94 1080.96 1159.62 1079.68 1160.83 1079.31 1162.04 1078.94 1163.32 1079.62 1163.69 1080.83ZM1290.3 1453.03 1285.25 1483.36 1264.02 1461.13Z" fill="#FFC000"/><text font-family="Noto Sans JP,Noto Sans JP_MSFontService,sans-serif" font-weight="400" font-size="41" transform="matrix(1 0 0 1 1732.65 1599)">updated </text><text font-family="Noto Sans JP,Noto Sans JP_MSFontService,sans-serif" font-weight="400" font-size="41" transform="matrix(1 0 0 1 1906.25 1599)">cursor </text><text font-family="Noto Sans JP,Noto Sans JP_MSFontService,sans-serif" font-weight="400" font-size="41" transform="matrix(1 0 0 1 2038.59 1599)">position</text><text font-family="Noto Sans JP,Noto Sans JP_MSFontService,sans-serif" font-weight="400" font-size="41" transform="matrix(1 0 0 1 2197.86 1599)"> </text></g></svg>