<svg width="2633" height="2204" xmlns="http://www.w3.org/2000/svg" xmlns:xlink="http://www.w3.org/1999/xlink" xml:space="preserve" overflow="hidden"><g transform="translate(-288 -73)"><rect x="542.5" y="738.5" width="2374" height="505" stroke="#FFFFFF" stroke-width="9.16667" stroke-miterlimit="8" fill="#99CAFF"/><text font-family="Arial,Arial_MSFontService,sans-serif" font-weight="700" font-size="55" transform="matrix(1 0 0 1 1672.36 856)">CPY</text><text font-family="Arial,Arial_MSFontService,sans-serif" font-weight="400" font-size="55" transform="matrix(1 0 0 1 1785.22 856)"> </text><text font-family="Arial,Arial_MSFontService,sans-serif" font-weight="400" font-size="41" transform="matrix(1 0 0 1 1609.63 909)">Copy Recent</text><text font-family="Arial,Arial_MSFontService,sans-serif" font-weight="400" font-size="41" transform="matrix(1 0 0 1 1847.97 909)"> </text><rect x="542.5" y="1243.5" width="2374" height="504" stroke="#FFFFFF" stroke-width="9.16667" stroke-miterlimit="8" fill="#FFF399"/><text font-family="Arial,Arial_MSFontService,sans-serif" font-weight="700" font-size="55" transform="matrix(1 0 0 1 1673.8 1490)">LUP</text><text font-family="Arial,Arial_MSFontService,sans-serif" font-weight="400" font-size="55" transform="matrix(1 0 0 1 1783.8 1490)"> </text><text font-family="Arial,Arial_MSFontService,sans-serif" font-weight="400" font-size="41" transform="matrix(1 0 0 1 1598.17 1543)">Single Lookup</text><text font-family="Arial,Arial_MSFontService,sans-serif" font-weight="400" font-size="41" transform="matrix(1 0 0 1 1859.42 1543)"> </text><rect x="542.5" y="1747.5" width="2374" height="252" stroke="#FFFFFF" stroke-width="9.16667" stroke-miterlimit="8" fill="#C2FF99"/><text font-family="Arial,Arial_MSFontService,sans-serif" font-weight="700" font-size="55" transform="matrix(1 0 0 1 1672.36 1868)">LUD</text><text font-family="Arial,Arial_MSFontService,sans-serif" font-weight="400" font-size="55" transform="matrix(1 0 0 1 1785.22 1868)"> </text><text font-family="Arial,Arial_MSFontService,sans-serif" font-weight="400" font-size="41" transform="matrix(1 0 0 1 1590.15 1921)">Double Lookup</text><text font-family="Arial,Arial_MSFontService,sans-serif" font-weight="400" font-size="41" transform="matrix(1 0 0 1 1867.45 1921)"> </text><rect x="542.5" y="1999.5" width="2374" height="126" stroke="#FFFFFF" stroke-width="9.16667" stroke-miterlimit="8" fill="#99CAFF"/><text font-family="Arial,Arial_MSFontService,sans-serif" font-weight="700" font-size="55" transform="matrix(1 0 0 1 1673.8 2058)">RPT</text><text font-family="Arial,Arial_MSFontService,sans-serif" font-weight="400" font-size="55" transform="matrix(1 0 0 1 1783.8 2058)"> </text><text font-family="Arial,Arial_MSFontService,sans-serif" font-weight="400" font-size="41" transform="matrix(1 0 0 1 1523.7 2111)">Repeat Last Fragment</text><text font-family="Arial,Arial_MSFontService,sans-serif" font-weight="400" font-size="41" transform="matrix(1 0 0 1 1933.9 2111)"> </text><rect x="542.5" y="234.5" width="2374" height="504" stroke="#FFFFFF" stroke-width="9.16667" stroke-miterlimit="8" fill="#99FFE7"/><text font-family="Arial,Arial_MSFontService,sans-serif" font-weight="700" font-size="55" transform="matrix(1 0 0 1 1676.66 481)">SFT</text><text font-family="Arial,Arial_MSFontService,sans-serif" font-weight="400" font-size="55" transform="matrix(1 0 0 1 1780.93 481)"> </text><text font-family="Arial,Arial_MSFontService,sans-serif" font-weight="400" font-size="41" transform="matrix(1 0 0 1 1548.9 534)">Shift Last Fragment</text><text font-family="Arial,Arial_MSFontService,sans-serif" font-weight="400" font-size="41" transform="matrix(1 0 0 1 1908.7 534)"> </text><rect x="542.5" y="2125.5" width="2374" height="127" stroke="#FFFFFF" stroke-width="9.16667" stroke-miterlimit="8" fill="#FFF399"/><text font-family="Arial,Arial_MSFontService,sans-serif" font-weight="700" font-size="55" transform="matrix(1 0 0 1 1669.22 2184)">XOR</text><text font-family="Arial,Arial_MSFontService,sans-serif" font-weight="400" font-size="55" transform="matrix(1 0 0 1 1788.38 2184)"> </text><text font-family="Arial,Arial_MSFontService,sans-serif" font-weight="400" font-size="41" transform="matrix(1 0 0 1 1448.07 2237)">XOR</text><text font-family="Arial,Arial_MSFontService,sans-serif" font-weight="400" font-size="41" transform="matrix(1 0 0 1 1537.45 2237)"> </text><text font-family="Arial,Arial_MSFontService,sans-serif" font-weight="400" font-size="41" transform="matrix(1 0 0 1 1548.9 2237)">Last Fragment with Mask</text><text font-family="Arial,Arial_MSFontService,sans-serif" font-weight="400" font-size="41" transform="matrix(1 0 0 1 2009.53 2237)"> </text><rect x="542.5" y="89.4999" width="250" height="145" stroke="#FFFFFF" stroke-width="9.16667" stroke-miterlimit="8" fill="#D9D9D9"/><text font-family="Arial,Arial_MSFontService,sans-serif" font-weight="700" font-size="73" transform="matrix(1 0 0 1 646.618 189)">0</text><text font-family="Arial,Arial_MSFontService,sans-serif" font-weight="700" font-size="73" transform="matrix(1 0 0 1 687.295 189)"> </text><rect x="1666.5" y="89.4999" width="250" height="145" stroke="#FFFFFF" stroke-width="9.16667" stroke-miterlimit="8" fill="#D9D9D9"/><text font-family="Arial,Arial_MSFontService,sans-serif" font-weight="700" font-size="73" transform="matrix(1 0 0 1 1770.92 189)">8</text><text font-family="Arial,Arial_MSFontService,sans-serif" font-weight="700" font-size="73" transform="matrix(1 0 0 1 1811.6 189)"> </text><rect x="792.5" y="89.4999" width="125" height="145" stroke="#FFFFFF" stroke-width="9.16667" stroke-miterlimit="8" fill="#D9D9D9"/><text font-family="Arial,Arial_MSFontService,sans-serif" font-weight="700" font-size="73" transform="matrix(1 0 0 1 834.002 189)">1</text><text font-family="Arial,Arial_MSFontService,sans-serif" font-weight="700" font-size="73" transform="matrix(1 0 0 1 874.679 189)"> </text><rect x="917.5" y="89.4999" width="125" height="145" stroke="#FFFFFF" stroke-width="9.16667" stroke-miterlimit="8" fill="#D9D9D9"/><text font-family="Arial,Arial_MSFontService,sans-serif" font-weight="700" font-size="73" transform="matrix(1 0 0 1 958.924 189)">2</text><text font-family="Arial,Arial_MSFontService,sans-serif" font-weight="700" font-size="73" transform="matrix(1 0 0 1 999.602 189)"> </text><rect x="1042.5" y="89.4999" width="125" height="145" stroke="#FFFFFF" stroke-width="9.16667" stroke-miterlimit="8" fill="#D9D9D9"/><text font-family="Arial,Arial_MSFontService,sans-serif" font-weight="700" font-size="73" transform="matrix(1 0 0 1 1083.85 189)">3</text><text font-family="Arial,Arial_MSFontService,sans-serif" font-weight="700" font-size="73" transform="matrix(1 0 0 1 1124.52 189)"> </text><rect x="1167.5" y="89.4999" width="125" height="145" stroke="#FFFFFF" stroke-width="9.16667" stroke-miterlimit="8" fill="#D9D9D9"/><text font-family="Arial,Arial_MSFontService,sans-serif" font-weight="700" font-size="73" transform="matrix(1 0 0 1 1208.77 189)">4</text><text font-family="Arial,Arial_MSFontService,sans-serif" font-weight="700" font-size="73" transform="matrix(1 0 0 1 1249.45 189)"> </text><rect x="1292.5" y="89.4999" width="124" height="145" stroke="#FFFFFF" stroke-width="9.16667" stroke-miterlimit="8" fill="#D9D9D9"/><text font-family="Arial,Arial_MSFontService,sans-serif" font-weight="700" font-size="73" transform="matrix(1 0 0 1 1333.69 189)">5</text><text font-family="Arial,Arial_MSFontService,sans-serif" font-weight="700" font-size="73" transform="matrix(1 0 0 1 1374.37 189)"> </text><rect x="1416.5" y="89.4999" width="125" height="145" stroke="#FFFFFF" stroke-width="9.16667" stroke-miterlimit="8" fill="#D9D9D9"/><text font-family="Arial,Arial_MSFontService,sans-serif" font-weight="700" font-size="73" transform="matrix(1 0 0 1 1458.62 189)">6</text><text font-family="Arial,Arial_MSFontService,sans-serif" font-weight="700" font-size="73" transform="matrix(1 0 0 1 1499.29 189)"> </text><rect x="1541.5" y="89.4999" width="125" height="145" stroke="#FFFFFF" stroke-width="9.16667" stroke-miterlimit="8" fill="#D9D9D9"/><text font-family="Arial,Arial_MSFontService,sans-serif" font-weight="700" font-size="73" transform="matrix(1 0 0 1 1583.54 189)">7</text><text font-family="Arial,Arial_MSFontService,sans-serif" font-weight="700" font-size="73" transform="matrix(1 0 0 1 1624.22 189)"> </text><rect x="1916.5" y="89.4999" width="125" height="145" stroke="#FFFFFF" stroke-width="9.16667" stroke-miterlimit="8" fill="#D9D9D9"/><text font-family="Arial,Arial_MSFontService,sans-serif" font-weight="700" font-size="73" transform="matrix(1 0 0 1 1958.31 189)">9</text><text font-family="Arial,Arial_MSFontService,sans-serif" font-weight="700" font-size="73" transform="matrix(1 0 0 1 1998.98 189)"> </text><rect x="2041.5" y="89.4999" width="125" height="145" stroke="#FFFFFF" stroke-width="9.16667" stroke-miterlimit="8" fill="#D9D9D9"/><text font-family="Arial,Arial_MSFontService,sans-serif" font-weight="700" font-size="73" transform="matrix(1 0 0 1 2077.21 189)">A</text><text font-family="Arial,Arial_MSFontService,sans-serif" font-weight="700" font-size="73" transform="matrix(1 0 0 1 2129.92 189)"> </text><rect x="2166.5" y="89.4999" width="125" height="145" stroke="#FFFFFF" stroke-width="9.16667" stroke-miterlimit="8" fill="#D9D9D9"/><text font-family="Arial,Arial_MSFontService,sans-serif" font-weight="700" font-size="73" transform="matrix(1 0 0 1 2202.14 189)">B</text><text font-family="Arial,Arial_MSFontService,sans-serif" font-weight="700" font-size="73" transform="matrix(1 0 0 1 2254.85 189)"> </text><rect x="2291.5" y="89.4999" width="125" height="145" stroke="#FFFFFF" stroke-width="9.16667" stroke-miterlimit="8" fill="#D9D9D9"/><text font-family="Arial,Arial_MSFontService,sans-serif" font-weight="700" font-size="73" transform="matrix(1 0 0 1 2327.06 189)">C</text><text font-family="Arial,Arial_MSFontService,sans-serif" font-weight="700" font-size="73" transform="matrix(1 0 0 1 2379.77 189)"> </text><rect x="2416.5" y="89.4999" width="125" height="145" stroke="#FFFFFF" stroke-width="9.16667" stroke-miterlimit="8" fill="#D9D9D9"/><text font-family="Arial,Arial_MSFontService,sans-serif" font-weight="700" font-size="73" transform="matrix(1 0 0 1 2451.98 189)">D</text><text font-family="Arial,Arial_MSFontService,sans-serif" font-weight="700" font-size="73" transform="matrix(1 0 0 1 2504.69 189)"> </text><rect x="2541.5" y="89.4999" width="125" height="145" stroke="#FFFFFF" stroke-width="9.16667" stroke-miterlimit="8" fill="#D9D9D9"/><text font-family="Arial,Arial_MSFontService,sans-serif" font-weight="700" font-size="73" transform="matrix(1 0 0 1 2578.91 189)">E</text><text font-family="Arial,Arial_MSFontService,sans-serif" font-weight="700" font-size="73" transform="matrix(1 0 0 1 2627.61 189)"> </text><rect x="2666.5" y="89.4999" width="250" height="145" stroke="#FFFFFF" stroke-width="9.16667" stroke-miterlimit="8" fill="#D9D9D9"/><text font-family="Arial,Arial_MSFontService,sans-serif" font-weight="700" font-size="73" transform="matrix(1 0 0 1 2768.3 189)">F</text><text font-family="Arial,Arial_MSFontService,sans-serif" font-weight="700" font-size="73" transform="matrix(1 0 0 1 2812.99 189)"> </text><rect x="292.5" y="89.4999" width="250" height="145" stroke="#FFFFFF" stroke-width="9.16667" stroke-miterlimit="8" fill="#D9D9D9"/><rect x="292.5" y="234.5" width="250" height="126" stroke="#FFFFFF" stroke-width="9.16667" stroke-miterlimit="8" fill="#D9D9D9"/><text font-family="Arial,Arial_MSFontService,sans-serif" font-weight="700" font-size="73" transform="matrix(1 0 0 1 376.433 324)">00</text><text font-family="Arial,Arial_MSFontService,sans-serif" font-weight="700" font-size="73" transform="matrix(1 0 0 1 457.787 324)"> </text><rect x="292.5" y="360.5" width="250" height="126" stroke="#FFFFFF" stroke-width="9.16667" stroke-miterlimit="8" fill="#D9D9D9"/><text font-family="Arial,Arial_MSFontService,sans-serif" font-weight="700" font-size="73" transform="matrix(1 0 0 1 376.433 450)">10</text><text font-family="Arial,Arial_MSFontService,sans-serif" font-weight="700" font-size="73" transform="matrix(1 0 0 1 457.787 450)"> </text><rect x="292.5" y="486.5" width="250" height="126" stroke="#FFFFFF" stroke-width="9.16667" stroke-miterlimit="8" fill="#D9D9D9"/><text font-family="Arial,Arial_MSFontService,sans-serif" font-weight="700" font-size="73" transform="matrix(1 0 0 1 376.433 576)">20</text><text font-family="Arial,Arial_MSFontService,sans-serif" font-weight="700" font-size="73" transform="matrix(1 0 0 1 457.787 576)"> </text><rect x="292.5" y="612.5" width="250" height="126" stroke="#FFFFFF" stroke-width="9.16667" stroke-miterlimit="8" fill="#D9D9D9"/><text font-family="Arial,Arial_MSFontService,sans-serif" font-weight="700" font-size="73" transform="matrix(1 0 0 1 376.433 702)">30</text><text font-family="Arial,Arial_MSFontService,sans-serif" font-weight="700" font-size="73" transform="matrix(1 0 0 1 457.787 702)"> </text><rect x="292.5" y="738.5" width="250" height="126" stroke="#FFFFFF" stroke-width="9.16667" stroke-miterlimit="8" fill="#D9D9D9"/><text font-family="Arial,Arial_MSFontService,sans-serif" font-weight="700" font-size="73" transform="matrix(1 0 0 1 376.433 828)">40</text><text font-family="Arial,Arial_MSFontService,sans-serif" font-weight="700" font-size="73" transform="matrix(1 0 0 1 457.787 828)"> </text><rect x="292.5" y="864.5" width="250" height="126" stroke="#FFFFFF" stroke-width="9.16667" stroke-miterlimit="8" fill="#D9D9D9"/><text font-family="Arial,Arial_MSFontService,sans-serif" font-weight="700" font-size="73" transform="matrix(1 0 0 1 376.433 954)">50</text><text font-family="Arial,Arial_MSFontService,sans-serif" font-weight="700" font-size="73" transform="matrix(1 0 0 1 457.787 954)"> </text><rect x="292.5" y="990.5" width="250" height="127" stroke="#FFFFFF" stroke-width="9.16667" stroke-miterlimit="8" fill="#D9D9D9"/><text font-family="Arial,Arial_MSFontService,sans-serif" font-weight="700" font-size="73" transform="matrix(1 0 0 1 376.433 1080)">60</text><text font-family="Arial,Arial_MSFontService,sans-serif" font-weight="700" font-size="73" transform="matrix(1 0 0 1 457.787 1080)"> </text><rect x="292.5" y="1117.5" width="250" height="126" stroke="#FFFFFF" stroke-width="9.16667" stroke-miterlimit="8" fill="#D9D9D9"/><text font-family="Arial,Arial_MSFontService,sans-serif" font-weight="700" font-size="73" transform="matrix(1 0 0 1 376.433 1207)">70</text><text font-family="Arial,Arial_MSFontService,sans-serif" font-weight="700" font-size="73" transform="matrix(1 0 0 1 457.787 1207)"> </text><rect x="292.5" y="1243.5" width="250" height="126" stroke="#FFFFFF" stroke-width="9.16667" stroke-miterlimit="8" fill="#D9D9D9"/><text font-family="Arial,Arial_MSFontService,sans-serif" font-weight="700" font-size="73" transform="matrix(1 0 0 1 376.433 1333)">80</text><text font-family="Arial,Arial_MSFontService,sans-serif" font-weight="700" font-size="73" transform="matrix(1 0 0 1 457.787 1333)"> </text><rect x="292.5" y="1369.5" width="250" height="126" stroke="#FFFFFF" stroke-width="9.16667" stroke-miterlimit="8" fill="#D9D9D9"/><text font-family="Arial,Arial_MSFontService,sans-serif" font-weight="700" font-size="73" transform="matrix(1 0 0 1 376.433 1459)">90</text><text font-family="Arial,Arial_MSFontService,sans-serif" font-weight="700" font-size="73" transform="matrix(1 0 0 1 457.787 1459)"> </text><rect x="292.5" y="1495.5" width="250" height="126" stroke="#FFFFFF" stroke-width="9.16667" stroke-miterlimit="8" fill="#D9D9D9"/><text font-family="Arial,Arial_MSFontService,sans-serif" font-weight="700" font-size="73" transform="matrix(1 0 0 1 370.418 1585)">A0</text><text font-family="Arial,Arial_MSFontService,sans-serif" font-weight="700" font-size="73" transform="matrix(1 0 0 1 463.803 1585)"> </text><rect x="292.5" y="1621.5" width="250" height="126" stroke="#FFFFFF" stroke-width="9.16667" stroke-miterlimit="8" fill="#D9D9D9"/><text font-family="Arial,Arial_MSFontService,sans-serif" font-weight="700" font-size="73" transform="matrix(1 0 0 1 370.418 1711)">B0</text><text font-family="Arial,Arial_MSFontService,sans-serif" font-weight="700" font-size="73" transform="matrix(1 0 0 1 463.803 1711)"> </text><rect x="292.5" y="1747.5" width="250" height="126" stroke="#FFFFFF" stroke-width="9.16667" stroke-miterlimit="8" fill="#D9D9D9"/><text font-family="Arial,Arial_MSFontService,sans-serif" font-weight="700" font-size="73" transform="matrix(1 0 0 1 370.418 1837)">C0</text><text font-family="Arial,Arial_MSFontService,sans-serif" font-weight="700" font-size="73" transform="matrix(1 0 0 1 463.803 1837)"> </text><rect x="292.5" y="1873.5" width="250" height="126" stroke="#FFFFFF" stroke-width="9.16667" stroke-miterlimit="8" fill="#D9D9D9"/><text font-family="Arial,Arial_MSFontService,sans-serif" font-weight="700" font-size="73" transform="matrix(1 0 0 1 370.418 1963)">D0</text><text font-family="Arial,Arial_MSFontService,sans-serif" font-weight="700" font-size="73" transform="matrix(1 0 0 1 463.803 1963)"> </text><rect x="292.5" y="1999.5" width="250" height="126" stroke="#FFFFFF" stroke-width="9.16667" stroke-miterlimit="8" fill="#D9D9D9"/><text font-family="Arial,Arial_MSFontService,sans-serif" font-weight="700" font-size="73" transform="matrix(1 0 0 1 372.423 2089)">E0</text><text font-family="Arial,Arial_MSFontService,sans-serif" font-weight="700" font-size="73" transform="matrix(1 0 0 1 461.798 2089)"> </text><rect x="292.5" y="2125.5" width="250" height="127" stroke="#FFFFFF" stroke-width="9.16667" stroke-miterlimit="8" fill="#D9D9D9"/><text font-family="Arial,Arial_MSFontService,sans-serif" font-weight="700" font-size="73" transform="matrix(1 0 0 1 374.428 2216)">F0</text><text font-family="Arial,Arial_MSFontService,sans-serif" font-weight="700" font-size="73" transform="matrix(1 0 0 1 459.793 2216)"> </text><rect x="2666.5" y="2125.5" width="250" height="127" stroke="#FFFFFF" stroke-width="9.16667" stroke-miterlimit="8" fill="#FF9999"/><text font-family="Arial,Arial_MSFontService,sans-serif" font-weight="700" font-size="55" transform="matrix(1 0 0 1 2734.21 2184)">ABT</text><text font-family="Arial,Arial_MSFontService,sans-serif" font-weight="400" font-size="55" transform="matrix(1 0 0 1 2847.08 2184)"> </text><text font-family="Arial,Arial_MSFontService,sans-serif" font-weight="400" font-size="41" transform="matrix(1 0 0 1 2741.38 2237)">Abort</text><text font-family="Arial,Arial_MSFontService,sans-serif" font-weight="400" font-size="41" transform="matrix(1 0 0 1 2839.93 2237)"> </text><rect x="542.5" y="990.5" width="250" height="127" stroke="#FFFFFF" stroke-width="9.16667" stroke-miterlimit="8" fill="#FFBD99"/><text font-family="Arial,Arial_MSFontService,sans-serif" font-weight="700" font-size="55" transform="matrix(1 0 0 1 622.543 1049)">LDI</text><text font-family="Arial,Arial_MSFontService,sans-serif" font-weight="400" font-size="55" transform="matrix(1 0 0 1 711.345 1049)"> </text><text font-family="Arial,Arial_MSFontService,sans-serif" font-weight="400" font-size="41" transform="matrix(1 0 0 1 569.56 1102)">Load Imm.</text><text font-family="Arial,Arial_MSFontService,sans-serif" font-weight="400" font-size="41" transform="matrix(1 0 0 1 764.352 1102)"> </text><rect x="542.5" y="738.5" width="250" height="126" stroke="#FFFFFF" stroke-width="9.16667" stroke-miterlimit="8" fill="#AC99FF"/><text font-family="Arial,Arial_MSFontService,sans-serif" font-weight="700" font-size="55" transform="matrix(1 0 0 1 610.512 797)">CPX</text><text font-family="Arial,Arial_MSFontService,sans-serif" font-weight="400" font-size="55" transform="matrix(1 0 0 1 723.377 797)"> </text><text font-family="Arial,Arial_MSFontService,sans-serif" font-weight="400" font-size="41" transform="matrix(1 0 0 1 560.393 849)">Large Copy</text><text font-family="Arial,Arial_MSFontService,sans-serif" font-weight="400" font-size="41" transform="matrix(1 0 0 1 773.518 849)"> </text><rect x="542.5" y="1117.5" width="250" height="126" stroke="#FFFFFF" stroke-width="9.16667" stroke-miterlimit="8" fill="#A6A6A6"/><text font-family="Arial,Arial_MSFontService,sans-serif" font-weight="700" font-size="55" transform="matrix(1 0 0 1 627.127 1175)">n/a</text><text font-family="Arial,Arial_MSFontService,sans-serif" font-weight="700" font-size="55" transform="matrix(1 0 0 1 706.762 1175)"> </text><text font-family="Arial,Arial_MSFontService,sans-serif" font-weight="400" font-size="41" transform="matrix(1 0 0 1 578.727 1228)">Reserved</text><text font-family="Arial,Arial_MSFontService,sans-serif" font-weight="400" font-size="41" transform="matrix(1 0 0 1 755.185 1228)"> </text><path d="M293.5 89.4999 542.103 233.874" stroke="#FFFFFF" stroke-width="9.16667" stroke-miterlimit="8" fill="none" fill-rule="evenodd"/><text font-family="Arial,Arial_MSFontService,sans-serif" font-weight="700" font-size="73" transform="matrix(1 0 0 1 459.435 167)">L</text><text font-family="Arial,Arial_MSFontService,sans-serif" font-weight="700" font-size="73" transform="matrix(1 0 0 1 504.123 167)"> </text><text font-family="Arial,Arial_MSFontService,sans-serif" font-weight="700" font-size="73" transform="matrix(1 0 0 1 333.872 216)">H</text><text font-family="Arial,Arial_MSFontService,sans-serif" font-weight="700" font-size="73" transform="matrix(1 0 0 1 386.58 216)"> </text><rect x="1666.5" y="1117.5" width="250" height="126" stroke="#FFFFFF" stroke-width="9.16667" stroke-miterlimit="8" fill="#A6A6A6"/><text font-family="Arial,Arial_MSFontService,sans-serif" font-weight="700" font-size="55" transform="matrix(1 0 0 1 1751.43 1175)">n/a</text><text font-family="Arial,Arial_MSFontService,sans-serif" font-weight="700" font-size="55" transform="matrix(1 0 0 1 1831.07 1175)"> </text><text font-family="Arial,Arial_MSFontService,sans-serif" font-weight="400" font-size="41" transform="matrix(1 0 0 1 1703.03 1228)">Reserved</text><text font-family="Arial,Arial_MSFontService,sans-serif" font-weight="400" font-size="41" transform="matrix(1 0 0 1 1879.49 1228)"> </text><rect x="1666.5" y="990.5" width="250" height="127" stroke="#FFFFFF" stroke-width="9.16667" stroke-miterlimit="8" fill="#A6A6A6"/><text font-family="Arial,Arial_MSFontService,sans-serif" font-weight="700" font-size="55" transform="matrix(1 0 0 1 1751.43 1049)">n/a</text><text font-family="Arial,Arial_MSFontService,sans-serif" font-weight="700" font-size="55" transform="matrix(1 0 0 1 1831.07 1049)"> </text><text font-family="Arial,Arial_MSFontService,sans-serif" font-weight="400" font-size="41" transform="matrix(1 0 0 1 1703.03 1102)">Reserved</text><text font-family="Arial,Arial_MSFontService,sans-serif" font-weight="400" font-size="41" transform="matrix(1 0 0 1 1879.49 1102)"> </text></g></svg>