<svg width="2638" height="2204" xmlns="http://www.w3.org/2000/svg" xmlns:xlink="http://www.w3.org/1999/xlink" xml:space="preserve" overflow="hidden"><g transform="translate(-288 -73)"><rect x="542.5" y="738.5" width="2374" height="505" stroke="#FFFFFF" stroke-width="9.16667" stroke-miterlimit="8" fill="#99CAFF"/><text font-family="Arial,Arial_MSFontService,sans-serif" font-weight="700" font-size="55" transform="matrix(1 0 0 1 1631.11 856)">CPY</text><text font-family="Arial,Arial_MSFontService,sans-serif" font-weight="400" font-size="55" transform="matrix(1 0 0 1 1759.44 856)">(1)</text><text font-family="Arial,Arial_MSFontService,sans-serif" font-weight="400" font-size="41" transform="matrix(1 0 0 1 1609.63 909)">Copy Recent</text><rect x="542.5" y="1243.5" width="2374" height="504" stroke="#FFFFFF" stroke-width="9.16667" stroke-miterlimit="8" fill="#FFF399"/><text font-family="Arial,Arial_MSFontService,sans-serif" font-weight="700" font-size="55" transform="matrix(1 0 0 1 1632.55 1490)">LUP</text><text font-family="Arial,Arial_MSFontService,sans-serif" font-weight="400" font-size="55" transform="matrix(1 0 0 1 1758.02 1490)">(1)</text><text font-family="Arial,Arial_MSFontService,sans-serif" font-weight="400" font-size="41" transform="matrix(1 0 0 1 1598.17 1543)">Single Lookup</text><rect x="542.5" y="1747.5" width="2374" height="252" stroke="#FFFFFF" stroke-width="9.16667" stroke-miterlimit="8" fill="#C2FF99"/><text font-family="Arial,Arial_MSFontService,sans-serif" font-weight="700" font-size="55" transform="matrix(1 0 0 1 1631.11 1868)">LUD</text><text font-family="Arial,Arial_MSFontService,sans-serif" font-weight="400" font-size="55" transform="matrix(1 0 0 1 1759.44 1868)">(1)</text><text font-family="Arial,Arial_MSFontService,sans-serif" font-weight="400" font-size="41" transform="matrix(1 0 0 1 1590.15 1921)">Double Lookup</text><rect x="542.5" y="1999.5" width="2374" height="126" stroke="#FFFFFF" stroke-width="9.16667" stroke-miterlimit="8" fill="#99CAFF"/><text font-family="Arial,Arial_MSFontService,sans-serif" font-weight="700" font-size="55" transform="matrix(1 0 0 1 1632.55 2058)">RPT</text><text font-family="Arial,Arial_MSFontService,sans-serif" font-weight="400" font-size="55" transform="matrix(1 0 0 1 1758.02 2058)">(1)</text><text font-family="Arial,Arial_MSFontService,sans-serif" font-weight="400" font-size="41" transform="matrix(1 0 0 1 1523.7 2111)">Repeat Last Fragment</text><rect x="542.5" y="234.5" width="2374" height="504" stroke="#FFFFFF" stroke-width="9.16667" stroke-miterlimit="8" fill="#99FFE7"/><text font-family="Arial,Arial_MSFontService,sans-serif" font-weight="700" font-size="55" transform="matrix(1 0 0 1 1635.41 481)">SFT</text><text font-family="Arial,Arial_MSFontService,sans-serif" font-weight="400" font-size="55" transform="matrix(1 0 0 1 1755.15 481)">(1)</text><text font-family="Arial,Arial_MSFontService,sans-serif" font-weight="400" font-size="41" transform="matrix(1 0 0 1 1548.9 534)">Shift Last Fragment</text><rect x="542.5" y="2125.5" width="2374" height="127" stroke="#FFFFFF" stroke-width="9.16667" stroke-miterlimit="8" fill="#FFF399"/><text font-family="Arial,Arial_MSFontService,sans-serif" font-weight="700" font-size="55" transform="matrix(1 0 0 1 1627.97 2184)">XOR</text><text font-family="Arial,Arial_MSFontService,sans-serif" font-weight="400" font-size="55" transform="matrix(1 0 0 1 1762.6 2184)">(1)</text><text font-family="Arial,Arial_MSFontService,sans-serif" font-weight="400" font-size="41" transform="matrix(1 0 0 1 1448.07 2237)">XOR Last Fragment with Mask</text><rect x="542.5" y="89.4999" width="250" height="145" stroke="#FFFFFF" stroke-width="9.16667" stroke-miterlimit="8" fill="#D9D9D9"/><text font-family="Arial,Arial_MSFontService,sans-serif" font-weight="700" font-size="73" transform="matrix(1 0 0 1 646.618 189)">0</text><rect x="1666.5" y="89.4999" width="250" height="145" stroke="#FFFFFF" stroke-width="9.16667" stroke-miterlimit="8" fill="#D9D9D9"/><text font-family="Arial,Arial_MSFontService,sans-serif" font-weight="700" font-size="73" transform="matrix(1 0 0 1 1770.92 189)">8</text><rect x="792.5" y="89.4999" width="125" height="145" stroke="#FFFFFF" stroke-width="9.16667" stroke-miterlimit="8" fill="#D9D9D9"/><text font-family="Arial,Arial_MSFontService,sans-serif" font-weight="700" font-size="73" transform="matrix(1 0 0 1 834.002 189)">1</text><rect x="917.5" y="89.4999" width="125" height="145" stroke="#FFFFFF" stroke-width="9.16667" stroke-miterlimit="8" fill="#D9D9D9"/><text font-family="Arial,Arial_MSFontService,sans-serif" font-weight="700" font-size="73" transform="matrix(1 0 0 1 958.924 189)">2</text><rect x="1042.5" y="89.4999" width="125" height="145" stroke="#FFFFFF" stroke-width="9.16667" stroke-miterlimit="8" fill="#D9D9D9"/><text font-family="Arial,Arial_MSFontService,sans-serif" font-weight="700" font-size="73" transform="matrix(1 0 0 1 1083.85 189)">3</text><rect x="1167.5" y="89.4999" width="125" height="145" stroke="#FFFFFF" stroke-width="9.16667" stroke-miterlimit="8" fill="#D9D9D9"/><text font-family="Arial,Arial_MSFontService,sans-serif" font-weight="700" font-size="73" transform="matrix(1 0 0 1 1208.77 189)">4</text><rect x="1292.5" y="89.4999" width="124" height="145" stroke="#FFFFFF" stroke-width="9.16667" stroke-miterlimit="8" fill="#D9D9D9"/><text font-family="Arial,Arial_MSFontService,sans-serif" font-weight="700" font-size="73" transform="matrix(1 0 0 1 1333.69 189)">5</text><rect x="1416.5" y="89.4999" width="125" height="145" stroke="#FFFFFF" stroke-width="9.16667" stroke-miterlimit="8" fill="#D9D9D9"/><text font-family="Arial,Arial_MSFontService,sans-serif" font-weight="700" font-size="73" transform="matrix(1 0 0 1 1458.62 189)">6</text><rect x="1541.5" y="89.4999" width="125" height="145" stroke="#FFFFFF" stroke-width="9.16667" stroke-miterlimit="8" fill="#D9D9D9"/><text font-family="Arial,Arial_MSFontService,sans-serif" font-weight="700" font-size="73" transform="matrix(1 0 0 1 1583.54 189)">7</text><rect x="1916.5" y="89.4999" width="125" height="145" stroke="#FFFFFF" stroke-width="9.16667" stroke-miterlimit="8" fill="#D9D9D9"/><text font-family="Arial,Arial_MSFontService,sans-serif" font-weight="700" font-size="73" transform="matrix(1 0 0 1 1958.31 189)">9</text><rect x="2041.5" y="89.4999" width="125" height="145" stroke="#FFFFFF" stroke-width="9.16667" stroke-miterlimit="8" fill="#D9D9D9"/><text font-family="Arial,Arial_MSFontService,sans-serif" font-weight="700" font-size="73" transform="matrix(1 0 0 1 2077.21 189)">A</text><rect x="2166.5" y="89.4999" width="125" height="145" stroke="#FFFFFF" stroke-width="9.16667" stroke-miterlimit="8" fill="#D9D9D9"/><text font-family="Arial,Arial_MSFontService,sans-serif" font-weight="700" font-size="73" transform="matrix(1 0 0 1 2202.14 189)">B</text><rect x="2291.5" y="89.4999" width="125" height="145" stroke="#FFFFFF" stroke-width="9.16667" stroke-miterlimit="8" fill="#D9D9D9"/><text font-family="Arial,Arial_MSFontService,sans-serif" font-weight="700" font-size="73" transform="matrix(1 0 0 1 2327.06 189)">C</text><rect x="2416.5" y="89.4999" width="125" height="145" stroke="#FFFFFF" stroke-width="9.16667" stroke-miterlimit="8" fill="#D9D9D9"/><text font-family="Arial,Arial_MSFontService,sans-serif" font-weight="700" font-size="73" transform="matrix(1 0 0 1 2451.98 189)">D</text><rect x="2541.5" y="89.4999" width="125" height="145" stroke="#FFFFFF" stroke-width="9.16667" stroke-miterlimit="8" fill="#D9D9D9"/><text font-family="Arial,Arial_MSFontService,sans-serif" font-weight="700" font-size="73" transform="matrix(1 0 0 1 2578.91 189)">E</text><rect x="2666.5" y="89.4999" width="250" height="145" stroke="#FFFFFF" stroke-width="9.16667" stroke-miterlimit="8" fill="#D9D9D9"/><text font-family="Arial,Arial_MSFontService,sans-serif" font-weight="700" font-size="73" transform="matrix(1 0 0 1 2768.3 189)">F</text><rect x="292.5" y="89.4999" width="250" height="145" stroke="#FFFFFF" stroke-width="9.16667" stroke-miterlimit="8" fill="#D9D9D9"/><rect x="292.5" y="234.5" width="250" height="126" stroke="#FFFFFF" stroke-width="9.16667" stroke-miterlimit="8" fill="#D9D9D9"/><text font-family="Arial,Arial_MSFontService,sans-serif" font-weight="700" font-size="73" transform="matrix(1 0 0 1 376.433 324)">00</text><rect x="292.5" y="360.5" width="250" height="126" stroke="#FFFFFF" stroke-width="9.16667" stroke-miterlimit="8" fill="#D9D9D9"/><text font-family="Arial,Arial_MSFontService,sans-serif" font-weight="700" font-size="73" transform="matrix(1 0 0 1 376.433 450)">10</text><rect x="292.5" y="486.5" width="250" height="126" stroke="#FFFFFF" stroke-width="9.16667" stroke-miterlimit="8" fill="#D9D9D9"/><text font-family="Arial,Arial_MSFontService,sans-serif" font-weight="700" font-size="73" transform="matrix(1 0 0 1 376.433 576)">20</text><rect x="292.5" y="612.5" width="250" height="126" stroke="#FFFFFF" stroke-width="9.16667" stroke-miterlimit="8" fill="#D9D9D9"/><text font-family="Arial,Arial_MSFontService,sans-serif" font-weight="700" font-size="73" transform="matrix(1 0 0 1 376.433 702)">30</text><rect x="292.5" y="738.5" width="250" height="126" stroke="#FFFFFF" stroke-width="9.16667" stroke-miterlimit="8" fill="#D9D9D9"/><text font-family="Arial,Arial_MSFontService,sans-serif" font-weight="700" font-size="73" transform="matrix(1 0 0 1 376.433 828)">40</text><rect x="292.5" y="864.5" width="250" height="126" stroke="#FFFFFF" stroke-width="9.16667" stroke-miterlimit="8" fill="#D9D9D9"/><text font-family="Arial,Arial_MSFontService,sans-serif" font-weight="700" font-size="73" transform="matrix(1 0 0 1 376.433 954)">50</text><rect x="292.5" y="990.5" width="250" height="127" stroke="#FFFFFF" stroke-width="9.16667" stroke-miterlimit="8" fill="#D9D9D9"/><text font-family="Arial,Arial_MSFontService,sans-serif" font-weight="700" font-size="73" transform="matrix(1 0 0 1 376.433 1080)">60</text><rect x="292.5" y="1117.5" width="250" height="126" stroke="#FFFFFF" stroke-width="9.16667" stroke-miterlimit="8" fill="#D9D9D9"/><text font-family="Arial,Arial_MSFontService,sans-serif" font-weight="700" font-size="73" transform="matrix(1 0 0 1 376.433 1207)">70</text><rect x="292.5" y="1243.5" width="250" height="126" stroke="#FFFFFF" stroke-width="9.16667" stroke-miterlimit="8" fill="#D9D9D9"/><text font-family="Arial,Arial_MSFontService,sans-serif" font-weight="700" font-size="73" transform="matrix(1 0 0 1 376.433 1333)">80</text><rect x="292.5" y="1369.5" width="250" height="126" stroke="#FFFFFF" stroke-width="9.16667" stroke-miterlimit="8" fill="#D9D9D9"/><text font-family="Arial,Arial_MSFontService,sans-serif" font-weight="700" font-size="73" transform="matrix(1 0 0 1 376.433 1459)">90</text><rect x="292.5" y="1495.5" width="250" height="126" stroke="#FFFFFF" stroke-width="9.16667" stroke-miterlimit="8" fill="#D9D9D9"/><text font-family="Arial,Arial_MSFontService,sans-serif" font-weight="700" font-size="73" transform="matrix(1 0 0 1 370.418 1585)">A0</text><rect x="292.5" y="1621.5" width="250" height="126" stroke="#FFFFFF" stroke-width="9.16667" stroke-miterlimit="8" fill="#D9D9D9"/><text font-family="Arial,Arial_MSFontService,sans-serif" font-weight="700" font-size="73" transform="matrix(1 0 0 1 370.418 1711)">B0</text><rect x="292.5" y="1747.5" width="250" height="126" stroke="#FFFFFF" stroke-width="9.16667" stroke-miterlimit="8" fill="#D9D9D9"/><text font-family="Arial,Arial_MSFontService,sans-serif" font-weight="700" font-size="73" transform="matrix(1 0 0 1 370.418 1837)">C0</text><rect x="292.5" y="1873.5" width="250" height="126" stroke="#FFFFFF" stroke-width="9.16667" stroke-miterlimit="8" fill="#D9D9D9"/><text font-family="Arial,Arial_MSFontService,sans-serif" font-weight="700" font-size="73" transform="matrix(1 0 0 1 370.418 1963)">D0</text><rect x="292.5" y="1999.5" width="250" height="126" stroke="#FFFFFF" stroke-width="9.16667" stroke-miterlimit="8" fill="#D9D9D9"/><text font-family="Arial,Arial_MSFontService,sans-serif" font-weight="700" font-size="73" transform="matrix(1 0 0 1 372.423 2089)">E0</text><rect x="292.5" y="2125.5" width="250" height="127" stroke="#FFFFFF" stroke-width="9.16667" stroke-miterlimit="8" fill="#D9D9D9"/><text font-family="Arial,Arial_MSFontService,sans-serif" font-weight="700" font-size="73" transform="matrix(1 0 0 1 374.428 2216)">F0</text><rect x="2666.5" y="2125.5" width="250" height="127" stroke="#FFFFFF" stroke-width="9.16667" stroke-miterlimit="8" fill="#FF9999"/><text font-family="Arial,Arial_MSFontService,sans-serif" font-weight="700" font-size="55" transform="matrix(1 0 0 1 2688.38 2184)">ABO</text><text font-family="Arial,Arial_MSFontService,sans-serif" font-weight="400" font-size="55" transform="matrix(1 0 0 1 2825.88 2184)">(1)</text><text font-family="Arial,Arial_MSFontService,sans-serif" font-weight="400" font-size="41" transform="matrix(1 0 0 1 2741.38 2237)">Abort</text><rect x="542.5" y="990.5" width="250" height="127" stroke="#FFFFFF" stroke-width="9.16667" stroke-miterlimit="8" fill="#FFBD99"/><text font-family="Arial,Arial_MSFontService,sans-serif" font-weight="700" font-size="55" transform="matrix(1 0 0 1 581.293 1049)">LDI</text><text font-family="Arial,Arial_MSFontService,sans-serif" font-weight="400" font-size="55" transform="matrix(1 0 0 1 685.564 1049)">(2)</text><text font-family="Arial,Arial_MSFontService,sans-serif" font-weight="400" font-size="41" transform="matrix(1 0 0 1 569.56 1102)">Load Imm.</text><rect x="542.5" y="738.5" width="250" height="126" stroke="#FFFFFF" stroke-width="9.16667" stroke-miterlimit="8" fill="#AC99FF"/><text font-family="Arial,Arial_MSFontService,sans-serif" font-weight="700" font-size="55" transform="matrix(1 0 0 1 569.262 797)">CPX</text><text font-family="Arial,Arial_MSFontService,sans-serif" font-weight="400" font-size="55" transform="matrix(1 0 0 1 697.595 797)">(3)</text><text font-family="Arial,Arial_MSFontService,sans-serif" font-weight="400" font-size="41" transform="matrix(1 0 0 1 560.393 849)">Large Copy</text><rect x="542.5" y="1117.5" width="250" height="126" stroke="#FFFFFF" stroke-width="9.16667" stroke-miterlimit="8" fill="#A6A6A6"/><text font-family="Arial,Arial_MSFontService,sans-serif" font-weight="700" font-size="55" transform="matrix(1 0 0 1 627.127 1175)">n/a</text><text font-family="Arial,Arial_MSFontService,sans-serif" font-weight="400" font-size="41" transform="matrix(1 0 0 1 578.727 1228)">Reserved</text><path d="M293.5 89.4999 542.103 233.874" stroke="#FFFFFF" stroke-width="9.16667" stroke-miterlimit="8" fill="none" fill-rule="evenodd"/><text font-family="Arial,Arial_MSFontService,sans-serif" font-weight="700" font-size="73" transform="matrix(1 0 0 1 459.435 167)">L</text><text font-family="Arial,Arial_MSFontService,sans-serif" font-weight="700" font-size="73" transform="matrix(1 0 0 1 333.872 216)">H</text><rect x="1666.5" y="1117.5" width="250" height="126" stroke="#FFFFFF" stroke-width="9.16667" stroke-miterlimit="8" fill="#A6A6A6"/><text font-family="Arial,Arial_MSFontService,sans-serif" font-weight="700" font-size="55" transform="matrix(1 0 0 1 1751.43 1175)">n/a</text><text font-family="Arial,Arial_MSFontService,sans-serif" font-weight="400" font-size="41" transform="matrix(1 0 0 1 1703.03 1228)">Reserved</text><rect x="1666.5" y="990.5" width="250" height="127" stroke="#FFFFFF" stroke-width="9.16667" stroke-miterlimit="8" fill="#99CAFF"/><text font-family="Arial,Arial_MSFontService,sans-serif" font-weight="700" font-size="55" transform="matrix(1 0 0 1 1707.04 1049)">SFI</text><text font-family="Arial,Arial_MSFontService,sans-serif" font-weight="400" font-size="55" transform="matrix(1 0 0 1 1808.45 1049)">(2)</text><text font-family="Arial,Arial_MSFontService,sans-serif" font-weight="400" font-size="41" transform="matrix(1 0 0 1 1699.59 1102)">Slow Shift</text></g></svg>