<svg width="2947" height="1405" xmlns="http://www.w3.org/2000/svg" xmlns:xlink="http://www.w3.org/1999/xlink" xml:space="preserve" overflow="hidden"><defs><clipPath id="clip0"><rect x="215" y="245" width="2947" height="1405"/></clipPath></defs><g clip-path="url(#clip0)" transform="translate(-215 -245)"><path d="M215 292.209C215 266.136 236.136 245 262.209 245L3114.79 245C3140.86 245 3162 266.136 3162 292.209L3162 1602.79C3162 1628.86 3140.86 1650 3114.79 1650L262.209 1650C236.136 1650 215 1628.86 215 1602.79Z" fill="#E4E8EC" fill-rule="evenodd"/><path d="M776.962 749 1988.05 749C2030 749 2064.01 783.02 2064.01 824.985L2064.01 1108.66 2065.6 1108.66 2065.6 1152.07 2415.86 1152.07C2454.6 1152.07 2486 1183.48 2486 1222.23L2486 1502.84C2486 1541.59 2454.6 1573 2415.86 1573L1725.77 1573C1720.93 1573 1716.2 1572.51 1711.64 1571.57L1709.48 1570.91 1702.63 1570.91C1660.1 1570.91 1625.61 1536.41 1625.61 1493.86L1625.61 1204.9 776.962 1204.9C735.009 1204.9 701 1170.88 701 1128.91L701 824.985C701 783.02 735.009 749 776.962 749Z" stroke="#0070C0" stroke-width="13.75" stroke-linecap="square" stroke-linejoin="round" stroke-miterlimit="10" stroke-dasharray="41.25 13.75" fill="#CAEEFB" fill-rule="evenodd"/><path d="M1397.5 308.5 1397.5 833.068" stroke="#000000" stroke-width="4.58333" stroke-linecap="round" stroke-linejoin="round" stroke-miterlimit="10" fill="none" fill-rule="evenodd"/><rect x="1651.5" y="853.5" width="342" height="194" stroke="#000000" stroke-width="4.58333" stroke-linecap="round" stroke-linejoin="round" stroke-miterlimit="10" fill="#FFFFFF"/><text font-family="Noto Sans JP,Noto Sans JP_MSFontService,sans-serif" font-weight="400" font-size="41" transform="matrix(1 0 0 1 1718.84 916)">MameFont</text><text font-family="Noto Sans JP,Noto Sans JP_MSFontService,sans-serif" font-weight="400" font-size="41" transform="matrix(1 0 0 1 1925.66 916)"> </text><text font-family="Noto Sans JP,Noto Sans JP_MSFontService,sans-serif" font-weight="400" font-size="41" transform="matrix(1 0 0 1 1753.78 965)">Library</text><text font-family="Noto Sans JP,Noto Sans JP_MSFontService,sans-serif" font-weight="400" font-size="41" transform="matrix(1 0 0 1 1890.71 965)"> </text><text font-family="Noto Sans JP,Noto Sans JP_MSFontService,sans-serif" font-weight="400" font-size="41" transform="matrix(1 0 0 1 1719.41 1015)">(Renderer)</text><text font-family="Noto Sans JP,Noto Sans JP_MSFontService,sans-serif" font-weight="400" font-size="41" transform="matrix(1 0 0 1 1925.09 1015)"> </text><rect x="1709.5" y="1226.5" width="698" height="273" stroke="#000000" stroke-width="4.58333" stroke-linecap="round" stroke-linejoin="round" stroke-miterlimit="10" fill="#FFFFFF"/><text font-family="Noto Sans JP,Noto Sans JP_MSFontService,sans-serif" font-weight="400" font-size="41" transform="matrix(1 0 0 1 1938.23 1266)">Glyph Buffer</text><text font-family="Noto Sans JP,Noto Sans JP_MSFontService,sans-serif" font-weight="400" font-size="41" transform="matrix(1 0 0 1 2177.71 1266)"> </text><rect x="2012.5" y="1429.5" width="22" height="32" stroke="#000000" stroke-width="4.58333" stroke-linecap="round" stroke-linejoin="round" stroke-miterlimit="10"/><rect x="2023.5" y="1397.5" width="96.9999" height="32.0004" stroke="#000000" stroke-width="4.58333" stroke-linecap="round" stroke-linejoin="round" stroke-miterlimit="10"/><rect x="2034.5" y="1364.5" width="20.9999" height="33" stroke="#000000" stroke-width="4.58333" stroke-linecap="round" stroke-linejoin="round" stroke-miterlimit="10"/><rect x="2044.5" y="1332.5" width="21.9999" height="32" stroke="#000000" stroke-width="4.58333" stroke-linecap="round" stroke-linejoin="round" stroke-miterlimit="10"/><rect x="2055.5" y="1300.5" width="32" height="32" stroke="#000000" stroke-width="4.58333" stroke-linecap="round" stroke-linejoin="round" stroke-miterlimit="10"/><rect x="2076.5" y="1332.5" width="22" height="32" stroke="#000000" stroke-width="4.58333" stroke-linecap="round" stroke-linejoin="round" stroke-miterlimit="10"/><rect x="2087.5" y="1364.5" width="22" height="33" stroke="#000000" stroke-width="4.58333" stroke-linecap="round" stroke-linejoin="round" stroke-miterlimit="10"/><rect x="2109.5" y="1429.5" width="21" height="32" stroke="#000000" stroke-width="4.58333" stroke-linecap="round" stroke-linejoin="round" stroke-miterlimit="10"/><path d="M1489.5 934 1612.5 934 1612.5 915.5 1649.5 952.5 1612.5 989.5 1612.5 971 1489.5 971Z" stroke="#000000" stroke-width="4.58333" stroke-linecap="round" stroke-miterlimit="8" fill="#FFFFFF" fill-rule="evenodd"/><path d="M1843.25 1046.5 1843.25 1190 1861.5 1190 1825 1226.5 1788.5 1190 1806.75 1190 1806.75 1046.5Z" stroke="#000000" stroke-width="4.58333" stroke-linecap="round" stroke-miterlimit="8" fill="#FFFFFF" fill-rule="evenodd"/><path d="M1136.5 934 1267.5 934 1267.5 915.5 1304.5 952.5 1267.5 989.5 1267.5 971 1136.5 971Z" stroke="#000000" stroke-width="4.58333" stroke-linecap="round" stroke-miterlimit="8" fill="#FFFFFF" fill-rule="evenodd"/><rect x="793.5" y="853.5" width="343" height="194" stroke="#000000" stroke-width="4.58333" stroke-linecap="round" stroke-linejoin="round" stroke-miterlimit="10" fill="#FFFFFF"/><text font-family="Noto Sans JP,Noto Sans JP_MSFontService,sans-serif" font-weight="400" font-size="41" transform="matrix(1 0 0 1 861.098 940)">MameFont</text><text font-family="Noto Sans JP,Noto Sans JP_MSFontService,sans-serif" font-weight="400" font-size="41" transform="matrix(1 0 0 1 1067.92 940)"> </text><text font-family="Noto Sans JP,Noto Sans JP_MSFontService,sans-serif" font-weight="400" font-size="41" transform="matrix(1 0 0 1 817.556 989)">Blob Generator</text><text font-family="Noto Sans JP,Noto Sans JP_MSFontService,sans-serif" font-weight="400" font-size="41" transform="matrix(1 0 0 1 1111.46 989)"> </text><path d="M323.5 749.5 653.5 749.5 653.5 1085.19 588.193 1150.5 323.5 1150.5Z" fill="#FFFFFF" fill-rule="evenodd"/><path d="M588.193 1150.5 601.255 1098.25 653.5 1085.19Z" fill="#CDCDCD" fill-rule="evenodd"/><path d="M588.193 1150.5 601.255 1098.25 653.5 1085.19 588.193 1150.5 323.5 1150.5 323.5 749.5 653.5 749.5 653.5 1085.19" stroke="#000000" stroke-width="4.58333" stroke-linecap="round" stroke-linejoin="round" stroke-miterlimit="10" fill="none" fill-rule="evenodd"/><text font-family="Noto Sans JP,Noto Sans JP_MSFontService,sans-serif" font-weight="400" font-size="41" transform="matrix(1 0 0 1 362.087 789)">Original Font</text><text font-family="Noto Sans JP,Noto Sans JP_MSFontService,sans-serif" font-weight="400" font-size="41" transform="matrix(1 0 0 1 613.024 789)"> </text><rect x="392.5" y="1048.5" width="35.0001" height="52.9999" stroke="#000000" stroke-width="4.58333" stroke-linecap="round" stroke-linejoin="round" stroke-miterlimit="10"/><rect x="409.5" y="995.5" width="159" height="52.9999" stroke="#000000" stroke-width="4.58333" stroke-linecap="round" stroke-linejoin="round" stroke-miterlimit="10"/><rect x="427.5" y="943.5" width="34.9997" height="51.9999" stroke="#000000" stroke-width="4.58333" stroke-linecap="round" stroke-linejoin="round" stroke-miterlimit="10"/><rect x="444.5" y="890.5" width="35.0001" height="52.9999" stroke="#000000" stroke-width="4.58333" stroke-linecap="round" stroke-linejoin="round" stroke-miterlimit="10"/><rect x="462.5" y="838.5" width="52.0003" height="52.0002" stroke="#000000" stroke-width="4.58333" stroke-linecap="round" stroke-linejoin="round" stroke-miterlimit="10"/><rect x="497.5" y="890.5" width="34" height="52.9999" stroke="#000000" stroke-width="4.58333" stroke-linecap="round" stroke-linejoin="round" stroke-miterlimit="10"/><rect x="514.5" y="943.5" width="35.0001" height="51.9999" stroke="#000000" stroke-width="4.58333" stroke-linecap="round" stroke-linejoin="round" stroke-miterlimit="10"/><rect x="549.5" y="1048.5" width="34.9997" height="52.9999" stroke="#000000" stroke-width="4.58333" stroke-linecap="round" stroke-linejoin="round" stroke-miterlimit="10"/><path d="M651.5 934 753.5 934 753.5 915.5 790.5 952.5 753.5 989.5 753.5 971 651.5 971Z" stroke="#000000" stroke-width="4.58333" stroke-linecap="round" stroke-miterlimit="8" fill="#FFFFFF" fill-rule="evenodd"/><rect x="1649.5" y="445.5" width="844" height="147" stroke="#000000" stroke-width="4.58333" stroke-linecap="round" stroke-linejoin="round" stroke-miterlimit="10" fill="#FFFFFF"/><text font-family="Noto Sans JP,Noto Sans JP_MSFontService,sans-serif" font-weight="400" font-size="41" transform="matrix(1 0 0 1 1911.48 534)">User Application</text><text font-family="Noto Sans JP,Noto Sans JP_MSFontService,sans-serif" font-weight="400" font-size="41" transform="matrix(1 0 0 1 2230.6 534)"> </text><text font-family="Noto Sans JP,Noto Sans JP_MSFontService,sans-serif" font-weight="400" font-size="41" transform="matrix(1 0 0 1 1670.58 662)">API call</text><text font-family="Noto Sans JP,Noto Sans JP_MSFontService,sans-serif" font-weight="400" font-size="41" transform="matrix(1 0 0 1 1810.94 662)"> </text><text font-family="Noto Sans JP,Noto Sans JP_MSFontService,sans-serif" font-weight="400" font-size="41" transform="matrix(1 0 0 1 1568.6 711)">(</text><text font-family="Noto Sans JP,Noto Sans JP_MSFontService,sans-serif" font-weight="400" font-size="41" transform="matrix(1 0 0 1 1582.35 711)">drawString</text><text font-family="Noto Sans JP,Noto Sans JP_MSFontService,sans-serif" font-weight="400" font-size="41" transform="matrix(1 0 0 1 1797.19 711)">)</text><text font-family="Noto Sans JP,Noto Sans JP_MSFontService,sans-serif" font-weight="400" font-size="41" transform="matrix(1 0 0 1 1810.94 711)"> </text><text font-family="Noto Sans JP,Noto Sans JP_MSFontService,sans-serif" font-weight="400" font-size="41" transform="matrix(1 0 0 1 1242.61 1093)">Mame</text><text font-family="Noto Sans JP,Noto Sans JP_MSFontService,sans-serif" font-weight="400" font-size="41" transform="matrix(1 0 0 1 1360.63 1093)">Font</text><text font-family="Noto Sans JP,Noto Sans JP_MSFontService,sans-serif" font-weight="400" font-size="41" transform="matrix(1 0 0 1 1449.43 1093)"> </text><text font-family="Noto Sans JP,Noto Sans JP_MSFontService,sans-serif" font-weight="400" font-size="41" transform="matrix(1 0 0 1 1458.6 1093)">Blob</text><text font-family="Noto Sans JP,Noto Sans JP_MSFontService,sans-serif" font-weight="400" font-size="41" transform="matrix(1 0 0 1 1547.4 1093)"> </text><text font-family="Noto Sans JP,Noto Sans JP_MSFontService,sans-serif" font-weight="400" font-size="41" transform="matrix(1 0 0 1 1281.84 1142)">(Byte Array)</text><text font-family="Noto Sans JP,Noto Sans JP_MSFontService,sans-serif" font-weight="400" font-size="41" transform="matrix(1 0 0 1 1508.15 1142)"> </text><path d="M1129.42 395.208 1661.08 395.209C1662.35 395.209 1663.37 396.235 1663.37 397.5 1663.37 398.766 1662.35 399.792 1661.08 399.792L1129.42 399.792C1128.15 399.792 1127.13 398.766 1127.13 397.5 1127.13 396.234 1128.15 395.208 1129.42 395.208ZM1134 411.25 1106.5 397.5 1134 383.75ZM1656.5 383.75 1684 397.5 1656.5 411.25Z"/><text font-family="Noto Sans JP,Noto Sans JP_MSFontService,sans-serif" font-weight="400" font-size="41" transform="matrix(1 0 0 1 1065.01 359)">Development</text><text font-family="Noto Sans JP,Noto Sans JP_MSFontService,sans-serif" font-weight="400" font-size="41" transform="matrix(1 0 0 1 1325.11 359)"> </text><text font-family="Noto Sans JP,Noto Sans JP_MSFontService,sans-serif" font-weight="400" font-size="41" transform="matrix(1 0 0 1 1469.83 359)">Run Time</text><text font-family="Noto Sans JP,Noto Sans JP_MSFontService,sans-serif" font-weight="400" font-size="41" transform="matrix(1 0 0 1 1653.16 359)"> </text><rect x="2119.5" y="852.5" width="375" height="194" stroke="#000000" stroke-width="4.58333" stroke-linecap="round" stroke-linejoin="round" stroke-miterlimit="10" fill="#FFFFFF"/><text font-family="Noto Sans JP,Noto Sans JP_MSFontService,sans-serif" font-weight="400" font-size="41" transform="matrix(1 0 0 1 2140.98 940)">Existing Graphics</text><text font-family="Noto Sans JP,Noto Sans JP_MSFontService,sans-serif" font-weight="400" font-size="41" transform="matrix(1 0 0 1 2472.7 940)"> </text><text font-family="Noto Sans JP,Noto Sans JP_MSFontService,sans-serif" font-weight="400" font-size="41" transform="matrix(1 0 0 1 2171.92 989)">Library/Driver</text><text font-family="Noto Sans JP,Noto Sans JP_MSFontService,sans-serif" font-weight="400" font-size="41" transform="matrix(1 0 0 1 2441.77 989)"> </text><rect x="1304.5" y="887.976" width="149.524" height="154.524" fill="#FFFFFF"/><path d="M1454.02 887.976 1484.5 857.5 1484.5 1012.02 1454.02 1042.5Z" fill="#CDCDCD" fill-rule="evenodd"/><path d="M1304.5 887.976 1334.98 857.5 1484.5 857.5 1454.02 887.976Z" fill="#FFFFFF" fill-rule="evenodd"/><path d="M1304.5 887.976 1334.98 857.5 1484.5 857.5 1484.5 1012.02 1454.02 1042.5 1304.5 1042.5ZM1304.5 887.976 1454.02 887.976 1484.5 857.5M1454.02 887.976 1454.02 1042.5" stroke="#000000" stroke-width="4.58333" stroke-linecap="round" stroke-miterlimit="8" fill="none" fill-rule="evenodd"/><path d="M1827.79 591.5 1827.79 827.364C1827.79 828.63 1826.77 829.656 1825.5 829.656 1824.23 829.656 1823.21 828.63 1823.21 827.364L1823.21 591.5C1823.21 590.234 1824.23 589.208 1825.5 589.208 1826.77 589.208 1827.79 590.234 1827.79 591.5ZM1839.25 822.781 1825.5 850.281 1811.75 822.781Z"/><path d="M2312.79 591.5 2312.79 827.364C2312.79 828.63 2311.77 829.656 2310.5 829.656 2309.23 829.656 2308.21 828.63 2308.21 827.364L2308.21 591.5C2308.21 590.234 2309.23 589.208 2310.5 589.208 2311.77 589.208 2312.79 590.234 2312.79 591.5ZM2324.25 822.781 2310.5 850.281 2296.75 822.781Z"/><text font-family="Noto Sans JP,Noto Sans JP_MSFontService,sans-serif" font-weight="400" font-size="41" transform="matrix(1 0 0 1 2327.1 661)">API call</text><text font-family="Noto Sans JP,Noto Sans JP_MSFontService,sans-serif" font-weight="400" font-size="41" transform="matrix(1 0 0 1 2467.46 661)"> </text><text font-family="Noto Sans JP,Noto Sans JP_MSFontService,sans-serif" font-weight="400" font-size="41" transform="matrix(1 0 0 1 2327.1 710)">(such as “</text><text font-family="Noto Sans JP,Noto Sans JP_MSFontService,sans-serif" font-weight="400" font-size="41" transform="matrix(1 0 0 1 2512.72 710)">drawBitmap</text><text font-family="Noto Sans JP,Noto Sans JP_MSFontService,sans-serif" font-weight="400" font-size="41" transform="matrix(1 0 0 1 2752.78 710)">”)</text><text font-family="Noto Sans JP,Noto Sans JP_MSFontService,sans-serif" font-weight="400" font-size="41" transform="matrix(1 0 0 1 2786.01 710)"> </text><path d="M2290.75 1226.5 2290.75 1083 2272.5 1083 2309 1046.5 2345.5 1083 2327.25 1083 2327.25 1226.5Z" stroke="#000000" stroke-width="4.58333" stroke-linecap="round" stroke-miterlimit="8" fill="#FFFFFF" fill-rule="evenodd"/><path d="M2493.5 934 2620.5 934 2620.5 915.5 2657.5 952.5 2620.5 989.5 2620.5 971 2493.5 971Z" stroke="#000000" stroke-width="4.58333" stroke-linecap="round" stroke-miterlimit="8" fill="#FFFFFF" fill-rule="evenodd"/><rect x="2661.5" y="834.5" width="393" height="244" stroke="#000000" stroke-width="4.58333" stroke-linecap="round" stroke-linejoin="round" stroke-miterlimit="10" fill="#FFFFFF"/><text font-family="Noto Sans JP,Noto Sans JP_MSFontService,sans-serif" font-weight="400" font-size="41" transform="matrix(1 0 0 1 2717.34 922)">Display Device</text><text font-family="Noto Sans JP,Noto Sans JP_MSFontService,sans-serif" font-weight="400" font-size="41" transform="matrix(1 0 0 1 2997.5 922)"> </text><text font-family="Noto Sans JP,Noto Sans JP_MSFontService,sans-serif" font-weight="400" font-size="41" transform="matrix(1 0 0 1 2732.24 971)">Frame Buffer</text><text font-family="Noto Sans JP,Noto Sans JP_MSFontService,sans-serif" font-weight="400" font-size="41" transform="matrix(1 0 0 1 2982.6 971)"> </text><text font-family="Noto Sans JP,Noto Sans JP_MSFontService,sans-serif" font-weight="400" font-size="41" transform="matrix(1 0 0 1 2821.91 1021)">etc.</text><text font-family="Noto Sans JP,Noto Sans JP_MSFontService,sans-serif" font-weight="400" font-size="41" transform="matrix(1 0 0 1 2892.95 1021)"> </text><path d="M1397.5 1168.5 1397.5 1580.62" stroke="#000000" stroke-width="4.58333" stroke-linecap="round" stroke-linejoin="round" stroke-miterlimit="10" fill="none" fill-rule="evenodd"/><text fill="#0070C0" font-family="Noto Sans JP,Noto Sans JP_MSFontService,sans-serif" font-weight="700" font-size="55" transform="matrix(1 0 0 1 709.276 712)">scope of this repository</text><text fill="#0070C0" font-family="Noto Sans JP,Noto Sans JP_MSFontService,sans-serif" font-weight="700" font-size="55" transform="matrix(1 0 0 1 1340.63 712)"> </text></g></svg>